<svg xmlns="http://www.w3.org/2000/svg" viewBox="0 0 1534.991 1656.753"><path d="M1140.875 1287.843c-26.336-30.117-46.366-42.559-58.698-65.963-11.029-20.929-6.458-35.92-5.591-59.607.404-11.049 46.681-46.579 55.563-53.169 17.592-13.052 29.469-37.666 22.476-57.751-7.826-22.48-49.931-26.195-72.907-22.518-10.042 1.607-1.974-1.291-14.19-31.391-.528-1.301-1.067-2.625-.392-4.523 10.409.167 31.584 5.851 50.228-11.598 16.063-15.034 35.2-130.589 132.922-137.346 50.057-3.461 92.682 17.253 102.109 66.075.729 3.776 2.454 4.979 5.542 6.129 46.129 17.181 78.548 53.719 88.183 108.174 3.354 18.957-5.104 120.637 41.838 138.961 7.208 2.814 13.823.92 16.993-4.341 1.277-2.118.28-4.692 1.87-6.643 4.905 9.899-.152 20.699-11.017 23.631-23.245 6.274-35.837-6.495-47.14-26.185-.273 9.471 2.001 18.201 6.588 26.248 4.942 8.673 13.46 11.95 24.11 13.567-16.801 7.286-33.403 4.663-44.045-12.342-2.083-.229-2.785 1.491-3.727 2.758-44.586 59.969-40.511 39.411-52.858 70.319-3.962 9.919-6.895 20.073-6.608 30.921.291 10.98 4.325 15.462 15.177 16.551 14.547 1.459 22.785-6.972 19.953-18.185-1.509-5.976-1.284-4.356-1.129-5.952 11.457-3.133 28.526 29.563 6.211 47.258-14.446 11.454-34.585 14.771-45.11-.743-6.094-8.983-16.036-27.541-16.036-27.541-15.511 40.775 37.532 75.15 63.805 59.707 15.044-8.844 1.757-20.183 12.281-24.559 9.622-4.001 11.92 8.676 14.848 11.594 13.56-5.02 19.084-21.168 8.416-36.515-2.167-3.118-10.861-4.516-14.845-7.913 15.565-19.447 52.115 9.448 30.673 57.794-11.064 24.946-33.833 38.077-49.998 41.734-15.38 3.481-7.384 13.536-26.476 18.069-38.539 9.15-74.589-4.693-92.454-43.898-20.535-45.064-12.744-102.602-13.513-114.405-4.379 1.283-44.638 78.504 15.483 161.837 5.396 7.48 11.529 14.361 17.523 21.361 19.648 22.948 21.663 58.043.996 80.987-20.456 22.709-46.684 42.437-32.529 67.176-21.253 2.046-39.366-1.251-54.616-23.312-9.288-13.436-14.252-28.495-16.49-44.542-.746-5.351-.712-5.378-5.961-5.778-22.822-1.738-9.058 7.072-31.591-130.631-11.193-68.402-6.016-84.117-26.399-88.862 13.062 9.093 11.801 21.057 17.133 60.391 25.611 188.944 18.736 140.715 28.129 173.353 3.665 12.736 4.753 15.06-.77 24.091-2.455 4.014-13.279 16.052-1.494 30.115 11.605 13.848 2.813 43.478-8.613 45.493-6.207 1.094-12.292 3.7-18.799 1.743-1.999-.601-19.728 4.12-52.219-8.36-2.596-.997-3.23-2.449-3.076-4.748 3.65-54.541 15.37-12.51 31.758-84.234 1.838-8.042-1.923-3.995-3.91-26.71-3.235-36.985-1.039-60.313-6.376-83.311-6.836-29.462-25.964-85.608-52.283-100.539-31.502-17.871-77.555-44.691-98.341-74.023-1.324-1.869-3.124-2.782-5.051-3.702-78.33-37.413-93.674-83.911-106.246-102.071-66.69-96.327-88.888-33.075-253.814-131.807C524.576 953.21 422.11 856.453 421.11 855.771c-20.992-14.309-20.199-26.513-34.393-23.776-20.572 3.967-37.086 5.306-47.932-12.964-21.922-36.929-32.434-164.977-44.589-180.547-7.849-10.054-10.824-5.981-111.026 30.829-15.428 5.668-17.284-.465-21.978 17.499-4.105 15.712-21.337 22.468-24.923 22.855-9.749 1.053-12.304 6.781-25.109 27.594-5.482 8.911-48.123 26.238-82.261 15.019-2.665-.876-3.17-2.207-2.055-4.75 9.874-22.524 20.748-45.211 33.266-50.556 56.293-24.039 35.757-37.36 62.71-46.071 90.861-29.365 163.489-86.911 203.54-80.367 15.45 2.525 25.115 13.883 26.283 27.199 1.608 18.326 12.989 40.655 16.14 41.026 12.403-21.732 18.701-32.026 18.701-32.026 14.755-26.816 48.326-23.033 53.381-32.791 22.127-42.713 23.724-46.262 44.882-67.473 44.888-45.001 107.484-91.689 116.366-95.899 6.185-2.931 8.133-8.093 9.745-14.692 2.751-11.264 2.758-11.329-8.187-13.839-16.094-3.69-29.979-11.461-41.758-22.889-9.022-8.754-15.298 3.694-53.131-9.707-29.654-10.504-73.938 22.506-79.816-14.861-2.644-16.808-14.171-16.123-5.891-35.74 1.997-4.731 4.589-9.071 5.462-14.411 1.726-10.557 1.635-10.033 137.035-35.753 15.246-2.896 5.789-9.115 35.13-22.194 3.171-1.413 4.03-3.105 2.726-5.874-2.959-6.282-.207-12.454.103-18.664.04-.809.695-1.82 1.372-2.327 10.927-8.174-.542-15.196 14.984-22.868 5.504-2.72 6.353-4.864 4.468-10.76-1.955-6.114-30.327-135.991-24.364-137.545 8.259-2.152 58.028 141.718 70.282 169.066 4.306-14.481 15.255-19.052 27.78-20.977 10.174-1.564 17.184 4.196 24.623 11.747-24.255 0-36.717-3.722-36.717 27.354 14.734-2.187 28.684-5.335 47.659.43 7.661 2.328 19.285 15.225 22.672 23.061 2.841 6.573 6.004 6.703 13.076 4.143 24.683-8.932 22.138-5.064 27.886-4.525-6.176 10.104-14.317 17.415-24.88 23.036 41.781 8.746 45.251 10.211 44.551 15.816-.664 5.317-7.827 2.191-10.973 6.647 7.39 8.539 31.918 23.037 44.527 21.469 14.203-1.766 28.7-2.347 41.526-9.772 10.885-6.301 17.276-17.716 14.826-28.776-.661-2.983-.466-6.06-1.606-9.025-1.944-5.056 6.603-3.531 7.719.609 3.37 12.504 8.939 24.622-8.977 45.522-4.147 4.838-20.659 9.886-26.487 9.428-.521 3.054 7.073 8.77 8.209 14.027 1.512 6.995 6.235 8.603 12.105 10.263 28.89 8.169 53.183 25.251 60.934 54.584 6.281 23.769 4.285 33.997-5.638 39.158-1.876-1.913-.084-3.33.4-4.595 13.329-34.837-21.296-52.894-64.455-69.789-3.097 5.002 15.377 110.646 105.702 124.009 48.682 7.202 60.006-40.961 60.916-41.989 4.963 12.096 1.408 38.32-24.345 48.978-28.561 11.821-74.405-4.281-86.615-7.192-.473.128-.565-.248-.205-.276.932-.074-.195-.571.131.318 57.365 57.108 53.517 67.558 64.026 131.311 3.208 19.459 22.363 22.666 31.837 59.079 5.091 19.565-22.361 40.019-29.59 20.303 2.148-1.971 8.937 6.863 12.176-3.335 4.657-14.658-6.722-28.763-19.346-37.659-22.051-15.54-20.902-24.027-26.507-16.293-7.646 10.549-19.97 5.669-29.49 4.408-1.454-.193-3.534-1.043-4.214 1.177-.588 1.919.485 1.54 11.195 10.109 13.241 10.594 12.73 33.382 5.134 44.141-12.374 17.526-39.023 13.929-50.356-4.097-12.011-19.104-8.941-15.225-25.365-15.225 3.346 18.103 5.072 24.888-3.07 28.343-4.569 1.939-5.715.45-13.443-3.861l.181.098c-3.989-6.024-3.355-20.265-14.208-31.141-14.238-14.267-23.883-10.319-31.487 3.754-12.421 22.986-17.413 72.362-.762 92.173 11.326 13.476 25.128 22.269 42.315 26.911 23.788 6.425 46.595-18.544 61.248-15.759 9.046 1.719-.418 15.716-8.971 21.64-41.773 28.932-95.112 16.68-111.312-17.185-3.249-6.792-9.399-11.511-13.772-17.868-7.554 11.165 28.469 76.164 67.638 95.31 20.029 9.79 40.986 7.034 62.987 8.783 45.782 3.64 107.651 57.029 125.846 98.02 3.822 8.612 40.557 62.071 25.882 183.467-6.548 54.167-8.552 70.385 36.767 112.604 21.452 19.984 21.825 25.818 30.58 27.828.743 1.214 1.889 1.261 3.115 1.073-.041 1.577 1.477 1.372 2.295 1.969.546-.335 1.253 1.309 1.668-.176l-1.827.322c.341-1.917-.981-1.926-2.268-1.976-.361-1.389-1.516-1.473-2.644-1.602z"/><path d="M658.796 1528.037c-6.462-5.769 4.407-6.886 24.554-34.344 13.344-18.185 18.356-23.24 28.564-25.417 10.553-2.25 47.239-20.704 61.651-41.591 10.31-14.942 22.203-28.631 32.868-43.259 37.507-51.444 48.516-66.535 41.356-85.795-23.565-63.385-66.865-32.763-114.691-116.898-19.578-34.441-20.284-71.954-10.249-110.434 1.111-4.261 2.173-5.013 5.872-3.703 66.165 23.419 87.135 8.384 133.565 70.151 6.478 8.619.056 8.788-.447 30.705-.164 7.151.821 13.923 4.686 20.374 40.218 67.126 54.778 84.442 67.563 91.831 9.738 5.629 14.295 20.825-5.076 39.537-142.452 137.604-101.38 116.328-123.054 149.143-9.437 14.287-20.614 13.059-30.554 18.521-12.621 6.935-7.385 16.268-16.631 25.606-5.062 5.112-10.362 17.022-21.932 20.792-4.691 1.529-9.439 2.862-13.922 4.983-9.259 4.381-56.629-3.512-64.123-10.202zM326.636 803.78c-12.515-1.029-145.538-3.1-158.957-6.041-14.989-3.285-20.038 19.703-27.993 17.22-4.091-1.277-4.837 1.389-5.758 4.079-30.996 90.535-26.645 87.233-13.502 110.298 3.757 6.594 5.165 13.608 4.354 21.151-.97 9.02 8.276 24.069 16.886 26.313 33.291 8.677 34.892 51.289 26.605 77.969-4.542 14.623-23.677 19.578-35.003 8.049-11.067-11.267-7.212-16.933-13.082-20.39-5.458-3.215-7.981-8.597-9.118-14.563-4.338-22.769-16.641-40.778-33.26-56.268-8.811-8.212-17.922-5.011-18.014-18.373-.153-22.137 17.426-37.541 13.44-100.257-2.88-45.313-1.583-59.934 13.424-72.026 37.222-29.991 50.345-30.787 74.675-33.397 37.141-3.984 98.143-17.051 130.294-23.491 21.501-4.307 14.954-8.379 22.354 27.208 3.458 16.628 7.161 33.178 12.472 49.333.209.644.092 1.393.183 3.186zM1131.852 1484.337c-17.24-16.705-14.006-26.506-21.583-26.048-36.082 2.177-59.724-62.803-63.979-104.131-2.813-27.322.09-9.038.09-33.741-7.516 6.741-17.43 35.792-16.135 55.679.438 6.733 2.933 12.816 5.63 18.856.851 1.907 2.555 3.437 2.639 5.736-5.486 4.689-55.279-20.939-34.844-117.708.376-1.782.347-3.818 2.237-5.643 2.655.221 4.725 2.199 6.871 3.844 16.814 12.885 57.653 37.903 65.265 41.833 41.035 21.185 64.911 146.621 53.809 161.323zM867.609 699.599c.11.128.335.342.313.372-.31.418-.359.321-.118-.266-.014-.009-.195-.106-.195-.106z"/></svg>