<svg xmlns="http://www.w3.org/2000/svg" viewBox="-6.712 -85.69 1260.77 1161.38"><path d="M1206.759-42.471c-2.962 2.634-5.933 5.255-8.884 7.902-2.455 2.202-4.931 4.385-7.317 6.666-2.41 2.303-4.856 4.58-7.097 7.058-.541.6-1.154 1.105-1.788 1.59-1.626 1.245-3.262 2.475-4.86 3.768-3.247 2.627-6.457 5.302-9.53 8.19-2.584 2.429-5.165 4.852-7.46 7.541-1.013 1.187-2.042 2.115-3.36 2.955-7.962 5.073-15.347 11.034-21.553 18.599-1.101 1.342-2.11 2.377-3.708 3.077-3.153 1.382-6.152 3.534-9.068 5.766-5.24 4.01-10.093 8.437-13.862 13.919-.219.318-.449.541-.799.666-2.93 1.044-5.786 2.55-8.62 4.403-6.286 4.112-11.878 8.97-16.166 15.326-.277.41-.566.67-1.019.821-2.938.988-5.837 2.242-8.746 4.023a61.2 61.2 0 00-8.061 5.86c.277-.35.543-.687.777-1.011 3.83-5.26 8.078-10.319 12.186-15.21.976-1.162 1.984-2.363 2.972-3.548 2.493-2.992 4.906-6.362 7.24-9.62.76-1.062 1.546-2.16 2.314-3.215l.547-.749c3.014-4.113 6.43-8.776 5.72-13.982l-.007-.045-.045.004c-7.26.7-13.19 4.972-18.926 9.104-1.6 1.152-3.253 2.344-4.895 3.424-7.249 4.771-13.744 10.688-20.025 16.41-2.213 2.015-4.502 4.1-6.8 6.116-.225.397-.762.696-1.249.696-.175 0-.415-.04-.568-.228-.136-.166-.172-.41-.107-.724.097-.47.467-.823.824-1.165l.023-.021c2.225-2.126 4.086-4.765 5.885-7.316a122.933 122.933 0 012.177-3.024c2.586-3.445 5.143-6.835 7.6-10.074a244.88 244.88 0 0010.065-14.307l.081-.123c3.08-4.73 6.266-9.62 7.415-15.311l.012-.057h-.058c-3.988.052-8.034 1.989-11.603 3.697-.413.198-.822.394-1.227.585-8.294 3.916-16.058 9.124-23.566 14.161-1.061.712-2.12 1.424-3.182 2.131l-1.586 1.079c-4.404 2.994-8.957 6.09-13.186 9.528a319.892 319.892 0 01-15.82 12.055 320.29 320.29 0 01-10.889 7.435c-1.15.75-2.412 1.451-3.75 2.194-2.467 1.37-5.017 2.786-6.865 4.56l-.052.05.067.027c.103.043.234.068.357.097-.229.043-.458.091-.709.144-2.612 2.455-5.691 4.37-8.669 6.223-2.138 1.33-4.35 2.706-6.377 4.274-11.55 8.7-20.997 16.257-29.56 24.86a535.883 535.883 0 00-26.538 28.696c-8.305 9.668-14.902 18.723-20.165 27.683-3.212 5.465-5.826 11.304-8.353 16.95-2.256 5.04-4.588 10.25-7.336 15.173-2.321 4.159-4.573 8.453-6.75 12.605-2.127 4.054-4.325 8.246-6.588 12.31-10.662 19.158-20.598 34.345-31.271 47.794-6.373 8.033-13.892 17.27-22.467 25.242-10.866 10.104-22.17 16.924-33.6 20.274-6.86 2.01-14.403 2.987-23.061 2.987-5.656 0-11.821-.41-19.4-1.29-37.643-4.374-73.908-15.256-107.788-32.343-4.27-2.153-8.816-4-13.213-5.786-2.34-.95-4.76-1.932-7.113-2.95-7.197-3.072-14.438-6.375-21.44-9.57-11.834-5.399-24.07-10.981-36.472-15.611-12.883-4.81-25.532-9.021-37.596-12.514-11.339-3.283-23.034-5.975-34.344-8.577-1.702-.391-3.402-.783-5.102-1.176-15.357-3.553-27.405-5.31-39.065-5.698a181.15 181.15 0 00-30.919 1.626 178.094 178.094 0 00-24.619 5.226c-4.64 1.336-8.675 2.663-12.334 4.057-1.273.484-2.534 1.098-3.776 1.743-1.1-.119-2.311-.556-3.403-.967-.549-.206-1.067-.402-1.496-.522-.507-.143-1.014-.282-1.521-.422-1.46-.401-2.967-.816-4.457-1.307a323.771 323.771 0 00-43.237-10.922 327.043 327.043 0 00-14.921-2.33c-4.34-.574-8.889-.864-13.52-.864-13.55 0-27.912 2.394-42.69 7.115-15.55 4.984-30.715 13.128-45.075 24.208-14.506 11.195-26.935 24.553-36.94 39.701-8.004 12.11-13.884 24.56-17.476 37.003-2.98 10.331-5.771 19.634-9.748 28.874-4.626 10.76-10.792 22.063-21.447 24.313-2.943.62-6.17.96-9.085.96a33.66 33.66 0 01-1.903-.051c-2.422-.141-5.873-.795-8.552-3.109-2.529-2.188-4.079-5.716-4.254-9.676-.266-5.744 2.382-11.614 6.912-15.32.076-.009.149-.026.226-.033 3.474-1.044 7.225-1.652 11.468-1.859l.01-.092a40.863 40.863 0 01-2.368-.674c-1.7-.522-3.306-1.014-5.09-1.014-.457 0-.916.033-1.364.1-4.185.62-8.063 1.693-11.525 3.19-3.235 1.398-6.18 3.198-8.755 5.349a34.232 34.232 0 00-6.302 6.957c-1.652 2.417-3.053 5.113-4.164 8.013a39.86 39.86 0 00-1.38 4.23c-1.441 5.544-1.968 10.393-1.612 14.826.432 5.37 2.182 10.812 5.06 15.74 3.017 5.163 6.926 9.272 11.62 12.212a37.66 37.66 0 006.357 3.182c1.952.757 4.094 1.347 6.946 1.911 4.61.912 9.407 1.355 14.665 1.355h.437c2.74-.014 6.153-.103 9.627-.533-.185.72-.387 1.452-.583 2.16-.207.75-.422 1.525-.617 2.29-1.03 3.699-1.635 6.683-1.9 9.39-.122 1.24-.313 2.496-.498 3.71-.26 1.698-.527 3.454-.613 5.213-.422 8.69 1.896 16.69 4.518 24.801l.39 1.209c1.89 5.857 3.845 11.915 6.473 17.48 2.635 5.579 5.621 11.902 8.754 17.99.775 1.508 1.57 3.037 2.34 4.517a620.797 620.797 0 014.46 8.69c4.505 8.902 3.255 19.345-3.344 27.935a39.562 39.562 0 01-6.104 6.341l-.514.427c-1.907 1.588-3.88 3.23-6.13 4.393-3.778 1.95-8.302 2.982-13.084 2.982a34.654 34.654 0 01-3.105-.14 36.149 36.149 0 01-3.63-.512c-5.372-.802-10.329-3.109-15.156-7.053-9.955-8.137-14.655-18.893-12.573-28.771.636-3.013 1.942-5.846 3.78-8.192 2.406-3.256 5.468-5.994 8.732-8.367a63.356 63.356 0 015.178-3.376c.644-.378 1.766-.73 2.271-1.247.59-.604.594-1.862.67-2.642.037-.372.072-.724.127-1.017l.01-.052-.053-.004-.65-.05c-.942-.073-1.916-.15-2.875-.15-1.502 0-2.708.189-3.793.593-8.457 2.757-15.01 9.013-19.777 14.16-4.135 3.79-7.562 8.667-11.11 15.813-3.718 7.489-3.245 16.712-2.566 23 .789 7.304 4.057 14.553 9.99 22.16 5.053 6.477 11.616 11.555 19.507 15.092 7.264 3.256 15.624 5.112 24.175 5.366a62.855 62.855 0 0020.398-2.774 61.86 61.86 0 009.58-3.857c1.177-.593 2.413-1.122 3.607-1.631 1.916-.819 3.897-1.664 5.695-2.805.267-.17.524-.348.788-.52-.28.51-.286.998-.28 1.581.002.229.005.465-.01.726-.171 2.944-.706 5.944-1.223 8.845l-.166.93c-.865 4.88-2.295 12.157-4.707 18.982-1.74 4.892-4.809 9.941-9.382 15.435a55.32 55.32 0 01-3.487 3.666c-9.843 9.406-23.614 15.266-37.78 16.078a56.83 56.83 0 01-3.218.093c-4.293 0-8.064-.513-11.526-1.571-7.947-2.42-15.065-8.06-20.044-15.88-1.835-2.884-3.335-5.974-4.52-9.179-1.17-3.169-1.914-6.699-2.642-10.028-.391-1.793-.607-3.663-.367-5.491.258-1.968 1.253-3.347 2.095-5.08.93-1.913 1.793-3.87 2.36-5.924l.032-.117-.102.064c-4.827 3.057-9.012 7.265-12.102 12.17-3.444 5.467-4.68 12.871-5.31 17.965l-.043.348-.003.03a72.617 72.617 0 00-.23 2.25c-.347 4.038-.134 8.114.072 12.056.2 3.826.15 7.52 1.07 11.278 1.08 4.414 3.19 8.255 5.33 12.212a80.908 80.908 0 0010.262 14.77c3.564 4.073 7.96 8.655 13.526 11.764.163.09.326.18.49.268 1.063.57 2.098 1.21 3.1 1.828 1.535.948 3.123 1.93 4.84 2.68 2.874 1.255 5.335 2.24 8.005 2.963a96.549 96.549 0 0018.547 3.116c2.248.156 4.533.235 6.789.235 10.413 0 20.63-1.632 30.368-4.85 1.781-.59 3.615-1.168 5.608-1.768 3.041-.917 5.914-2.34 8.691-3.715 2.846-1.408 5.789-2.863 8.907-3.772.743 1.802 1.393 3.674 1.993 5.438 2.066 5.952 3.256 12.308 3.537 18.89.078 1.807.02 3.638-.036 5.41-.038 1.233-.078 2.51-.072 3.763.025 5.175-3.08 10.735-7.554 13.522-2.41 1.5-5.15 2.263-8.145 2.263-2.407 0-4.977-.49-7.639-1.457-2.206-.801-4.107-1.848-5.651-3.113-4.198-3.441-6.001-8.81-4.489-13.36 1.156-3.475 4.19-6.322 7.731-7.256 1.561-.41 3.15-.466 4.5-.466.539 0 1.088.01 1.62.02.534.01 1.086.02 1.628.02.939 0 2.176-.026 3.419-.231l-.005-.03.053.025-.006-.08c-.407-5.534-7.336-6.132-10.295-6.132-.13 0-.257.001-.383.003-4.688.075-9.695 1.774-13.737 4.662-4.345 3.104-7.22 7.311-8.094 11.847-1.168 6.054-.18 12.464 2.64 17.15 2.829 4.693 6.613 8.639 11.248 11.723a44.262 44.262 0 008.888 4.545 35.578 35.578 0 0012.603 2.305c1.929 0 3.862-.16 5.745-.477 5.96-1.001 12.124-2.992 17.353-5.607a43.677 43.677 0 003.586-2.006c4.004-2.506 7.35-5.627 9.837-9.117 6.04-4.37 8.54-11.416 10.956-18.234.224-.63.446-1.26.671-1.885 5.096-16.571 6.7-35.402 4.901-57.573-.365-1.753-.677-3.56-.977-5.31-.812-4.721-1.651-9.603-3.662-14.01a86.064 86.064 0 00-.605-2.55 89.71 89.71 0 01-.572-2.405c6.53-13.228 13.214-29.005 13.297-45.737-.42-8.284-.428-17.326-.03-28.458-.05-9.525-1.475-19.103-2.855-28.367l-.064-.433c-.131-4.594-.919-9.176-1.68-13.608a256.94 256.94 0 01-.84-5.098c-1.136-7.51-2.353-15.135-3.53-22.508-.409-2.558-.818-5.117-1.223-7.676-.717-4.512-1.336-9.127-1.936-13.59-.71-5.28-1.443-10.741-2.34-16.057a287.541 287.541 0 01-3.699-60.828c.61-13.382 2.653-26.472 6.07-38.908 2.838-10.324 6.94-23.748 13.531-36.015l.016-.03c3.048-5.668 6.54-11.02 9.555-15.51a147.275 147.275 0 0111.43-14.87c7.826-8.936 17.76-15.807 28.73-19.87 1.927-.713 3.629-1.268 5.203-1.694 6.366-1.795 13.137-2.631 21.309-2.631 2.263 0 4.673.065 7.351.195-1.035 2.557-2.852 4.57-4.946 6.745-1.847 1.918-3.62 4.01-5.749 6.786a257.68 257.68 0 00-11.04 15.556 257.69 257.69 0 00-10.213 16.982 475.95 475.95 0 01-1.981 3.555c-2.217 3.95-4.51 8.034-6.364 12.288-4.4 10.1-7.53 21.682-9.298 34.422-1.505 10.837-1.698 21.486-1.698 29.554 0 14.642 2.353 30.388 6.994 46.8a235.497 235.497 0 0013.03 35.099c.625 1.345 1.239 2.723 1.832 4.055 1.278 2.868 2.598 5.833 4.114 8.65 1.025 1.906 2.297 3.693 3.527 5.42 1.43 2.007 2.907 4.083 4.01 6.362 4.448 9.197 1.426 19.043-1.757 27.55-3.229 8.63-7.726 19.85-13.893 30.112-1.527 2.542-3.3 5.037-5.016 7.45-1.254 1.762-2.549 3.584-3.745 5.42-3.718 5.702-6.893 10.226-9.993 14.234-1.91 2.47-3.932 4.923-5.887 7.294-3.001 3.642-6.105 7.408-8.877 11.324-5.395 7.624-8.597 14.644-9.788 21.463l-.013.073.072-.02c.148-.042.285-.063.427-.093-.207.131-.334.358-.468.828-.397 1.387-.5 3.062-.296 4.842.174 1.535.594 3.114 1.251 4.695.296.712.735 1.396 1.16 2.058.458.713.931 1.452 1.21 2.207.013.035.029.069.025.109 1.345 5.268 2.206 10.731 3.04 16.014l.025.159c.598 3.79 1.472 7.502 2.318 11.091.194.823.387 1.645.578 2.47 1.109 4.79 1.211 10.14 1.31 15.313.035 1.782.067 3.464.138 5.127a436.95 436.95 0 01.381 20.547c-.052 12.46-.589 25.76-1.64 40.664-1.024 14.537-2.426 28.976-3.662 41.183a1015.09 1015.09 0 00-1.13 12.162c-.326 3.66-.662 7.445-1.031 11.164-.86 8.683.135 15.003 3.13 19.893.355.578.743 1.143 1.119 1.691 1 1.455 2.032 2.96 2.455 4.767.525 2.24.263 4.646-.098 6.912-1.06 6.665.186 12.049 1.629 18.283.2.862.406 1.753.608 2.657 1.17 5.807 4.675 10.796 7.947 14.908 1.738 2.56 4.362 4.149 6.9 5.686 1.3.787 2.643 1.6 3.851 2.535 5.198 3.847 11.074 6.79 16.757 9.634 1.218.61 2.477 1.241 3.709 1.87 2.574 1.377 5.284 2.137 7.632 2.137 1.586 0 3.027-.336 4.293-1.006 3.736-3.712 2.463-8.905 1.34-13.487-.31-1.257-.6-2.446-.813-3.592-.003-.038-.008-.076-.01-.114-.506-3.373-1.452-6.7-2.368-9.918-.682-2.395-1.387-4.87-1.903-7.344-.954-4.99-3.372-9.923-7.188-14.66-.171-.228-.352-.453-.543-.69-.985-1.227-2.003-2.495-1.49-4.107.532-1.593 1.334-3.142 2.11-4.64 1.427-2.753 2.902-5.6 2.772-8.846a39.369 39.369 0 01.08-4.34c-.066-4.819-1.4-9.556-2.691-14.136-.466-1.651-.947-3.358-1.359-5.038.058-3.66-.467-7.338-.975-10.896-.524-3.673-1.067-7.47-.965-11.247.08-2.119-.066-4.266-.205-6.344-.213-3.15-.432-6.41.135-9.618.003-2.53.033-5.106.062-7.597.081-6.84.164-13.912-.312-20.84l.043-.754c.018-.307.037-.62.047-.828.007-.655.012-1.31.017-1.969.037-4.839.076-9.843.898-14.621.892-5.186 1.928-11.215 2.92-17.145 1.161-6.931 2.598-15.093 4.464-23.077 1.982-10.41 5.606-20.536 9.11-30.33 1.18-3.296 2.4-6.705 3.539-10.074 1.73-5.343 4.56-10.41 7.058-14.884 3.064-6.422 6.991-12.302 11.943-19.15a659.693 659.693 0 004.59-5.394c4.652-5.506 9.461-11.199 14.75-16.275 1.836-2.074 4.555-2.65 7.185-3.208l.654-.14.008.074c2.482 7.237 6.299 14.055 9.99 20.648 2.178 3.888 4.43 7.909 6.37 11.956 4.863 10.14 8.092 21.598 9.87 35.026.581 4.399 1.006 9.07 1.262 13.887.595 11.195.315 22.4-.051 33.849-.235 7.323-.491 15.127-.817 22.95-.028.678-.06 1.448.223 2.127.283.68.911 1.155 1.528 1.155.022 0 .045-.003.067-.004-.14.104-.272.211-.383.319-.58.562-.56 1.102-.532 1.786.013.319.027.68-.016 1.098-.307 2.982.155 6.154 1.373 9.429.614 1.653 1.576 3.291 2.506 4.875 1.683 2.867 3.424 5.833 3.299 9.146 2.63 2.954 4.851 6.296 7 9.529 1.043 1.57 2.122 3.195 3.236 4.757.28.407.563.813.846 1.22 1.49 2.138 3.03 4.35 4.14 6.774 1.155 2.431 2.432 4.861 3.667 7.21 2.673 5.085 5.436 10.342 7.132 15.954.463 1.366 1.171 2.645 1.857 3.882.751 1.356 1.528 2.757 1.981 4.275.78 2.912 1.968 5.723 3.117 8.442 1.239 2.935 2.52 5.968 3.293 9.139 1.342 4.917 2.935 9.847 4.475 14.613 2.201 6.817 4.478 13.865 6.056 20.989.242.715.476 1.428.723 2.184 2.328 7.096 4.966 15.139 12.368 18.376 5.7 1.755 10.874 4.859 15.88 7.86 1.116.668 2.27 1.36 3.402 2.02 4.998 4.65 11.218 10.438 12.735 18.334 1.53 7.796 4.04 15.257 6.291 21.523 1.965 7.869 7.003 14.53 13.834 18.284.957.244 1.96.379 2.93.509.418.056.85.114 1.274.18 8.054 4.996 15.533 7.636 22.87 8.072 3.848-.192 7.357-.285 10.728-.285 3.45 0 6.662.097 9.82.295h.03c2.588 0 4.995-.987 7.323-1.941.617-.253 1.255-.515 1.89-.755 3.122-1.733 1.724-5.201.972-6.622-4.446-5.054-7.322-11.163-10.104-17.073-1.47-3.12-2.988-6.347-4.719-9.376-.592-1.287-1.076-2.641-1.542-3.95-.694-1.944-1.41-3.954-2.497-5.777-2.304-3.864-5.23-6.559-8.946-8.237a161.742 161.742 0 00-4.243-1.582c-4.95-1.793-10.067-3.647-14.17-7.056-2.252-3.304-3.898-6.973-5.341-10.445-1.368-3.471-1.123-7.27-.907-10.623.077-6.78-4.126-11.914-8.191-16.878-1.761-2.152-3.583-4.377-5.008-6.69-15.37-20.577-26.363-44.386-35.953-67.048-.552-1.578-1.11-3.155-1.668-4.732-3.564-10.078-7.25-20.5-9.571-31.115-2.294-7.648-3.557-15.75-4.777-23.584-.22-1.405-.445-2.858-.673-4.28-1.817-11.325-1.939-21.239-.364-29.464 2.116-11.05 4.485-22.003 6.313-30.31.76-3.451 1.538-6.958 2.29-10.348.531-2.394 1.063-4.788 1.59-7.18.854-3.34 1.726-6.735 2.57-10.017 3.192-12.42 6.493-25.263 9.45-37.973 1.017-4.406 2.188-8.857 3.32-13.16 2.054-7.81 4.178-15.885 5.461-24.003.58-3.057 1.217-6.157 1.834-9.154 1.31-6.373 2.666-12.963 3.537-19.528.5-4.076 2.622-7.618 4.673-11.043.647-1.08 1.317-2.198 1.921-3.31 5.315-9.772 11.31-22.781 10.486-36.777a639.53 639.53 0 00-.282-3.222c-.226-2.528-.459-5.14-.608-7.718.816 1.195 1.64 2.417 2.439 3.601.38.566.763 1.133 1.146 1.7.555.802 1.109 1.608 1.664 2.413 5.786 8.406 11.77 17.098 19.283 24.264 11.96 10.742 26.51 19.743 44.48 27.516 13.565 7.25 27.898 13.478 41.76 19.5 3.347 1.455 6.807 2.958 10.204 4.454 5.35 2.166 10.921 3.984 16.308 5.744 4.14 1.351 8.42 2.749 12.576 4.297 7.352 2.283 14.973 4.037 22.34 5.733 4.219.97 8.579 1.975 12.846 3.068 4.678.665 9.351 1.76 13.87 2.82 5.32 1.246 10.823 2.536 16.363 3.13 1.608.173 3.216.44 4.77.699 1.86.31 3.784.629 5.72.789l29.057 2.393c1.897.158 3.795.315 5.691.47.363.029.75.032 1.045.032.167 0 .338 0 .51-.002.176-.001.352-.003.53-.003 1.3 0 2.772.073 3.76.942.887.75 1.7 1.568 2.593 2.481-.5 4.231-.438 8.565-.376 12.756.033 2.315.068 4.707.007 7.057-.061 6.813-.029 13.748.002 20.454.055 11.81.112 24.022-.341 36.01.511 5.313.418 10.753.329 16.013-.116 6.766-.235 13.762.93 20.554l.029 1.556c.093 5.005.19 10.182-.118 15.254-1.363 7.297-1.209 15.045.46 23.03.906 4.283 1.332 8.701 1.746 12.973.256 2.665.523 5.422.903 8.118.063 1.623.057 3.28.053 4.883-.013 3.731-.026 7.59.828 11.307.317 9.243.234 18.653.154 27.752-.054 6.067-.11 12.34-.045 18.5-1.276 4.279-1.137 8.803-1.002 13.179.035 1.136.071 2.31.082 3.459.089 1.991-.212 3.983-.502 5.91-.297 1.967-.604 4.002-.498 6.041.146 2.238-.17 4.474-.477 6.637-.199 1.4-.404 2.849-.483 4.29.11 3.874-.487 7.753-1.064 11.505-.633 4.112-1.287 8.364-1.016 12.619a955.632 955.632 0 01-1.703 11.98c-.942 6.44-1.917 13.099-2.654 19.664-.986 3.442-1.592 6.864-1.801 10.162-.705 2.87-1.345 5.81-1.962 8.652-1.047 4.812-2.128 9.789-3.567 14.585-1.172 4.228 1.813 7.43 4.447 10.254.505.54.981 1.052 1.433 1.571 2.978 3.203 5.205 7.542 6.807 13.265.025 1.97-.3 3.96-.616 5.885-.427 2.604-.867 5.296-.453 7.994.868 6.649 2.044 14.32 5.034 21.214 2.222 4.453 5.946 7.997 9.571 11.246.653.569 1.298 1.18 1.923 1.77 1.946 1.839 3.958 3.741 6.519 4.757 1.286.58 2.58 1.23 3.83 1.857 3.534 1.772 7.188 3.604 11.2 4.196 4.273 1.317 9.59 2.954 14.78 2.954 1.951 0 3.74-.221 5.467-.674 2.533-.402 4.71-2.083 5.97-4.611 1.325-2.657 1.357-5.673.087-8.07-.405-2.297-1.152-4.533-1.873-6.695-.12-.358-.24-.717-.358-1.075-1.077-3.125-1.681-6.417-2.265-9.602-.505-2.753-1.029-5.6-1.853-8.324-.967-4.108-2.782-8.116-5.55-12.254-2.17-3.245-4.914-6.552-8.632-10.407-2.504-2.599-1.623-6.33-.844-9.623l.158-.672.1-.434c.478-2.051.971-4.173 1.044-6.308.057-1.636-.147-3.134-.606-4.453a33.04 33.04 0 01-1.491-6.015c-.243-1.66-.703-3.336-1.148-4.956-.131-.479-.262-.955-.386-1.429-.182-.69-.366-1.378-.55-2.066-.839-3.152-1.708-6.41-2.347-9.664-.467-2.38-.856-4.96-1.223-8.124-.165-1.411-.307-2.8-.436-4.091-.038-.38-.049-.787-.059-1.18-.014-.596-.03-1.213-.14-1.771-1.178-7.1-1.423-14.09-.729-20.78.105-3.393-.012-6.794-.13-9.715-.523-9.084.797-18.187 2.074-26.99.158-1.088.315-2.175.47-3.263.263-1.854.464-3.396.632-4.852.341-2.969.59-5.996.828-8.923.168-2.053.341-4.175.546-6.259.26-2.656.73-5.336 1.185-7.926.322-1.84.655-3.74.913-5.623.333-2.439.644-4.924.945-7.328.83-6.618 1.688-13.461 3.095-20.1 1.537-7.256 3.574-13.423 6.227-18.852 4.426-8.658 9.443-18.471 13.412-28.574 3.2-8.146 4.425-17.128 3.745-27.459-.02-.306-.043-.614-.065-.922-.116-1.606-.235-3.267-.097-4.894.105-1.229.36-2.454.606-3.64.233-1.124.474-2.286.589-3.45.184-1.883.524-3.782.852-5.62.097-.542.195-1.084.287-1.627.5-2.91 1.002-5.871 1.487-8.735.364-2.146.727-4.292 1.093-6.438 1.921-11.254 3.615-20.708 5.64-30.272a419.9 419.9 0 01.845-3.912c1.956-10.634 5.05-21.174 8.04-31.366 1.365-4.646 2.775-9.451 4.06-14.2 2.415.29 4.693 1.296 6.707 2.188-.115 1.65.14 3.305.39 4.906.33 2.12.671 4.314.131 6.486-1.353 8.37-1.882 15.772-1.62 22.62-.536 3.228-.76 6.54-.976 9.74-.204 3.011-.414 6.123-.885 9.17.065 3.177-.508 6.343-1.063 9.405-.57 3.147-1.158 6.402-1.057 9.673.088 2.965-.454 5.915-.98 8.769-.367 2.003-.748 4.074-.91 6.14-.184 7.28-1.493 14.437-2.82 21.148-.481 7.934-1.025 15.075-2.82 22.128-.231 2.274-.457 4.589-.676 6.827-.734 7.53-1.494 15.316-2.603 22.933-.305 3.105-.245 6.284-.189 9.358.077 4.203.157 8.55-.692 12.76-.417 3.1-.356 6.279-.297 9.355.068 3.559.139 7.238-.532 10.816a480.608 480.608 0 00-.884 7.077c-.98 8.156-1.992 16.59-4.465 24.586-2.042 7.357-3.898 14.9-5.694 22.194-.913 3.712-1.859 7.55-2.817 11.318-.383 1.588-.92 3.168-1.438 4.696-.86 2.53-1.747 5.146-1.973 7.881-.325 4.857-1.779 9.85-4.719 16.202-.452 1.79-.938 3.61-1.408 5.37-1.516 5.68-3.085 11.551-3.802 17.474-.284 2.067.899 3.594 2.042 5.072.85 1.1 1.73 2.236 2.02 3.597 1.655 6.174 2.823 12.692.17 18.53l-.371.94c-2.588 6.543-5.264 13.308-4.04 20.404 1.307 3.802 2.966 7.477 4.262 10.254 3.836 8.291 11.271 14.11 18.035 18.708 4.625 3.411 9.674 6.569 15.263 6.569.48 0 .964-.024 1.44-.07l.004-.04.082.03c.417.154.83.31 1.23.464 1.793.685 3.488 1.332 5.49 1.545.348.037.697.055 1.067.055.807 0 1.588-.087 2.415-.18l.22-.024c.968-.107 2.772-.303 3.384-1.098 1.292-1.68 1.622-3.81 1.94-5.869l.025-.167c.494-3.192-.168-6.315-.808-9.336-.337-1.589-.686-3.232-.865-4.877-.557-5.09-.479-10.332-.363-14.847.022-.83.046-1.662.07-2.493.024-.846.048-1.692.07-2.548-.648-3.778-3.235-6.606-5.736-9.341-1.365-1.493-2.776-3.036-3.846-4.71-.92-3.737-.711-6.782.617-9.05.585-.996 1.312-1.857 2.017-2.689.964-1.14 1.961-2.318 2.57-3.84 1.782-4.468 1.901-10.478.335-16.914l.066-17.137.008-2.15-.092-.013-.21.702c.537-2.52.83-5.176 1.114-7.76.168-1.532.342-3.117.564-4.624.762-5.162 1.496-9.378 2.313-13.266.478-2.278.96-4.597 1.425-6.84 3.976-19.14 8.085-38.932 15.333-57.443 1.069-2.73 2.093-5.53 3.084-8.237 2.246-6.14 4.57-12.49 7.566-18.448 1.793-3.567 3.759-7.033 6.373-11.238 2.974-4.783 5.054-8.834 6.546-12.747 2.277-5.977 3.173-11.75 2.664-17.158-.139-1.47-.448-2.921-.748-4.324-.294-1.38-.599-2.806-.739-4.247a109.196 109.196 0 01-.515-9.9c-.08-12.47 2.623-24.708 5.236-36.544.76-3.444 1.547-7.006 2.254-10.522.616-2.324 1.225-4.695 1.814-6.987 2.489-9.7 5.064-19.73 8.945-29.159 2.13-5.942 4.577-11.875 6.944-17.611 3.058-7.407 6.218-15.068 8.724-22.823 1.427-2.782 3.73-4.948 5.956-7.043 2.031-1.911 4.132-3.888 5.582-6.334 2.974-4.794 5.8-9.502 7.691-14.388 1.672-4.32 2.359-9.298 2.16-15.666-.085-2.711-.313-5.464-.535-8.126-.36-4.314-.73-8.773-.494-13.163.493-9.168 3.545-17.804 6.628-25.864.926-2.42 2.515-4.533 4.052-6.576.719-.954 1.46-1.941 2.13-2.952 1.97-2.968 4.47-6.934 6.342-11.291 5.986-13.936 10.153-25.384 13.114-36.03 3.691-13.27 5.607-25.638 5.857-37.812.164-7.952-.44-15.975-1.072-23.51-.709-8.439-1.684-16.993-2.627-25.265-.581-5.102-1.183-10.378-1.715-15.572-.202-1.968-.39-3.892-.56-5.719-1.402-15.112-1.783-27.38-1.2-38.607.352-6.757 1.074-13.24 2.147-19.268.44-2.474 1.14-5 1.814-7.442.927-3.347 1.884-6.808 2.196-10.2.557-6.08 2.687-12.3 4.746-18.314.308-.902.614-1.794.91-2.673 6.47-17.024 12.593-30.67 19.268-42.945 3.819-.792 7.745-1.374 11.543-1.938 5.59-.83 11.373-1.687 16.945-3.231 3.535-1.589 6.897-2.394 9.994-2.394 1.297 0 2.578.14 3.814.418 6.22.334 12.446 1.42 18.467 2.47 4.237.74 8.619 1.504 12.962 2 3.132.173 6.365.738 9.613 1.679l1.716.403c4.017.94 8.17 1.913 12.166 3.247 8.2 1.41 14.29 3.114 19.748 5.527.997.445 1.952 1.023 2.877 1.582 1.42.858 2.887 1.746 4.541 2.178.74.57 1.496 1.16 2.227 1.731 6.184 4.833 12.578 9.83 20.462 11.243.407.034.821.052 1.231.052 7.128 0 12.707-5.067 15.395-8.084 5.582-5.262 9.536-12.793 11.75-22.38 1.936-5.553 2.063-9.774.4-13.284-3.389-7.731-9.737-13.475-15.878-19.03a415.03 415.03 0 01-2.635-2.397c-9.1-7.875-19.717-16.986-30.578-25.438-6.243-5.855-13.137-11.161-19.803-16.292-2.946-2.267-5.992-4.61-8.94-6.97-2.38-1.917-4.814-3.855-7.169-5.729-5.003-3.981-10.069-8.022-15.056-12.197 1.462-2.774 2.62-5.525 2.38-8.13-.027-.29.098-.467.441-.572 3.562-1.084 6.577-3.651 9.432-6.47 2.75-2.718 5.1-5.722 7.105-8.893 2.078-3.286 3.89-6.594 4.225-9.932.036-.367.244-.5.558-.656 2.936-1.457 5.551-3.634 8.011-5.996 2.533-2.432 4.788-5.114 6.826-7.919 2.528-3.476 4.857-6.998 6.074-10.751.15-.464.415-.79.88-1.089a31.344 31.344 0 002.25-1.585c3.564-2.767 6.705-5.997 9.603-9.446 3.454-4.112 6.66-8.344 8.998-12.92.204-.4.425-.777.816-1.084 3.35-2.633 6.395-5.6 9.303-8.761 3.9-4.241 7.535-8.63 10.771-13.262.962-1.377 1.94-2.658 3.267-3.817 2.558-2.235 4.924-4.687 7.25-7.184 2.938-3.152 5.741-6.398 8.554-9.639 1.745-2.01 3.287-4.204 5.157-6.08 5.289-5.302 10.414-10.74 15.44-16.269.76-.835 1.628-1.642 2.118-2.654-2.638 2.055-5.04 4.372-7.524 6.58zM280.004 905.393c.396.077.808.116 1.224.116 1.662 0 3.45-.633 4.47-2-.992 1.383-2.783 2.02-4.444 2.02-.41 0-.815-.039-1.207-.115-2.284-.37-4.46-1.11-6.564-2.024 2.09.903 4.251 1.635 6.521 2.003z"/></svg>