<?xml version="1.0" encoding="utf-8"?>
<!DOCTYPE svg PUBLIC "-//W3C//DTD SVG 1.1//EN" "http://www.w3.org/Graphics/SVG/1.1/DTD/svg11.dtd">
<svg xmlns="http://www.w3.org/2000/svg" xmlns:xlink="http://www.w3.org/1999/xlink" version="1.1" id="Layer_1" x="0px" y="0px" viewBox="0 0 2382.674 1644.544" enable-background="new 0 0 2382.674 1644.544" xml:space="preserve">
<path enable-background="new    " d="M838.842,52.073c-0.144,2.65-1.094,5.405,0,7.959c1.344-4.397,1.229-9.034,1.632-13.575  c0.432-4.656-0.653-9.351-2.429-13.633c-2.141,3.187-0.95,7.181-1.469,10.752c-0.566,3.85-1.363,7.671-2.141,11.492  c-0.72,3.677-2.746,6.989-3.014,10.772C836.423,62.874,835.012,55.721,838.842,52.073z"/>
<path enable-background="new    " d="M759.235,58.602c1.411-3.331,2.967-6.701,3.283-10.349c-1.19,0.797-2.122,1.891-2.602,3.245  c-1.296,3.178-3.12,6.26-3.293,9.764C757.603,60.512,758.803,59.859,759.235,58.602z"/>
<path enable-background="new    " d="M858.667,50c-2.794,1.296-2.765,4.791-3.648,7.325c-0.365,2.323-2.054,4.916-0.461,7.104  C857.64,60.31,858.197,54.963,858.667,50z"/>
<path enable-background="new    " d="M869.103,128.445c2.496-1.334,4.426-3.447,6.567-5.251c5.607-3.754,5.549-11.377,5.684-17.415  c-3.111,4.57-2.669,10.666-6.039,15.092c-2.362,2.323-5.165,4.147-7.546,6.452C868.104,127.6,868.767,128.166,869.103,128.445z"/>
<path enable-background="new    " d="M945.849,190.637c3.139-0.72,4.628-3.821,6.557-6.087c2.304-3.015,5.04-6.576,4.157-10.609  c-3.543,2.247-5.098,6.509-8.525,8.967c-2.189,3.13-6.058,4.512-8.151,7.604c3.264-0.134,5.693-2.679,8.64-3.811  C947.615,188.006,946.703,189.302,945.849,190.637z"/>
<path enable-background="new    " d="M946.54,229.893c2.218-0.816,4.387-1.795,6.509-2.87c0.029,0.864-0.163,3.13,1.44,2.016  c2.986-1.834,4.973-5.424,5.069-8.919c-3.427,1.229-5.597,4.445-8.967,5.808C948.988,226.917,946.339,227.512,946.54,229.893z"/>
<path enable-background="new    " d="M1014.521,316.479c1.402-0.182,2.88-0.432,4.119-1.219c4.013-2.583,8.871-3.514,12.461-6.787  c2.544-0.336,5.347-1.306,6.221-4.013c1.334-4.263,4.061-7.882,5.693-12.001c0.816-5.645,3.158-10.935,4.455-16.484  c-0.375-0.653-0.749-1.286-1.133-1.901c-2.4,5.539-3.754,11.434-5.568,17.175c-0.845,3.331-3.495,5.751-5.616,8.314  c-0.595-0.432-1.181-0.864-1.738-1.286c-2.275,2.871-3.783,6.317-6.336,8.948C1023.036,310.517,1017.324,311.737,1014.521,316.479z"/>
<path enable-background="new    " d="M315.243,384.575c-0.394-6.106-4.339-11.089-6.624-16.57c-1.258-2.381-1.632-5.511-4.157-6.96  c0.058,1.43,0.307,2.89,1.008,4.186c2.755,5.674,5.683,11.271,7.988,17.156C313.755,383.346,314.35,384.076,315.243,384.575z"/>
<path enable-background="new    " d="M1023.209,373.544c0.346-2.189-0.25-4.378-0.691-6.5c-2.4,1.872-2.851,5.223-5.251,7.104  c-1.872,2.218-4.906,2.602-7.104,4.33c3.149,0.375,6.154-0.739,9.092-1.69c-0.048,0.96-0.086,1.93-0.106,2.909  C1020.809,377.884,1022.365,375.887,1023.209,373.544z"/>
<path enable-background="new    " d="M1065.922,437.896c1.987-0.096,4.071,0.154,6.029-0.422c1.872-1.286,2.861-3.485,4.647-4.887  c2.266-1.805,4.877-3.312,6.432-5.856c-4.579,0.202-9.255,2.717-10.992,7.114C1071.01,436.331,1068.072,436.802,1065.922,437.896z"/>
<path enable-background="new    " d="M1071.768,444.108c1.094,0.077,2.045-0.25,2.88-0.97c-4.675-0.422-9.284-1.594-13.988-1.459  c-0.01-0.403-0.029-1.2-0.038-1.603c-2.227,0.413-4.435,0.854-6.644,1.296c-1.939,0.48-4.368,0.346-5.376,2.391  c3.447-0.154,6.922-1.334,10.369-0.47C1063.147,444.329,1067.487,444.127,1071.768,444.108z"/>
<path enable-background="new    " d="M1064.539,484.814c0.979-1.104,2.323-2.707,1.296-4.205c-2.918,0.778-5.53,2.467-8.535,2.967  c-4.099,0.97-8.333,0.787-12.51,0.941c4.003,1.277,8.237,1.43,12.404,1.68c-0.576,0.614-1.133,1.238-1.68,1.872  C1058.741,487.819,1061.861,486.609,1064.539,484.814z"/>
<path enable-background="new    " d="M1052.702,534.4c-2.515-2.611-6.135-4.042-9.649-4.618  C1044.618,533.449,1049.303,533.642,1052.702,534.4z"/>
<path enable-background="new    " d="M2313.404,1186.472c-2.141-2.285-4.435-4.435-6.979-6.231  c4.369-1.229,39.738,26.914,43.989,27.889c-2.938-3.754-7.383-5.904-10.474-9.505c1.555,0.634,3.12,1.277,4.723,1.939  c-1.997-3.667-3.936-7.402-7.776-9.456c-0.37-2.88-1.291-3.203-18.126-16.273l-0.49,0.202c-4.272-4.234-9.313-7.565-13.719-11.626  c0.999,0.029,2.026,0.086,3.082,0.153c4.964,4.292,10.628,7.767,16.148,11.329c-0.034,3.928,23.624,17.362,24.625,17.607  c1.104-0.566,0.768-1.814-0.25-2.198c-12.776-9.773-14.483-12.509-15.841-11.233c-6.317-4.714-12.231-9.956-18.606-14.554  c-0.451-1.094-0.778-2.102-1.171-3.149c0.595-0.115,1.767-0.355,2.362-0.48c0.335,0.319,23.828,16.436,23.828,16.436  c-7.748-6.01-15.726-11.693-23.492-17.674c0.057-0.586,0.163-1.766,0.221-2.362c3.629,1.44,6.979,4.426,11.127,3.936  c-1.075-2.083-3.111-3.322-4.848-4.743c1.882,0.653,3.792,1.248,5.77,1.728c-4.061-5.031-9.764-8.237-14.19-12.836  c0.413-0.23,1.258-0.691,1.671-0.912c-3.207-2.487-5.713-5.655-8.276-8.737c0.835-0.614,1.709-1.21,2.602-1.786  c-1.21-1.68-2.938-2.823-4.637-3.879c0.374-0.259,1.133-0.778,1.517-1.037c-3.763-2.352-7.191-5.789-11.213-7.316  c-1.011-0.75-30.177-22.278-33.323-21.908c-9.966-9.927-22.811-16.196-33.544-25.172l-0.557,1.133  c-3.6-4.748-15.916-11.435-16.916-11.818c0.432-0.019,1.296-0.077,1.728-0.106c10.215,6.058,20.027,12.75,30.03,19.163  c0.01,0.192,0.039,0.595,0.048,0.787c29.436,18.368,43.847,30.799,51.363,32.066c-4.524-4.078-57.937-42.815-62.643-44.037  c-2.289-1.994-30.128-21.127-31.134-21.774c0.307-0.48,0.922-1.431,1.229-1.911c2.755,1.527,5.098,3.85,8.218,4.704  c-1.157-2.343-15.203-11.773-16.205-12.452l-0.653,0.029c-3.946-2.563-7.873-5.127-11.713-7.815  c0.451-0.422,1.354-1.277,1.795-1.709c1.181,0.163,2.371,0.317,3.61,0.47c-1.97-1.954-49.547-33.652-51.583-33.842  c-8.708-6.624-18.279-11.972-27.237-18.222l-0.653,0.115c-5.271-4.724-12.461-7.085-16.753-12.874  c-3.888-2.794-8.007-6.173-12.865-6.74c-4.137-2.506-8.602-4.464-12.97-6.48c-1.124-2.65-13.283-7.237-19.306-4.205  c-5.06,0.202-9.831-1.584-14.622-2.861c-6.782-4.971,12.125,9.707-132.102-103.848c-20.875-17.016-19.299-20.778-28.974-33.486  c-79.165-96.542-257.601-105.919-273.546-96.206c-5.712,1.209-11.741,0.758-17.271,2.774c-17.119,6.084-16.701,8.674-28.705,6.029  c-2.216-2.405-10.831-18.639-47.013-46.12c-159.635-97.845-185.358-55.04-377.97-50.681c-3.514-5.107-11.434-3.763-14.669-8.823  c2.554,0.345,5.117,0.874,7.728,0.835c-3.13-1.69-6.096-3.859-9.648-4.493c15.705-6.336,35.483,2.111,43.864-10.032  c-0.374-0.134-1.114-0.403-1.488-0.538c-2.074,1.786-4.003,3.831-6.672,4.714c0.528-1.104,1.085-2.189,1.661-3.264  c-9.609,4.177-9.521,4.523-35.57,3.61c11.364-1.386,21.517-0.667,32.19-4.791c0.077-0.634,0.163-1.258,0.259-1.882  c2.429-0.125,4.858-0.259,7.287-0.566c-0.845-0.701-1.766-1.219-2.774-1.574c0.854-0.701,1.709-1.43,2.659-2.035  c1.075,0.211,2.102,0.653,3.158,1.037c1.219-0.816,2.64-1.085,4.099-1.152c1.162,2.659-0.211,5.511,0.345,8.276  c4.119,0.173,8.266,0.317,12.375-0.317c-3.744-0.432-7.498-0.154-11.232-0.336c0.394-2.141,0.816-4.272,1.277-6.384  c18.366-0.716,19.941-0.949,21.563-2.976c-1.004,0.052-18.473,0.911-21.812-0.173c1.277-3.197,5.597-1.738,8.333-2.573  c-2.343-0.25-4.695-0.442-7.028-0.25c0-0.432-0.01-1.306-0.019-1.738c1.171-0.797,2.391-1.622,3.101-2.89  c2.861-0.096,5.808-0.48,7.7-2.899c-3.619-1.133-6.816,1.709-10.445,1.344c1.709-3.082,5.549-3.245,8.573-4.147  c-1.93-0.23-3.84-0.547-5.722-0.922c2.006-0.528,4.522-0.269,5.837-2.208c-2.515-0.038-5.011,0.221-7.479,0.586  c-0.24-1.565-0.499-3.11-0.854-4.627c-0.307,1.843-0.519,3.706-0.672,5.578c-2.083,0.912-4.637,1.997-6.759,0.634  c-0.682-1.757-0.797-3.667-1.392-5.443c-1.325,0.355-2.621,0.72-3.917,1.085c-0.519-0.394-1.018-0.768-1.498-1.133  c-3.431,2.872-18.351-2.088-21.697-3.341c2.189-0.624,4.57-0.566,6.701-1.469c-0.893-0.422-1.757-0.835-2.621-1.229  c3.811-2.88,9.197-3.427,12.298-7.143c-7.853,0.394-13.316,8.372-21.543,7.306c-0.499-1.997-1.037-3.984-1.584-5.962  c-1.69,1.325-3.84,1.142-5.837,0.989c2.689-5.378,9.648-8.027,5.924-10.09c-3.072,2.218-5.693,4.992-8.189,7.834l0.048,0.634  c-1.44,1.238-3.437,2.842-4.906,0.691c-3.61,1.891-7.661,0.682-11.041-1.094c3.965-3.082,7.757-6.595,12.404-8.65  c-3.696-0.854-6.845,1.344-10.119,2.592c-0.317-2.871,0.624-6.106-0.912-8.688c-0.816,2.899-1.709,5.904-4.032,7.988  c-4.09,1.075-7.93-1.363-11.981,0c-5.683-1.498-12.01-1.44-17.051-4.752c4.061-0.95,8.228-0.874,12.365-0.528  c-2.794-1.805-6-2.707-9.092-3.792c-0.163-0.624-0.499-1.891-0.662-2.525c-0.576,0.557-1.133,1.123-1.68,1.699  c-1.075-0.173-2.131-0.336-3.168-0.499c-0.221-1.133-0.432-2.256-0.634-3.37c-0.816,0.643-1.594,1.325-2.381,1.987  c0.23-1.085,0.461-2.16,0.71-3.226c-1.699-0.144-2.63,1.209-3.638,2.285c0.365-1.68,0.605-3.936-1.767-4.042  c-0.134,1.392-0.701,3.475-2.362,3.533c-3.37-1.373-6.519-3.235-9.591-5.136c3.782,0.115,7.498,3.706,11.156,1.93  c-28.084-14.39-19.89-7.432-34.974-11.53c-0.23-1.334-0.461-2.631-0.739-3.927c6.083,2.126,18.827,4.131,20.199,4.099  c-2.765-3.667-37.322-9.655-42.146-9.898c-5.693-2.212-17.47-0.597-17.377-5.271c0,0,55.796,9.494,55.798,9.495  c0.553,1.474,14.581,9.002,15.582,9.543c3.207-1.594,6.394,0.154,9.476,1.142c-0.931,0.134-1.843,0.278-2.736,0.442  c0.787,0.97,1.574,1.939,2.391,2.919c1.027-1.066,1.987-2.189,2.88-3.37c0.835,0.394,1.69,0.778,2.563,1.181  c2.621-1.075,5.453-1.248,8.218-1.728l0.538-1.008c-3.418-0.182-6.845-0.134-10.253-0.269c-0.153-0.528-0.461-1.594-0.614-2.131  c-5.271,1.306-9.408-2.89-14.305-3.648c0.115,0.547,0.336,1.642,0.442,2.189c-34.981-14.265-55.761-14.303-66.416-16.244  c-1.325-1.238-2.842-3.072-4.877-2.371c-0.547-0.298-1.642-0.902-2.189-1.21c10.551,0.134,20.948,2.285,31.298,4.109  c2.945,2.907,20.247,4.536,25.095,5.923c2.16,0.883,3.994,2.65,6.5,2.467c-5-6.741-16.735-3.751-19.892-8.218  c4.562,1.674,6.236-0.963,17.55,4.147c-3.216-3.312-8.084-4.147-12.5-4.416c-2.918-0.058-5.53-1.574-8.41-1.776  c-2.628-4.968-6.313-0.974-14.401-7.805c0.432-0.154,1.286-0.47,1.719-0.624c18.518,6.918,19.541,7.906,23.588,7.162  c-1.795-2.113-23.724-8.659-41.733-15.937c0.73-0.25,2.199-0.73,2.928-0.97c-1.123-0.701-2.323-1.382-3.687-1.2  c-5.05-2.775-10.628-4.81-14.775-8.977c1.167,0.067,15.532,8.071,23.233,6.519c-4.877-2.602-10.417-3.37-15.524-5.338  c3.648-0.23,7.219,1.363,10.848,0.595c-5.92-4.211-8.262,0.599-21.246-7.258c8.803-0.477,49.977,7.006,50.978,7.219  c1.617,0.519,24.641,10.746,41.407,10.493c0,0-26.844-5.925-33.17-9.197c6.327,0.528,12.183,4.752,18.615,3.571  c-0.602-0.49-35.444-11.958-39.506-11.799c-3.293,0.077-6.72,0.269-9.706-1.373c1.002-0.023,16.098-0.013,19.172,1.402  c0.49-0.202,1.469-0.605,1.958-0.806c4.675,1.306,9.178,3.178,13.921,4.282c2.525,2.359,16.317,5.39,19.835,2.88  c-1.296-0.336-2.563-0.614-3.84-0.874c2.563,0.086,5.136-0.029,7.69-0.432c-0.326-0.422-0.979-1.267-1.306-1.69  c-4.915-1.152-10.186,0.346-14.996-1.526c0.643-0.259,1.92-0.778,2.563-1.037c-2.122-0.797-4.301-1.402-6.471-1.987  c2.064-1.843,5.165-1.123,7.709-1.738c-1.238-0.365-2.467-0.73-3.677-1.075c0.936-1,9.045-11.852,8.717-13.325  c-3.245,1.181-6.461,2.535-9.888,3.072c1.411-1.719,3.043-3.235,4.723-4.685c-3.427-0.95-6.922,2.083-5.463,5.607  c-1.728,0.672-3.456,2.208-5.405,1.43c0.634-0.97,1.315-1.91,1.997-2.851c-1.162-0.125-2.314-0.24-3.447-0.346  c-0.835-1.968-1.267-4.224-2.823-5.77c-0.269,3.034,1.469,5.645,1.968,8.544c-2.765-0.259-5.482-0.797-8.17-1.44  c-1.425-6.842-0.497-2.337-1.373-6.48c3.6-0.413,7.056-1.565,10.282-3.226c-6.778-2.875-17.382,3.443-21.188,2.333  c0.547-1.594,2.487-1.526,3.821-2.103c-1.248-0.614-2.477-1.229-3.687-1.853c13.67-7.1,33.305-2.822,42.223-6.653  c-1.351-0.712-29.838,0.197-30.798,0.326c-3.264,1.238-6.509,2.63-10.052,2.736c0.154-1.344,0.25-2.707,0.355-4.052  c8.578-2.259,8.36-0.336,33.63-2.112c8.584-0.43,19.975-7.967,21.044-8.122c4.09-0.71,8.756-0.441,11.837-3.754  c-7.431-0.261-5.29,1.318-17.233-0.298c5.209-5.21,6.606-15.126,10.244-15.822c0.288,1.152,0.509,2.333,0.662,3.533  c2.381-5.78,2.851-11.981,3.975-18.058c-4.531,2.842-1.997,9.159-5.482,12.615c-0.326-2.352-0.422-4.791-1.526-6.941  c-0.941,2.429-1.584,4.973-2.669,7.354c-0.807,1.671-2.688,2.621-3.274,4.426c-1.978,0.211-3.994,0.259-5.856-0.518  c1.056-2.65,4.09-3.322,5.751-5.453c-1.93-0.25-3.85-0.413-5.78-0.538c1.181-0.182,2.371-0.365,3.571-0.547  c0.403-0.519,1.219-1.546,1.623-2.064c-4.906-1.987-8.919,3.514-13.7,3.984c-2.535-2.707-6.384-2.083-9.716-2.246  c0.346-1.114,0.691-2.218,1.066-3.322c1.766-0.336,3.293,0.355,4.599,1.526c4.685-4.983,3.466-12.452,6.471-18.26  c0.518-1.91,2.698-3.927,1.229-5.866c-1.805,4.435-5.146,8.276-5.501,13.21c-0.73,3.101-1.603,8.41-5.991,7.22  c2.554-25.308,7.516-10.797,21.054-39.218c-5.928,3.089-7.461,16.246-18.241,19.979c0.019-4.023,1.613-8.026,0.557-12.03  c-0.806-3.226-1.382-6.519-1.056-9.85c-0.586-0.01-1.757-0.01-2.342-0.019c-0.538,13.058,2.142,8.901,1.718,15.409  c0.365,4.445-4.243,6.74-5.549,10.618c-1.373,0.691-2.736,1.392-4.061,2.112c1.45,1.037,3.533,1.526,4.004,3.523  c1.123,1.891-1.152,3.696-0.586,5.635c-1.383,2.89-3.658,5.242-6.173,7.172c-4.541-2.986-10.349-3.274-14.564-6.835  c-2.611-0.586-5.367-0.835-7.402-2.765c-2.803,0.345-5.213-1.373-7.891-1.776c-5.098-1.018-10.33-0.586-15.438-1.402  c-0.461-0.797-0.903-1.594-1.296-2.41c4.916,1.546,10.186,2.4,15.313,1.43c-2.931-2.951-51.744-7.902-59.033-14.132  c4.839,0.643,9.648,1.891,14.564,1.671c-4.694-3.043-10.724-2.669-15.466-5.511c8.237,0.125,16.062,4.234,24.395,3.84  c-2.87-3.658-9.044-1.45-11.722-5.146c48.517,6.995,60.038,17.398,76.698,11.377c-0.259-0.278-0.768-0.835-1.018-1.114  c-6.845,2.112-13.93,0.95-20.843-0.058l0.019-0.298c2.198,0.077,4.426,0.067,6.634-0.23c-0.209-0.615-46.614-10.867-47.196-11.156  c4.963,0.903,10.023,1.171,14.986,0.086c10.06,3.348,29.963,6.893,29.963,6.893c0.182-0.461,0.547-1.373,0.73-1.834  c0.778-0.595,1.555-1.191,2.352-1.786c-0.042-0.007-7.701,0.939-18.01-1.037c0.567-0.557,1.143-1.094,1.738-1.632  c0.941-0.192,1.882-0.413,2.832-0.653c-5.539,0.374-10.772-1.603-15.869-3.475c4.848-0.634,10.177,2.074,14.621-0.778  c-5.002-2.496-11.05,0.135-16.09-2.583c5.322-0.347,17.838,5.673,13.988-10.896c-0.682,1.258-1.315,2.544-1.939,3.84  c-0.23-1.325-0.461-2.64-0.691-3.946c-4.251,2.702,2.687,7.723-16.186,4.819c-2.515,0.47-5.069,0.672-7.489-0.307  c1.248-0.586,2.506-1.162,3.773-1.738c-2.381-2.237-5.664-2.678-8.602-3.744c-4.584-4.772-11.638-7.333-13.69-7.911  c1.862-1.114,3.811-2.112,5.818-2.966c-2.371-2.498-2.121-1.201-12.634,0.816c-1.68-0.422-3.543-0.73-4.675-2.151  c1-0.298,23.029-7.556,36.866-10.8c5.145,1.474,46.644-0.632,53.647-11.444c-4.759,1.515-16.412,11.124-49.173,9.197  c8.366-0.498,22.254-0.588,30.001-3.744c-1.479-1.939-4.061-0.259-6.029-0.202c-11.607,2.688-23.857-0.374-35.205,3.744  c-4.33,1.814-9.082,1.344-13.642,1.239c14.254-1.284,12.916-4.653,20.295-5.933c-0.749-0.25-2.266-0.749-3.015-0.999  c15.461-0.212,24.654,0.566,35.8-2.794c2.832-1.978,5.76-3.802,8.852-5.376c-1.431-0.403-2.918-0.211-4.349-0.077  c1.517-0.998,3.063-1.968,4.522-3.063c-0.182-0.221-0.557-0.653-0.749-0.874c-4.493,1.939-8.64,4.925-13.642,5.463  c-1.219-0.298-3.715-2.477-4.157-0.509c-3.715,0.881-17.873,2.824-20.727,0.269c4.55-1.047,29.331-3.128,35.714-7.671  c-21.564,4.782-32.72,5.074-37.605,5.232c0.288-0.279,0.874-0.835,1.162-1.114c4.925-0.48,9.898-0.71,14.775-1.719l0.528,0.24  c2.65-0.95,5.866-1.306,7.632-3.773c2.098-2.713,13.046-5.426,16.426-4.887c4.868-3.034,10.148-6.595,11.578-12.471  c-5.76,1.584-8.9,8.64-15.332,8.333c-2.794,2.88-6.576,4.359-10.58,4.186c3.735-2.189,7.796-6.183,5.971-10.916  c-7.049,7.492-17.421,9.128-21.438,8.89c0.058-1.939,2.477-1.574,3.782-2.227c-2.659-0.538-5.587-1.574-8.122-0.134  c-5.463,2.717-11.885,0.163-17.473,1.69l-0.154,0.615c-2.755,0.365-5.386,1.229-7.824,2.535c-2.602-0.163-5.165-0.73-7.748-0.97  c2.967-1.632,6.183,0.019,9.322-0.067c-0.931-1.008-2.064-1.661-3.427-1.958c2.842-0.979,5.539-2.467,8.516-3.024  c17.554,0.222,18.298-2.979,22.551-0.816c1.584-0.883,3.149-1.805,4.714-2.746c0.086-1.027,0.202-2.035,0.336-3.053  c-1.566,3.227,0.154,4.845-28.619,5.933c-4.983,0.029-9.437,4.752-14.458,2.227c2.871-2.083,6.384-3.053,9.495-4.752  c2.58-0.009,24.264,1.575,28.312-3.485c-4.195,0.768-8.362,1.997-12.663,1.363c4.203-0.148,18.024-3.049,18.682-8.621  c-11.626,4.839-24.52,5.232-36.962,5.165c-4.378-0.115-8.199,2.496-12.509,2.813c7.721-7.543,15.179-1.433,19.614-4.455  c-16.781-4-15.197,0.689-24.318,2.41c-2.746,0.931-5.837,0.269-8.458,1.382c-2.707-1.459-5.789-1.719-8.804-1.526  c1.382-0.432,3.293-0.211,3.994-1.795c16.935-1.031,15.85-1.903,23.732-5.011c-28.019,0.052-37.494,12.843-73.559,0.586  c-1.296-2.103-3.571-3.207-5.683-4.282c1.475-0.224,14.733,4.92,15.735,5.434c5.77,1.229,11.914,3.706,17.655,0.845  c-3.6-1.133-7.392-0.259-11.021-0.883c-2.986-1.517-6.096-2.765-9.284-3.763c3.581-2.438,6.749,1.978,10.474,1.258  c3.917-0.528,8.612,0.432,11.78-2.458c-4.618-0.749-9.255,0.691-13.882,0.067c-3.389-0.778-6.442-3.12-10.052-2.679  c-5.242,0.48-8.813-4.964-13.777-5.213c-1.882-1.92-4.147-3.418-5.895-5.444c5.309,0.135,10.57-0.624,15.822-1.382  c6.058,0.806,12.385,0,18.289-1.574c-3.898-1.834-8.343,0.653-12.308-1.143c9.768-1.718,10.776,0.029,31.643-6.048  c0-0.365,0-1.094,0.01-1.469c3.437,0.451,7.008,1.565,10.397,0.24c11.401-4.638,9.042-4.377,7.632-10.013  c-0.518-0.029-1.546-0.086-2.064-0.115c0.461,1.258,0.941,2.506,1.44,3.763c-1.555,3.744-5.501,4.781-9.197,4.848  c1.872-0.701,3.763-1.479,5.299-2.813c-0.346-0.221-1.056-0.653-1.402-0.864c-9.324,5.262-7.502,1.411-25.768,6.519  c-0.278-0.25-0.826-0.739-1.094-0.979c20.854-4.682,18.738-6.493,19.518-10.81c0.394,0.115,1.171,0.365,1.565,0.48  c1.699-0.787,3.331-1.709,4.877-2.794c-0.73-0.173-2.189-0.528-2.928-0.701c5.646-2.067,21.149-6.065,23.108-11.156  c-4.944,1.507-9.111,5.194-14.305,5.828c1.018-0.826,2.055-1.68,2.842-2.765c-3.792,0.288-7.325,1.843-11.05,2.41  c-2.947,0.029-5.779-1.037-8.698-1.162c27.376-6.238,30.663-8.709,30.731-13.393c1.968-0.989,1.526-3.207,1.728-5.021  c0.566,2.678,0.922,5.396,1.248,8.122c3.101-1.383,0.547-4.983,2.179-7.191c8.594-15.422,6.159-14.509,17.934-21.15  c-0.154,2.256-0.365,4.503-0.461,6.768c0.965-0.947,11.888-36.221,12.145-38.555c-5.76,5.127-4.685,13.786-7.181,20.526  c-0.989,0.422-1.968,0.845-2.938,1.277c-1.162,3.091-1.162,7.018-4.195,9.015c-2.304,1.728-4.608,4.119-7.719,3.946  c0.826-4.858,4.493-8.352,6.682-12.577c-0.614,0.096-1.853,0.278-2.467,0.374c-3.907,4.167-6.279,9.389-7.575,14.9  c-0.893-0.758-1.805-1.517-2.669-2.266c-0.672,0.912-0.806,1.786-0.413,2.621c-2.141,2.602-4.406,5.434-4.781,8.9  c-0.001,0.001-20.669,11.002-20.67,11.002c1.891,0.24,3.811,0.317,5.741,0.259c-3.178,1.949-6.538,3.591-10.359,3.533l0.394,1.075  c-2.102,0.067-4.109,0.749-6.125,1.219c1.182-3.436,19.833-14.408,20.833-14.861c-0.499-0.979-0.941-1.968-1.239-3.024  c-4.349,1.469-8.084,4.695-12.807,4.925c-0.663-4.685,5.395-2.583,6.912-5.77c-1.872,0.173-3.706,0.509-5.52,0.941  c0.086-0.47,0.24-1.402,0.317-1.872c6.139-1.168,22.72-5.262,25.528-10.801c-7.709,2.621-14.9,7.7-23.329,7.796  c4.157-1.248,8.794-2.381,11.741-5.818c0,0-12.323,3.834-18.395,5.299c-2.918,0.701-6.259-0.25-8.746,1.776  c-0.614-0.23-1.824-0.691-2.438-0.922c3.245-0.864,6.692-1.056,9.86-2.189c2.343-2.083,4.599-4.339,7.824-4.973  c0.586,0.682,1.181,1.363,1.795,2.054c2.438-4.397,7.383-5.952,10.81-9.313c-2.419,0.557-4.531,1.891-6.816,2.765  c2.016-3.475,6.903-3.869,8.621-7.7c-3.11,1.239-5.779,3.312-8.794,4.723c-1.728,0.72-2.227,2.573-2.544,4.215  c-1.949,0.662-3.936,1.171-5.943,1.498c0.912-1.958,1.901-3.879,2.948-5.77c-3.207,1.066-6.596,1.863-9.159,4.196  c-7.268,1.891-14.766,2.823-22.023,4.733c-1.027-0.653-2.141-1.114-3.216-1.613c8.036-1.21,15.716-4.023,23.742-5.223  c11.691-6.999,8.69-3.173,11.789-8.074c-2.198,0.125-4.128,1.219-6.02,2.227c1.219-3.091,3.072-5.847,4.57-8.794  c-0.134-1.555-0.729-3.034-1.133-4.531c0.806-1.93,1.92-3.879,1.536-6.048c-2.17,1.891-3.715,4.33-5.031,6.855  c-1.44,3.418-5.568,3.965-8.295,6c-2.264,0.838-19.649,11.314-27.476,8.352c4.263-1.267,8.986-1.306,12.941-3.447  c-9.312,1.334-18.682,2.784-27.64,5.703c-4.061-1.76-3.706,2.151-14.036,2.151c3.303-0.73,6.413-2.112,9.37-3.744  c5.808-3.197,13.325-1.277,18.865-4.992c-15.375,0.845-45.354,11.943-46.38,12.375c-2.227-0.461-4.493-0.49-6.74-0.461  c2.285-1.123,4.608-2.179,6.932-3.235c-9.974,0.715-10.04,4.574-18.423,3.168c4.723-3.36,11.012-3.725,15.745-7.124  c-4.461-0.247-5.188,1.217-20.046,5.971c-4.723-1.603-9.745-1.863-14.583-2.986c1.469-0.835,2.986-1.584,4.378-2.554  c5.943-8.122,16.686-11.261,22.321-19.719c-1.412-3.2-5.109,1.924-14.526,9.725c-3.898-1.114-6.327,3.869-10.042,2.755  c1.805-1.277,3.735-2.439,5.232-4.109c8.115-1.056,15.451-14.681,26.152-22.772c21.358-16.807,29.862-18.538,36.376-36.021  c-3.101,0.499-3.475,3.85-4.675,6.173c-1.997,4.176-5.405,7.392-8.957,10.253c-0.451-4.503,4.061-7.018,6.307-10.301  c-0.259-0.576-0.787-1.728-1.046-2.304c-2.15,2.477-4.282,5.357-7.709,6.039c0.768-1.037,1.555-2.064,2.371-3.082l-0.259-0.326  c2.784-3.552,6.903-6.365,8.228-10.829c0.528-0.768,1.056-1.546,1.594-2.314c0.711,0.038,1.431,0.077,2.16,0.125  c0.768-1.805,1.44-3.648,1.968-5.539c-1.181-2.131-1.671-4.522-2.102-6.884c-1.584,1.171-1.575,3.283-2.103,5.002  c-1.632-4.263-3.917-8.333-7.056-11.674c-1.133,4.935,3.677,8.285,3.514,13.037c-0.461-0.058-1.373-0.173-1.824-0.23  c-0.106-2.554-1.709-4.406-3.571-5.943c0.653,3.523,1.21,7.076,2.064,10.561c-0.691,3.418-1.306,6.931-3.274,9.888  c-0.403-0.259-1.21-0.778-1.613-1.037c0.56-6.856-5.05-22.632-6.653-32.594c-0.346-1.968-3.293,0.317-2.4,1.632  c0.388,1,8.273,21.931,4.647,23.531c-0.902-0.845-1.738-1.738-2.63-2.573c-0.278,2.227,0.806,4.378,0.576,6.576  c-0.902,3.648-4.992,4.503-7.604,6.576c-0.394-1.373-0.845-2.727-1.555-3.955c-0.787,1.45-1.517,2.928-2.237,4.406  c-1.267-0.797-1.459-2.15-1.44-3.533c0.864-0.528,1.738-1.066,2.621-1.603c-0.099-9.649-2.585-4.1-4.455-17.905  c2.458,1.613,5.415,3.456,6.039,6.548c-0.067,2.218-3.216,6.288,0.586,6.538c1.834-2.333,0.24-5.78,2.275-8.055  c-1.92-3.389-4.925-6.087-8.64-7.306c-0.442-1.911-0.73-4.589-3.418-3.869c-0.595,2.41-4.282,6.835-6.288,3.447  c4.898-2.337,22.662-22.732,22.427-36.75c-3.605,5.021-5.736,18.43-17.473,28.465c-3.571,3.043-6.355,7.498-11.012,8.938  c5.712-6.807,14.737-11.933,16.407-21.303c0,0-11.145,13.831-22.561,23.022c-5.271,4.186-5.539,12.817-12.029,15.658  c1.632-3.562,4.714-6.557,5.175-10.58c0.442-3.591,4.205-5.424,5.347-8.756c-4.195,0.077-4.81,6.73-9.188,5.463  c-0.048-0.451-0.144-1.354-0.192-1.805c7.526-3.338,25.934-17.374,30.232-38.095c-3.859,2.88-3.715,8.66-7.527,11.597  c2.861-7.22,6.307-14.343,7.536-22.1c-3.644,1.134-4.78,11.989-9.485,19.815c-2.285-1.939-0.355-4.906-0.298-7.354  c-3.831,5.491-5.539,12.337-10.186,17.31c-1.939,1.805-4.56,2.832-6.173,4.992c-0.173-1.325-0.48-2.621-0.71-3.927  c3.863-3.233,8.931-9.812,9.456-16.532c-3.351,4.791-5.549,10.407-9.706,14.641c-0.442-0.345-1.334-1.027-1.786-1.363  c3.005-5.165,8.65-9.917,7.162-16.542c-3.101,3.351-2.803,8.938-6.788,11.809c6.891-13.044,4.678-28.064,2.65-30.481  c-2.294,4.099,0.288,9.168-1.776,13.383c-2.045,4.263-4.215,8.477-5.635,12.999c-5.731,8.235-17.082,17.971-20.055,16.897  c4.56-4.387,10.416-7.488,14.141-12.682c-3.073,0.904-18.253,12.851-20.075,15.438c-1.891,0.624-3.696,1.44-5.424,2.41  c-0.259-0.432-0.787-1.277-1.046-1.699c2.784-4.781,8.794-6.01,12.106-10.321c-13.633,6.367-11.357,6.641-22.791,18.827  c-4.618-4.57-10.983-7.527-17.54-7.344c0.787,0.768,1.594,1.546,2.41,2.314c-0.451,0.403-1.354,1.19-1.795,1.584  c0.163,0.663,0.49,1.978,0.662,2.64c0,0,1.022-0.565-16.474,18.433c-0.163-5.741,3.879-10.311,5.626-15.553  c0.787-0.701,1.574-1.402,2.381-2.112c0.797,0.01,1.603,0.029,2.429,0.038c-0.134-0.768-0.259-1.536-0.365-2.295  c4.301-3.792,6.586-9.485,8.16-14.861c-3.955,2.823-5.299,7.93-8.208,11.684c-0.624-0.893-1.248-1.805-1.834-2.707  c10.484-16.923,14.148-16.858,19.335-28.859c-4.435,7.575-10.647,13.786-16.09,20.593c-0.307-0.422-0.912-1.258-1.21-1.68  c1.162-1.2,2.074-2.611,2.698-4.176c0.586-0.278,1.114-0.662,1.584-1.152c-0.71-0.758-1.411-1.507-2.102-2.246  c0.537-1.472,9.895-14.847,10.282-15.188c-0.634,2.563-1.594,5.059-1.814,7.709c5.77-4.858,4.128-13.287,6.461-19.748  c1.738-4.906-2.074-9.207-4.272-13.229c-0.883-0.077-1.757-0.154-2.621-0.221c-1.622-1.162-3.063-3.475-5.328-2.438  c0.589,1,15.047,15.655-1.373,36.482c-0.173-0.49-0.538-1.479-0.71-1.968c3.493-9.271,5.68-22.678-2.314-22.945  c2.179,3.12,3.879,6.768,3.475,10.685c-5.951-3.269-4.889-9.85-14.161-10.868c-3.082-1.68-6.576-1.459-9.898-0.806  c1.661,2.342,5.002,2.41,7.076,4.368c-0.307,2.333-0.49,4.675-0.614,7.037c-2.486-2.026-4.339-4.656-6.375-7.095  c-1.565,1.459-0.739,3.475-0.48,5.271c-0.442-0.067-1.325-0.192-1.766-0.259c-0.624-1.536-1.248-3.159-2.755-4.051  c-1.632,4.637,0.979,9.61,4.666,12.423c0,1.075,0,2.141,0.01,3.216c-0.883-0.97-1.747-1.958-2.602-2.938  c-0.845,0.384-1.69,0.787-2.515,1.181c0.71,1.45,1.325,2.967,1.536,4.599c-3.101,0.096-6.615,0.01-8.852-2.467  c1.21-0.73,2.419-1.45,3.639-2.179c-2.89-2.534-6.884-1.91-10.397-2.429c-3.658-0.288-6.884-2.131-10.359-3.082  c0.787,2.131,3.418,2.342,5.107,3.543c4.722,3.402,8.112-1.692,9.37,4.714c-5.136,1.296-10.253,0.125-15.341-0.701  c1.93,2.035,4.435,3.351,6.96,4.512c-5.828,0.786-12.463-4.425-11.818,0.259c1.488,1.536,4.589,0.931,5.415,3.264  c3.746,9.08-5.722,4.638-8.064,7.748c0.826,0.374,1.661,0.758,2.515,1.142c-2.63,2.208-4.685,5.088-7.661,6.884  c-0.002,0.001-17.905,10.733-17.905,10.733c2.625-23.303,9.035-18.364,11.521-25.844c-1.67,1.19-3.264,2.477-4.896,3.696  c0.093-5.762,14.46-17.882,15.37-18.884c-0.547-0.105-1.651-0.326-2.208-0.432c1.355-1.082,12.587-11.364,12.932-14.468  c-5.777,3.958-0.142,2.212-14.487,10.82c4.186-6.819,11.759-5.812,16.004-20.775c0.662,0.422,1.325,0.845,2.006,1.267  c0.269-3.639-2.986-6.058-6.327-6.327c0.019,1.642,0.067,3.331-0.778,4.81c1.286,4.243-0.701,9.082-4.339,11.511  c0.355-2.285,1.046-4.503,1.891-6.663c-1.267,1.142-2.544,2.4-4.33,2.525c-1.344,3.149-2.688,6.375-5.05,8.928  c0.346-3.389,2.083-6.404,2.678-9.725c-3.997,2.291-1.661,6.491-9.562,11.578c0.259-2.487,2.083-4.234,3.427-6.192  c-0.422-2.064-1.162-4.099-0.806-6.26c-0.73,1.219-1.479,2.429-2.218,3.629c-2.83-3.205,0.109-7.458-8.583-15.351  c0.71,3.648,3.341,7.411,1.277,11.06c-0.134,2.842,0.912,6.029-1.901,7.959c-0.854-2.208-2.899-3.629-4.906-4.685  c0.49,1.622,1.181,3.187,2.122,4.618c-2.947,0.624-2.851,3.898-3.85,6.164c-0.471-0.662-0.922-1.315-1.373-1.978  c0.643-1.123,1.2-2.294,1.584-3.533c-0.72,0.49-1.43,0.989-2.122,1.488c-2.525-3.504-6.106-6.192-10.176-7.613  c0.451,1.018,0.912,2.026,1.402,3.034c-3.964,2.206-9.725-3.787-25.825-4.743c1.382,1.728,3.562,2.304,5.549,3.072  c-0.451,0.499-0.893,1.008-1.315,1.507c1.968,0.72,3.955,1.958,6.144,1.488c4.723,2.17,10.119,4.33,12.557,9.303  c-0.432,0.134-1.286,0.403-1.719,0.538c-4.205-4.416-10.282-6.874-16.33-7.095c1.498,1.229,3.197,2.189,4.887,3.159  c-1.277,0.25-2.535,0.509-3.783,0.778c3.811,2.189,7.776,4.186,11.021,7.219l0.49-0.768c1.479,2.506,1.565,5.386,1.536,8.218  c-0.999-0.115-1.978-0.23-2.957-0.336c0.3,2.946,0.279,1.727,0.038,4.512c-2.275,0.96-3.408,3.312-5.184,4.886  c-0.173-3.207,1.987-7.431-0.845-9.85c-0.019,3.072,0.029,6.212-0.998,9.159c-0.528,0.048-1.584,0.154-2.112,0.211  c0.835-3.629,1.68-9.62-3.331-10.292c1.45,2.698,2.352,5.588,1.882,8.688c-0.269-6.509-7.056-12.212-13.498-10.618  c9.496,6.2,8.305,12.425,4.743,18.327c0.24-1.68,0.451-3.36,0.614-5.05c-2.189,0.931-3.312,3.312-3.571,5.549  c-2.131,2.102-2.496,5.818-5.645,6.787c0.499-1.795,1.229-3.523,2.083-5.184c-0.499,0.115-1.498,0.345-1.997,0.47  c-1.047,1.559-3.977,6.106-3.965,8.151c-1.286,0.192-2.554,0.394-3.821,0.595c-0.019-0.374-0.058-1.133-0.077-1.517  c-0.518-0.125-1.574-0.374-2.102-0.49c2.64-1.306,4.243-3.763,4.311-6.73c-22.768,16.005-22.058,9.298-40.226,20.708  c-21.104,5.449-19.623,9.341-24.404,12.567c-6.503,1.54-1.25-4.23-27.909,18.298c-16.396,13.663-15.307,6.843-27.582,13.412  c-6.386,0.307-39.797,15.753-48.473,28.677c-3.351,2.736-4.935,6.72-5.28,10.964c-58.56-22.116-58.242-24.565-66.694-33.621  c-0.451-0.086-1.363-0.269-1.815-0.355c0.155,4.161,1.128,5.637,20.545,29.579c-4.963-2.419-9.831-5.127-14.199-8.525  c-2.803-1.997-4.109-5.655-7.44-6.97c-0.383,8.906,7.405,12.107,30.904,39.151c-7.796,1.501-13.466,2.338-20.324,5.002  c-10.193,1.424-8.082,3.999-11.914,8.458c-5.578,5.472-13.431,8.266-18.481,14.285C31.257,145.187,41.221,146.58,33.182,148.587  c-0.845,1.066-1.152,2.266-0.912,3.619c5.382,6.023-8.126-0.234,267.497,110.348c-2.111,6.352,3.278,25.141,1.613,31.019  c-0.701,3.063,0.211,6.154,0.23,9.236c-0.527,13.333-5.172,25.434-3.178,29.963c0.23-1.555,0.403-3.11,0.566-4.656  c0.278,0.106,0.845,0.326,1.123,0.432c-3.584,14.338,15.408,48.606,17.358,55.577c0.371,1.002,11.456,34.366,17.914,40.639  c-8.047,29.112-30.175,90.053-35.301,106.507c-3.853,12.628-9.832,12.701-12.173,22.542c-3.153,18.589,14.719,17.785,25.902,25.864  c6.528,4.228,15.508,23.299,32.968,24.567c4.426-0.077,9.572-0.49,12.548-4.224c3.946,2.669,9.12,4.445,13.777,2.678  c2.89-0.902,3.763-4.013,5.098-6.375c4.608-2.016,9.581-2.746,14.429-3.907c5.376,5.52,11.924,9.735,18.049,14.362  c0.806-0.662,1.613-1.306,2.429-1.939c-5.05-5.28-11.242-9.341-16.81-14.055c0.528-0.269,1.594-0.806,2.122-1.075  c1.001,0.776,41.725,33.175,50.162,37.144c0.538,1.21,1.19,2.688,2.688,2.947c1.081,1.94,15.425,14.208,22.235,11.885  c-2.592-2.467-5.367-4.752-7.642-7.517c1.958,0.595,3.917,1.219,5.904,1.776c0,0-7.924-6.656-16.436-16.186  c4.95-2.066,9.163,4.385,17.271,9.466c1.382,0.71,3.235,0.115,4.387,1.334c1.392,1.21,2.736,2.496,4.378,3.408  c-0.662-1.709-1.709-3.197-2.784-4.627c3.341,0.605,6.173,2.506,9.264,3.802c-3.043-4.215-6.72-7.93-10.522-11.415  c2.919-0.307,5.338,1.478,7.911,2.515c-1.012-1.834-13.975-12.945-15.054-13.441c-5.239-5.885-9.845-6.28-17.934-18.855  c4.359,2.227,8.612,4.733,12.74,7.383c0.374-0.317,1.133-0.96,1.507-1.277c3.869,2.842,7.392,6.317,11.77,8.372  c-0.499-1.085-1.018-2.141-1.517-3.197c1.776,0.519,3.187,1.68,4.339,3.12c2.967,0.413,5.04,2.765,7.748,3.831  c-2.659-4.416-7.776-6.663-10.292-11.252c0.509-0.336,1.536-0.998,2.045-1.334c-1.334-1.066-2.746-2.054-3.907-3.302  c-2.112-6.24-9.12-8.535-13.229-13.201c-2.669-2.823-2.842-7.354-6.845-8.909c0.595-0.566,1.19-1.123,1.795-1.67  c-10.918-9.766-11.776-13.556-33.928-32.286c18.717-14.351,51.187-45.505,60.425-54.137c15.284-7.968,29.589-17.895,42.098-29.752  c1.21,0.213,23.617,1.758,45.449,1.171c2.781,14.357-3.99,77.271-4.119,78.273c-14.375,87.544-11.528,93.239-6.778,170.053  c-13.505,23.383-29.571,45.253-35.771,66.147c-5.878,30.026-4.487,77.628,6.528,94.152c18.657,28.482,16.673,11.896,24.932,33.419  c0,0-154.934,49.35-167.816,52.879c-49.544,10.509-54.89,7.328-73.856,15.351c-13.975,6.213-44.463,33.075-50.422,65.734  c-14.334,66.458-18.705,68.191-26.718,92.02c-1.998,1.422-20.307,37.823-20.804,38.824c0,0-11.507,19.315-20.132,30.952  c-31.131,42.762-24.811,53.721-20.267,85.233c-0.214,1-0.372,45.209,5.386,49.836c-0.067-2.64-0.403-5.251-0.72-7.844  c1.142,2.381,1.133,5.703,3.667,7.133c0.173-4.147-0.998-8.506,0.797-12.423c1.554,20.077,2.529,17.331,5.309,27.956  c0.259-0.317,0.797-0.95,1.056-1.267c0.355,0.384,1.056,1.143,1.411,1.517c-0.25-1.469-0.48-2.909-0.72-4.349  c0.403,0.077,1.2,0.221,1.603,0.288c0.806,2.045,1.738,4.061,3.063,5.847c0.092,0.551,7.076,23.492,7.076,23.492  c1.066-2.487,0.941-5.203,0.806-7.824c1.248,2.88,3.706,5.059,4.858,7.978c0.538,3.389,0.816,6.855,2.074,10.1  c1.085-3.206,0.998-6.595,1.123-9.908c3.147,9.33,3.856,10.67,5.04,12.154c0.134-1.354,0.259-2.688,0.365-4.013  c0.931,1.267,1.267,3.6,3.283,3.504c1.718,4.474,3.245,9.053,5.559,13.277c0.259,1.085,2.189,2.074,2.813,0.797  c61.24-87.287,57.355-81.742,50.969-90.456c0.902-0.758,1.805-1.507,2.717-2.237c-0.826-1.642-1.661-3.274-2.448-4.896  c2.275-0.038,4.522,0.365,6.73,0.912c-2.343-1.546-3.677-3.965-4.493-6.567c0.528-0.038,1.584-0.115,2.112-0.154  c0.221-1.306,0.624-2.563,1.142-3.754c-0.077-0.922-0.163-1.824-0.25-2.717c0.653-0.163,1.949-0.48,2.602-0.643  c-1.891-4.151-8.254-3.003-13.287-5.155c-0.854-1.334-1.786-2.611-2.765-3.84c1.478,0.269,2.966,0.538,4.464,0.778  c-1.939-4.531-7.911-4.762-10.349-8.957c3.706-0.048,7.421-0.682,11.108,0.077c3.696,0.97,6.653-2.352,10.34-2.103  c0.154-1.862,0.72-3.638,1.018-5.453c-0.49-1.536-2.102-2.266-3.187-3.274c1.45-0.202,2.899-0.403,4.368-0.566  c-0.202-1.104-0.394-2.189-0.576-3.245c0.614-0.154,1.853-0.451,2.467-0.595c-0.509-0.442-1.018-0.864-1.517-1.267  c1.315-0.346,2.64-0.662,3.965-0.969c0.067-0.672,0.144-1.334,0.221-1.968c0.893-0.192,1.786-0.355,2.679-0.499  c-0.096-1.565,0.451-2.995,1.152-4.33c-0.624-1.056-1.267-2.122-1.891-3.139c1.258-1.555,2.343-3.245,3.591-4.8  c3.37-1.334,2.323-4.887,1.43-7.546c-3.341,1.555-5.799,4.387-8.89,6.336c-0.259-0.682-0.797-2.045-1.056-2.717  c2.784-1.709,6.615-2.362,7.901-5.751c4.915-2.65,8.439-8.218,7.69-13.921c-0.806-0.374-1.594-0.72-2.381-1.056  c-2.909,1.517-5.875,2.957-8.516,4.925c0.56-27.946,2.389-32.16,1.392-35.502c-0.096-3.562,0.413-7.085,0.797-10.609  c6.288,5.693,3.821,15.265,8.64,21.745c0.298-0.893,0.586-1.776,0.874-2.64c0.596,2.762,5.023,8.296,6.912,4.973  c0.499,0.71,0.989,1.402,1.498,2.141c1.008-0.038,2.026-0.038,3.024-0.221c1.232-2.178-3.822-15.944-4.253-16.945  c-17.025-50.956-0.467-63.377-3.811-80.75c5.453-16.372,19.682-46.977,33.045-53.983c16.711-6.558,172.36-26.132,290.606-34.082  c-20.805,72.974-15.816,100.573-59.292,189.378c-9.341,17.245-12.734,32.639-7.709,54.041  c10.664,49.444,7.283,17.036,80.663,114.293c0,0,15.05,29.073,23.128,45.871l-0.154,0.23c13.448,27.84,10.242,58.162,42.76,81.873  c7.844,6.48,17.396,10.781,24.721,17.982c2.198,2.515,4.791,4.666,7.392,6.768l0.365,0.029c1.638,2.196,11.634,11.081,18.423,13.873  c-0.557-1.373-1.114-2.736-1.651-4.08c3.639,0.778,6.826,3.725,10.705,3.034c-4.503-3.293-10.08-5.261-13.709-9.658  c13.372,3.27,3.283,7.764,28.667,8.391c-1.258-0.864-2.515-1.69-3.744-2.525c3.255-0.518,5.712,2.602,8.909,1.911  c-1.286-1.526-2.966-2.592-4.685-3.495c0.96-0.278,1.949-0.528,2.938-0.758c2.247,1.498,4.935,1.987,7.604,1.622l-0.365,0.653  c2.467,1.469,5.213,2.218,8.036,2.746c3.533,2.189,6.74,5.28,11.079,5.789c-2.314-1.354-4.915-2.563-6.067-5.146  c2.333,0.269,4.493,1.219,6.634,2.17c-0.058-0.528-0.182-1.584-0.24-2.112c4.243-0.173,6.989,4.099,11.156,4.032  c-1.68-1.066-3.293-2.285-4.147-4.109c1.402,0.269,2.832,0.672,4.234,1.075c-2.391-2.813-6.691-2.016-9.159-4.81  c0.413-0.202,1.258-0.595,1.68-0.787c4.848,1.719,9.792,3.149,14.564,5.108c-1.152-1.45-2.352-2.832-3.571-4.186  c0.106-0.413,0.317-1.229,0.422-1.632c5.578,2.419,11.434,4.272,17.281,5.924c10.553,3.225,0.521-92.932-27.275-95.121  c0.826-1.555,1.488-3.159,2.17-4.752c-3.063-0.125-5.904-1.21-8.218-3.207c1.114-1.066,2.391-2.093,2.727-3.677  c-2.899,0.595-5.664,1.958-8.688,1.718c1.152-1.431,2.333-2.832,3.514-4.215c-1.296-0.96-2.525-1.997-3.946-2.698  c-1.258-0.067-2.429,0.576-3.619,0.864c1.238-2.333,3.907-4.061,3.639-6.96c-0.835,0.038-1.651,0.096-2.467,0.173  c-0.278-0.71-0.547-1.402-0.797-2.074c-2.583,0.01-5.136,0.451-7.604,1.219c0.067-0.941,0.144-1.853,0.24-2.755  c-1.536,1.421-2.947,3.389-5.309,3.091c0.953-4.892,0.053-4.067,5.635-6.183c-0.883-0.922-1.642-2.074-2.899-2.429  c-1.411,0.096-2.544,1.037-3.783,1.613c0.691-1.968,1.738-3.763,2.938-5.443c-0.355-0.346-1.056-1.037-1.411-1.382  c0.518-1.383,1.622-2.727,1.354-4.253c-1.037-1.824-2.88-3.197-5.021-2.41c-1.334-2.362-3.168-4.551-3.706-7.258  c0.432-1.344,1.104-2.563,1.738-3.802c-1.469,0.48-2.938,0.97-4.387,1.469c0.518-1.498,1.047-2.976,1.565-4.445  c-1.469,0.115-2.919,0.288-4.359,0.518c0.144-0.902,0.298-1.776,0.47-2.621c-0.317-0.135-0.931-0.384-1.248-0.519  c-0.451-0.778-0.893-1.526-1.315-2.256c-1.296,0.797-2.573,1.603-3.85,2.429c-3.273-14.041-11.49-18.411-13.441-20.641  c-0.067-0.269-0.202-0.816-0.269-1.094c-10.546-17.119-12.796-16.434-17.089-18.567c-0.854,0.547-1.699,1.104-2.535,1.68  c0.547,1.296,0.998,2.659,1.258,4.071c-1.277,0.202-2.592,0.394-3.639,1.229c1.037,0.259,2.083,0.547,3.139,0.854  c2.512,4.559,3.952,0.993,5.53,9.332c-17.438-6.868-39.4-21.486-39.4-21.486c-0.336-0.288-0.998-0.864-1.334-1.152  c4.042-1.181,7.997,0.768,12.049,0.691c4.128,0.182,8.18-0.739,12.26-1.21c-0.038-0.384-0.125-1.171-0.163-1.565  c3.504-0.778,6.768-2.419,10.368-2.823c1.987-0.614,4.906-0.384,5.655-2.832c-2.659-0.106-5.319,0.067-7.959-0.163  c1.603-0.173,3.235-0.259,4.867-0.288c12.497-8.51-17.854-1.788-32.267-3.677c-20.437-4.844-27.263-14.966-33.736-18.385  c-2.583-3.274-6.375-5.203-10.148-6.74c-37.558-54.454-27.09-54.208-17.703-73.914c4.912-10.357,79.558-152.107,90.983-171.128  c19.833-32.674,12.445-20.716,34.437-47.148c22.075,6.383,227.99,49.899,327.567,25.662c28.715-6.864,27.197-2.274,92.03-21.275  c44.88,229.763,74.928,192.862,73.568,283.76c-0.816,15.406-7.429,35.491-11.492,36.175v0.153  c-65.954,16.375-49.532,5.664-72.618,22.273c-2.924,2.013-12.537,12.994-14.199,17.953c-0.453,0.432-33.695,49.567-35.176,52.687  c-7.18,20.427-7.3,22.836-6.903,29.118c0.297-1.555,0.557-3.13,0.864-4.656c0.643,0.682,1.296,1.373,1.978,2.093  c-0.24,4.512-0.854,9.063-0.25,13.585c0,0,2.236,6.26,1.19,19.354l-0.874,0.605c0,0-56.344,29.242-56.345,29.243  c-4.395,0.81-24.622,13.748-24.491,21.841c0.49,0.307,1.479,0.922,1.968,1.229c3.725-3.043,7.834-5.76,12.346-7.488  c-3.667,3.418-7.968,6.068-11.511,9.629c3.6,0.538,5.885-2.678,9.015-3.715c0.269,0.461,0.797,1.363,1.066,1.815  c-0.461,0.355-1.373,1.056-1.824,1.402l-0.432-0.096c-4.071,3.552-7.066,8.18-11.29,11.588c-0.038,1.296-0.067,2.602-0.077,3.917  c-0.816,1.162-1.603,2.352-2.352,3.571c1.69-0.797,3.303-1.757,4.858-2.803c-1.219,1.766-2.631,3.475-3.197,5.607  c2.323-1.19,4.57-2.63,7.2-3.043c-1.219,1.997-2.525,4.023-3.111,6.317c-0.968,1-5.252,5.55-6.692,7.988  c-3.158,2.832-6.298,5.712-9.12,8.88c0.557,0.087,1.69,0.259,2.246,0.336c-0.653,1.382-1.286,2.784-1.891,4.205  c1.239-0.566,2.496-1.123,3.763-1.661c-4.493,9.338-8.904,8.309-10.82,13.623c1.373-0.759,2.765-1.517,4.147-2.285  c-0.538,1.238-1.056,2.515-1.565,3.802c1.162-0.211,2.333-0.403,3.514-0.566c-1.306,2.851-4.042,4.791-5.011,7.824  c2.141-1.229,4.195-2.611,6.355-3.812c-1.056,2.448-2.803,4.541-3.821,7.008c0.211,0.432,0.643,1.277,0.854,1.699  c-13.898,19.495-17.804,15.187,81.412,16.167c7.325,0.643,14.573-4.32,16.983-11.223c0.662,0.029,1.968,0.096,2.631,0.134  c0.394-1.392,0.826-2.736,1.277-4.071c0.72,0.73,1.459,1.479,2.218,2.256c0.403-1.594,0.797-3.178,1.229-4.724  c0.557,1.334,1.133,2.688,1.719,4.071c0.672-0.95,1.373-1.853,2.074-2.755c0.442,0.874,0.893,1.776,1.373,2.698  c0.374-2.631,0.557-5.271,0.835-7.892c0.566,0.758,1.056,1.526,1.594,2.371c0.269,0.086,0.806,0.259,1.075,0.336  c0.816,0.989,1.632,1.978,2.477,3.015c0.864-0.893,1.728-1.767,2.602-2.63c-1.047-3.408-1.613-7.095-3.821-9.975  c-0.067-0.346-0.182-1.047-0.24-1.392c2.16-3.312,4.195-6.797,7.421-9.216c1.142,2.333,1.719,5.232,4.157,6.644  c0.295,1,3.342,13.46,6.807,9.562c0.279,0.211,0.586,0.451,0.922,0.739c1.315-0.864,2.698-1.632,3.936-2.621  c1.239-2.026,1.891-4.339,2.89-6.471c0.422,2.208,0.643,4.464,0.787,6.739c1.469-1.334,2.794-2.803,3.936-4.416  c0.221,0.941,0.451,1.891,0.72,2.899c1.094,0.038,2.198,0.096,3.312,0.182c0.182-0.567,0.538-1.69,0.72-2.256  c0.845,0.73,1.699,1.459,2.592,2.227c0.778-0.422,1.584-0.806,2.391-1.181c0.163-0.941,0.336-1.843,0.528-2.727  c0.72,0.355,1.565,1.555,2.237,0.451c-0.461-2.112-1.114-4.167-1.584-6.24c0.499,0.038,1.488,0.125,1.987,0.163  c0.615-0.432,1.258-0.845,1.92-1.238c2.477,1.392,5.434,1.718,8.036,0.374l0.509,0.451c3.111-0.317,6.336,0.806,9.38-0.278  c-1.728-3.226-3.533-6.778-2.381-10.522c5.692,1.846,11.898,3.745,17.761,2.458c-2.839-11.38,8.332-41.716,8.919-46.745  c1.945-3.207-0.016-0.1,14.065-36.549c0.394,4.695-0.643,9.36-0.346,14.074c0.413,0.01,1.248,0.038,1.67,0.048  c0.279,3.351,0.672,6.72,1.43,10.023c0.096-1.613,0.202-3.226,0.384-4.791c2.112,0.989,1.843,3.706,2.525,5.616  c0.173-0.797,0.374-1.574,0.595-2.323c1.123,0.682,2.256,1.373,3.398,2.083c2.611-3.139,2.487-7.411,2.131-11.232  c0.989-2.477,0.883-5.251,0.854-7.853c2.193-5.316-2.957-23.648,17.012-65.264c1.21-2.794,3.168-5.453,3.082-8.621  c4.368-6.519,8.813-12.99,13.354-19.393c-0.355,3.917-1.411,7.719-1.421,11.693c0.422-0.086,1.277-0.278,1.699-0.374  c-0.326,1.277-0.643,2.554-0.912,3.869c8.39,0.439,28.599-33.942,49.49-45.708c9.793-7.538,24.854-15.146,26.382-18.308  c163.624-82.502,151.048-69.46,158.542-89.937c5.631-20.458,0.873-34.583-12.5-48.943c-65.818-74.853-49.079-68.976-100.93-134.329  c-2.919-3.351-3.533-7.911-5.146-11.895c22.154-27.313,195.561-88.731,151.438-310.623c19.943,6.283,12.003-0.927,27.592,8.89  c37.199-0.804,106.822-6.209,182.111,35.454c166.874,103.466-20.196-32.586,224.535,145.965  c31.152,24.081,14.415,29.645,28.427,38.959c1.738,2.611,3.907,4.896,6.02,7.22l-0.201,0.24c1.507,1.584,2.88,3.322,4.627,4.685  c2.631,4.632,20.076,19.88,26.526,22.888c8.556,6.883,20.422,18.435,45.852,40.37c1.056,1.747,17.65,16.055,19.854,17.396  c0.365-0.24,1.094-0.72,1.45-0.96c3.466,1.306,5.837,4.33,9.063,6c0.278-0.192,0.816-0.576,1.094-0.768  c1,0.938,14.001,12.202,15.62,12.375c0.874,4.209,34.315,28.083,36.386,28.552c-2.832-5.434-8.938-8.045-12.692-12.759  c0.403-0.413,1.19-1.248,1.594-1.671c8.419,7.325,16.916,14.708,25.892,21.332c1.275,2.335,13.687,12.313,15.37,13.373  c2.312,4.217,38.227,31.622,41.349,33.026c-3.149-5.098-9.005-7.987-11.607-13.402c6.054,4.537,10.978,8.778,24.222,17.146  c0.336-1.094,0.922-2.055,1.844-2.746c4.454,2.765,8.054,7.363,13.315,8.525c-4.354-6.823-16.295-18.967-16.417-19.162  c4.591,2.213,22.112,15.347,27.093,14.775c4.108-0.531,28.767,24.398,35.368,23.204  C2343.037,1210.177,2315.373,1185.995,2313.404,1186.472z M374.056,205.268c1.574-0.538,3.149-1.075,4.733-1.622  c1.411,1.526,2.784,3.139,3.571,5.098c-4.224,0.797-8.41,1.853-12.346,3.61C371.406,210.02,372.673,207.61,374.056,205.268z   M343.737,395.347c-4.088-7.789-16.101-41.204-15.245-43.538c1.056,1.334,2.093,2.698,3.159,4.042  c-2.845-11.619-5.379-4.576-8.775-31.163c1.133,1.882,2.237,3.783,3.341,5.683c0.288-0.298,0.874-0.893,1.162-1.191  c3.924,12.434,9.3,22.918,22.388,36.395C348.413,375.628,346.186,385.516,343.737,395.347z M350.131,362.725  c-7.226-6.335-23.298-30.07-20.699-39.352c1.856,5.975,6.277,19.609,11.521,23.223c2.803,4.387,6.087,8.41,9.245,12.548  C350.189,360.046,350.151,361.832,350.131,362.725z M352.368,346.404c-6.968-14.131-17.541-43.822-18.174-45.42  c0.202-0.951,0.403-1.891,0.614-2.832C350.121,341.802,354.972,331.824,352.368,346.404z M1005.468,434.392  c8.525-2.17,17.348-0.547,26.008-1.2c-1.978-0.874-3.975-1.68-5.952-2.486c0.797-0.106,2.39-0.326,3.187-0.432  c0.672,0.135,2.026,0.413,2.707,0.547c2.861,1.92,6.442,1.997,9.668,2.966c-14.542,4.108-27.388,0.724-33.669,2.909  C1006.754,435.928,1006.101,435.16,1005.468,434.392z M917.278,183.216c0.346,0.403,1.037,1.2,1.383,1.603  c-15.623,10.079-29.602,6.78-40.024,13.834c-4.933,3.362-40.156,16.627-41.157,17.127c-0.422-0.154-1.258-0.47-1.68-0.624  c1.048-0.521,51.867-25.686,65.12-25.979C906.823,189.024,912.382,186.364,917.278,183.216z M1428.521,1246.657  c-0.894,7.627-38.139,29.229-44.844,33.121c-0.167-11.46-4.923-14.148-13.345-52.322c-1.479-9.274-2.775-18.596-3.552-27.957  C1409.786,1234.226,1427.201,1241.451,1428.521,1246.657z"/>
</svg>
