<svg xmlns="http://www.w3.org/2000/svg" viewBox="-8.588 139.836 1381.588 1526.463"><path d="M1338.48 784.59c-3.68-8.15-7.04-16.54-12.27-23.85-4.85-6.97-10.7-13.69-18.46-17.46-2.18-1.2-5.04-1.34-6.46-3.6-3.41-4.27-6.86-8.51-10.24-12.8-.99-1.08-1.04-2.63-1.33-3.96-1.1-6.51-3.22-13.05-7.4-18.26-3.28-4.2-7.85-7.19-12.69-9.3-11.6-4.82-24.26-6.08-36.12-10.06-32.71-13.78-66.33-25.25-99.93-36.65-3.52-.77-5.31-4.14-7.75-6.43-1.91-2.28-4.9-4.02-5.07-7.29-2.32-12.69-11.7-22.57-21.75-29.95-7.92-5.8-18.06-9.61-27.93-7.45-9.86 2.07-18.19 8.55-24.74 15.95-4.17 6.02-8.49 11.98-13.59 17.26-21.01 21.81-49.38 34.9-69.83 57.32-4.61 4.98-8.44 10.59-12.34 16.12-2.89-6.13-5.18-12.82-10.03-17.75-3.38-3.56-7.81-5.83-12.17-7.94-6-32.04-22.84-60.56-40.23-87.63-6.15-9.21-11.29-19.04-17.07-28.47 4.95 5.02 12.16 6.12 18.58 8.02 5.33 5.2 10.73 11.31 18.37 12.9 5.18 1.13 9.83-2.53 12.21-6.83 4.08-.12 8.32-.45 11.94-2.53 8.8-5.03 16.8-12.1 21.12-21.43 5.94-12.59 6.44-26.81 7.38-40.45 1.5-3.24 4.05-6.2 4.12-9.97.79-6.95-4.75-12.27-9.62-16.32-11.28-9.22-16.31-23.31-23.51-35.5-10.36-18.12-18.4-38.15-19.06-59.26-.43-4.32.8-8.71-.14-12.97-4.654-12.861-11.1-25.115-19.439-35.95 2.711-2.458 5.126-5.196 7.102-8.295 1.204-1.89 2.31-3.807 3.056-5.813.981-2.217 1.571-4.688 3.21-6.505 4.199-.34 7.874-2.398 11.378-4.807 3.819-2.625 7.09-5.864 9.89-9.513 2.902-3.782 5.439-7.725 5.943-12.43.056-.517.343-.609.777-.684 4.057-.698 7.681-2.602 11.096-4.85 3.515-2.316 6.652-5.132 9.493-8.23 3.521-3.841 6.772-7.846 8.497-12.726.213-.604.581-.95 1.225-1.16a27.966 27.966 0 003.113-1.219c4.94-2.302 9.301-5.485 13.332-9.106 4.806-4.318 9.27-8.93 12.547-14.468.286-.483.595-.925 1.137-1.183 4.642-2.212 8.87-5.057 12.91-8.254 5.42-4.29 10.477-8.922 14.99-14.104 1.34-1.54 2.703-2.934 4.542-3.979 3.548-2.015 6.834-4.441 10.067-6.952 4.082-3.169 7.98-6.54 11.892-9.898 2.426-2.083 4.575-4.533 7.172-6.359 7.344-5.163 14.465-10.601 21.45-16.22 1.055-.85 2.26-1.604 2.948-2.84-3.655 1.711-6.989 3.924-10.434 5.937-4.107 2.402-8.228 4.78-12.322 7.206-3.405 2.018-6.839 3.997-10.15 6.164-3.344 2.188-6.738 4.319-9.853 6.844-.753.61-1.602 1.05-2.48 1.45-2.252 1.024-4.519 2.022-6.733 3.131-4.5 2.254-8.95 4.595-13.215 7.313-3.586 2.285-7.167 4.565-10.358 7.37-1.41 1.24-2.837 2.092-4.66 2.676-11.016 3.528-21.25 8.632-29.886 16.647-1.532 1.422-2.932 2.44-5.14 2.685-4.353.483-8.505 2.165-12.545 4.002-7.26 3.3-13.991 7.398-19.247 13.56-.306.357-.625.57-1.108.582-4.043.1-7.99.907-11.912 2.233-8.697 2.94-16.452 7.308-22.434 14.49-.386.465-.788.702-1.412.704-4.053.012-8.056.433-12.08 1.616a58.457 58.457 0 00-7.033 2.554c-4.93-4.586-11.624-6.384-17.676-8.989-23.83-9.53-49.62-12.59-75.1-13.45-8.35-.27-16.65-1.24-24.97-1.85-10.71-.94-21.58-1.93-31.77-5.58-10.06-3.33-18.92-9.31-27.52-15.34 4.36 4.94 9.35 9.3 14.46 13.44 9 7.12 20.07 10.88 31.04 13.76-18.81-1.25-37.33-5.39-55.29-10.97-11.01-3.17-23.03-5.42-34.23-1.88-10.08 3.3-17.58 11.53-23.11 20.26 6.65-6.92 14.58-13.22 24.27-14.99 15.12-2.91 30.04 2.59 44.21 7.26-11.28-1.42-22.76-4.52-34.13-2.17-8.91 1.66-16.19 7.98-21.17 15.29 4.76-4.04 10.02-7.76 16.14-9.4 9.85-2.82 20.23-.88 30.08.98-13.29 3.05-26.62 7.21-37.89 15.12-9.58 6.6-21.34 10.7-33.08 9.18-7.39-.69-14.25-3.6-21.01-6.46 4.22 4.15 8.83 8.12 14.31 10.5 8.21 3.65 17.37 2.23 26.04 1.97-9.59 2.53-19.57 5.46-29.55 3.46-11.03-1.96-19.9-9.31-28.35-16.15 4.85 6.92 9.37 14.37 16.12 19.65 6.41 4.98 14.63 6.56 22.54 7.14-6.65.58-13.59.76-19.89-1.79-7.57-2.85-13.17-8.9-19.41-13.76 5.75 7.56 11.73 15.58 20.52 19.79 6.03 3.1 12.87 3.63 19.44 4.81-4.05.34-7.93 1.62-11.91 2.39-14.42 3.17-29.04 6.26-42.5 12.52-14.24 6.53-26.35 17.06-36.11 29.19 7.4-6.48 14.81-13.12 23.55-17.75 6.78-3.64 13.94-6.63 21.34-8.76-16.06 8.06-30.97 18.73-43.21 31.94-7.45 8.33-14.08 18.42-14.66 29.91-.54 10.23 5.15 19.76 12.78 26.18-4.09-5.99-8.52-12.62-7.85-20.23.89-9.2 7.07-16.61 12.44-23.69-3.69 9.71-7.71 20.45-4.7 30.89 2.8 9.33 11.94 14.58 20.49 17.82-5.66-4.05-11.66-8.89-13.31-16.02-1.57-7.01 2.24-13.76 6.73-18.84 9.95-10.99 23.22-18.09 36.15-24.95-8.87 9.38-19.99 17.47-24.94 29.82-3.9 10.03-.14 20.85 4.69 29.83-1.1-6.31-3.09-12.85-.99-19.2 3.03-9.72 11.57-16.08 18.09-23.41-.92 6.39-2.53 12.65-4.37 18.82-3.97 12.65-9.25 25.35-18.35 35.22-5.57 6.1-13.81 10.63-22.29 9.01-10.35-1.99-17.91-9.94-24.83-17.27 4.68 7.09 9.5 14.73 17.12 18.99 7.16 3.92 15.57 2.82 23.27 1.59-9.48 4.52-20.73 8.42-31.01 4.14-10.48-4.49-15.68-15.67-18.84-25.95.84 10.74 3.2 22.59 11.55 30.14 8.48 7.3 20.18 8.32 30.86 9.16-8.18.54-16.74 1.39-24.59-1.54-6.62-2.4-11.79-7.38-17-11.92 6.26 10.71 17.49 17.86 29.53 20.24 13.96 2.96 28.47-.34 41.04-6.66-3 6.05-8.45 10.79-15.04 12.46-12.78 3.33-26.66 2.63-38.7 8.63-8.52 4.41-12.39 14.08-14.11 23.01 3.27-7.48 9.04-14.1 16.89-16.86 11.04-3.85 22.97-3.05 34.46-2.85-6.9 1.66-13.87 3.13-20.56 5.51-7 2.45-14.74 5.96-17.85 13.19-2.7 7.15.59 14.54 3.61 21-.16-4.06-1.74-8.2-.07-12.15 2-5.53 8-7.98 13.35-9.02 7.64-1.42 15.47-1.57 23.23-1.37-7.69 2.53-15.62 6.67-19.49 14.14-4.09 7.69-2.94 16.68-2.24 24.98-1.75 7.64-3.51 15.32-4.16 23.15-2.17 19.51 1.2 40.11 11.91 56.81 8.1 12.55 19.46 23 32.46 30.32-7.6-6.69-14.76-14.09-19.86-22.91-6.4-10.79-8.04-23.83-6.51-36.13.66-9.37 3.47-18.42 4.22-27.77 1.51.96 1.15 2.78.21 4.02-.99 15.32-2.07 31.21 3.16 45.95 5.23 15.1 17.15 26.71 29.98 35.67-4.52-4.41-9.01-8.91-12.62-14.11-7.3-9.97-11.26-22.36-10.73-34.73.64-17.68 7.76-34.14 14-50.41-2.13 13.77-6.54 27.29-6.36 41.35.12 9.69 3.39 19.09 8.25 27.39 3.81 7.17 9.67 13.1 12.62 20.75 3.76 8.69 5.16 19.4-.15 27.78-6.01 9.47-18.26 12.96-28.92 11.53-10.34-1.16-19.68-6.55-27.21-13.53 4.54 6.1 8.67 13.01 15.49 16.86 6.7 3.66 14.52 3.96 21.89 5.24-18.25 1.52-36.58 5.14-53.3 12.81-7.02 3.48-14.44 7.75-18 15.08-2.51 5.03-1.19 11.12 1.89 15.6 4.9 7.24 12.17 12.51 19.58 16.96-5.19-4.73-11.51-9.36-13.23-16.54-1.09-4.9 3.28-8.71 7.33-10.44 10.21-4.54 21.6-5.18 32.58-6.09 6 .06 12.04-1.26 18-.2-6.25.58-12.47 1.74-18.46 3.6-3.32 1.19-6.98 2.69-8.86 5.87-1.48 2.98-.17 6.43 1.68 8.94 3.68 5.07 8.79 8.88 13.92 12.38-3.19-3.74-5.93-8.01-6.57-12.99.91-5.03 5.58-7.82 10.12-9.15 14.53-4.27 29.92-2.73 44.69-5.52 12.21-2.44 25.08-7.89 31.69-19.06 4.82-7.9 4.67-17.53 3.37-26.37 3.39 8.16 5.39 17.45 2.4 26.06-3.82 11.78-14.35 19.84-25.26 24.72-12.31 5.71-25.88 7.62-39.25 8.84 16.53.09 33.31 1.1 49.56-2.73 8.68-1.76 16.82-5.33 24.91-8.83-8.05 8.27-17.44 16.17-29.08 18.45-8.19 2.03-16.7.92-24.98 1.9 8.34 1.18 16.6 3.43 25.1 3.16 9.07.23 17.76-2.75 26.26-5.55-6.73 6.62-14.21 13.93-24.09 14.91-7.35.91-14.41-1.72-21.57-2.81 6.77 3.52 13.74 7.16 21.44 8.04 8.25 1.2 16.35-1.33 24.34-3.02-30.5 42.67-69.87 78.54-113.57 107.33-11.32 1.54-22.72 2.62-33.9 5.06-13.5 2.97-27.21 7.43-37.94 16.48-4.72 4.48-10.5 7.56-15.77 11.32-16.17 11.09-32.55 22.81-43.97 39.04-9.29 13.06-14.43 28.52-17.79 44.06-11.13 1.44-22.33-.8-32.96-3.97-16.87-5.14-32.9-12.75-48.11-21.63-11.63-7.02-23.11-14.64-32.57-24.46-3.84-5.08-9.66-7.94-14.77-11.5-16.28-10.4-33.83-19.81-53.1-23-12.34-2.09-25.51-.55-36.5 5.65-12.44 6.9-21.61 18.38-28.58 30.54-8.89 15.52-14.76 32.56-19.65 49.7-11.28-.85-23.54-1.14-33.14-7.93-8.66-6.34-13.09-16.49-17.65-25.85 2.19 8.38 3.42 17.26 7.98 24.8 2.96 4.51 7.03 8.23 11.51 11.21-11.64-4.75-23.76-11.94-28.55-24.21-4.58-11.51-1.81-23.94-1.7-35.87-1.62 8.01-4.08 15.86-5.01 24.02-1.47 10.9-.76 22.72 5.45 32.15 7.45 11.31 19.34 18.7 31.14 24.8-8.76-1.54-17.55-4.09-25.06-8.99-6.74-4.42-11.91-10.69-17.59-16.3 8.1 11.57 17.02 23.18 29.31 30.59 11.63 7.07 25.12 10.04 38.28 12.87 3.21 24.77 11.06 48.61 19.73 71.93-13.29 1.39-26.85 1.02-39.91 4.21-7.38 1.71-14.61 5.83-18.24 12.72-4.11 7.87-5.26 17.16-4.08 25.9 1.14-10.91 7.16-22.66 18.31-26.06 11.56-3.49 23.85-2.48 35.77-3.05-10.91 3.64-21.7 9.03-29.47 17.73-4.22 4.65-7.08 11.35-5.03 17.61 2.29 7.38 8.94 12.16 15.26 15.98-3.53-4.23-7.24-9.23-6.63-15.06 1.16-7 7.39-11.56 13.22-14.74 11.53-5.79 24.32-8.9 37.13-10.04 3.45 5.3 7.28 10.36 10.2 15.99 2.63 5.04 3.99 10.61 5 16.18-8.22.81-16.42 1.84-24.55 3.27-12.96 2.28-26.36 5.93-36.52 14.74-10.03 8.54-15.47 21.24-17.97 33.93 4.23-8.22 9.45-16.19 16.97-21.76 11.24-8.57 25.46-11.61 39.1-14.04-11.19 5.25-23.51 9.58-31.92 19.08-7.27 8.71-10.66 19.87-13.43 30.68 6.11-11.8 13.95-23.41 25.65-30.26 12.74-7.41 27.55-9.69 41.74-12.84-.76 7.12-1.65 14.58-5.67 20.71-4.2 6.49-10.26 11.45-15.82 16.73 5.52-2.33 11.11-4.85 15.7-8.79 4.62-4.26 7.59-9.88 11.04-15.05-1.95 8.95-4.1 17.97-8.14 26.25-3.13 6.44-7.7 12.05-12.64 17.18-22.48-6.59-45.36-14.69-69.14-13.12-19.06 1.24-36.87 11.24-49.11 25.69 10.26-7.45 21.66-14.06 34.41-15.86 13.49-1.76 27.07.64 40.27 3.31-17.38.24-35.78-.54-51.71 7.64-15.14 7.94-24.94 22.83-32.68 37.55 9.09-11.97 19.39-24.26 33.9-29.64 13.31-5.05 27.94-2.22 41.06 1.98 9.27 3.02 18.51 6.26 27.38 10.32-20.75 1.27-41.8 3.02-61.57 9.88-10.61 3.86-21.45 9.56-27.44 19.54-4.96 8.03-5.14 18.08-2.9 27.02 1.93 7.31 4.92 14.35 8.89 20.79-3.36-8.82-6.4-18.49-4.11-27.96 1.94-7.74 8.21-13.44 15.06-17 7.04-3.62 14.54-6.41 22.26-8.17-8.92 3.84-17.81 8.82-23.79 16.68-4.76 6.13-6.29 14.39-4.65 21.92 1.55 8.6 6.19 16.15 10.7 23.47-1.07-4.41-2.85-8.65-3.39-13.18-.94-6.15-.39-12.93 3.45-18.05 4.78-6.55 12.99-9.3 20.67-10.59 14.88-2.36 29.94-.11 44.7 2.04-10.32.52-20.8.58-30.85 3.3-7.23 1.98-14.57 5.66-18.51 12.33-4.15 6.98-3.66 15.56-2.13 23.24 1.08-4.79 2.69-9.69 6.21-13.26 4.64-4.83 11.58-6.61 18.09-6.61 13.36-.3 26.08 4.37 38.63 8.36-7.9-.76-15.83-2.31-23.79-1.41-9.26.73-17.77 4.92-25.58 9.69 3.63-.58 7.08-1.87 10.66-2.63 10.52-2.42 21.52-2.79 32.15-.9 10.1 1.76 19.79 5.23 29.32 8.9 12.99 4.69 26.16 8.94 39.59 12.19 21.83 5.11 44.87 8.13 66.98 2.92 16.34-3.62 31.39-12.42 42.78-24.65 11.72-12.61 20.19-27.99 26.16-44.05-2.5 10.99-6.3 21.72-11.18 31.89-6.93 14.73-17.79 28.01-32.28 35.78-17.82 9.79-38.55 12.03-58.54 12.61 23.69 1.47 48.02.11 70.61-7.67 17.81-6.09 33.86-17.87 43.84-33.96 11.7-18.32 15.63-40.25 17.34-61.58 2.68 10.86 5.55 21.89 4.95 33.18-.36 11.36-4.9 22.09-10.56 31.78-2.04 3.34-3.75 6.95-6.55 9.75-.53.43-.44 3.05.48 1.7 1.76-3.75 4.84-6.61 7.16-9.99 11.55-15.63 19.58-34.56 19.33-54.24.1-20.22-7.89-39.38-17.75-56.66 3.54-13.39 4.68-27.65 1.8-41.27-2.66-12.51-9.69-23.91-19.31-32.27 16.14-25 22.37-55.74 18.95-85.17-.65-2.65.88-4.98 2-7.23.67 9.8.9 19.85 4.28 29.2 3.19 8.87 9.37 16.34 16.55 22.3-4.93-8.96-9.18-18.66-9.87-28.99-.65-11 2.8-21.73 6.79-31.83 1.63 11.4 3.76 23.1 9.88 33.06 2.79 4.21 4.23 9.08 6.37 13.62 7.4 16.34 16.99 31.54 26.22 46.88 2.1 10.86 9.66 19.37 16.6 27.55 4.37 5.3 9.32 10.29 12.4 16.51.76 1.03.07 2.22-.56 3.11-18.31 27.85-33.29 57.68-49.01 87.02-6.83 7.85-15.25 15.4-17.6 26.01-2.24 9.78 2.89 19.13 8.33 26.86-5.52 6.84-11.67 13.71-14.23 22.3-2.64 9.98 3.08 19.39 7.97 27.63 2.7 3.78 3.81 8.33 5.61 12.55 8.34 20.43 18.82 39.9 29.79 59.02 1.62 2.84 3.58 5.57 4.45 8.78 9.37 30.82 21.13 60.82 31.52 91.29.79 2.51.52 5.19.81 7.8.67 7.56 3.03 15.27 8.19 21.02 3.99 4.58 9.58 7.43 15.39 8.95.18 8.53 1.55 17.02 3.81 25.25.5 2.85 3.64 3.8 6.04 4.59 7.81 2.14 15.97 2.7 24.05 2.75 8.92-.01 18.12-.05 26.59-3.2.67-8.39-1.33-17.01-5.85-24.13-3.81-6.21-9.13-11.34-14.92-15.68-.36-5.86-.75-12.08-4.07-17.12-5.52-8.24-14.66-12.8-21.26-20-10.92-10.92-17.35-25.32-22.29-39.73-4.25-12.44-8.75-24.8-12.79-37.3-3.98-12.19-7.93-24.53-9.26-37.34-1.36-10.74-.57-21.61.94-32.29 29.33 38.82 57.81 78.27 86.71 117.41 1.54 1.9 1.49 4.49 2.13 6.77 2.27 9.62 6.01 19.6 13.93 26.01 5.97 5.02 14.07 6.53 21.68 6.28 1.32 8.26 4.51 16.17 9.03 23.2 2.43 2.75 6.07 4.03 9.51 5.05 10.99 2.9 22.55 2.7 33.77 1.57 5.22-.97 11.1-1.36 15.23-5.07-2.36-6.69-6.94-12.25-11.41-17.61-7.23-8.5-15.34-16.33-24.56-22.63-.93-.68-2.19-1.33-2.15-2.65-.49-7.93-1.29-16.82-7.22-22.76-6.87-6.69-16.59-8.84-24.78-13.32-17.2-15.61-31.55-34.08-44.55-53.24-21.15-31.49-38.51-65.27-56.75-98.46-1.3-1.58.68-2.92 1.39-4.23 10.88-15.53 23.66-29.7 38.15-41.93 4-3.88 9.32-5.77 13.95-8.71 9.76-5.54 19.36-12.41 24.91-22.42 4.03-7.01 6.13-14.89 7.7-22.75 7-5.87 14.09-12.46 17.21-21.29 2.99-8.68 2.33-18 2.59-27.02 8.45-7.36 17.84-14.27 23.47-24.2 5.44-10.46 5.64-22.57 6.64-34.06 12.45-6.18 25.11-13.2 33.93-24.24 6.97-8.66 9.95-19.68 11.61-30.47 1.79-12.08 2.71-24.27 4.37-36.37 43.62.44 87.32-10.95 125.04-32.89 33.05-19.02 61.39-45.49 84.76-75.48 25.96-33.45 46.15-71.14 61.55-110.51 13.95 1.07 29.49 2.2 41.68-5.99 8.08-5.36 13.31-13.71 18.69-21.53 10.61-11.39 22.2-21.83 33.13-32.91 27.27-27.43 53.42-56.29 84.25-79.87 23.34 19.04 44.53 41.67 57.51 69.12.79 4.8 1.1 9.68 2.18 14.43 1.75 9.11 5.83 17.53 10.35 25.56-1.57 2.65-3.43 5.21-4.33 8.18-1.5 4.08.62 8.17 1.6 12.1-5.82 3.97-8.7 11.16-8.38 18.06.27 8.46 3.45 16.94 9.09 23.29 3.24 3.22 7.02 5.83 10.73 8.48 4.72 3.17 9.77 6.5 15.6 6.9 4.69.28 8.27-3.49 10.14-7.41 4.47-9.25 6.12-19.51 8.39-29.44 5.11-4.04 9.12-10.02 8.98-16.75-.06-9.88-5.72-18.51-11.38-26.17-1.96-3.35-2.89-7.18-4.47-10.71-13.01-33.26-31.58-63.92-50.66-93.98 17.37 4.4 34.98 8.34 51.58 15.23 6.81 3.06 13.82 6.5 18.66 12.38 4.21 5.11 8.49 10.75 14.87 13.23 6.2 2.18 12.78.54 19.07-.38.13 8.01-.41 16.59 3.51 23.89 1.59 3.11 4.75 4.89 7.97 5.95 1.43 9.03 2.62 18.52 7.52 26.44 3.71 6.21 10.52 9.66 17.29 11.54 10.03 2.81 20.71 5.02 31.1 2.94 4.23-.76 8.35-3.88 8.74-8.41.74-7.14-2.34-13.9-4.84-20.4zM867.4 555.83c-6.57-11.1-13.13-22.22-19.46-33.46 6.59 4.68 13.66 8.64 20.4 13.09-1.65 6.61-2.54 13.66-.94 20.37z"/></svg>