<svg xmlns="http://www.w3.org/2000/svg" viewBox="-1177.576 -383.325 2778.513 1670.942"><path fill="none" d="M488.921 326.723c-.838.12-1.67.235-2.507.353.813-.108 1.65-.226 2.507-.353z"/><path d="M489.503 326.642l-.059.005c-.177.026-.348.05-.523.077l.582-.082z"/><path d="M1388.8 258.89c-25.672-148.938-136.35-217.022-332.168-204.31C988.556-.796 841.597-15.614 615.955 9.806c-.843.13-1.626.235-2.457.36l.206-.018c-.686.098-1.363.19-2.047.288-3.018.446-5.966.862-8.83 1.242-134.04 18.908-258.985 30.691-370.123 31.654-68.082 4.342-141.55-7.123-178.65-65.526C36.94-47.613 13.5-79.548-16.198-117.995c-46.941-63.867-107.68-114.834-182.148-153.154-74.598-38.32-177.807-55.371-309.757-51.158-25.547-16.925-57.478-25.547-95.799-25.547-8.495 12.84-4.279 27.784 12.839 44.772h-.026c-21.332 0-36.277 10.73-44.899 32.125 16.743-4.156 29.447-2.153 37.943 6.037-10.537-1.808-21.198-1.659-31.786.022-11.386 1.808-22.44 4.583-31.411 12.493-.985.868-1.625.518-2.481-.133-7.992-6.081-17.344-9.112-26.94-11.114-9.881-2.062-19.99-2.493-30.096-1.855-12.525.79-24.879 2.38-36.194 8.394-1.4.744-2.612.722-4.053-.056-2.36-1.274-4.808-2.428-7.313-3.385-12.238-4.68-25.034-6.655-38.032-7.204-15.497-.656-30.933-.135-45.979 4.284-1.312.386-2.593.65-3.945.148-11.586-4.308-23.571-6.672-35.854-8.036-16.475-1.829-32.937-2.35-49.436-.847-4.905.446-9.59.577-14.472-.813-9.417-2.683-19.103-4.116-28.848-5.297-12.301-1.491-24.645-2.27-36.99-3.096-7.657-.512-15.484.17-22.982-1.137-21.202-3.693-42.508-6.464-63.899-8.647-3.231-.33-6.551-1.11-9.838-.042 9.072 3.447 18.47 5.37 27.71 7.868 11.02 2.979 22.022 6.024 33.06 8.93 9.183 2.419 18.346 4.963 27.628 6.93 9.373 1.986 18.731 4.175 28.304 5.111 2.312.227 4.492.95 6.652 1.8 5.538 2.18 11.054 4.437 16.673 6.39 11.42 3.971 22.907 7.686 34.739 10.358 9.943 2.246 19.872 4.493 30.057 5.043 4.497.243 8.359 1.244 12.417 3.47 24.523 13.451 50.46 22.523 78.75 23.218 5.019.123 9.12.764 13.235 4.326 8.118 7.027 17.97 11.437 27.9 15.351 17.846 7.034 36.185 11.609 55.619 9.627 1.128-.115 2.032.067 2.86.924 6.935 7.182 14.933 12.857 23.783 17.514 19.63 10.33 40.147 16.263 62.56 13.686.952-.11 1.744-.017 2.473.377-1.59 18.978-.074 36.251 4.573 51.801 4.214 8.496 2.107 19.225-6.388 31.934-4.214 25.55-7.473 50.01-9.58 73.45-2.107 23.437-5.236 45.79-9.452 66.994-12.838 51.157-6.45 89.606 19.097 115.024v25.547c12.71 34.039 34.041 27.654 63.867-19.224 4.28-4.216 6.387-4.216 6.387 0 25.545 34.168 44.77 10.73 57.478-70.252 4.216-16.99 14.818-29.825 31.934-38.32 21.2-8.428 40.363-27.653 57.478-57.479 4.28-16.988 10.602-12.709 19.224 12.709 4.215 68.277 33.915 138.465 89.287 210.827 16.925 12.836 25.547 29.952 25.547 51.157-8.432 55.372-6.323 93.692 6.386 114.897 12.71 29.956 12.71 57.672 0 83.092-46.878 68.146-93.693 117.13-140.444 146.83-34.168 29.952-51.157 55.499-51.157 76.703-25.61 93.693-59.651 172.373-102.187 236.243-34.042 63.867-34.042 108.701 0 134.12 16.989 46.878 38.32 83.22 63.867 108.639 25.481-25.42 42.535-46.75 51.157-63.867 12.708-46.815 1.98-74.47-31.933-83.093-21.335 0-14.945-16.988 19.095-51.03 4.28 0 6.516-2.17 6.516-6.513-17.056-33.911-10.732-74.341 19.095-121.219 12.71-38.32 44.645-72.36 95.802-102.314 21.2-21.205 44.705-46.753 70.252-76.577 12.71-25.484 42.536-48.924 89.414-70.256 8.496-12.709 21.332-12.709 38.32 0 16.993 25.547 35.13 52.116 54.288 79.835 19.16 27.716 33.02 54.414 41.515 79.835 4.215 46.878 25.546 89.414 63.867 127.734 0 12.709 3.066 24.46 9.58 35.063 6.322 10.729 9.58 22.48 9.58 35.192 4.214 8.493 7.344 18.072 9.453 28.674 2.107 10.731 7.473 20.311 16.094 28.806 12.71 25.547 8.367 51.16-12.838 76.577-8.494 8.559-12.708 17.052-12.708 25.547-21.332 34.168-34.104 53.263-38.32 57.479-25.547 31.932-2.107 47.9 70.255 47.9s95.673-22.353 70.252-67.126c-17.116-21.203-8.623-38.318 25.547-51.03 12.774-16.988 14.881-34.04 6.386-51.157-42.662-50.967-70.253-123.328-82.962-217.148 0-38.257-10.731-85.072-31.933-140.444-12.838-12.71-19.224-31.935-19.224-57.482v-83.093c0-8.493 6.386-10.602 19.224-6.386 93.566 25.611 174.549 38.32 242.632 38.32 110.632 8.621 236.257-19.095 376.828-82.962 4.279 0 10.602 2.17 19.224 6.386 4.215 25.547 25.42 57.478 63.867 95.799 0 46.942 6.386 85.2 19.095 115.024 16.991 21.335 19.098 59.652 6.389 114.897-16.989 115.02-51.03 189.62-102.188 223.533-17.052 17.053-25.547 32.061-25.547 44.773-55.372 38.256-86.158 62.717-92.544 73.32-6.513 10.728-1.15 20.308 15.967 28.803 55.373 17.117 97.908 17.117 127.734 0 16.926-8.498 25.547-36.214 25.547-83.093 0-25.484 16.988-38.32 51.03-38.32 25.612 0 38.448-10.602 38.448-31.935 0-80.857 23.377-157.56 70.255-229.922 33.977-68.08 36.084-125.625 6.386-172.503-17.115-21.206-17.115-38.32 0-51.03 38.257 51.157 85.072 85.2 140.445 102.187 0 12.9 8.43 25.61 25.547 38.32 25.418 34.169 41.386 67.124 47.899 99.057 6.389 31.935 11.752 62.847 15.968 92.545 8.494 123.455 29.827 180.998 63.867 172.503 59.652 59.654 93.692 65.975 102.187 19.097 4.214-33.915 2.107-72.235-6.388-114.897-21.333 12.709-38.321 19.097-51.03 19.097-8.622-8.495-7.602-15.84 3.13-22.354 10.602-6.322 13.795-15.967 9.578-28.676-51.156 0-74.467-76.64-70.252-230.049v-38.32c0-21.204-14.945-44.705-44.771-70.252-42.665-29.699-51.095-82.966-25.42-159.67 72.362-148.928 76.578-278.831 12.71-389.576 72.362 0 108.51 57.482 108.51 172.376 0 149.065 36.15 247.037 108.639 293.788 38.32 34.169 80.856 51.157 127.734 51.157 46.814 0 74.468-19.031 82.961-57.478-63.866-12.714-114.96-119.113-153.153-319.336z"/></svg>