<svg xmlns="http://www.w3.org/2000/svg" viewBox="0 0 1566.967 1744.642"><path d="M704.304 72.365c4.685 2.843 53.361 35.197 57.142 37.724-31.19 4.953-40.202-8.018-57.142-37.724zM743.306 114.801c10.944 1.185 21.888 2.366 32.833 3.586-.167 2.448-.509 4.884-.692 7.331-.078.093-.229.28-.307.373-10.894-.761-21.784-1.628-32.681-2.35.272-2.98.517-5.964.847-8.94zM759.949 128.438c11.861.913 23.734 1.737 35.607 2.552-.311 2.51-.781 4.996-1.053 7.514-11.944.996-26.04 6.104-34.554-10.066zM773.703 145.839c17.579-.439 30.108-8.833 45.211 7.082-16.427 3.381-32.091 10.888-45.211-7.082z"/><path d="M790.731 160.078c18.238 4.226 36.817-10.171 49.779 12.669-16.608-3.158-34.443 7.405-49.779-12.669zM859.127 187.246c-15.005.794-34.737 9.735-46.885-7.234 21.331-4.133 36.027-9.953 46.885 7.234zM833.066 197.468c18.862-1.414 35.268-12.271 49.298 8.501-16.418-.949-35.057 10.408-49.298-8.501zM908.856 224.97c-20.26-.4-40.501 10.626-55.378-9.495 20.251-1.36 37.867-12.336 55.378 9.495zM1031.524 212.787c3.031 4.621 18.327 30.302 24.643 40.739 77.042-22.841 108.466 27.988 136.964 39.725 26.434 10.745 81.659 17.369 104.186 70.565-13.687-7.304-27.335-14.686-40.972-22.079-1.678 2.242-3.493 4.375-5.175 6.612 7.382 7.331 13.738 15.843 22.459 21.706 29.167 18.266 49.94 49.115 56.761 71.738-12.809-7.91-25.641-15.785-38.408-23.765 27.637 39.826 21.57 64.089 33.656 91.132 4.79 10.692 10.766 20.812 15.342 31.601-15.21-7.902-30.28-16.092-45.44-24.091 5.561 8.641 52.957 80.797 53.63 81.82-1.519.987-2.964 2.082-4.495 3.03-.597-.094-35.327-25.424-35.863-25.805 17.343 33.928 34.767 67.822 52.099 101.758-12.254-3.52-24.426-7.319-36.66-10.898-1.533 37.562 65.646 56.554 48.921 118.635-2.067 7.068-4.88 13.933-4.724 15.416l-.377.19c-3.609-26.429-12.775-43.319-39.55-52.584 49.583 94.905 2.129 191.166-41.652 289.123 137.234 60.168 91.068 31.452 145.647 37.514 84.401 8.8 59.419 110.779 59.985 132.838.634 31.807 14.364 87.395 9.363 112.931-32.222 50.798-26.668 39.888-27.227 53.73-.654 42.921-54.645 76.274-92.729 65.774 3.578-29.247 7.448-58.466 10.983-87.717 6.832-.328 37.91 3.531 26.85-15.027-1.957-3.089-10.248-9.421-13.201-18.652-9.034-28.059 37.56-22.586 29.418-65.188-16.228-73.407 28.409-119.793-124.52-85.324-54.227 12.095-94.511 20.522-174.502-4.67-29.226 74.841-31.517 92.552-63.292 129.796-57.363 65.067-22.923 66.47-42.095 103.533-30.684 56.223-32.82 101.292-20.276 153.453 16.411 66.952 30.735 38.519 68.354 121.61-45.308.035-90.615.004-135.923.016 9.874-62.682 14.507-70.489-4.852-80.646-22.231-11.994-28.267-30.93-13.357-56.578 18.816-34.9 27.33-72.095 32.386-111.412 3.686-31.366-22.329-51.312-2.288-73.614 22.9-28.438 15.203 13.031 30.851-190.244-99.574 16.258-199.606 21.008-295.697-12.844-32.353 84.693-114.629 117.98-125.915 137.877-2.385 3.862-3.17 8.469-3.388 12.937-.238 11.641 3.109 13.199 10.004 20.704 22.833 23.882 46.254 41.448 79.03 44.635 69.681 6.453 57.156 71.832 82.146 96.035 21.003 18.946 26.859 41.817 16.049 67.833-7.275 17.212-31.341 54.327-32.223 55.327-4.221-4.819-48.209-51.822-74.205-79.943 15.684-11.951 30.263-20.284 31.889-29.783.914-3.822-1.725-8.79-9.833-10.404-23.182-4.602-34.775-23.231-49.589-38.194-65.297-66.552-166.798-82.758-184.774-103.459-10.182-11.483-6.735-25.504 4.332-36.116 63.948-59.782 103.136-82.744 63.4-116.603-89.223 80.059-84.413 87.52-193.014 137.768-58.638 26.42-40.304 52.633-67.88 74.997-26.914 23.231-29.282 55.798-32.258 89.368-1.522 22.61-.571 50.986-.497 52.006 0 46.836-6.154 36.79-8.885 52.837-5.313 32.693 57.458 9.373 69.799 97.904-42.576 0-85.153-.004-127.726.004-3.015-19.914-5.257-66.862-27.716-101.272-9.209-13.682-14.798-30.625-9.538-46.26 5.397-17.087 21.242-21.617 32.899-58.214 8.97-27.702 9.436-57.758 13.683-87.228 4.828-31.547 22.321-113.209 27.736-122.562 6.032-10.986 17.779-18.345 34.006-18.05 54.291 3.174 105.014-79.096 104.334-116.937-.046-49.213-78.22-169.826-10.812-293-.767-2.479-35.144-36.599-67.138-23.808-26.325 9.857-30.032 36.31-32.51 58.043-12.924 126.614 59.136 112.434 24.507 248.271-1.009-9.554-6.585-65.696-6.741-68.843-1.628-.206-3.275-.264-4.884-.575 5.618 77.81-63.263 70.643-54.1 135.873-1.958.284-3.951.276-5.929.396-3.788-18.94-7.525-37.887-11.309-56.827-17.218 19.348-11.042 44.867-10.804 68.063-13.517-12.252-18.106-27.613-19.014-45.824-.259-2.944-.342-14.306.016-16.601-28.133 26.403-10.658 55.473-26.271 119.112-.882-3.528-1.045-7.195-1.632-10.777-6.87-53.673-16.619-76.258-5.758-114.237 10.322-36.587 40.36-54.505 20.474-97.267-6.601 18.963-13.252 37.911-19.841 56.881-1.923-.381-3.8-.983-5.73-1.336 20.437-46.204-6.33-89.258-10.198-133.926-.058-82.229-2.111-82.866 9.495-136.413 27.689-131.09 136.3-141.649 185.1-114.101 56.746 31.878 55.309 107.29 84.994 88.444 3.246-2.103 52.977-62.877 183.958-47.033 108.114 14.053 181.214 38.807 282.367 31.99 39.31-2.825 89.653-12.736 105.445-21.636 24.121-13.115 19.817-32.32 47.682-61.567 1.904-2.347 4.363-4.134 6.418-6.337 37.88-37.334 34.63-119.295 19.829-152.404-5.217-12.325-12.928-17.144-28.283-15.606-72.382 6.129-101.629-12.182-120.126 4.441-9.241 7.597-13.707 29.243-54.298 18.839-25.312-6.74-39.587-15.269-35.517-41.594.13-7.099-17.431-23.135 6.337-41.667 173.849-133.463 136.778-96.508 177.388-155.838-7.475-8.232-14.969-16.446-22.432-24.69 18.47-1.414 36.951-2.661 55.428-3.967 3.089-13.198 6.243-26.376 9.328-39.577 9.981 11.15 19.818 22.432 29.725 33.652 8.051-15.801 15.747-31.781 23.747-47.608zM929.684 243.622c-19.633-1.822-40.365 11.213-54.663-11.084 17.669 2.118 38.754-13.497 54.663 11.084z"/><path d="M896.277 251.435c43.331-4.122 42.898-5.461 56.905 9.227-20.639 1.266-41.008 13.813-56.905-9.227z"/></svg>