<svg xmlns="http://www.w3.org/2000/svg" viewBox="0 0 1760.989 1653.561"><path d="M1718.079 28.895c11.002-6.812 17.886 3.338 12.951 9.776-222.734 138.448-231.797 153.718-264.638 169.64-3.305 1.294-4.38 5.216-2.648 8.213 6.592 13.097 12.365 29.095 9.606 62.845-.378 4.33-2.787 8.641-6.899 10.413-9.816 4.871-14.479-4.945-46.489-37.48-1.822 2.986-2.479 6.53-1.344 9.895 17.655 73.907-23.888 91.537-31.656 226.163-2.311 31.273-10.475 40.201-21.95 53.607-17.435 19.802-36.081 2.455-28.053 25.275 16.744 39.182 26.699 80.923 32.861 122.991 18.208 124.457 5 178.615 24.15 170.317 38.061-17.106 37.729-6.373 142.603-11.786 6.819-.289 13.767-1.593 20.517.129 16.474 3.915 44.393 27.01 47.644 55.418 4.47 31.858-30.666 148.226-32.901 234.037-.313 26.774-18.271 17.553-42.577 58.435-10.491 16.776-16.924 41.995-52.432 47.863-8.093 1.175-17.053 2.996-24.598-1.195-13.065-7.39-27.197-42.347-11.916-82.067 9.061-22.823 51.634-14.237 54.692-21.99-2.107-11.319-14.012-20.643 15.818-57.579 13.136-16.48 12.547-23.222 26.948-119.497 3.211-22.407-11.836-35.874-33.12-31.198-56.564 14.062-83.989 42.552-133.494 43.702-52.664.379-91.666-6.876-117.735 20.945-2.857 2.827-2.469 7.396.239 10.194 19.96 23.887 33.579 53.326 64.089 67.523 11.194 5.091 35.922 40.489 40.287 71.734 2.688 16.498-2.362 31.47 6.063 52.83 15.729 41.412 30.959 83.113 50.222 123.061 19.072 40.587-.523 48.111 4.171 76.144 1.332 10.99 14.672 31.676 5.037 57.788-5.996 16.465-15.873 23.089-19.76 29.396-8.552 13.335-21.495 21.37-35.568 14.285-31.059-15.722-36.374-78.325-19.551-102.176 3.68-5.703 18.189-7.631 4.778-21.403-28.485-26.196-13.245-43.691-11.896-54.453 2.986-16.575-3.265-32.771-9.059-47.992-9.845-26.151-19.253-53.358-37.569-75.009-48.915-55.368-11.477-71.139-91.206-109.961-23.045-11.567-45.105-25.644-63.482-43.871-39.755-40.257-64.374 3.838-143.259 14.823-4.798.826-10.243.498-14.235 3.713-2.17 1.752-1.483 4.778-1.583 7.217.518 19.75-10.084 37.45-12.175 56.812-4.281 32.194-15.868 64.179-37.48 88.876-21.115 22.398-3.024 41.031 7.805 86.179 7.295 28.667-1.169 19.76 30.482 70.221 58.818 90.011 56.536 58.007 72.859 79.33 5.206 6.545 4.104 17.359 18.625 26.082 11.42 7.175 42.046 10.857 57.111 40.476 6.894 12.975 13.209 42.694 5.515 51.377-5.291 5.864-15.306 5.182-49.167 3.554-24.472-1.907-36.939-.952-43.722-7.287-6.826-6.198-7.12-25.216-3.982-33.518 1.105-3.574 3.484-6.59 4.599-10.144.776-2.728-3.126-5.923-5.326-3.574-6.198 5.274-12.199 15.121-33.488 1.772-24.554-15.434-8.819-33.966-39.869-79.579-73.539-103.754-82.293-111.535-94.839-121.229-19.396-14.82-12.488-30.643-17.043-37.679-5.524-9.305-22.335-18.271-8.919-38.834 15.85-23.79 15.316-35.456 16.714-53.388 3.375-57.876-14.734-70.796-32.851-118.462-12.131-31.23-50.25-27.735-89.842-58.703-4.37-3.773-10.492-3.494-15.878-3.195-26.942 1.769-28.287 27.392-30.691 39.272-9.865 54.104-15.8 39.43-49.864 101.38-3.763 6.62-7.018 13.529-10.95 20.059-13.553 22.267-50.382 51.613-49.804 96.382-.575 12.658 7.679 34.15-9.218 55.707-11.145 13.63-10.123 104.367-2.718 150.357 2.32 15.201 6.909 30.292 5.515 45.832-.533 14.137-10.671 23.704 6.072 43.164 21.078 25.45 13.481 55.224-9.766 65.712-52.837 1.456-38.145-1.35-49.047-3.215-7.327-1.712-16.007-3.773-19.571-11.209-6.358-14.654-3.44-45.742 7.795-56.792 13.293-15.877 2.582-16.538-6.61-28.919-15.13-18.67-1.301-33.186 1.463-39.053 5.615-11.219 7.247-23.971 7.088-36.385-.621-24.814 2.524-89.523-11.309-131.075-1.84-5.836-22.715-45.072 6.132-78.484 25.812-29.486 10.553-72.326 24.32-120.802 1.772-6.729 5.147-13.09 5.336-20.178.448-6.67-2.698-12.742-4.161-19.083-5.913-23.344-4.958-47.614-7.138-71.436-2.091-20.109-11.697-38.256-20.288-56.205 2.369 23.424 5.445 46.758 9.079 70.022 13.285 86.215-61.763 129.269-43.921 168.754 2.529 5.963 11.591 17.531 3.454 19.631-9.641 2.84-21.007-4.535-19.482 9.905 7.02 43.997 9.387 74.207-.1 101.838-17.069 51.573-65.548 58.188-82.227 95.128-14.503 29.411 17.366 40.691 3.843 57.399-.816 1.294-2.509 2.529-1.782 4.301 14.779 72.722-55.757 75.686-74.263 85.99-35.193 18.294-76.766.463-111.245-19.681-9.55-5.48-24.077-17.322-46.728-11.976-54.021 12.778-81.199 47.033-89.454 52.103-3.395 2.19-7.516 2.558-11.458 2.429.08-5.406-.219-10.821.09-16.206 1.921-3.494 5.176-6.122 6.729-9.855 21.498-49.17 74.36-74.923 122.325-77.538 42.856-2.575 60.464 12.113 72.789 8.093 16.71-5.07 23.789-38.698 3.235-54.313-13.894-10.275-49.29-25.093-46.31-70.37 1.98-23.384 9.263-21.199 8.282-30.492-31.168 10.151-40.07 40.339-23.314 69.514 2.041 3.643 5.435 7.177 4.748 11.687-1.553 4.709-7.755 7.227-12.095 4.659-7.692-4.406-59.756-59.551-30.641-111.733 25.179-46.211 73.966-34.777 89.683-40.486 24.151-8.306 42.298-39.455 33.09-62.407-3.399-9.15-7.495-9.345-31.059-42.328-23.913-34.891-34.047-17.536-46.539-46.349-16.562-38.204-6.494-86.449 28.461-115.058 23.701-19.601 58.146-28.391 52.999-63.143-8.299-65.319-10.97-130.21 33.558-178.718 44.06-48.663 103.747-46.058 140.99-48.649 8.034-.447 28.719-20.326 65.542-17.6 33.401 2.431 42.039 20.769 61.033-2.409 34.06-41.711 90.536-66.052 147.261-70.988 127.254-11.849 196.811 55.353 192.456-59.062-.309-2.678-.428-6.491-3.514-7.446-3.793.179-6.859 2.738-10.005 4.569-30.213 19.491-72.532-8.423-32.652-30.721 39.649-22.468 36.235-45.899 50.54-61.979 3.693-4.649 10.482-8.024 10.214-14.803-6.074-51.233 43.935-43.95 52.79-45.653 16.6-4.29 13.469-13.624 9.467-15.818-8.233-4.609-18.685-3.365-26.37-9.208-7.705-5.286-10.204-16.535-6.152-24.787 6.852-11.951 32.942-8.007 45.434-24.459 14.762-20.624-20.809-57.04 27.505-82.774 14.983-8.339 27.335-7.736 43.413-21.273 7.499-6.244 3.273-15.184-4.798-15.5-26.513-1.965-56.739.117-64.338-3.962-4.788-2.529-6.242-9.527-3.185-13.897 6.364-8.522 63.569-17.169 76.881-18.596 20.777-1.35 47.986-12.949 41.81-18.277-4.832-4.898-16.561-5.443-18.616-29.287-.388-3.892-.796-8.203 1.394-11.667 2.359-3.882 7.376-5.565 11.717-4.559 11.287 2.464 26.678 34.005 78.573 10.074 73.761-33.385 94.593 38.034 103.54-7.775 5.347-30.541 34.789-72.698 48.34-56.384 10.925 13.221 1.246 75.842 11.349 86.338 6.255 5.953 29.235 11.531 34.941 10.015 8.715-2.034 36.326-42.594 43.273-58.504 1.772-3.853 2.588-8.203 5.167-11.647 3.693-4.709 12.115-3.176 14.365 2.23 3.011 6.654 15.628 53.225-23.304 88.359-4.13 3.033 1.386 12.796 21.244 3.275 34.314-14.584 65.961-34.454 97.915-53.447 20.079-11.558 40.685-22.159 60.684-33.856 38.748-23.236 78.956-43.853 118.576-65.504z"/></svg>