<svg xmlns="http://www.w3.org/2000/svg" viewBox="63.7 142 1275.3 1730.6"><path d="M1241.1 209.3c1.8-2.2 4.6-2.1 7.2-1.9.1 6.5-5.7 10.4-10 14.2-29.8 28.7-60.7 56.2-91 84.3-27.3 25.6-55.1 50.6-82.7 75.8-7.2 6.5-14.4 13.1-21.1 20.1-5.9 5.9-12.5 12.1-21 13.7-5.8 1.1-11.7-.9-16.8-3.6 15-16.2 31.4-30.8 48.1-45.2 32.2-27.4 65.2-53.7 97.7-80.7 30.5-24.9 59.4-51.5 89.6-76.7z"/><path d="M851.8 337.9c1-3.3 2.3-6.7 5.1-8.8 10.9 12.9 15.8 29.9 27.5 42.2 5.7-1.1 8.9-6.2 13.1-9.7 3.9-3.5 9.5-2.5 14.3-2.3 10.9 1.1 22 3.4 31.5 9.1 10.8 6.3 19.3 15.6 28 24.5 8.8 9.2 18.4 18 30 23.3 15.9 7.4 33.3 10.7 50.5 13.1 10.7 1.3 21.5 2.6 32.3 2.7 12.7.3 24.7-5.2 35.1-12.1 5.3-6.6 8-14.9 13.3-21.4 1.1 6.1-4.2 10.4-7.4 14.8 5.9-2.6 9.2-8.4 13.5-12.7-3.8 8.8-10.9 15.6-18 21.7-20.5 16.5-45.5 25.9-69.7 35.7 9.1 2.8 18.8 1.4 28.1-.1-.4 1.9-2.4 2.1-4 2.4-3.7.6-7.5.9-11.2 1.8 13.9 2.8 27.1-4 39.2-9.9-6.4 6.9-15.7 10.2-24.7 12.2-8.4 1.6-17.1 1.8-25.6.9-20.5-2.3-37.5-17.4-58.4-17.6-9.4-3.2-18.9-6.5-28.3-9.6-13.9-4.7-28-9.7-39.8-18.6-6.8-5.1-12.3-11.8-16.1-19.4-2.6 6.6.2 13.8 4.4 19 7.9 10.1 19.1 17 30.3 23.1 8.8 4.9 18 9.8 24.7 17.7 3.4 4 5.8 8.8 7.5 13.8 2-1.2 2.3-3.5 2.9-5.5 9 7.5 21.3 8.1 32.5 8.1 5.8.2 11.6-1 17.5-.3-12.2 3.4-25.3 2.8-37.7 1.1 10.7 8.4 22.8 15.3 35.9 19.1 10.8 2.9 22.9 3.8 33.2-1.3 7.4-3.3 14.5-8.7 23.1-7.9-7.3 6.2-17.2 7.7-24.8 13.4 7.7 3.2 15.9-.4 23.9.3-3.2 1.6-6.6 3.3-10.3 2.1.2.8.7 2.3.9 3.1-12.4-1.7-25-.8-37.4.9-9.4.9-19.3 2.4-28.5-.8-10.1-3.7-18.1-11.3-26.9-17.1-8.7-5.8-17-12.3-25.4-18.5 7.4 10.9 17.7 19.2 27.2 28.2-9-.4-15.9-7.6-24.6-8.9.3.8 1 2.5 1.4 3.3-15.2-2.6-28.4-12.5-37.7-24.5-1.5 7.8 2.4 15.6 8.3 20.5 10.8 9.4 25 13.1 38 18.5 12.2 21.3 30.3 38.9 39.6 61.9 9 20.4 17.7 40.9 27.1 61.2-7.2 13.9 1.4 30.8-6.4 44.5-6 7.7-14.8 12.6-23.5 16.7-8.9 3.8-19.2 7-28.7 3.4-5.8-1.9-7.1-8.9-7.1-14.3-1.9 2.7-.6 6.1-.8 9.2-6.8-2.2-14.2-4.9-18.6-10.9-2.8-3.9 3.3-8.9-.6-12.5-13.2-15.1-33.4-20.2-50.7-28.9-14.2-6.9-27.5-15.6-41.5-22.9-24-12.2-49.6-24.8-65.4-47.5-5.7-8.3-9.9-17.6-11.7-27.5-.5 17.3 6.2 34.6 18.3 46.9 17.3 18.1 40.7 28 62.6 39 4.3 28.6 12.6 56.7 25.4 82.7 17.4 35.6 41 67.7 65.7 98.5 11.5 14 17 31.6 22.9 48.4 12.7 37.2 20.3 76.6 18.1 116-.4 8.1-4.2 15.9-2.9 24.1 2 6.2 7.4 10.5 12.5 14.2 7.5 4.8 15.9 8 24.2 11.2 11.5 4.2 23.3 8.2 35.5 9.8 13.8 2.1 28.2 1.8 41.5 6.7 6.2 2.2 9.8 8.1 12.2 13.9 4.6 11.1 6.9 23 7.9 34.9.5 10.4.5 21.2-3.7 30.9-4.8 8.9-13.3 15-20.3 22-4.4 4.1-8.3 8.7-12 13.5-6.1 7.7-12.7 15.1-17.6 23.6-5.6 9.9-6.9 21.3-10.3 32-3.3 10.2-6.8 20.4-11.3 30.2-5.2 11.4-10.8 22.6-14.6 34.5-2.1 7.1-3.9 14.5-2.9 21.9 1 5.7 4.3 11.2 2.5 17.1-2.1-.7-4.5-1.3-5.6-3.3-2.8-4.5-2.4-10-3.1-15-8.4 13.3-7 32.8 5.1 43.4 6.5 5.9 15.4 8.2 24.1 8-11 4.4-22.9-.6-32-7 3.2 6.5 10.2 10 17 11.3-6.2 2.5-13.8 1-18.5-3.8-6.6-6.4-9.3-15.4-13.1-23.4.1 8.6 2.6 17.3 8.1 24.1 7.6 9.8 19.1 15.4 30.7 19.1-15.9 1.7-31.7-7.3-39.7-20.9-2.1-3.3-3.5-6.9-4.9-10.5-2.2 3.2-1 7.1 1.2 10 2.4 3.7 6.8 6.6 6.6 11.4-4.6-.8-8.9-3.5-11.4-7.4-5.1-7.5-5.7-17.2-4.1-25.9-4.7 10.1-8.7 20.9-16.7 29-12-17.1-26-32.9-36-51.3-8.4-15.2-13.6-32.8-11-50.2.9-7 3.4-13.7 5.8-20.3-5.7 4.8-5.7 12.9-9.7 18.7-1 1.1-2 3.2-3.8 2.2-2.4-3.5-.8-8 .8-11.5 2.3-5.7 6.6-10.1 11.2-14 4.4-3.5 4-9.7 6.8-14.2 4.5-9.5 13.8-15.6 23.4-19.2-5.4-.3-10.6 2-14.5 5.5-7.9 6.7-12.6 16.3-20.4 23.2-3 .8-2-3.3-1-4.8 6.2-10.1 15.6-18.1 26.5-22.7-.4-5.3 3.5-10.3 9-10.1-1 2.1-3.2 3.5-3.7 5.9 3.3-.4 6.6-1 9.9-1.3-.3-.8-.5-1.5-.7-2.3 1.8-2.4 4.6-3.4 7.5-3.8-1.7 1.7-3.4 3.7-5.9 4.2.7.4 1.5.7 2.3 1.1 5.9-1.9 12-2.8 18-3.9-4.1-2.5-9.1-.4-13.5-1 .8-3.3 5-1.2 7.4-1.7-9.3-3.7-19.5-1.7-29 0 4.4-4.3 10.9-4.6 16.7-4.4 9.7.2 19.4 2.9 29.2 1.9 7.7-1.1 12.9-7.6 17-13.5 5.4-7.9 9.4-16.6 14.8-24.6 6.2-10 13-20.1 15.2-31.8-9.2-5.1-19.6-7.4-29.9-8.5-13.1-1.4-26.2-1-39.3-1.3-24.2-1-48.4-2.9-72.6-4.8-25-1.4-49.9 6.7-74.7 1.7-14.7-2.8-27.7-11.7-36.7-23.5-12.3-15.7-19.5-34.6-31.4-50.7-4.8-6.5-10.4-12.6-17-17.3-.7 2.2-1.7 4.6-1 6.9.9 3.9 4.3 6.5 7.1 9.2 6.8 5.9 11.8 13.4 16.5 21 9.5 15.5 17.4 32.2 29.6 45.9 6.6 7.5 14.8 13.8 24.3 17.1 8.6 3.2 17.8 3.5 26.9 3.4 16.4-.5 32.7-2.8 49.1-2.2-15.8 33.7-41 62.2-70.1 84.9-17.7 14-36.7 26.2-56 37.9-33.2 20.1-66.7 39.7-101.6 56.7-6.4 3.1-12.7 6.2-19.3 8.7-22.5 8.8-46.4 13.3-69.1 21.4-14.7 5.3-29.2 12.5-40.3 23.8 1.8-9.5-3.6-18.2-3.4-27.6-.3-26.7 7.6-53.9 24.3-75-6.8 3.4-11.9 9.2-15.9 15.4-6.8 10.6-11 22.7-12.5 35.2-4.1 34.8 3.3 70.1-2.7 104.9-4.9 25.8-15.1 50.2-25.4 74.3-7.9 18.9-17.1 37.4-22.7 57.2-3.1 9.9-5.8 20.4-12.5 28.6-10.1 12.7-22 24.3-29.2 39-3.8 7.7-5.7 17.2-1.6 25.3 4.4 8.5 13 13.6 20.8 18.5 14.6 8.4 27.3 20.5 43.8 25.3 25 7 51.1 8.4 76.6 12.7 15.9 2.7 32 6.3 46.3 14 5.5 3.1 10.8 6.7 15 11.4-21.1-8.8-43.9-12.5-66.3-15.8-29.4-4.3-59.2-7-88.1-14.3 6.6 7.7 12.6 16.1 20.8 22.3 4.1 3.3 9.7 2.9 14.6 4.1 36.5 7.8 74-1.8 110.6 4.4 19 3.1 37.3 10.1 53.6 20.4 16.7 10.4 30.9 24.3 43 39.7 7 8.4 15.4 17.5 15.1 29.1-8-14-16.9-27.7-28.1-39.3-12.8-13.6-28-24.8-44.8-32.8-21-10.1-44.1-15.4-67.3-16.7-17.1-1.4-34.1.1-51.1 1.6 8.8 1.2 17.6 1.6 26.3 3.3 21.9 3.8 43.1 11.8 61.5 24.2 18 12 33.2 27.9 45.6 45.5-9.1-2-17-7.1-25.4-10.9-4.7-2.4-9.7-4-14.5-6.2-.4.7-1.3 2-1.7 2.7-5-4.7-11.4-7.6-18.1-8.9-16.6-3.5-34.2-1.7-50.1-8.1 10.8 14.2 25.5 25 35.4 39.9 4.1 6.2 7.1 13.1 9.1 20.2-9.7 2.7-19.9 3.5-29.9 4.6-16.1.9-32.4 1.2-48.4-1-5.5-.9-11.1-1.6-16.3-3.6-1.5-6.3-2.2-12.8-3.5-19.2-1.5 3-.4 6.4-.4 9.6.3 2-1.5 2.7-3.2 2.9.1-5 .1-10.1-1.4-15-2 .4-4.2 1-5.5 2.8-4.9 6.1-2.8 16.1-10.1 20.6 1.2-5.5 3.8-10.8 3.6-16.5-.1-7.2-2.1-14.5-6.4-20.4-3.8-4.9-9-8.6-12.3-13.9-3.2-4.8-3.6-11.1-7.6-15.5-12.7-15.9-30.3-26.8-47.3-37.4-29.3-17.2-57.6-36.1-87-53.1-3.4-13.1-8.3-25.9-14.7-37.8 6-15.3 19.9-25.8 25.1-41.5 1.7-4.9 2.3-10 2.6-15.1-5.6 18.9-23.9 30.5-29.4 49.3-.6.6-.1 2.8-1.5 2.7-7.5-7.7-12.8-17.5-21.1-24.6-3.4-3-7.5-5.2-11.7-6.9 2.8 7.3 8 13.2 11.9 19.9 4.4 7.1 8.2 15.3 6.9 23.9-6.4-10.1-9.8-21.7-16.5-31.6-8.6-12.5-21.5-20.9-33.3-30.1-16.1-12.8-34.9-21.7-50.2-35.6-29.2-27.6-50.8-63.7-59-103.2-5.1-24.1-5.4-49.2-2-73.6 1.3-7.6 2.9-15.5 7.2-22.1 3.9-5.5 10.1-8.7 14.9-13.3 6.8-6.1 8-16.3 15.5-21.7 3.9-42.8 13.8-85.6 33.3-124.2 14.1-27.9 33.5-53.4 57.7-73.3 17.7-13.9 38.4-22.9 57.9-33.8 23.6-12.6 47-25.4 70.3-38.5 20.7-11.6 41.1-23.7 62-34.9 24.3-13.5 48.7-27.6 68.9-46.9 18-17.1 31.4-38.4 44.5-59.3 4.9-8.1 10.4-15.8 15.2-24-1-15.5 6.7-29.9 6.3-45.4-2.8 12-5.8 24-8.6 35.9-5.2-4.7-8.2-11.1-11.4-17.2-4.5-8.5-10.8-16.3-12.6-25.9-1.6-8.4 1.9-16.7 6.8-23.3 3.8-4.8 9.4-7.6 13.8-11.7 4.5-3.7 7.1-9.1 9-14.4 3.9-11.4 3.3-23.5 5.5-35.2-3.7 11.8-5.2 24.5-11.8 35.2-2.9 4.9-7.4 8.7-12.6 11.1.5-6.1.3-12.3-1.6-18.1-3.4-12.1-11.3-23.3-10.1-36.3 1.4-8 5.9-14.9 9.1-22.2 6.5-14.5 15.6-27.7 26.6-39.1.4 0 1.2.1 1.6.1 1.3 3.9 0 8 .5 11.9 3-44.8 11.1-89.8 28.7-131.4 15-35.5 38-68.1 69-91.3 38.7-29.5 87.4-43.2 135.5-46.5.5 9.2 3 18.6 8.7 26 2.4-7-1.9-13.6-4.9-19.6-2.9-5.5-3.6-11.8-2.7-17.9-23.2 1.1-46.3 4.5-68.3 12-19.3 6.4-37.6 15.7-54.5 27.2-4.6-7.3-13.3-11.2-21.8-10.2 1.5-6.4 1.5-13.1 1.4-19.6-.6-3.6 3.3-5.8 6.2-7 8-2.4 16.2 1.5 24.2.2 24.9-3 45.4-20.7 70.6-22.8 13.5-1.6 26.2 5.8 39.8 4.1 2.8-5.7 3.3-13.2 5.2-20.4m150.3 329.9c-3.9 5.1-4.5 11.9-3.3 18.1 14.2-4.3 22.4-20.2 20.3-34.5-4.6 6.5-12.2 10.1-17 16.4m-36.6-2.4c0 5-1 10.5 2.1 14.8.9-4.9 1.7-11-2.1-14.8m-770.5 630c4.3 21.8 11.5 43 21.6 62.8 16.9 33.4 41 62.6 67 89.4 15.5 15.8 31.5 31 46 47.7 12.1 13.8 22.8 28.8 31.2 45.1-.5-8.1-2.9-16.1-6.5-23.4-6.3-12.8-16.2-23.3-26.3-33.2-27.9-28-56.4-55.7-80.3-87.3-24.2-31.9-43-68.3-52.7-107.2-1.2 1.8-.3 4.1 0 6.1m-35.1 101.5c2.5 14.1 5.4 28.2 10.4 41.7 7.6 21.3 18.8 41.3 32.9 59 10.7 13.1 22.6 25.9 38.1 33.1-4.4-4.8-9.3-9.1-13.7-13.9-26.2-26.9-47.9-58.8-60.2-94.5-3-8.3-4.9-17-7.5-25.4z"/><path d="M670.2 424.8c9.8-6.1 21.3-9.5 32.8-8.9 5.4.1 10.8 1.3 16.2 2-2 2.5-3.9 5.2-6.6 6.9-25.9 19.3-48 44.2-61.5 73.7-7.4.3-15 .7-21.7 4.2-5.9 2.8-10.5 7.5-14.9 12.2-6.3-4.5-10.3-12.2-9.3-20.1 1.7-14 10-26.1 19-36.6 5.8-6.5 12-13.1 20.5-15.7 9-5.1 16.5-12.5 25.5-17.7zM968.1 447.9c9.6-2.8 18.3 4.6 27.9 3.2-.7 6.4-5.6 10.9-10.6 14.4-5.1-.4-10.3-2.9-13.2-7.2-2.1-3-3.3-6.7-4.1-10.4zM987.3 504.8c4.7.7 9.1 2.9 13.3 5 7.9 4.2 15.5 9.4 21.2 16.4-13.5-3.2-23.8-13.2-34.5-21.4zM621.4 518c6.5-4 13.7-6.8 20.9-9.1-2.7 18.2-11.4 34.8-15.3 52.6-4.4 18.5-5.2 37.6-8.8 56.2-1.1 7.9-4.7 15.3-9.9 21.3-4.7 5.4-9.8 10.5-14.1 16.2-3.8-14.3-11.1-28.4-8.9-43.6.5-7.1 8.3-10.9 9-18 .5-7.9-4-14.8-6-22.1-2-7-.4-15.1 4.4-20.6 4.2-4.9 9.7-8.5 13.7-13.5 2.7-3.2 4.2-7.3 6.1-11 1.9-3.8 5.5-6.2 8.9-8.4zM924.7 659.5c3.8-.6 8 0 10.9 2.9 6.3 6.2 7.9 15.3 9.8 23.5 8.5 5.2 14.3 14.1 16.8 23.6 2.4 9.1-.5 19.7-8 25.6.1-4.7 2.4-8.8 3.8-13.1-8.7 2.2-13.6 11.8-12.6 20.3 1.1 6.3 5.7 11.2 9.1 16.4 3.2 4.5 5.3 10.1 4 15.7-6.4-6.9-13.5-13.6-16.4-22.8-1.7 3.1 1.8 5.9 2.6 8.7 1.5 2.4.7 5.1-1.1 7-5.6-7.6-6.8-17.3-7.1-26.5-.3-9.5.2-19.1-.2-28.6-3.2 4.7-2.9 10.5-4.1 15.8-4.6-9 1.7-18.5 1.2-27.8-4.3 4.7-3.9 12-8.6 16.5-.5 3.7 2 8.7-1.4 11.5-.1-4.2-.3-8.4 0-12.7 1.4-12.7 11.3-22.8 11.5-35.7-3.3.3-3.1 3.7-3.8 6.2-.3 1.5-2.3 1.2-3.3 1.9 4.8-9.2 2-20-3.1-28.4z"/><path d="M930.7 743c-.9-3.5 0-7.2.1-10.8 2.1 3.5 3.4 7.8 1.8 11.8-.5-.3-1.4-.7-1.9-1zM939 1187.4c4.1-3.8 9.4-6 14.8-7-4.4 3.3-9.4 5.9-14.8 7zM916 1223.7c5.4-12.9 16.3-23.5 29.4-28.4-3.6 3-7.3 5.8-10.6 9.2-3.1 3.2-7.6 5.5-8.9 10.1-1.4 4.5-4.5 9.6-9.9 9.1zM448 1596.4c6-12.1 13.7-24 24.8-32.1 4 7.3 8.5 14.5 14.7 20.2 6.8 6.2 14.7 11 22.4 16 7.8 5.2 16.4 9.8 25.9 10.6 11.5.9 23-2 34.4-.1 14.8 1.7 28.6 7.9 42 14.1 17.3-1.4 35.4 1.9 50.2 11.2 10.9 6.9 19.9 17.1 24.6 29.3-8.1-7.5-15.1-16.2-23.8-23-12.5-10.4-28.8-16.3-45.1-15.7 2 2.7 5.4 3.7 8 5.7 1.2.6.7 2 .8 3.1-7.2-4.2-15.4-6.3-23.7-6.1-11.9 0-23.6 2-35.5 1.9l3.3 1.7c-3.5 1.6-7.4 1.6-11.2 1.9-13.1 1-26.6 1.2-39.3-2.6-26.3-7.2-48.6-23.6-72.5-36.1m31.7.8c7.8 6 16.2 11.5 25.8 14.3 7.5 2.3 15.5 2.4 23.1.8-17-3.3-32.3-12.2-49.2-16 .1.2.3.7.3.9m-8.3.7c6 8 13.8 15.1 23.4 18.4 6.2 2.2 13.2 1.8 19.2-.9-6.4-.1-12.8-1-18.6-3.7-8.6-3.6-15.5-10.1-24-13.8z"/><path d="M447.8 1607.7c.5-.3 1.6-.8 2.2-1 15.1 13.8 33.3 24.8 53.4 29.4 23 5.6 46.8 1.2 70.1 2.3 8.5.3 17 1.8 24.9 5.3-.7 2.2-3.3 2.1-5.1 2.2-5-.5-9.1-4-14.1-4.6-15.7-2.8-31.7-1.2-47.5-1.3-16.6.4-34.5.9-49.3-7.8 11.9 11.6 27.3 18.9 42.7 24.5 11.2 3.9 22.9 6.6 34.8 6.5 24.2.5 48.4-6.4 72.5-1.7 18.6 4 34.6 15.5 48.1 28.5 6.6 6.5 13 14.3 14 23.9-6.6-6.2-11.4-13.9-17-20.9-11.6-15.3-29.6-24.5-48-28.8-24.4-5.5-49 3.2-73.6 1.4-18.2-1-36.1-6.2-52.2-14.7-20.2-10.5-37.7-25.4-55.9-38.9-.1-1.4-.1-2.9 0-4.3zM349.1 1672.4c-.4-4.3-2.7-9.2.8-12.8 3.4 2.3 7.7 2.8 11.4 4.7 8.9 4.1 16.2 10.8 24.4 16 19.3 12 39.3 22.9 58.2 35.6 14.1 9.5 27.7 19.9 39 32.7-23.7 2.5-48 2.6-71.3-3-15.6-3.9-31-10.9-41.7-23.2-4.4-5-7.8-10.7-10.2-16.9 0 11.6 3.4 23.4 10.5 32.7 10.1 13.3 25.8 20.9 41.6 25 14 3.9 28.6 4.3 43 4.5-7.6.6-15.3-.1-22.9.7-12-.2-24.3-1.1-35.8-5-15-4.7-27.2-16.4-33.6-30.6-8.5-19.1-10.3-40.1-13.4-60.4z"/></svg>