<svg xmlns="http://www.w3.org/2000/svg" viewBox="0 0 2855.234 1584.203"><path d="M2792.047 1170.765c4.39-1.394 9.176-.344 13.927-.417l.123-.887c-9.98-3.026-21.892.531-29.595-7.474-10.119-10.336-23.269-16.902-35.395-23.977l3.263-3.119-.475-.75c-2.077.79-4.152 1.606-6.338 2.495-4.319-1.502-7.819-2.858-10.909-4.22a92.231 92.231 0 016.779-4.233l-.284-.844c-4.176.565-17.981 1.667-23.241-7.108l2.314-.374c6.837 1.052 15.292-1.533 21.042-9.022-9.835 2.241-16.6 5.04-24.532 5.124.798-1.459 1.219-2.188 3.664-6.523-5.783 2.282-10.063 4.229-14.769 4.971-3.804-3.299-8.05-6.001-10.94-9.972 10.754 1.307 21.606.156 32.447-.824 2.704 1.054 5.372 2.745 8.516 2.856 3.248 7.717 31.12 4.226 42.108-7.648l-.61-.665c-13.799 10.755-38.359 8.663-45.146 3.911 13.93-7.639 25.939-12.878 32.096-27.327-11.716 3.694-10.374 6.012-31.591-.727-1.876-.598-3.65-1.162-4.122-2.954 1.802-4.654 5.202-6.625 9.218-13.353-5.533 3.133-10.034 5.708-15.709 8.305l-.139 1.15c-7.033 2.193-13.087-2.885-19.04-6.191.524-.152 1.706-.494 2.198-.643 12.503 1.073 14.689-.183 20.933-4.623 7.512-5.342 7.87-4.909 11.2-2.858 2.33 1.434 3.877 2.209 5.676.325-1.646-3.873-4.677-5.248-8.005-7.6 3.974-4.391 3.737-9.166 9.715-14.66-6.793 1.252-10.304.953-14.39 2.671-2.524-1.597-4.579-2.877-6.909-4.362 3.636-2.784 8.76-1.4 13.332-1.601 10.065 3.561 29.921 5.642 53.98-.848l-.232-.876c-17.194 4.497-36.375 2.954-55.546-4.438 5.924-2.844 10.566 2.269 19.667.015-10.648-3.575-17.688-6.456-26.069-8.98.838-.425 1.928-.972 2.525-1.275 15.694 4.318 45.838 1.202 54.558-15.436l-.735-.516c-16.436 18.004-40.624 13.464-70.194 6.227l-.666.263c-5.775-2.061-11.636-3.63-16.927-6.601l-.575-1.243c13.039 2.563 50.181 16.289 59.012-3.897l-4.217-.151c.66-5.095 3.677-9.502 7.956-11.608 22.501.414 9.397 2.748 31.298-4.914-2.203-4.22-2.083-5.887-2.065-8.138-2.456 2.587-3.404 3.531-4.714 4.959-2.982-.099-7.622-.225-7.622-.225-3.151-2.34-6.712-3.992-9.79-6.259 6.474-.148 13.137.502 19.615-.996 3.515 2.719 7.079 3.349 8.242-.935 4.081-1.415 4.453-1.535 5.651-1.935-2.706-2.909-5.991-5.264-9.989-4.339-2.224-1.188-4.503-2.417-6.431-4.045 9.069-.551 14.319.514 21.005-5.631-17.475 1.485-9.771 7.753-40.191-7.26l.646-3.042c9.156.089 20.457-6.639 26.998-11.716.125-2.1.229-4.144.594-9.924-3.633 3.604-5.114 5.427-7.469 7.494-2.694.448-5.367.318-8.092.125-1.812-1.284-3.902-2.424-6.373-3.464 3.737-1.592 7.586-3.112 9.996-6.525 7.674-2.565 13.655-7.227 16.606-15.042-10.295 4.247-21.147 7.729-32.466 5.714 3.424-2.951 4.825-4.633 5.938-5.923-6.767-.305-11.194.614-16.273.08-4.106-1.077-8.167-2.909-12.523-3.369-.657-.382-1.635-.966-2.635-1.559 22.716-.317 55.817-4.823 60.995-26.542l-.841-.316c-4.748 8.999-10.986 13.603-18.413 15.817-11.529 3.44-23.449 6.993-35.354 4.035-2.608-2.526-4.408-4.261-6.345-6.172 3.861-.934 7.485-.267 9.396-4.868-8.695-.422-31.788-10.305-46.745-32.363 3.612-.279 7.563-.479 12.667-.643l.108-.889c-6-1.714-11.745-3.459-17.638-3.918-8.39-5.008-4.667-5.318-25.765-25.781 5.854-2.005 12.921-.1 17.701-4.958-.438-3.983-3.846-1.956-6.078-1.442 3.794-5.132 7.673-10.529 12.709-14.739l.469 1.552c3.26.259 6.51.207 9.671-1.208 2.302 2.545 5.399 3.951 9.475 6.06-12.3-19.637 1.551 1.178-12.063-16.167 5.392-1.937 10.471-4.69 15.172-7.397 6.599.719 13.013 3.013 19.702 3.86l.235-.866c-5.171-2.216-9.934-3.542-14.552-4.049a996.292 996.292 0 01-1.806-3.349c4.791-3.037 10.149-6.501 11.208-12.654l-.861-.257c-1.989 4.584-4.539 7.411-7.778 8.616.146-2.833.373-5.664.672-8.423l-.895-.139c-1.246 6.141-3.115 12.954-9.187 11.241-11.3-4.064-19.959-12.895-27.194-20.96 4.708-2.578 10.108-4.07 14.425-7.539l-.368-.798c-6.107 1.16-11.856 3.899-18.042 4.389a197.421 197.421 0 00-1.808-2.617c-2.341-15.437-6.959-16.824.263-18.028 8.727-1.454 9.793-1.821 22.173-12.422-5.016.367-6.669-4.505-2.31-4.177 4.388-.273 7.293-2.733 10.004-5.466-8.259.599-12.495 1.498-19.729 2.372-.766-.415-1.78-.955-2.938-1.575 12.252-2.554 21.441-4.689 21.441-22.253l-.903-.048c-1.036 9.769-9.176 16.823-18.684 16.183a14.962 14.962 0 01-4.003-3.96c1.732-.355 3.624-.736 4.731-.968 1.109-1.425 5.241-7.034 6.233-8.952l-.782-.455c-1.371 2.114-5.679 10.413-15.775 9.413-1.391-1.671-2.435-2.778-4.531-5.152 6.729-.16 13.25-3.339 18.795-10.748-6.195 2.047-9.182 3.586-13.199 4.005-.422-1.031-.716-1.708-1.268-3.073-3.341.786-5.979 1.38-9.137 2.133-3.035-2.713-2.438-7.91-7.654-8.976-.201 1.674-.182 1.476-.403 3.246a98.402 98.402 0 01-.524-.484c-.377-1.503-.983-2.837-1.832-4.028 1.014.243 1.726.193 2.735.021 1.363-3.449-1.112-6.244-1.457-9.543 4.879 4.901 12.176 6.817 18.128 8.361 3.788 3.1 8.543 2.723 14.596 3.736-1.11-1.665-1.701-2.614-4.524-5.655 8.632-8.163 6.234-5.161 6.665-17.814l-.893-.123c-3.512 14.318-1.903 9.485-15.755 15.214-26.446-12.959-20.927-14.816-21.96-26.92 5.865 1.099 9.552 3.921 14.151-1.02-1.719.215-4.126.538-8.184.794 1.637-3.94 4.063-7.551 6.16-11.025l-.641-.61c-4.16 2.807-8.733 5.367-13.999 5.356-5.356-19.673-3.198-10.025-12.036-25.58l2.058-.787c8.215 9.56 19.847 14.312 27.299 3.972-5.638.906-14.184 2.02-18.887-3.993 6.163 1.326 8.468 2.103 14.039 1.401-2.457-1.741-4.413-3.13-10.85-5.786.756-1.41 1.34-2.472 1.894-3.472-7.387-1.878-16.455-3.869-20.182-10.576 9.048-.773 17.224-4.717 24.742-9.869l.799-5.922c-7.679 8.356-18.349 10.886-28.907 9.834-3.405-6.765-7.934-13.73-14.229-21.876 3.695-4.901 7.598-9.956 10.468-15.59l-.78-.456c-2.993 4.504-7.461 8.155-9.921 13.152-2.2-1.271-4.399-2.634-5.711-4.792 12.819-11.69 25.195-16.754 13.265-33.895l-.811.37c1.931 7.584 5.99 13.163-9.914 24.144-3.184 2.198-6.943 4.67-8.052 1.272 6.115-6.272 7.831-11.814 7.934-18.015-1 .999-2.033 2.018-3.392 3.503a868.029 868.029 0 01-.733-5.168c-5.408 5.953-7.433 11.82-13.17 14.912-1.561.037-2.916-.351-4.008-1.179 5.613-8.588 11.459-13.849 11.792-24.669-4.267 4.589-5.772 7.899-9.317 10.114.594-2.257 1.277-4.514 1.941-6.707l-.777-.426c-3.238 3.778-6.489 7.798-11.418 8.589 2.767-5.844 7.39-8.764 6.753-16.626-1 1-2.362 2.345-3.969 4.149l-4.798-1.219-1.901 2.342c-1.962-5.094.585-9.423-.763-16.511-2.733 3.835-3.042 6.303-5.295 8.122-2.336.894-4.896 1.09-7.388 1.382.265-2.138.519-3.633.738-4.963-3.012 1.77-5.912 3.384-9.507 4.675 1.91-2.051 3.788-3.745 6.384-6.26-3.492-4.213-6.99-.349-10.217 1.393-11.551-13.641-7.707-2.12-18.396-10.443-2.505-1.952-4.055-4.211-21.529-5.837-1.345 4.916.125.787-5.273 12.229l-3.525-1.393a323.565 323.565 0 00-7.991 4.856l-.914-4.841c-4.028 4.442.939-1.038-2.654 2.932a523.758 523.758 0 01-6.967-1.922c-5.842-6.048-3.789-6.848-14.869-3.927 3.802-2.593 4.837-4.035 6.046-6.059-8.28-.958-12.426 4.123-18.643 8.922-5.362-2.526-11.419-2.455-17.238-3.373-2.615 1.587-4.529 3.303-6.968 5.326-19.693-11.281-28.754 8.467-47.884 6.411.214 1.373.406 2.69.523 3.546a116.808 116.808 0 00-3.681 2.717c-4.661-1.407-6.542-1.85-8.34-2.283l.958 2.377-1.934 3.721c-3.556 1.157-6.88.402-10.18-1.267-4.313 1.45-6.435 6.147-10.602 5.872-5.182-.372-9.707 3.504-14.553 2.469-1.587-3.541-1.679-8.119-4.873-10.962l-.728.492c.316.877.905 2.564 1.289 3.643a73.08 73.08 0 00-4.185 8.483c-1.292-.897-2.434-1.703-4.946-3.472.319 1.528.586 2.849 1.283 5.777a670.377 670.377 0 00-6.52 3.948c-.846-.49-1.888-1.093-2.734-1.56l-6.466 3.191c1.721 1.246 5.35 2.385 6.025 2.994-2.678.752-5.088-.054-8.864.178l.595 1.803c-4.259 1.695-8.504 3.475-12.801 4.85l-.469.375c-4.821-.729-9.752-.645-14.52-.558-24.621.445-18.555-4.018-29.916-5.497-.227-.265-.824-.935-.99-1.135l-3.655-1.763c-11.288-9.344-27.373-9.973-38.155-19.705-16.158-15.84-24.339-26.429-43.695-37.65-2.476-1.438-3.923-2.353-4.837-4.554-3.988-.688-29.833-16.224-31.683-17.439-8.612-3.821-29.118-10.803-38.203-17.269-2.776-1.976-5.646-4.018-9.317-4.475-5.643-4.655-12.792-7.025-18.125-11.931-2.901-2.637-6.408-4.358-9.8-6.022-13.767-6.755-9.544-8.889-21.599-13.14-5.036-4.968-28.407-9.836-33.819-8.792-3.334-.9-6.734-1.127-10.139-1.589-3.979-2.711-8.878-3.446-12.844-4.402 0 0-8.878-.461-12.209-.568-6.972-12.519-151.679 5.136-152.685 5.244-13.379.849-26.94-1.239-40.34.839-10.327 3.562-21.637 2.784-32.098 5.689-11.629-2.563-20.556 1.362-38.15 2.242-7.311.698-15.304.168-22.244 3.341-13.778 1.705-83.798.216-94.149 7.245-24.656 1.846-49.53 1.348-75.003.616l-1.302-1.689c-6.656-1.902-13.661-3.424-20.13-6.265 4.903-.203 7.06-.143 9.374-.07-6.446-9.217-16.228-5.905-27.104-2.251l.003.018c-.455.14-1.906.691-2.351.86-7.312-3.934-16.853-4.669-26.174-2.018-2.67.455-4.633-1.907-7.244-3.212-9.875 1.587-6.837-.102-13.924-1.05-1.951-.261-3.805-.509-5.299-1.614 4.651-2.315 10.087-3.343 14.312-6.694 11.161-.898 16.523 9.772 30.447 7.238-13.255-4.816-23.234-14.56-35.229-8.476-6.135 1.266-11.114 6.22-17.366 6.084-2.186-.571-4.257-1.653-6.322-2.602.715-2.252 1.394-4.291 2.545-7.779 6.497-.894 10.424-7.431 16.517-8.54 5.405-.794 10.649-2.851 16.04-3.178 6.847 3.314 13.996 8.482 21.903 4.659l-.174-.86c-6.231-.324-11.676-3.531-16.968-6.61 39.781-20.622 39.922 8.029 54.581-6.595-18.51 3.153-16.662-14.485-49.338-.813-6.048 2.531-12.286 5.151-19.029 5.026 10.06-6.359 21.227-14.351 29.41-25.453l-.659-.613c-14.174 12.098-29.523 24.337-47.589 29.497-1.099.015-3.068.03-4.341.041 6.604-15.73 4.609-2.173 18.039-16.472l-.527-.718c-4.202 2.035-8.001 3.586-11.584 4.73 1.398-6.769 4.292-13.39 4.027-20.536l-.879-.135c-2.393 6.754-3.461 17.099-11.184 19.244-1.199-4.654 2.984-8.307 5.599-14.962-1.409.892-2.681 1.636-2.681 1.636-2.703 4.889-5.174 10.135-9.659 13.355-6.448-2.818-10.709 4.706-15.613 7.347-2.814-1.31-5.997-1.48-8.158-3.45 5.069-4.226 10.845-8.077 14.72-13.702l-.696-.575c-8.377 8.502-19.231 13.905-29.006 20.571-2.168.17-4.327.716-6.516 1.282 3.134-2.256 6.281-4.445 10.106-7.12l.469.448c14.354-10.562 24.83-16.284 31.261-31.359-9.01 6.967-12.05 12.846-19.191 18.201-1.928-2.661-.216-5.416.788-10.144-2.538 1.649-6.098 3.942-9.824 7.696l.177.566c-22.84 19.198-3.914 7.621-29.789 19.837 15.165-9.028 32.406-32.65 36.889-44 1.185-5.245 5.93-1.842 21.913-11.434l-.369-.82c-5.589 1.766-11.139 4.059-16.983 4.668 1.456-5.661 2.88-12.286 2.807-19.025l-.906.002c-.036 6.873-1.95 13.585-3.815 20.079-3.233 1.194-5.954.058-9.059-3.767l-.71.563c1.131 1.464 2.263 2.928 3.408 4.406-3.896 2.431-7.896 4.96-11.385 8.065-1.68.464-3.094 1.282-4.703 1.42 3.288-5.998.632-11.586 4.221-19.54-9.712 5.507-5.964 10.824-19.133 16.093 2.015-7.998 7.133-15.108 7.821-23.638l-.89-.151c-2.275 8.671-10.699 26.132-19.614 25.489 4.414-7.009 9.757-13.595 13.218-21.275l-.777-.456c-4.292 5.806-8.26 12.165-13.752 16.94a74.835 74.835 0 01-3.74-3.366c-.853 1.942-1.884 4.031-1.557 6.094-4.224.129-10.023 2.208-12.039-2.049.828-.11 1.31-.182 2.126-.279 2.278-4.567 5.814-6.873 10.321-9.767 15.632-10.04 15.868-23.073 26.739-27.827 4.524-1.978 5.187-3.034 6.259-5.234-21.174.364-17.906 23.003-39.625 32.913-4.148 1.174-8.511 2.169-12.491 4.106-.059-1.047-.174-3.19-.228-4.105.456-2.127 1.012-4.559 1.867-6.874 5.683 2.994 11.447 2.89 17.476 2.353-7.834-3.555-12.23-3.151-17.414-6.061-3.908-1.63-11.953-4.978-15.03.955-2.418-1.19-4.664-2.442-7.203-3.253 1.726-5.589-1.293-11.054-1.241-16.466l-.871-.179c-3.795 9.097-8.769 27.562-18.343 25.542l-1.004-3.276c5.099-5.581 9.256-11.405 12.368-17.317l1.097-.279c3.792-9.118 6.467-18.752 3.158-28.127l-.875.218c1.349 9.058-2.65 17.393-6.8 24.376l-.528-.068c4.894-40.709 5.472-19.261.849-45.85l-.899.058c-.475 11.152 2.964 13.881-1.75 29.156-1.122 3.635-2.275 7.393-1.915 11.346-9.886 18.39-8.341 22.302-17.749 28.716l-.239.542c-3.13.876-6.226 1.99-9.142 2.999 18.38-18.406 19.015-33.946 20.283-42.934 1.087-7.714 2.212-15.691-.79-23.055l-.87.221c1.413 12.646-4.005 24.447-8.172 35.958-2.666 2.067-4.924 3.376-7.208 4.163.141-1.251.327-3.014.435-4.043l1.106-1.83-.037-.115c.516-6.008.251-12.05.411-17.989.304-8.587 5.769-16.425 5.035-25.335-.253-2.563-2.295-4.206-3.598-6.018l-.762.487c2.458 4.367 1.478 9.871-2.239 13.094-.949-3.769-1.803-7.428-2.8-11.045l-.889.104c-.234 6.556 4.158 13.201.372 18.972-.467-.249-.935-.503-1.39-.743-1.062-5.307-3.549-8.043-5.307-9.967.576 9.889-1.871 16.054-5.007 25.961-2.835 3.774-6.464 6.823-9.681 9.317 0 0-.748-.316-1.11-.471 1.797-3.169 2.008-6.759 2.214-10.236.496-8.412 4.512-17.698 1.175-29.534l-.886.177c2.63 21.929-4.38 16.098-7.262 31.068-3.021 2.665-5.689 5.403-8.888 8.032.492-.647.641-.839 1.148-1.497-2.939-.215-3.738-.262-6.212-.437 1.201-3.842 5.478-16.479 3.431-22.99-3.72-7.979-6.002-17.241-12.708-23.617l-.74.477c.824 2.369 3.747 9.204 4.124 9.957 1.891 4.431.848 9.753 3.054 14.265-1.769 7.339-6.898 14.197-13.799 18.499-1.433-7.182 1.182-13.809-3.594-20.539-3.349 7.155-6.396 12.046-10.842 19.524 1.108-8.889 6.253-15.666-2.509-31.935-.247-6.677-3.074-13.223-7.77-17.974l-.722.532c4.813 9.002 3.5 19.302 2.358 29.299a.871.871 0 00-.005.048c.174 1.002-.91 9.312-4.45 16.587l.542.787-2.608 4.134c-6.877-2.643-15.501-3.981-18.586-11.094 1.781-3.171 4.112-6.024 6.374-9.015l.899 1.026c2.064-6.757 4.462-9.592 3.134-15.74-3.247 3.271-4.591 5.156-7.546 8.91l-1.016-.436c-3.508-10.461-5.201-11.745-9.377-14.631 3.226 7.071 5.089 13.819 4.685 23.477-3.281 3.557-8.152 4.314-12.588 4.655 1.344-7.334 1.777-10.152 2.312-13.819-2.921 2.012-5.795 1.585-5.569 4.399-4.644 5.131-10.239 9.907-16.865 7.439 8.783-7.981 20.308-18.802 15.559-32.189l-.867.257c1.59 6.609-.874 13.422-6.282 17.36-5.07 3.812-14.747 12.822-22.576 10.865 11.794-9.922 19.955-21.977 18.917-37.359-7.542 14.437-14.679 30.661-30.52 34.614-3.047-1.699-6.771-4.092-9.353-7.647 11.599-5.456 17.312-17.673 24.148-28.202-2.439-2.417-.94-4.799-.817-7.782l-.899-.097c-.964 5.472-2.338 7.811-4.004 9.777l1.295 2.628c-2.903 7.677-16.967 16.245-28.269 20.153l-5.478-.33c.17-4.847.758-8.221 1.578-11.97-4.181 2.991-7.502 5.842-11.709 5.926 3.917-6.088 32.748-24.612 22.214-49.96l-.872.168c-.07 5.627.854 11.613-1.467 16.858-3.613 8.425-15.007 23.027-17.946 20.906 7.686-7.933 7.741-12.955 9.399-19.585l-.824-.349c-4.168 6.694-.076 6.581-9.993 16.79-3.222 3.316-6.543 6.735-10.921 8.089 15.56-17.255 11.893-11.845 13.54-25.037.537-4.344.551-5.269-1.743-13.91 4.854-5.449 8.404-10.697 10.837-16.034l-.721-.519c-3.577 3.338-6.688 7.218-10.692 9.99l.181-4.878c1.54-3.05.976-6.937-3.317-9.818-.573 4.128-.838 6.473-1.266 9.902-1.464-5.157-.266-10.677-5.891-13.299-.576 5.621-.826 11.114.085 16.766l-3.246.342c-.444-2.309-.888-4.617-1.316-6.926l-.894.145c.534 3.854 1.199 7.588 1.784 10.757-1.194 1.892-2.286 3.861-3.352 5.708-.185-5.499.305-8.74-2.117-13.704-.635 1-1.689 2.663-3.234 5.06a287.981 287.981 0 01-1.517-4.369l-.879.191c.525 5.232-.077 10.055-1.774 14.347-6.979-.731-14.053-.102-21.17.411.157-4.241.161-7.191.143-10.208-1.317 1.265-3.452 3.299-6.775 6.738a864.316 864.316 0 01-.842-6.334c-2.242.56-3.687 1.417-3.771 6.619l-1.076 2.309c-2.6-5.198 3.063-9.477 2.895-17.331-1.93 2.432-3.637 4.59-5.378 6.74-1.28-7.056-4.859-13.374-8.235-19.698 3.081-2.274 5.402-5.395 7.69-8.671l-.679-.592c-8.36 7.719-16.088 14.345-25.745 17.119.45-2.896.908-11.319.885-11.588l-.903.004c-.413 5.422-5.695 7.207-3.743 11.864l-2.895-.078c-.314-5.012-2.225-9.642-4.002-13.604l-.841.334c1.4 4.013 2.863 7.9 2.993 11.94-10.127-6.106-14.689-18.037-23.185-26.179 5.497-.699 9.055 3.446 15.856 6.798-3.768-7.456-8.854-11.349-16.714-15.397l-.095.036c-9.225-.447-16.552-6.949-25.071-9.87-26.146-10.78-37.797 1.805-50 4.438-5.429-1.639-10.082-5.866-16.017-5.77 7.998-3.952 13.308-6.375 15.251-14.495-31.197 19.549-21.526 6.938-39.627 12.464-5.55-1.088-10.943-3.809-16.543-3.699-11.508-3.959-19.835-3.506-24.783 1.324-2.658-4.438 4.524-7.376 5.969-13.753-1.599.768-3.428 1.523-6.476 5.122-1.42-.143-1.988-.187-3.794-.375-2.922 8.264-8.359 13.676-14.115 20.375-6.186-.452-12.023 5.408-13.495 11.295a82.453 82.453 0 01-3.316-2.229c3.901-7.875 6.5-12.236 9.686-20.377-5.056 2.473-6.784 4.668-11.083 10.504a170.093 170.093 0 011.626-7.026c-3.542-.666-4.294-2.768-5.563-6.274-1.867 4.49-4.25 10.16-9.339 13.266-2.898-7.745 4.158-13.931 10.661-17.775 13.215-6.877 28.759-6.399 43.197-8.032l-.017-.902c-17.47-1.319-36.043 1.17-56.786 7.61-15.963 5.504-11.627 14.01-7.11 27.549-.942-.108-2.151-.241-3.086-.349l.175-.739c-5.035-9.545-13.682-29.224-9.319-39.432-.238-.579-.821-1.95-1.362-3.265-18.386 18.199-11.24 15.58-8.424 45.751-13.169-3.612-10.929-2.529-18.954-13.629-1.799-6.469-7.145-10.805 15.007-32.155l1.088-.78c12.385-1.21 13.473-1.426 22.03 1.6 7.45 2.632 15.153 5.354 23.235 5.499l.186-.869c-10.973-4.686-22.213-9.104-33.138-13.58 2.657-1.36 5.399-2.767 8.039-4.292l-.327-.834c-4.136.938-11.759-.31-13.833 4.276-1.798.315-4.879.854-7.009 1.225 3.165-4.213 8.466-5.949 11.525-10.815-1.351-8.104-10.55-9.802-15.776-14.386l-.658.617c3.347 4.347 7.358 8.356 11.926 11.922-6.783 7.51-13.796 12.89-20.846 16.041.977-5.446 6.376-7.861 9.086-14.105-5.461.387-7.433 3.077-11.493 6.937-4.108.049-9.055 1.787-10.927 6.512-4.419 3.032-4.698 3.462-11.088 7.13 2.655-9.193 12.14-14.434 19.28-20.436l-.478-.76c-6.302 2.844-11.661 7.348-17.021 11.711-4.291 3.476-5.769 8.954-9.186 13.069-.985-.238-2.779-.659-3.683-.882l-.013.003-3.381-.638c3.651-4.586 4.96-7.419 5.952-9.426-19.6 9.672-18.606 6.62-19.704 9.413-22.073 12.975-17.258 21.135-29.018 28.016.527-2.356.881-4.183 1.294-6.391-4.949 1.628-8.312 3.351-12.285 3.479 2.079-2.688 3.99-5.523 6.168-8.12 3.103-2 5.328-2.056 8.037-5.659-5.489-.427-10.768.661-18.469 10.951l-.216.879c-18.298 12.623-34.469 10.794-58.677 36.494l-1.758-7.128c5.139-6.547 13.343-9.517 20.023-14.139 4.203-2.702 5.491-7.697 7.206-12.008l-.841-.337c-4.079 10.067-15.194 11.769-23.749 17.652l.304-1.96c-8.063 3.229-22.874 13.861-19.17 20.219a164.456 164.456 0 01-.651 10.562c-4.17-3.588-10.007-6.728-10.801-12.222 2.434-6.063 8.963-9.775 11.391-16.146.72-3.037-1.482-8.584-2.276-11.026l-.883.156c.108 2.92.637 5.882.127 8.737-3.2 6.6-9.852 10.882-12.416 18.159.645 10.899 14.642 12.978 16.823 22.417-5.192-4.725-6.681-5.755-9.138-7.434.523 4.546 2.222 8.321 6.388 11.339-2.853-.536-55.684-44.45-62.475-50.518-6.297 8.52-3.682 6.738.647 34.829-.603 7.794 2.345 16.025 8.1 22.602 2.825 5.848 4.544 10.77-.97 13.135 2.591 3.858 5.019 6.437 6.483 9.845-.415 2.798-1.264 5.551-2.002 8.3-1.016-.177-5.083-.895-6.119-.977.19.823.498 2.156.687 2.965-.779.173-1.859.405-2.558.547-5.052-3.575-9.64-7.215-14.318-11.063l-.376 4.106c-3.748-2.121-7.03-4.285-9.894-6.178 1.228 3.106 2.545 6.41 7.767 11.636a89.007 89.007 0 00-1.906-.725c-7.271-2.666-14.889-3.871-22.641-3.949-8.035-.081-15.953.542-23.037 4.934-.778.482-1.177.167-1.689-.379-4.786-5.107-10.86-8.277-17.221-10.768-6.551-2.565-13.448-4.036-20.466-4.772-8.699-.913-17.373-1.255-25.848 1.563-1.048.349-1.879.193-2.778-.509a43.527 43.527 0 00-4.632-3.177c-7.866-4.638-16.43-7.481-25.298-9.369-10.573-2.251-21.241-3.687-32.093-2.398-.946.112-1.858.146-2.728-.357-7.461-4.307-15.422-7.324-23.704-9.688-11.109-3.171-22.361-5.442-33.873-6.327-3.423-.263-6.658-.718-9.85-2.24-6.16-2.937-12.649-5.048-19.209-6.992-8.28-2.454-16.672-4.423-25.059-6.425-5.203-1.242-10.66-1.683-15.661-3.452-14.14-5.002-28.46-9.382-42.906-13.367-2.182-.602-4.373-1.525-6.755-1.173 5.833 3.423 12.068 5.837 18.128 8.627 7.226 3.327 14.433 6.698 21.681 9.978 6.029 2.729 12.03 5.541 18.18 7.971 6.21 2.454 12.387 5.045 18.857 6.801 1.562.424 2.977 1.174 4.361 2.009 3.553 2.142 7.081 4.334 10.715 6.329 7.386 4.055 14.848 7.943 22.668 11.154 6.572 2.698 13.134 5.396 20.069 6.958 3.062.69 5.599 1.826 8.129 3.828 15.289 12.093 32.059 21.34 51.417 25.105 3.435.668 6.179 1.585 8.593 4.511 4.762 5.772 11.019 9.947 17.388 13.791 11.446 6.907 23.516 12.182 37.101 13.078.789.052 1.389.282 1.858.967 3.931 5.741 8.768 10.571 14.309 14.799 10.017 7.645 20.78 13.35 32.921 15.649-1.602.728-3.173 1.529-4.685 2.461l.295.835c4.036-.518 7.887-1.383 11.805-2.352.355.025.706.062 1.063.081 1.015.054 1.725.376 2.313 1.277a91.341 91.341 0 002.667 3.861c-3.775 5.617-7.462 11.244-9.574 17.691-7.026 15.931-11.353 19.463-12.166 29.279-3.547 1.165-6.434 2.303-9.063 3.57l.313.846c30.313-8.081 32.086-17.484 39.311-29.17.463.907 1.062 2.093 1.445 2.857-7.592 14.581-18.351 25.437-31.825 34.503 12.469-.956 16.483-8.96 25.142-15.411-3.48 13.612-12.581 21.858-20.164 45.903l-.841.105c-1.384 3.21-2.299 5.648-3.743 9.544-6.793 18.32-5.259 10.858-13.322 28.987-10.059 22.608-13.044 17.518-17.25 29.991-3.124 8.154-6.263 16.143-9.289 24.258-6.651 3.834-4.637 7.739-15.343 24.767-15.709 24.978-12.233 29.243-23.625 36.802-8.768 5.813-6.403 11.697-9.808 20.959l.001.004c-2.197 5.88-3.287 12.739-3.238 20.396-5.669 10.695 5.485 22.484 15.695 29.635 25.78 18.057 8.378 32.652 37.86 37.206 6.954 8.114 19.547 15.807 32.419 11.063 3.586 1.53 8.095 3.66 11.634.642 9.152-6.525 21.902-1.796 31.653-7.9 27.467-19.656 7.359-30.931 46.009-65.798 11.546-.453 13.362-2.344 55.081-31.818 7.308-.24 13.127-5.52 18.077-9.789-1.17-.021-1.325-.022-2.15-.041 9.432-2.842 18.039-8.241 27.39-13.913 8.709-1.108 7.252-6.38 27.108-9.765 2.646-.452 5.383-.918 8.04-1.571l-.014-.883c-.933-.197-1.797-.458-2.954-.757 15.439-3.341 44.173-33.235 57.993-40.272 76.788-13.878 26.63-8.21 83.728-10.084 2.922 6.88 3.962 11.155 9.794 15.396-.318-2.521-.482-3.845-1.275-9.034 2.133.243 1.736.195 2.677.309l1.299-1.761c2.934 3.507 5.071 5.772 6.326 7.118l-.531-6.001c.71-.66 1.856-1.735 2.565-2.406 6.335 1.867 11.629 6.378 18.243 7.741 5.041 5.93 11.013 11.173 16.791 16.242 19.881 17.441 15.695 15.423 34.911 40.613 48.244 63.247 26.058 41.027 54.03 77.093l-.087 1.085c3.441 6.071 6.742 11.324 9.758 16.929-.075 17.407 5.012 13.15 6 29.778.827 13.93 4.286 10.67.025 33.813-4.131 22.438-1.739 32.773 11.448 77.993-1.77-.925-2.625-1.379-3.626-1.908.906 4.615 1.52 7.045 1.886 10.088-1.823 1.276-3.374 2.108-5.424 3.607-.068 7.922 7.784 11.185 9.834 17.796 4.824 11.743 11.23 22.713 16.444 34.494 1.735 2.478 4.328 4.026 6.834 5.524 10.388 6.205 9.777 13.453 16.959 15.013 5.526 6.639 12.545 13.12 12.986 22.102-7.208 6.117-11.9 14.366-19.055 20.648-6.232 2.045-9.155 8.26-13.26 12.58-5.675 6.486-10.576 10.686-12.589 17.114-50.437 60.734-50.961 60.664-70.445 75.773-11.418 5.699-19.167 13.112-23.053 22.051l-.514-1.804-.885.182c.932 7.22-4.062 8.235-3.93 18.315l-.393-2.166-.898.087c.301 23.848-13.922 30.736-13.479 46.995l-1.362.183c.644 12.471-3.073 27.104 6.79 36.355.802 2.339 2.07 4.447 3.432 6.592 1.173 8.918 5.907 16.785 7.329 25.728 3.132 8.415 1.958 17.541 2.76 26.456-.029.122-.575 54.95-2.026 65.869-.586 10.392 2.092 20.476.524 30.973 8.739 14.702-1.111 18.646 15.625 52.502 14.809 29.952 11.841 31.324 18.496 41.925.169.896.625 3.237.858 4.451-.813 3.475-.222 30.26 5.295 49.622 2.283 8.449 10.639 12.74 14.759 19.888 8.257 11.916 5.866 24.641 27.636 14.437 11.459-5.37 10.336-6.27 16.429-12.12 2.918-2.803 5.927-5.705 7.071-9.796 4.442-4.592 8.724-8.898 12.276-13.797 4.494-1.54 6.644-5.99 8.56-10.589 7.058-22.561-.927-28.31 11.172-30.525l-.021-.895c-1.101-.148-3.483-.5-4.578-.663-.593-2.1-1.158-4.17-1.72-6.239 4.351-3.105 5.534-3.932 7.548-5.342-4.535-1.298-8.554-.027-8.634-3.784 1.784-1.844 3.835-3.462 5.847-5.053l-.422-.786-6.059 1.981c-.016-2.965-.033-5.904-.075-8.854 2.771 1.587 5.33 2.698 7.801 3.393l.439-.76c-14.973-14.702-6.737-23.927-17.287-41.473-.652-9.017-5.664-16.137-10.514-23.022-10.971-15.572-4.849-10.441-13.091-19.444-10.294-11.24-2.996-7.323-11.39-21.926 3.757-7.795-2.528-14.797-6.076-20.866 1.368-4.048 3.515-13.313-3.461-17.494.099-.418.234-.958.352-1.42 2.998 1.421 5.243 2.061 6.48 2.434-4.768-14.77-3.707-4.054-12.089-19.67-1.72-3.203-3.502-6.511-6.15-9.171-.481-3.796-1.18-8.888-5.255-11.607a49.72 49.72 0 00-.18-1.5l-.731-.856c-.496-11.086-3.785-21.956-2.262-33.006 1.786-5.039 3.041-9.521 3.837-13.698 5.312-7.115 3.361-16.568 5.141-24.436 1.742-4.213 4.364-8.076 6.051-12.432a30.637 30.637 0 002.963-3.181c3.641-1.831 5.703-5.197 7.695-8.457 7.699-12.605 9.634-5.959 16.222-18.779 1.212-2.358 2.466-4.797 4.108-6.791 10.205-8.02 24.967-11.774 27.033-12.767 23.48-15.092 71.741-45.018 99.397-49.438 12.555-2.001 11.311-2.456 12.763-7.362 3.494-2.959 6.99-6.49 10.686-10.793 14.216-2.586 29.381-.946 42.726 4.63 3.019 2.421 4.707 6.269 8.055 8.721.156.632.37 1.452.531 2.104-2.627 7.28-1.259 15-1.994 22.421-.087 6.754-7.434 11.39-5.48 18.931-1.021 1.74-1.736 3.724-2.121 5.912-11.582 19.525-15.808 43.309-26.389 76.376-14.019 33.67-5.465 39.699-21.238 74.111-15.473 33.763-17.938 33.66-14.958 69.247.063.277 5.3 12.295 6.157 14.772 2.189 1.662 4.683 2.525 5.935 4.653.56 2.51.717 4.308 1.471 9.056 1.469-2.621 1.251-2.207 2.19-3.86 1 .128 2.305.306 3.481.456 1.775 3.615 3.521 6.222 5.612 8.361-.351.573-1.006 1.659-1.631 2.714 1.082 1.031 1.641 1.517 2.58 2.334l.242-2.861c3.342 2.554 6.727 5.666 11.242 6.463 5.949 5.307 17.602 10.838 19.047 11.336 5.658 5.28 13.813 5.621 20.564 8.308 14.658 5.745 27.616 15.482 42.346 21.265 20.456 8.745 36.87 24.878 56.899 34.726l-.001.002c7.799 6.067 14.885 6.776 22.598 15.846 2.055 2.417 4.182 4.912 7.176 6.428 2.427 3.788 6.414 6.333 10.716 6.84 1.033.692 2.629 1.745 3.629 2.406l-.046.007c.23.144.954.593 1.161.73l.021-.003c6.28 3.783 13.86.692 19.623 5.42 4.172-.565 8.36-1.245 12.5-2.009 1.35.178 3.895.529 5.287.73 1.62 1.587 17.835 7.234 24.394 8.245 8.258 1.429 14.616 7.274 22.062 11.122 1.007 6.727 9.175 7.767 14.121 10.497 5.26 1.575 6.138 8.563 11.769 10.362 1.099 1.577 2.851 2.408 4.475 3.197 3.389 5.647 2.317 2.957 27.101 1.27 13.392 6.384 18.436 8.098 24.695 8.886 5.496-38.815-2.375-79.762-6.39-88.495-4.872-10.605 1.014-16.563-3.024-30.173h-1.081c-11.21-12.262-32.521-14.269-48.478-10.719l-2.283-.535c9.791-4.166 21.662-4.984 34.486-.79-3.341-11.911-27.153-6.351-38.89-2.6-3.154-5.746-8.919-9.758-15.873-11.049-7.065-6.602-10.17-10.299-31.041-5.035-5.589 1.693-11.427-.314-17.129-.971a254.101 254.101 0 012.214-5.951c-4.63-.714-9.826-.455-9.841 4.25-6.68-.207-13.195.826-19.702.41 2.206-1.146 3.999-2.039 5.649-2.865-2.026-.657-4.3-1.484-9.929-1.615 0 0 1.128-.26 4.736-1.084-5.911-3.748-10.825-2.317-18.004.474-6.2-1.086-11.487-2.763-16.157-5.118-2.278-7.085-17.385-9.77-27.248-13.102-5.859-2.168-12.182-.507-17.941-2.224-2.872-.763-6.285-1.505-9.843-1.25-12.414-4.506-31.755-16.935-39.941-24.197l-.508-.229c-9.951-16.748-13.699-24.688-7.412-46.26 1.478-1.763 3.226-3.261 4.31-5.452 9.858-6.759 15.021-18.242 22.418-27.351 3.776-.982 6.158-4.455 5.853-8.548 6.537-7.995 15.258-14.349 20.563-23.455 6.391-11.169 12.269-19.612 18.469-26.546 6.71-6.308 9.968-15.166 15.549-22.183 3.678-4.492 3.651-10.411 4.859-15.613 2.235-4.006 5.472-7.421 7.517-11.752 11.907-9.031 15.12-24.585 25.423-34.709 6.634-6.654 13.228-13.483 19.837-20.037 6.301-6.267 17.873-8.102 20.255-18.164 4.071-4.991 10.545-7.095 15.36-11.188 6.979-.9 10.312-8.347 14.804-12.77l2.95-.666c7.234 2.647 14.501 5.612 22.342 6.309 5.415-1.14 9.279-5.332 14.569-5.403 18.994-.462 78.291 4.588 85.585 6.482 5.561 1.444 10.911 2.788 16.332.634 11.317 2.374 22.658-.492 33.952.674 12.895.583 26.487 1.043 39.877-.11 7.291-.838 15.066 1.746 22.346-1.033 2.523-.006 5.254-.327 8.132-.954 6.397.886 12.44-1.534 18.569-2.143 46.352-1.914 25.61-3.097 75.966-13.216l-.015-.892a415.31 415.31 0 00-3.112-.503c66.247-12.762 103.879-40.091 127.516-34.878 5.223 3.239 1.696 11.06.948 23.672-1.244 20.947-5.53 25.227-5.302 34.871-16.044 123.815 3.596 98.866-18.671 153.389-6.905 6.344-28.445 55.918-31.916 64.624-7.672 19.264-14.257 21.159-14.046 30.044-.034.013-17.304 7.66-17.304 7.66-2.245.98-4.776 2.098-5.699 4.688-6.116 6.432-10.822 13.572-16.998 21.218-1.079 8.969-4.157 17.091-8.301 25.119-22.365 18.297-30.759 40.664-41.312 50.006-6.761 1.468-11.306 6.788-18.434 7.312-7.677 9.672-12.018 2.933-20.188 19.229-3.132 2.533-5.155 6.339-7.822 9.59-3.008 21.39-16.769 31.407-19.251 36.384-3.141 2.897-4.918 5.726-5.574 8.873-6.619 3.059-8.797 10.726-15.046 13.938-1.002.798-1.123 2.28-10.001 8.017-2.564 1.658-5.214 3.371-7.554 5.477-10.093 1.697-18.149 8.223-26.712 13.044-5.202 3.078-10.993 5.453-15.688 9.438-7.478 5.985-12.38 14.446-18.817 21.277-5.492 5.845-7.793 13.53-12.161 20.224l-1.445-2.18-.097 1.228c-2.096 4.159-2.755 7.863-2.009 11.319 1.264 3.336 6.635 2.7 8.843 2.614.301.366.24.303.473.482 3.014.344 6.499.75 9.985 1.034 11.055 7.417 25.16 6.309 36.294 13.047 1.952.651 12.243.062 19.663 3.98 15.205 1.383 16.053.422 27.678-5.937 4.099-2.005 7.227-5.377 10.709-8.083a352.994 352.994 0 003.16 4.24c14.958-11.764 17.734-14.764 11.988-31.574-1.55-3.839 3.232-1.611 5.8-3.146 5.324 3.341 10.505-.69 15.401-2.675l.034.002c3.782-2.311 5.925-3.636 8.521-5.295 1.27-6.797 8.668-4.979 14.65-6.885-.164-1-.38-2.294-.669-4.3 4.553-2.391 9.653-4.379 13.24-8.384 1.519-1.791 3.783-5.184 1.525-5.868 2.516-1.799 4.722-4.021 6.631-6.016 2.022-.946 3.517-2.615 4.203-4.692 3.037-7.624 9.86-14.798 7.416-23.925 1.419-1.44 3.016-2.966 5.026-4.803 7.062-.865 40.928-15.644 46.007-16.992l-.06.204c.309-.149.784-.401 1.085-.475l.02-.069c9.336-4.72 5.577-18.394 13.013-24.44 1.642 2.551 2.41 5.901 5.869 6.998 2.994-1.019 5.237-2.066 8.021-3.237l.099-.007c4.303-4.543 2.079.631 8.437-18.946 8.353-3.24 18.385-19.756 10.341-35.123 4.688-1.545 2.966-8.651 5.25-12.292 8.403-1.336 10.212-11.281 17.329-14.164 7.143-3.161 13.038-8.339 18.739-13.346 4.641-4.075 7.766-5.899 7.81-10.067l1.247-1.129c6.456.215 10.461-5.794 15.886-7.899 10.964-4.279 20.874-10.701 31.677-15.568 17.865-11.472 48.367-22.284 51.692-27.058 25.525-10.29 41.571-21.068 61.307-28.117 6.056-3.466 13.301-4.284 19.723-6.765 7.533-1.874 14.235-6.005 21.884-7.633 21.646-9.31 52.557-15.413 64.674-21.227l.169-.711c6.13-3.91 10.317-11.785 6.623-26.758-3.059-12.372-6.224-25.163-13.308-36.069-2.1-7.337-6.605-13.677-9.615-20.465-2.238-13.974-8.152-28.333-17.579-42.678-12.909-42.293-26.812-70.731 37.007-119.97 7.802-6.179 17.698-9.104 25.847-15.066 14.124-1.361 18.012-11.877 45.579-20.785 8.99-2.918 17.194-17.337 29.546-25.978 22.057-14.272 38.744-38.369 55.724-47.281 10.838-5.429 20.165-17.376 25.594-27.804 13.876-26.625 13.818-14.662 21.34-38.606 1.099-3.495 2.233-7.106 3.706-10.469 12.036-9.039 13.866-26.043 13.855-35.634 6.897-2.181 7.35-27.145 5.879-33.66 3.366-13.857-2.458-21.709-5.333-31.59 1.311-4.311 2.45-9.816.01-14.583 1.124-2.386 2.428-5.135 3.509-7.553-1.855-4.148-2.521-8.37-1.146-12.762-.032-2.479 2.132-5.798.046-7.931 10.052-2.851 17.096-1.666 21.487 3.628l.289 4.716c6.796 9.936 11.044 15.959 13.75 26.898.34 1.378.737 2.919 2.183 3.652.705 11.587-1.915 7.342 1.374 28.997 1.233 8.117 2.333 15.504 1.191 23.458l2.143 2.133c-1.494 2.483-2.692 4.501-4.033 6.905 3.278 12.175.928 24.962-2.326 37.065 3.528 3.097 4.155 7.052 5.029 12.071l-.946 3.38-1.078-.037c-1.457 7.28-2.027 10.085-3.024 15.54 21.844 35.468-8.759 62.586 14.116 135.955-.591 6.965.327 13.445 2.657 18.752.621 6.228 2.144 12.741 4.656 19.905.295 2.503 2.62 3.206 4.451 4.148.28 9.874-7.372 31.056-7.211 55.139-9.719 30.948-14.407 58.027 17.816 118.967-2.997 4.906.487 9.654 1.959 14.159 6.361 16.799 14.509 54.099 46.092 47.246 5.678 7.672 12.167 13.854 19.256 18.335 17.057 13.552 37.881 30.016 62.986 27.919 7.203 5.654 10.112 9.667 19.222 12.118-6.596-6.901-11.589-9.116-16.433-14.354 3.367-3.248 5.614 1.676 8.121 3.593 24.103 24.667 59.5 40.84 67.562 47.431l.689-.56c-.153-.294-.771-1.403-.948-1.723-16.121-10.422-82.313-53.915-83.427-74.016 40.412 20.268 21.359 11.404 46.1 29.809 13.454 9.456 25.876 18.591 37.074 30.388 1.63.06 1.048.055 3.255.126-12.739-17.943-29.897-27.847-46.676-40.875 2.508-.465 4.328-.816 5.328-1.008-1.737-2.273-1.954-2.546-2.649-3.489-.817.046-2.239.109-2.707.135-7.962-2.681-15.349-6.536-21.966-11.473-2.244-1.57-4.525-3.475-7.392-4.186-2.803-9.442-26.452-17.827-31.919-35.579 6.207 5.18 9.132 10.306 17.55 11.215-7.257-10.635-15.249-14.913-15.271-18.063l1.874.686.53 1.362c9.323 5.001 38.447 24.004 42.932 32.938l-.012.031c.174.252.415.778.563 1.078l.067-.179c11.287 16.229 23.895 29.103 37.491 38.259l.58-.688c-10.06-10.539-21.444-22.474-31.293-35.575a409.03 409.03 0 002.812-1.524c33.575 21.427 25.328-5.027 45.659 39.044 9.365 20.302 18.298 36.919 34.426 53.131l.665-.614c-19.123-22.345-28.626-50.978-42.526-76.438 33.378 8.823 30.713 30.6 59.354 34.826 13.965 4.207 29.119-.25 42.709 4.753 3.636 2.659 6.396 6.574 10.311 9.177l.578-.69c-2.239-2.335-4.564-4.843-6.405-7.694 9.982.881 19.834 3.549 29.914 4.112l.107-.897c-6.619-1.221-13.222-3.021-19.605-4.764-15.574-4.249-14.806-2.701-19.292-8.732-5.971-8.026-8.097-8.982-10.839-13.212 6.78 1.607 13.78 1.335 20.604 1.985l.142-.894c-8.173-1.82-16.98-.934-24.583-4.57-5.626-5.561-12.419-11.781-20.333-16.301 4.881-1.225 8.896 1.338 15.625 1.244-2.215-2.511-4.924-5.046-10.166-6.444l-1.437.195c-23.271-9.161-22.599-9.259-22.76-10.682 0 0 22.872 5.663 51.753 19.011 1.16 2.559 25.135 21.299 27.735 22.972l.589-.676c-6.546-7.617-14.035-14.546-21.013-21.422 9.554-.212 19.849 1.035 28.332-4.686l-.42-.797c-12.476 4.933-25.549.436-38.004-1.823-8.397-4.325-17.291-7.748-25.867-11.462 26.063 4.137 1.996 1.421 22.495 1.395-5.319.42-6.444.119-10.75 2.242 52.186 10.29 24.182-7.164 55.611 6.3l.489-.746c-3.52-3.316-6.616-7.705-11.192-9.88l.722-.037-.009.054c.676-.092.596-.081.935-.096l.005-.028c8.282-1.097 16.938-1.039 25.008-3.025a121.731 121.731 0 015.861-5.653c1.724.963 3.479 1.926 5.268 2.889l.528-.726c-5.203-4.993-12.557-7.7-16.011-14.108 3.74.83 6.877 1.592 10.337 2.179l-1.259.595c8.23 3.446 13.976 3.504 23.235 4.709 7.429 3.387 12.283 10.563 19.296 14.804l.589-.67c-3.972-4.977-9.158-8.846-12.791-13.996 12.142.518 24.347 2.59 36.566 2.122 7.038 2.418 13.278 6.653 20.207 9.63l.162.771c9.352 4.538 13.007 4.144 17.213 3.561-7.954-4.534-14.03-7.275-19.157-12.455zM301.003 479.5c-4.384 9.417-10.33 18.106-14.574 27.644-3.667 8.116-7.971 16.331-14.538 22.473 11.821-13.872 3.504-11.975 21.853-39.64 2.497-3.764 5.052-7.646 7.389-11.623l-.13 1.146zm56.969-162.787a829.547 829.547 0 015.47-1.579c-4.923 7.115-11.07 12.272-17.886 15.005 5.296-11.648 14.253-26.098 23.974-38.158a60.666 60.666 0 003.553 3.489c-3.565 7.006-8.65 13.729-15.555 20.484l.444.759zm17.677 3.722c-.511.086-1.724.283-2.275.373 4.721-8.789 6.64-14.54 7.959-18.846a84.01 84.01 0 003.463 2.284c-4.792 8.306-8.91 15.737-9.147 16.189zm133.019-174.676c-6.741 4.214-2.028 1.265-6.197 3.844.325-2.198.663-4.451 1.036-6.65 3.715-5.706 7.275-10.583 13.054-12.542 1 .011 2.635.023 4.285.035-5.524 2.864-9.706 8.118-12.178 15.313zm73.083-33.068c1.341-14.864 14.841-28.695 25.121-31.086-7.73 12.199-12.956 8.898-25.121 31.086zm52.696-22.501l.93.523c-2.539 5.907-1.375 12.344-.462 18.718l-.038.023c.071.249.065.165.177.949l.092-.055c1.513 5.177 3.514 10.186 5.539 15.046-20.479-20.494-13.867-23.766-6.238-35.204zm41.268 32.888c-5.189-12.665-10.417-28.394-1.785-38.954 1.317 14.635 4.828 28.162 10.441 40.24-2.179-.327-5.4-.812-8.656-1.286zm22.516-7.691c-2.684-2.838-5.552-5.694-5.625-9.487 1.578-2.858 4.375-4.595 7.062-5.889-.963 5.485-1.435 10.535-1.437 15.376zm29.053 14.335c-.819 3.132 1.721 9.823-2.787 8.707-2.853-3.078-2.457-8.13-3.4-12.35.77-3.846 3.471-6.577 6.729-9.398.922 4.307-.517 8.596-.542 13.041zm233.979 34.522c-2.496-4.202-2.731-4.574-4.341-7.318-6.322 5.814-3.86 8.112-17.356 25.646l-.337-2.235c2.958-5.319 4.905-10.51 6.324-16.062-1.921-.516-2.681-.703-4.628-1.228l-1.644 5.612a763.587 763.587 0 01-4.596-5.154c1.908-2.44 3.671-5.044 5.52-7.728 5.923-1.072 10.854-4.633 15.844-7.9l3.932 2.749c1.042 4.824 1.46 9.296 1.282 13.618zm33.069 25.59c-.695.096-2.087.302-2.773.4 2.364-5.483 3.64-8.382 4.543-10.441-5.26 3.404-11.24 8.214-15.532 3.706 8.195-4.157 17.489-5.105 25.672-2.605-2.178 4.665-7.659 6.246-11.91 8.94zm329.946 132.851c4.506-8.454 6.35-2.403 19.813-14.183-.92 8.756-11.048 16.183-19.813 14.183zm70.628 43.25c2.476-.562 1.884-.762 13.262-.58-4.925 3.402-11.778 6.424-13.262.58zm498.044 773.904c-2.607 3.842-5.298 7.813-9.896 6.363 1.789-10.08 8.225-61.304 9.504-66.816 7.651-.081 6.273 4.323 6.998 13.575 1.276 16.264 2.575 33.334-6.606 46.878zm562.57-643.53c3.884-2.162 7.164-7.715 11.505-5.261a305.34 305.34 0 01-5.274 9.177c-3.111.19-6.309.384-9.479.525 1.014-1.377 2.437-3.326 3.248-4.441zm-54.578 664.087c.924-.065 1.892-.145 2.78-.216 9.26 9.147 17.258 19.264 26.636 28.652-6.03.813-25.287-17.497-29.416-28.436zm83.84 49.25c-.023.435-.068 1.48-.101 2.128-.688.223-1.721.554-2.399.77-8.714-7.3-15.972-16.994-21.041-28.097 11.866 3.367 15.119 17.039 23.541 25.199zm-25.314-8.385h.004c5.491 4.206 11.658 7.012 17.161 11.407-1.104.26-2.505.58-3.745.865-11.516-1.713-22.06-7.508-29.766-16.346.666-.29 1.288-.566 3.142-1.385-3.53-4.524-7.463-8.523-12.736-11.026a119.06 119.06 0 01-2.151-2.061c2.354.092 4.723.184 7.114.29 7.556 7.442 14.076 13.014 20.977 18.256zm-24.272-97.427l.004-.001c-.882-1.474-.712-1.182-3.291-5.518l.141.099c7.472 9.118 9.937 18.807 39.479 50.363-21.111-14.866-24.761-25.749-36.333-44.943zm48.962 50.507c-1.765-1.965-43.583-47.06-48.516-62.589 12.012 14.529 14.687 23.659 34.621 40.112l-.025.034c.447.314.285.19.722.549l.015-.02c7.412 5.331 13.333 13.68 17.179 24.238-.748-.438-3.11-1.813-3.996-2.324zm5.567-5.939c5.22 4.468 10.087 8.463 15.39 11.933-.795.24-2.23.67-3.023.915-5.773-.069-9.929-4.387-12.367-12.848zm8.623 16.791c5.684 1.6 10.621 2.619 15.94 4.039l.001.003c10.779 2.655 19.22 10.446 25.188 19.71-10.964-2.383-36.594-13.842-41.129-23.752zm43.516 18.142c8.81 4.013 15.976 8.455 21.824 13.532-9.775-2.222-18.578-5.177-21.824-13.532zm196.288-41.382c-2.006 1.651-4.818 1.618-7.041.75 1.869-1.737 5.419-1.549 7.041-.75zm-23.506-59.07c.22-2.323.353-4.27.631-6.62 5.791 1.832 17.9 6.924 34.836 4.101-8.343 9.878-21.642 13.394-33.521 17.809-4.743-1.825-9.686-3.529-14.154-5.816.255-5.874 7.456-6.807 12.208-9.474zm-2.735-7.819c-2.587 3.167-4.861 7.049-9.069 7.177-5.024-.034-10.106-2.083-15.32-.657-5.206-2.292-10.357-5.214-15.704-8.896 11.513-.357 6.646 6.077 33.291-.264 2.108.822 4.323 1.688 6.802 2.64zm27.936-153.315l-.002.007c3.132 1.283 6.135 2.625 9.334 3.825 2.9 1.159 5.93 2.531 9.451 4.281-4.113.789-9.24 1.572-14.33 1.44-6.229-3.851-11.575-9.125-16.786-13.943 4.025 1.831 8.243 3.185 12.333 4.39zm-.434 55.43c-.572 3.186-1.258 5.937-2.099 8.372-2.667 3.268-6.831 4.848-13.158 4.965-10.346 1.419-19.129-4.955-27.927-9.888 8.073 2.4 13.264 6.436 22.734 7.787-5.905-9.651-13-6.148-27.625-19.726 18.578 4.86 16.805.48 34.689 5.381 4.332 1.186 8.806 2.399 13.386 3.109zm-60.829-141.502c13.389 16.601 28.847 25.064 39.437 40.017-5.518-.555-3.899-.39-5.483-.559-2.462-1.751-4.71-3.492-7.213-5.233-7.003-14.3-22.928-21.746-29.66-36.044.823.515 2.094 1.315 2.919 1.819zm18.776 232.573c-2.963 3.345-3.783 2.824-6.108 2.539-6.816-.827-14.5-1.773-19.47-6.848 8.464-1.402 17.274.079 25.578 4.309zm-24.163 36.161c-1.126-.45-2.427-.972-3.827-1.523 3.208.224 6.531.51 9.841.966 2.613 2.052 5.795 4.842 7.86 8.546-7.637.398-14.722-2.721-21.5-5.563 2.038-.631 3.382-1.067 7.626-2.426zm-6.196 46c2.031.317 4.256.688 6.765 1.126.592.102.393.068.901.157 1.982.343 4.056.727 6.143 1.219-6.732 2.64-9.666.651-18.043-1.063a80.13 80.13 0 014.234-1.439zm.175-421.862a478.565 478.565 0 01-1.823-2.745l.001-.002a96.917 96.917 0 01-3.145-5.062c4.784-1.403 5.814 4.126 4.967 7.809zm21.888-21.107c.441.768 1.188 2.07 1.682 2.945-5.486 3.459-13.594 7.617-22.049 5.508-2.02-2.331-1.178-5.39-.574-8.336 5.35-.673 6.462-.795 8.145-.99-5.967-2.88-9.768-4.175-13.213-6.901 8.65 2.502 17.64 4.376 26.009 7.774zm-28.383-2.359c.47.58 1.328 1.613 1.7 2.072.59 2.521 1.185 5.234 1.746 7.684-1.651-.269-3.35-.547-4.979-.807-1.249-3.824-1.98-7.789-2.549-11.562 1.337.858 2.609 1.688 4.082 2.613zm-17.119 458.396c-4.136.194-9.813.246-12.02-3.929 4.437.353 9.809-.172 12.02 3.929zm-11.882-103.361c2.154 2.21 4.439 4.709 6.436 6.763 1 .182 2.246.4 4.378.846-11.65-.176-18.164-2.576-26.489-11.932 10.347.891 11.633 2.069 15.675 4.323zm3.318 161.806c6.021.842 9.85 5.771 13.732 10.386-20.499-1.355-43.733.929-59.369-14.427l.014-.014c-.429-.379-.281-.24-.66-.621l-.016.016c-1.976-1.765-3.824-3.602-5.474-5.314 15.817 7.116 30.575 11.901 45.048 14.61l.262-.861c-4.884-2.099-8.075-3.484-11.668-4.962 5.415-3.614 12.103.41 18.131 1.187zm-17.356-17.826c2.773 1.466 5.866 3.114 7.652 5.859-12.867-2.906-25.829-7.167-39.593-13.014-4.636-1.942-7.784-6.121-10.453-10.484 13.026 1.915 18.091 13.272 42.394 17.639zm-29.398-44.451c8.564 1.255 16.026 6.477 24.652 8.112l-5.284.479c-10.047-3.327-15.628-6.229-19.368-8.591zm21.326 13.702c6.215-1.042 12.124-2.644 18.248-2.692 27.711 2.661 20.177-4.754 36.062 6.839-42.074 2.493-29.121.463-54.31-4.147zm90.993-6.573c1.834 1.373 3.726 2.789 5.671 3.951-7.419 8.702-23.414-1.979-50.039-6.577-3.274-.565-6.648-1.147-8.963-3.462 27.9 1.222 37.614-5.683 53.331 6.088zm-18.036-43.374c5.8-1.505 9.286-2.498 13.367-3.297 2.518.698 4.915 1.947 7.228 3.098-4.834 3.499-13.222 1.152-20.595.199zm25.402 28.753c12.541 2.24 16.257 7.437 41.996-3.208 4.294 2.558 8.458 4.924 12.462 7.617l-.531.45.019.006c-.544.483-1.195 1.065-1.629 1.458-43.74-.656-26.666 1.514-52.317-6.323zm40.132 11.497c-.418-.434-1.037-1.089-1.435-1.508 4.849-.129 9.698-.444 14.434-.951a484.734 484.734 0 006.858 4.583c-6.634-.907-13.317-1.209-19.857-2.124z"/></svg>