<svg xmlns="http://www.w3.org/2000/svg" viewBox="0 0 1523.945 1698.73"><path d="M1457.069 1313.965c-.005-.362-.021-1.082-.026-1.439-1.33 1.522-2.521 3.152-3.701 4.792a139.39 139.39 0 01-1.579-.047c.43-1.004.942-1.987 1.175-3.048-1.713-.041-2.51 1.77-3.597 2.795-.026.523-.036 1.066-.026 1.625-.787 1.082-1.609 2.143-2.329 3.276l-.274.057c.018-3.825.136-3.043.678-5.403-1.765 1.693-3.809 3.033-5.77 4.477-.01.321-.036.973-.047 1.294-2.479 2.448-4.917 5.02-8.089 6.568-1.873 1.651-3.612 3.613-6.205 4.084-14.407 10.683-14.436 11.764-16.215 13.498-.01.316-.031.937-.047 1.247-.699.398-1.387.802-2.055 1.227-.01.29-.021.87-.026 1.159-.895.507-1.672 1.17-2.401 1.889a83.822 83.822 0 00-.414-.652c-.569 1.377-1.775 2.288-2.728 3.385.078.171.228.518.305.694a20.03 20.03 0 00-2.117 1.309c.176.171.523.507.693.678-.999.274-1.708.978-1.77 2.044-1.273 1.361-2.738 2.526-4.27 3.581-1.516 2.097-8.527 12.048-11.049 11.971-.97-.006-20.788 5.311-25.666 1.604.812-.844 1.832-1.03 2.909-.507l-.067-.833a32.117 32.117 0 011.889-.057c1.553-.921 2.531-2.417 3.602-3.809 1.785-1.232 3.907-1.946 5.631-3.302.29-.057.875-.166 1.164-.222.44-.487.89-.958 1.366-1.408.3-.041.901-.124 1.201-.16.212-.197.642-.58.854-.776 4.295-.345 12.536-7.737 14.005-11.107-.704.021-1.387.062-2.055.124-2.464 1.998-3.809 5.103-6.614 6.692-.28.026-.839.067-1.118.093-.833.642-1.692 1.242-2.531 1.868-1.012.087-10.038 2.301-17.602 10.475-5.254-.174-7.403.632-10.931-.953-.316-.026-.952-.072-1.268-.098v-.372c2.541-.321 5.046-2.086 7.639-.745.254-.321.528-.626.823-.906.279-.016.838-.052 1.113-.067 1.734-1.346 3.462-2.717 5.362-3.825l.057.781.663-.026c-.181-.233-.543-.704-.724-.942 3.385-1.144 7.246-1.615 9.901-4.234.844.818 1.061-.005 1.278-.844 1.581-.755 1.452-.546 3.152-1.361.745-1.315 1.842-2.386 3.11-3.199 1.346-1.521 2.567-3.25 2.609-5.362-2.098 1.691-5.322 6.009-8.214 8.576-3.159.79-3.356 1.044-4.223 1.547-2.21.171-4.068 1.558-6.247 1.853-2.096 1.563-4.71 2.241-6.744 3.887l-1.087.14a46.353 46.353 0 00-2.003 1.915c-4.721-.153-4.488-3.53-13.865-8.007-1.294-.683-3.385-.456-3.773-2.205-.673.424-1.314.895-1.599 1.687-2.173-3.096-2.469-19.039-3.452-22.503.664-5.668-3.012-26.098-2.329-34.241.859-1.134-.429-2.464.445-3.597.921.745 1.93 1.413 3.064 1.853.89-1.858-1.066-3.105-1.889-4.513-1.475-1.739-.895-4.109-.927-6.169.161-.207.487-.621.647-.828a31.317 31.317 0 01-.295-1.801 35.225 35.225 0 011.879-.093c.176.352.373.725.58 1.108 2.195.766 3.902 2.432 6.014 3.385l-.062-2.055c-9.448-8.475-7.479-6.754-7.385-9.606.202-.585.404-1.159.611-1.729.233-.233.704-.709.937-.947 2.446 2.085 4.329 2.097 9.606 2.681-1.382-1.894-3.871-1.962-5.9-2.64-.44-.668-.818-1.366-.031-1.951 1.164.181 2.324.512 3.504.745-1.299-2.35-3.752-3.664-5.729-5.346-1.294-2.112.176-5.735 2.831-5.605 4.469-2.989-.982 1.715 7.913-5.812.15-.6.326-1.185.523-1.754.062.373.181 1.123.243 1.496.3-.036.911-.114 1.211-.15a89.972 89.972 0 00-.3-1.133c.787.248 1.589.528 2.401.807 1.158.804 7.689 2.76 15.19 2.929.021-.259.052-.776.073-1.03 1.061-.021 2.137-.036 3.229-.031-.067-.486-.207-1.46-.274-1.941.932.481 1.232-.404 1.635-1.087-1.651-1.03-3.38-1.931-4.922-3.095 4.793.186 3.638 1.645 6.387 3.084.352-1.216 1.252-2.055 2.298-2.702-.461-.517-.901-1.02-1.32-1.506.621.01 1.263.047 1.92.093.518.197 1.051.404 1.604.626.657 1.02 1.884 1.361 2.935 1.899.466-.926.875-1.879 1.128-2.878-1.511-.45-2.96-1.061-4.461-1.48.911-1.211 2.277-1.542 3.752-1.397l.062-.978h1.371c.228-.662.492-1.299.761-1.925-1.087-.264-2.143-.543-3.204-.787v-.393h1.527l.036.486c.331.016.988.052 1.32.067 3.178 2.298 7.912 4.655 12.918 5.755.647.487 1.32.958 2.013 1.444.668-.005 1.346.005 2.055.036.388.585.932 1.056 1.506 1.511 2.289.346.909.384 3.711.528-.673-1.522-1.384-1.785-9.274-6.138a77.31 77.31 0 00-1.061-.15c-4.287-2.354-8.574-3.578-15.765-10.993a22.189 22.189 0 01-.052-1.63c-1.159-1.092-2.127-2.35-3.059-3.612.005-.383.021-1.149.026-1.532 4.938 6.541 8.126 8.906 12.623 11.034.269.041.813.119 1.082.16 1.004.569 2.029 1.128 3.043 1.723 1.646.43 3.085 1.377 4.596 2.163.114.233.342.704.455.942 3.183 1.77 6.894 2.717 9.596 5.269.145-.16.435-.481.58-.636-2.49-2.753-5.227-5.233-8.421-7.127-9.258-1.69-19.686-13.923-19.605-14.895 2.782.1 7.123 1.565 8.974 2.531 1.361-.016 2.733.072 4.115.145a34.061 34.061 0 01.005-1.946c-3.418-3.434-6.001-2.412-8.519-5.227-2.27-.614-1.989-.598-4.7-.678.321-.166.968-.487 1.289-.647l.036-.316c-.999-.021-1.993-.041-2.955-.114 2.634-1.403 5.15 1.107 7.846 1.035.202-.285.595-.859.792-1.144a67.495 67.495 0 01-.01-2.733c-1.62-1.164-3.255-2.288-4.963-3.286.14-1.107.295-2.215.435-3.302 1.03 1.118 1.889 2.386 2.676 3.7.802.062 1.428.399 1.646 1.268l-.823-.145-.067.435 1.656.041a85.364 85.364 0 01-.062-2.784c-1.475-1.242-2.826-2.836-2.665-4.886.321 0 .963.005 1.284.005-.14.176-.419.518-.554.688.176.574.352 1.165.543 1.77.445.44.906.89 1.392 1.356.016-.305.047-.921.057-1.227h.486c-.01 1.542-.01 3.09 0 4.648.254.005.761.01 1.02.01l.021-.538.518.026-.026-.559.735.093c-.916.916-1.842 1.827-2.764 2.743.01 1.62.067 3.302-.574 4.844.678.155 1.387.357 2.112.507.811-1.559.767-2.771 1.615-6.319.875-.44 1.506-1.175 2.013-1.993-.574-.989-1.103-1.987-1.646-2.971.305.016.921.042 1.232.052-.196-.305-.585-.911-.776-1.216 1.879.057 3.406 1.206 3.939 3.028a54.98 54.98 0 011.693 1.237c.336.005 1.009.01 1.351.016-1.49-2.779-3.654-5.119-5.734-7.453-.15-.884-.708-4.564-1.045-5.533.243.016.735.052.978.067-.01-1.165-.016-2.318 0-3.462.259-.217.776-.642 1.035-.854-.01-1.853-.01-3.7 0-5.538l.476.026c.097 3.404 1.424 5.491-.026 10.537a37.501 37.501 0 011.522-1.346c1.822-7.044-1.156-19.199-.155-23.859-.018-.109-.379-9.486-.243-10.191 1.832 1.289 2.728 3.4 3.752 5.315.223-.171.663-.512.88-.683a17.083 17.083 0 01-.595-3.773c.399.311 1.19.932 1.589 1.242.171-1.128.326-2.246.481-3.359-.62-1.358-.762-1.634-1.051-3.669 1.832.952 3.188 2.593 4.886 3.778 1.159 1.48 2.034 3.183 3.219 4.679.492.3.999.616 1.521.942 1.113 2.831 3.033 5.957 6.314 6.402 1.47-.958.45-2.769-.207-3.897-.052-.264-.145-.781-.196-1.046-1.63-1.356-1.915-3.876-4.037-4.653l-.021-1.263c.367-.01 1.107-.026 1.475-.036.419.776.844 1.563 1.294 2.35 1.495 1.341 2.784 2.929 4.663 3.82.435-.223.89-.43 1.366-.621-.047-1.874-.502-3.68-1.496-5.269-.016-.29-.052-.875-.073-1.17-.802-.73-1.635-1.418-2.546-1.962-.01-.321-.026-.963-.031-1.278l.217.093c2.386 2.277 4.767 4.565 7.085 6.92-.264-3.752-3.893-10.505-4.358-11.474-2.256-2.391-5.89-4.555-5.579-8.286.616-.419 1.253-.813 1.858-1.268-1.475-3.535-3.571-6.79-5.181-10.268.228-3.509-1.226-6.811-1.439-10.274-1.388-2.636-3.041-4.309-3.545-7.116-1.149-1.092-1.889-2.484-2.577-3.866.29 0 .864 0 1.154.005-.201-2.985-2.987-9.975-3.431-10.946-1.817-.926-2.355-3.116-3.892-4.363.062-1.009.388-1.998.311-2.997-.295-1.035-.725-2.044-.523-3.121l1.164.021c-1.211-1.335-1.915-3.038-3.193-4.301-1.03-1.123-2.717-2.132-2.143-3.887a76.84 76.84 0 012.246-.45c-1.292-3.415-5.242-6.47-2.07-6.594-.052-.202-.145-.611-.197-.818a44.802 44.802 0 00-1.77-.145c-.595-.823-1.159-1.646-1.651-2.505a67.263 67.263 0 012.614-1.718c-1.278-1.154-3.483-1.775-3.54-3.768-1.108-1.154-2.469-2.008-3.623-3.085.528-.73 1.485-.611 2.287-.714-.724-1.139-.492-2.49-.398-3.742-2.267-1.879-3.716-4.503-5.528-6.775-.577-1.361-4.684-5.925-10.372-8.778.538-.652 1.133-1.258 1.698-1.889-6.131-5.754-5.163-8.022-8.767-9.233-2.458-.937-4.187-2.94-5.584-5.067.181-.75.476-1.449.745-2.158-1.075-2.758-.185-2.621-5.336-5.119-.01-.336-.041-1.004-.052-1.335a51.048 51.048 0 00-1.48-.435c-.569.29-1.154.45-1.76.471a16.57 16.57 0 01-.678-1.594c-3.814-1.511-5.983-5.693-10.118-6.5-1.449-1.49-2.639-3.317-4.523-4.29-1.392-.74-3.224-1.268-3.483-3.079-.243.062-.73.191-.973.253a43.86 43.86 0 01-.321-2.199c-1.687-1.408-3.809-2.107-5.88-2.676-6.435-1.351-9.445-7.055-13.192-5.766l-.828-.719c-.192.119-.569.352-.756.471-1.051-.223-1.724-.885-2.013-1.879-.79-.369-20.239-6.924-21.768-6.863-1.09-.722-13.145-2.671-14.119-2.795-1.06-.541-37.921-22.164-44.096-37.243-.759-.969-56.869-79.32-69.373-86.312-1.7-1.966-1.329-1.408-2.355-3.292-3.745-2.451-36.04-31.117-44.422-34.469-1.047-1.933-17.744-13.09-19.222-15.304-.243-.01-.73-.036-.973-.047-.177-.735-9.151-7.894-10.744-8.902-.633-1.835-23.704-18.818-24.868-19.175-.561-.514-22.548-17.912-23.28-18.12-2.855-2.942-24.244-18.511-45.234-42.677l-16.215-19.005c-25.393-31.536-26.69-35.313-26.69-35.313-5.052-9.716-10.178-26.511-11.314-32.921a13.827 13.827 0 01-1.335-5.124 72.94 72.94 0 012.132-.088c.109 1.449.28 2.898.58 4.327.864-2.704.862-1.718 2.049-4.834-.719-.694-1.93-1.077-2.205-2.081.336-2.288.678-4.57.88-6.873-1.029-3.577-.773-4.316-1.232-6.397.15-.502.316-.999.486-1.485 1.232-1.522.538-3.711 1.837-5.222.145 2.091-.166 4.223.326 6.288 2.749 8.158 3.013 8.489 2.914 10.061.3.005.901.021 1.206.026-.186-.906-.057-1.781.564-2.49-.217-2.236-.419-4.477-.507-6.718-.367-.58-.735-1.154-1.082-1.718.135-.367.285-.73.445-1.087-.428-.364-1.692-7.201-1.842-7.753l-.88-.43.021-1.48c.663-.046 1.34-.083 2.024-.114.228.616.476 1.242.73 1.868.569.176 1.149.357 1.739.549.15 1.444-.119 2.872-.999 4.058.398.461.802.916 1.232 1.387.026.217.078.647.109.864.87-1.408 1.604-2.893 2.319-4.389 2.914.952 2.231 5.134 4.86 6.474.471-3.198-.331-6.48-2.448-8.943l-1.32-.083c1.077-7.322-3.608-9.285-.813-12.582 1.247-2.153-.083-4.653.6-6.915 1.097 1.149 1.63 2.66 2.407 4.016a8.51 8.51 0 002.101.378c-.171-1.993-1.47-3.525-2.277-5.248.052-1.801.352-3.587.528-5.377 1.196.652 2.484.285 3.209-.859a35.607 35.607 0 003.551-2.127c-.207-1.144-1.133-2.406-.606-3.499 1.786-.44 1.801 1.977 2.541 3.069.766.6 1.522 1.221 2.308 1.822-.471-2.122-1.004-4.518-2.795-5.921-1.465-.807-3.437-2.044-3.209-3.933 1.723-.383 2.484 1.568 3.721 2.391.481-.507.978-1.009 1.48-1.506-1.278-1.107-2.593-2.184-3.778-3.38-1.679-8.638-.566-2.553-2.816-8.659.223-.575.456-1.149.699-1.713 1.801 1.553 3.664 3.318 6.159 3.561-.994-1.677-2.422-3.007-3.768-4.379.026-1.04.067-2.075.119-3.105-2.451-1.906-2.657-1.241-1.232-4.208-.958-1.118-2.044-2.205-2.453-3.659.062-.756.362-1.454.59-2.163-1.704-3.215.152-.604 1.491-9.083 1.195-.864 2.401-1.723 3.4-2.826l1.429-.103.041 1.563c.336.435.678.875 1.03 1.32 1.428-1.584 2.381-3.457 2.562-5.605a4.91 4.91 0 002.453 1.035c-.15-.238-.461-.714-.616-.952 1.211-.362 1.744-1.548 2.417-2.505.3-.916.678-1.806 1.102-2.671.067-.383.197-1.149.259-1.532 1.03 1.527.978 3.385 1.097 5.15.626-.673 1.242-1.356 1.894-2.008a41.335 41.335 0 01-.14-1.485c-.595-1.371-.393-2.883-.404-4.321-.259-.212-.787-.642-1.051-.854.01-.735.036-1.46.083-2.184.487.657.963 1.33 1.449 2.013.041.269.114.818.155 1.092 1.244 2.337 2.035 9.964 5.869 12.292.709-.921 1.382-1.879 2.06-2.831 1.335 1.009 2.008 2.578 2.986 3.897.611-.223 1.237-.44 1.863-.657-.5-1.302-1.998-7.053-2.106-7.541 1.128 1.134 1.76 2.64 2.738 3.908.269-.171.813-.507 1.082-.678-1.291-4.904-.815-2.567-4.642-6.671l-.331.818a36.572 36.572 0 01-1.858-2.448 33.05 33.05 0 01-.052-1.589 30.326 30.326 0 01-2.443-3.581c.191-.616.383-1.232.58-1.848.507-.057 1.03-.114 1.568-.166.859-.342 1.786-.398 2.717-.461.968 1.175 1.998 2.308 3.131 3.338 1.775 5.786 4.931 5.858 7.033 6.785-.541 2.478-.543 2.059-.694 3.794 1.04.223 2.169.839 3.188.155a85.382 85.382 0 01-.01-4.353c.74.341 1.49.693 2.251 1.04a24.645 24.645 0 012.179-.45c.217.285.642.849.859 1.128.29.021.875.052 1.165.067.983.735 2.06 1.418 2.686 2.531 1.066 0 2.148-.005 3.235-.01a36.996 36.996 0 01-.01-1.728c-2.549-2.525-5.795-3.919-3.09-4.161v-.088l-.947-.414c-.005-1.475.388-3.235-.895-4.316a19.55 19.55 0 01-.445-1.289c-1.604-1.124-5.731-16.038-5.103-17.162.988-2.179 1.185-5.377-1.097-6.806-.838-.901-1.822-1.646-2.64-2.551.75-.321 1.527-.631 2.298-.932.718-3.736.598-1.274.523-6.278-1.056-1.387-1.749-3.022-3.038-4.218a156.36 156.36 0 01-.021-4.384c.331 0 .994.005 1.33.01.58.969 2.603 5.35 7.422 8.835 1.263.181 2.546.274 3.804.611-4.48-1.421-8.912-12.541-12.323-17.302-1.568.248-2.66-.854-3.711-1.791-.279.243-.844.725-1.123.968a116.99 116.99 0 00-1.76-1.206c.171-.191.362-.378.569-.554.461.176 1.377.523 1.837.693-.152-.684-5.957-9.031-8.1-10.817l-.745-.311.047-.321c.186-.01.559-.026.745-.031l-.952-15.356a72.478 72.478 0 00-.926-.823c-.5-3.064-.157-2.838-1.051-4.849a35.388 35.388 0 01-.093-2.096c-.248-.212-.74-.627-.983-.839l-.104-1.113c-.321-.709-.601-1.423-.89-2.127.088-.16.259-.486.342-.652l-.311-.766c1.136-3.892.4-1.269.875-3.09-.549-1.656-1.258-3.276-1.465-5.025-.212-.171-.642-.507-.854-.673-.611-1.454-3.933-7.551-4.881-9.269a6.645 6.645 0 01.424-1.496l-.373.021-.129.864c-1.002-2.418-.908-2.459-1.04-3.193-.512-.921-1.045-1.832-1.434-2.805.999-.854 1.33-2.091 1.025-3.354-2.313-.217-2.976-2.841-3.24-4.756a69.6 69.6 0 01-1.092-1.248c.362.016 1.092.042 1.454.057.911.735 1.848 1.465 2.872 2.065.409-.269.823-.543 1.237-.833l-.818-.352c.207-.259.616-.776.818-1.035 1.248.109 7.501 2.351 9.347 2.852l10.268 3.814c1.356 1.579 3.545 1.356 5.388 1.848.942.445 1.739 1.149 2.665 1.646 1.128.062 2.935.492 3.374-.962a52.459 52.459 0 01-4.875-2.417 99.4 99.4 0 00.01-1.222 38.092 38.092 0 01-1.796-1.149c-1.879-.403-4.072-.923-6.2-2.158a90.42 90.42 0 01-1.159-.093c-.207-.233-.621-.704-.828-.942-1.749.14-3.302-.637-4.741-1.511l-1.061-.207c-3.03-1.65-3.965-1.776-5.284-2.06a201.033 201.033 0 01-1.894-1.962c-.347-.005-1.035-.026-1.382-.031l.052-.611c2.499.359 2.169.299 4.203 1.201l-.745.973.73.016-.14-.59c.373.026 1.113.072 1.485.093.202.253.611.755.818 1.004.611-.005 1.237-.005 1.874 0l.062 1.035c.605-.005 1.221-.005 1.853 0 .212.233.631.704.838.942 4.748.712 2.191 1.102 7.365 1.76 1.201.606 2.412 1.211 3.607 1.858 3.485.766 3.332 1.454 6.288 2.339.455.352.921.709 1.402 1.066-.15-.393-.445-1.18-.595-1.573.083-.124.254-.373.336-.497-3.649-1.864-6.536-4.382-9.482-4.958-2.065-1.152-4.569-2.105-6.744-2.593-8.312-4.432-13.426-4.624-13.984-6.615-1.066-.01-2.127-.015-3.173-.015-.466-.523-.921-1.035-1.366-1.553 4.45.079 2.641-.383 6.583 1.967 4.835.313.725 2.558 10.16.461.103-.921.217-1.837.352-2.754.694.036 1.434.093 2.153.161-1.656-.564-2.733-1.998-2.433-3.773-.574.352-1.159.694-1.713 1.046.336 1.594-.709 2.872-1.615 4.047a177.25 177.25 0 01-2.21-.393c-1.65.831-1.764.164-6.086-2.629-2.443-.6-4.71-1.708-7.096-2.443v-.321c.305-.005.911-.021 1.216-.031-1.165-.73-2.215-1.63-3.012-2.748a8.088 8.088 0 013.079 1.584c1.046.269 2.096.544 3.168.777.751.419 1.506.843 2.272 1.273.01-.455.021-1.361.031-1.817-1.346-1.076-2.903-1.811-4.415-2.598l-1.128-.104a31.615 31.615 0 01-2.018-1.563c.895.021 1.853.052 2.712.429.487.052.994.104 1.511.155.109-.29.321-.864.43-1.149.724.274 1.413.647 2.122 1.009l1.118.145c1.708 1.444 2.758 3.411 3.706 5.398.026.28.083.849.109 1.134.238.202.714.611.952.818.047.29.14.869.181 1.159 1.227.637 2.51 1.728 3.866.699.192-.699.404-1.382.642-2.065-.942-.569-1.703-.564-1.801.745a89.455 89.455 0 01-1.863-1.19c-1.98-8.296-4.929-8.405-9.481-10.129-2.707.155-5.926.616-8.074-1.392.88-.253 1.775-.486 2.686-.699a66.99 66.99 0 01-1.206-1.667c-.021-.279-.062-.833-.088-1.113-.828-1.113-1.522-2.329-1.91-3.664 1.108-.259 2.35.026 2.619 1.356.259-.326.523-.657.797-.983-.031-.813-.052-1.625-.067-2.433-2.049-1.925-4.725-3.131-6.526-5.294-.89.404-1.785.781-2.671 1.165a47.11 47.11 0 00-.14 1.734c-.186.176-.559.523-.74.699-.849-.901-1.858-1.785-1.92-3.111-.756-.874-1.527-1.723-2.272-2.593.43-.212 1.283-.626 1.708-.838a56.168 56.168 0 00-2.401-1.511c-.016-1.418.047-2.837-.057-4.249-.274-1.961-2.655-3.059-2.552-5.113l1.159-.869c-1.004-1.713-2.489-2.935-4.275-3.742-.254-1.056.512-1.858 1.335-2.37 1.263 1.667 2.702 3.478 5.015 3.514-.018-4.435-6.218-4.878-3.654-7.748 1.672 1.222 3.053 2.795 4.503 4.275.616 1.159 1.076 2.432 2.112 3.333l-.036 1.299c.181.321.549.963.73 1.283.3-.719.606-1.434.916-2.148-1.527-1.164-1.786-3.172-2.303-4.891-.411-.395-6.578-6.616-6.904-7.075.383-.176 1.149-.528 1.527-.704-.336-.647-1.195-1.216-.683-2.05 2.805-.129 3.737 2.981 5.424 4.632l.88.062c-.585-.921-.533-1.993-.564-3.033-.652-.331-1.32-.6-1.967-.885-.041-.3-.124-.9-.161-1.201a24.454 24.454 0 01-2.903-3.343c2.903-1.718 5.848 1.201 8.876.15 1.299.698 2.691 1.206 4.109 1.635-4.186-4.366-9.231-5.639-11.365-5.32-1.547-.595-3.105-1.449-4.813-1.077a69.551 69.551 0 01-1.051-1.04c-.86-23.383-3.09-28.434-3.09-28.434l-1.34.021a77.1 77.1 0 01-2.334-2.578l-.968-.062c-1.734-5.113-8.744-8.656-12.716-10.263-.399.098-1.201.285-1.604.378a13.77 13.77 0 01-.771-1.439c-21.156-11.099-13.118-1.623-23.383-10.341-.057-.311-.181-.926-.238-1.237-1.47-.771-2.935-1.537-4.384-2.329-.891-1.541-2.021-2.766-3.975-3.494-1.76-3.105-4.011-6.05-7.287-7.66-2.407-3.168-6.376-4.979-10.351-4.585a39.563 39.563 0 01-.497-1.817l1.548-.083a43.051 43.051 0 01-1.175-1.698c-.771.021-1.537.041-2.288.067a70.218 70.218 0 01-.409-1.977c-1.423.145-3.085 1.014-4.265-.176-1.542-.963-2.49-3.333-4.601-2.924-2.568.114-4.45 5.397-7.561 3.09 4.239-5.529-.012-3.212 4.12-8.053.072-2.283.75-4.477 1.03-6.733-1.853-1.045-4.218 1.087-5.719-.445.761-1.573 1.527-3.819 3.597-3.933.047-.637.098-1.268.161-1.899-8.373-9.25-4.081-4.202-7.701-7.153-1.758.18-.876.069-2.629.223-.269-.492-.543-.978-.781-1.465-1.284-.145-2.841.378-3.887-.564.186-.533.414-1.056.673-1.568-1.77-.673-4.032-.864-5.429.647.373.052 1.118.166 1.491.223-.176.191-.528.58-.704.771l.745.725c-.3.005-.89.01-1.19.016-.016.253-.052.761-.067 1.009l-.963.083c.435-.963.487-2.013.528-3.048-1.035-.052-2.06-.098-3.074-.129-.062.787-.119 1.579-.181 2.37-1.082-.694-1.537-1.941-2.137-3.007a11.79 11.79 0 01-1.449 1.998c.088-.916.305-1.811.549-2.697-1.401.517-3.175 1.335-3.178 1.335l.787-.957c-.969.707-1.159.382-4.756-3.452-1.672.331-3.416.6-5.041-.041-1.077-.104-2.355-.435-2.112-1.785l-.662.662c-.021-.341-.057-1.02-.073-1.361-1.346-1.325-2.546-2.878-4.353-3.597-2.973-4.421-5.775-4.158-7.298-6.273-1.568-.782-2.686-2.148-3.685-3.53 1.076-1.606-1.549-4.528-3.167-5.564-2.091.161-4.141.538-6.175 1.035 0 0 23.566-38.998 20.547-50.037-1.491.445-2.992.859-4.529 1.03-2.31 1.611-10.745 10.429-15.258 12.132-.373.657-.735 1.32-1.092 1.977-1.496.968-3.209 1.692-4.327 3.126-.678.3-1.351.595-2.013.89l-.393 1.268c-1.139.549-2.288 1.061-3.426 1.578-1.434-.109-2.8.306-3.726 1.429-1.289.492-2.578.983-3.866 1.459-3.023 2.293-7.178 2.365-10.165 4.792-1.92-.466-3.468.756-4.772 1.977-1.739.74-3.178 1.977-4.772 2.945-1.133.274-2.018 1.004-2.727 1.889-1.977-.223-3.038-2.019-4.337-3.281-.497-1.635-1.894-2.634-3.271-3.493-.797-.114-1.667-.083-2.282-.673-10.497-8.23-21.893-8.01-23.487-8.726a70.013 70.013 0 01-1.677-.233c.414.471 1.972.725 1.014 1.553-1.03.404-2.122.59-3.188.812 2.81-.481 5.522.657 8.338.476 1.444 1.734 4.394.621 5.424 2.743-1.449-.45-3.028-.311-4.41-.968-.543.253-1.082.523-1.594.797-1.113-.129-2.717.383-3.043-1.092-2.603-.098-5.144.549-7.727.709l-.87 1.118c-1.066.015-2.127.021-3.183.031-.233-.285-.694-.854-.926-1.139-1.144.295-2.272.631-3.395.963-5.97-5.22-26.949-34.746-27.006-34.8-4.952-12.498-6.632-13.276-8.534-14.999-1.04.01-2.075.01-3.1.005.475 13.486 2.942 10.108 3.907 16.831.243.223.725.668.968.895-.207.978-1.004 1.522-1.786 2.029l.947.476c-.445.843-.181 1.568.461 2.169.609 2.146 2.292 7.674.776 9.331-.133 7.783 3.508 13.835 2.469 18.135.709.911 1.403 1.837 2.122 2.743.036.709.073 1.418.124 2.132-.228.238-.688.719-.916.963-6.654 2.235-12.55 5.609-13.518 6.433 3.524-.519 3.164-.635 5.082-1.356-.968 1.667-2.671 2.717-4.43 3.38.466.026 1.392.083 1.853.114.083 1.04.217 2.086.197 3.131-.117.072-.238.137-.357.207a67.026 67.026 0 00-.676-.465c-4.647-3.145-9.794-5.322-15.232-6.731-5.636-1.46-11.313-2.405-17.062-.554-.631.203-.857-.088-1.122-.562-2.473-4.427-6.191-7.717-10.23-10.58-4.159-2.947-8.752-5.186-13.558-6.93-5.958-2.161-11.998-3.916-18.449-3.415-.798.062-1.355-.193-1.865-.843a31.472 31.472 0 00-2.703-3.043c-4.722-4.635-10.247-8.13-16.153-11.007-7.042-3.429-14.293-6.302-22.15-7.292-.685-.086-1.332-.222-1.856-.727-4.494-4.332-9.566-7.844-14.977-10.953-7.258-4.17-14.774-7.732-22.715-10.365-2.361-.783-4.556-1.667-6.536-3.296-3.819-3.142-8.013-5.759-12.287-8.272-5.394-3.172-10.951-6.022-16.5-8.895-3.442-1.782-7.202-3.045-10.41-5.163-9.07-5.987-18.375-11.568-27.837-16.893-1.429-.804-2.809-1.836-4.546-2.004 3.504 3.426 7.467 6.212 11.241 9.233 4.501 3.602 8.98 7.231 13.503 10.803 3.763 2.972 7.492 5.998 11.392 8.781 3.939 2.811 7.83 5.712 12.072 8.076 1.025.571 1.888 1.346 2.716 2.175 2.124 2.126 4.222 4.284 6.43 6.322 4.486 4.142 9.054 8.179 13.993 11.803 4.15 3.045 8.294 6.088 12.898 8.398 2.033 1.02 3.618 2.262 5.048 4.111 8.639 11.174 18.817 20.606 31.773 26.634 2.299 1.069 4.068 2.194 5.255 4.673 2.34 4.891 6.011 8.92 9.819 12.735 6.843 6.856 14.409 12.674 23.806 15.676.546.174.927.441 1.138 1.004 1.762 4.724 4.32 8.965 7.477 12.906 7.004 8.741 15.305 15.628 26.201 18.955.704.215 1.147.566 1.403 1.302a61.284 61.284 0 002.23 5.552c-.154.104-.297.223-.456.319a46.03 46.03 0 00-.052 1.485c-.932.559-1.76 1.258-2.557 1.982-.01.3-.026.906-.036 1.206a38.87 38.87 0 00-.958 1.108c2.944 5.062-.872 19.106-3.447 23.688-3.85 17.088-28.366 39.98-43.842 53.541a40.25 40.25 0 00-.621 1.439c-11.04 9.105-19.841 21.111-21.365 22.958-1.666.921-3.105 2.2-4.829 3.038-1.19 2.039.062 4.477-.031 6.676-11.578 16.534-10.053 39.577-.528 54.033 3.894 5.776 13.254 8.37 14.222 9.031 11.422 7.978 12.344 6.646 16.655 7.649 1.651-1.775 4.254-1.532 6.464-1.615 2.21-1.216 4.803-1.154 7.241-1.423 1.506-1.066 2.784-2.443 4.368-3.426.093.958.171 1.92.259 2.883 1.729-.181 3.467-.311 5.206-.43 1.894-2.536 5.17-3.514 6.925-6.221 3.834-11.172 3.232-14.404 7.417-14.849 39.585-17.171 64.825-14.53 81.012-25.717 3.654-.58 7.437.036 11.107-.735.047 3.867-6.632 15.014-8.845 19.144.145.228.44.688.59.916-.97.709-12.804 26.05-12.96 29.723-3.481 2.94-7.327 14.723-7.82 15.692-32.344 61.624-107.997 92.929-121.242 123.529-.399.927-1.201 1.573-1.889 2.282-.43.969-9.083 16.198-11.283 23.093-6.951.62-23.368 2.428-28.315 1.139l-.352.435c-1.253-2.357.872-.091-7.282-5.01-36.402-26.532-35.016-26.647-45.565-25.743-.906-.569-1.734-.316-2.308.549-1.159.176-2.614-.14-3.338 1.03-.74-.114-1.485-.238-2.215-.342-1.714.735-16.04.618-17.416.212-.114.145-.347.424-.461.564-.228-.212-.678-.647-.906-.859-1.832.528-3.742.378-5.621.435-1.589.036-2.841 1.185-4.358 1.532-.16.176-.486.528-.647.704a95.391 95.391 0 00-3.033.575l-20.107 23.435-.694.104a13.416 13.416 0 01-3.271 2.401c-1.496-.833-3.224-.704-4.86-.947-1.46-.818-3.105-1.139-4.762-1.118-4.218-1.646-8.85-1.817-13.125-3.292l-1.004.083c-2.385-1.257-13.083-2.43-15.128-2.169-1.351-.321-2.862-1.278-4.13-.233-.186-.259-.564-.771-.756-1.03-2.691-.305-5.605.512-8.131-.657-3.083-.161-17.7.331-21.996-.419-.114.114-.352.336-.466.445-1.951-.192-4.027-.487-5.812.518-1.289-.471-2.753-1.082-3.876.072-.191-.088-.574-.264-.761-.352-.926.181-1.858.336-2.784.502-.248-.254-.75-.761-.999-1.02-.414.243-.823.497-1.232.75-1.485-.243-2.847.414-4.078 1.165l-.802-.471c-.926.585-1.858 1.159-2.733 1.817-.626.046-1.252.093-1.868.15-.129.104-.383.316-.512.419-3.532.289-2.673.525-5.165.228-.409.119-.818.243-1.221.373-1.043-.202-30.509-.221-30.691-.181-1.087-.869-2.189-.135-3.318.124-.97-.046-10.855-.318-13.451-1.905-2.779-.155-5.61.269-8.333-.466-1.185-.212-2.433-.781-3.602-.186-5.984-1.568-17.641-1.258-18.611-1.046-2.728-.549-5.688.611-8.214-.797l-.6.683c-11.997-1.97-15.949-1.3-19.714-.321l-1.051-.574-.518.849c-.969.102-7.749 1.41-8.446 2.174-.022.001-8.424.634-8.446.631-.512.342-1.025.699-1.532 1.056-1.211-.186-2.438-.171-3.654-.072-.538.196-1.082.367-1.641.507-3.669-.81-14.798-1.092-17.493-.052-.97-.06-22.079-1.017-25.308-.388-8.54 4.825-16.184 6.283-16.184 6.283-.36-.093-13.112 2.233-13.694 2.293-.864.471-1.894 1.677-2.779.481-1.827.797-3.799.564-5.678.098-1.195 1.116-2.019 7.566-.207 9.875.021.606.041 1.227.057 1.848 2.935 1.729 5.465 4.057 8.472 5.667 1.123.295 2.179.792 3.178 1.382.202.807.43 1.599 1.278.869 1.506.735 3.587.869 4.435 2.515.259.021.787.057 1.051.078 1.098 1.134 5.889 5.553 7.613 6.143 1.025 2.495 3.312 4.146 4.958 6.216.326.016.978.047 1.304.057 1.206 1.651 3.074 2.671 4.213 4.384 1.123.202 1.941.947 1.915 2.148.605 1.02 1.299 1.982 1.977 2.96.269 1.247 1.02 2.308 2.293 2.691.233.761.543 1.366 1.325.756 7.315 3.678 12.369 1.836 21.432 2.847 7.968-1.2 7.048-2.483 8.39-4.135-.021-.171-.057-.513-.078-.683.875-1.599 1.465-3.493.854-5.284.311-.89.388-1.827.186-2.743 3.022-10.328 1.214-6.733 2.345-11.562.699-.75 1.335-1.558 2.091-2.251 0 0 2.652 1.335 6.93 1.734 1.498.603 1.297 1.334 12.369.512 1.558-.595 2.805 1.677 4.254.502 1.884-.725 3.235 1.169 4.503 2.231 13.535 6.429 57.37-5.701 69.14-2.313 6.552 1.131 27.358-.248 30.587.859 1.268-.274 2.614-.657 3.887-.176 3.116 1.33 6.573.3 9.818 1.066l12.939 2.396c16.989 5.313 10.651 4.885 18.937 7.38 1.118-.176 2.541-.864 3.457.176a52.33 52.33 0 01-.818 1.739c-1.304-.042-2.246.776-3.167 1.563-1.144.326-2.381.502-3.074 1.605-3.313.583-12.101 6.728-12.716 13.306-.015 1.082-1.014 1.713-1.687 2.417-.744 2.113-.929 4.242-1.263 13.917.062.155.186.466.243.621-.502 2.727.471 5.724-.869 8.26.827 15.526-9.11 32.13-11.096 42.714-2.173 5.174-.1 7.733 1.941 17.975.714 9.255-1.276 23.774-.921 33.046 12.617 3.425 56.651-26.454 59.13-43.128 1.501-5.647.88-11.619-.254-17.281 2.922-4.043-4.472-11.539-8.736-12.892-.859-.652-1.765-1.232-2.671-1.796-1.232-.326-2.464-.652-3.711-.885a25.773 25.773 0 011.925-3.851c1.33-.74 2.251-1.956 3.271-3.038.347-1.418.787-2.8 1.299-4.156 3.003-1.884 1.348-1.248 4.477-2.365l.683-.968c9.14-1.184 5.732-9.214 7.458-12.126 38.417-26.058-5.496-25.939 93.015 6.666 1.577-1.362 48.555 14.497 49.525 14.926 2.722 2.37 5.496 4.705 7.908 7.406 1.392.839 3.167 1.077 4.265 2.396 2.267 1.123 4.668 1.894 7.054 2.728 2.888.937 8.242 8.192 10.869 9.59.052.3.155.906.212 1.206 2.189 1.78 4.089 3.923 6.428 5.522.471.969 12.285 19.339 26.928 33.046 6.848 8.453 10.607 22.784 22.943 23.647 0 0 7.263 16.081 48.112 61.962 2.731 4.922 56.53 57.644 59.115 62.644.228.119.694.352.921.471.106.169 8.375 8.296 9.347 8.829 2.137 2.634 4.767 4.808 6.951 7.411 0 0 74.266 73.904 81.934 77.064 1.579 1.589 3.701 2.464 5.362 3.975l1.294.041c14.65 10.71 58.706 39.779 58.706 39.779 2.876 1.036 70.841 39.583 96.844 47.594 1.986 5.424 8.196 7.242 9.254 8.369 1.277 4.196 4.052 2.752 7.856 6.392.018.969-7.516 33.287-5.206 44.37.207.813-.036 1.61-.295 2.396 7.131 24.754-5.052-3.99 12.116 29.697 1.682 2.686 2.241 6.086 4.705 8.255.766.605.994 1.553 1.253 2.479.437.56 4.004 16.93 12.421 25.8 2.038 3.096 13.813 37.916 19.957 40.783-.333 3.564 7.239 12.747 6.842 18.725 3.063 4.222 1.227 4.367 6.583 12.923.507 1.278-.191 2.489-.937 3.499 1.082.992 10.342 17.505 10.455 17.876 6.871 9.688 8.08 8.808 6.93 10.418.694.331.916 1.02 1.046 1.76-7.453.961-13.807-25.123-21.437-29.454a27.04 27.04 0 00-1.015 1.149c.497 2.153 2.526 3.478 3.126 5.574.181.248.549.75.735.999 0 0 4.595 7.995 6.087 12.908 1.578 1.982 2.95 4.172 4.829 5.905.549 1.071 1.351 1.987 2.086 2.955.145.952-.28 1.382-1.263 1.284l-16.474-19.677c-1.77-1.093-11.205-20.58-9.332-31.478-.367-.021-1.102-.067-1.47-.088-3.627 17.624 13.617 46.069 24.216 51.6-.192.616-.072 1.418-.543 1.946-6.556-1.401-9.401-6.826-11.609-8.307-.806-2.144-11.287-16.329-17.177-19.625 0 .921-.352 1.791-.75 2.624 1.995 1.361 12.982 13.317 12.934 15.376-1.144.388-1.874-.709-2.696-1.258-6.078-8.842-12.227-13.481-13.115-14.45-.393.357-.766.74-1.138 1.133 1.211 1.382 1.858 3.105 2.552 4.793.667.844 1.579 1.47 2.381 2.215 1.327.521 10.339 11.522 14.859 13.581.776 2.029 3.167 2.024 4.735 3.116 0 0-.053 1.551.295 3.669-1.025-.947-1.858-2.044-2.784-3.053.616 2.073.897 1.696 1.77 5.129-3.489-4.13-1.409-4.755-5.792-6.03.145.207.43.621.575.828l.849-.316c.921 1.035 1.615 2.267 1.848 3.664.217.015.652.052.87.067-.01.88-.015 1.76.005 2.671-.58-.461-1.159-.926-1.729-1.341.347 1.216.895 2.37 1.346 3.571-6.925 2.191 2.068.292 5.766 12.934.656.97 5.087 8.992 5.072 10.356-1.429-.746-6.396-7.39-7.075-8.359-3.214-1.226-4.694-4.585-7.365-6.506l-.228-1.382c-.963-1.33-1.579-2.852-2.189-4.353-1.175-2.51-3.954-3.716-5.274-6.164-.388-1.801-1.511-3.354-1.672-5.196-.574.202-1.149.404-1.682.678 1.022 3.725.12-.164 1.211 4.363.921 1.278 1.61 2.702 2.334 4.109.047.269.129.812.176 1.082.652.828 1.263 1.703 1.925 2.551.036.254.114.756.15 1.009.492.616.947 1.268 1.102 2.101-3.45-2.616-2.514-5.382-4.674-6.759-.3-2.272-1.651-4.177-2.645-6.164a88.667 88.667 0 01-.114-1.133c-.497-.911-1.128-1.723-2.262-1.692 1.873 11.727 5.175 12.151 6.097 15.34.989 1.004 2.065 1.956 3.369 2.557-.01.269-.036.813-.047 1.082 1.304.999 2.898 1.61 4.042 2.847-1.822-.336-3.245-1.553-4.674-2.614-.264-.067-.792-.207-1.056-.274a18.035 18.035 0 00-2.852-1.62v-1.242c-2.122-.466-4.446-.781-5.942-2.531.584 3.794 7.183 11.416 8.742 12.716-.228.243-.445.497-.652.766a144.756 144.756 0 01-5.667-7.261c-1.251 4.424-2.516.005-7.018-.647.747.971 10.87 6.218 12.913 9.502-.298 1.429 1.143 2.454 1.892 3.558-2.998-2.619-9.433-7.897-15.39-10.509.445 1.366 2.07 1.775 2.598 3.121 2.715 1.124 10.244 6.845 11.371 9.43-5.41-2.465-1.541-1.532-8.726-6.076 0 0-7.821-5.163-19.372-10.382-.331.3-.647.621-.937.963.969.342 11.41 4.615 12.985 6.987.987.341 12.368 8.571 12.701 8.84.378.036 1.139.104 1.516.14 1.392 1.258 4.047 1.361 4.337 3.525 0 0-35.465-11.903-48.743-11.567.021.15.057.45.078.6.155.078.466.223.626.3l.274.3c6.309.117 28.164 6.838 29.133 7.681 4.792 2.162 11.106 3.186 8.069 4.958-33.86-9.896-37.141-14.715-43.231-12.546 7.167 4.986 29.044 7.309 27.674 11.252-15.059-.256-12.909.212-19.677 4.803 1.579-.839 3.25-2.075 5.119-1.304 1.553-.554 3.204-.6 4.834-.755.155.279.461.838.611 1.123.212-.233.626-.694.833-.921 2.872.484 17.737-.639 23.228 1.434 9.507-1.245 15.228 7.968 22.84 10.848 2.671 1.263 5.864 1.553 7.97 3.84 2.075 1.315 4.172 2.821 6.578 3.473.005.166.01.497.01.662 4.687 1.951 2.669 1.766 8.602 4.27 1.258.031 2.52.047 3.794.073.026.253.067.75.088 1.004-1.082-.621-2.329-.642-3.462-.202-.554-.155-1.102-.3-1.63-.424-.217-.197-.647-.59-.859-.792-1.471-.708-.772-.469-2.127-.745-1.791-1.315-3.866-2.153-5.662-3.447l-1.061-.166c-8.783-5.727-14.652-4.169-25.758-14.486a63.587 63.587 0 00-3.261-.714c1.599 1.853 4.441 2.815 4.953 5.445 3.525 2.472 15.286 7.834 17.825 9.714 1.496.419 2.966.968 4.404 1.599.155.243.476.73.631.973 1.594.683 3.307 1.367 4.296 2.904-.802-.176-1.46-.606-2.081-1.071-30.245-9.003-30.006-17.848-33.967-20.744-.947-.14-1.899-.093-2.826-.078.979.592 28.716 35.097 53.655 36.27l.724-1.035c1.909.302 19.36 6.324 20.019 6.505-.228.637-.45 1.289-.662 1.956-1.558.766-3.028 1.693-4.539 2.536a32.68 32.68 0 00-.155 1.542 22.96 22.96 0 00-1.879 1.434c-2.717.973-4.927 2.898-7.23 4.575.74.269 1.511.575 2.282.859l13.86-10.589 1.221-.124c.14-.279.419-.843.559-1.123 1.077.016 2.163-.047 3.26.062.792.621.688 1.594.507 2.5-.631.114-1.252.243-1.858.393-1.082 1.749-3.452 2.277-4.151 4.265-.714.476-1.428.952-2.148 1.423-2.514 3.712-2.164 2.141-4.337 5.983-8.776.559-23.432-3.058-31.99-10.103l-.16.963c-.362-.388-.709-.761-1.04-1.123-.274-.047-.823-.14-1.102-.191-5.222-8.248-33.275-26.798-35.939-28.569-3.595-6.457-3.082-2.927-5.46-11.485-.367-.6-.735-1.206-1.066-1.786-.254.15-.761.45-1.009.6.497 2.324 2.676 8.307 2.95 9.068.626.75 1.283 1.506 1.573 2.489-5.662-3.376-5.854-10.427-8.348-8.302.227 5.896 11.02 13.058 16.137 16.034.311.046.942.145 1.253.191 1.221 1.247 2.655 2.443 2.888 4.306-.248.15-.735.45-.983.6 6.811 12.766 8.037 7.951 12.783 14.771 1.454.807 2.593 2.257 4.311 2.531 1.506.999 3.157 1.972 4 3.664.212-.207.647-.621.859-.828l1.589.601c3.476-.343 11.358.869 9.875 4.063l.435-.072.047-.704c1.981.525 1.951.864 3.84 1.356 4.189 2.252 16.677 3.576 20.49 4.767 4.544-.574 9.114.083 13.586.968a16.811 16.811 0 01-1.139 2.179c-.373-.026-1.108-.067-1.48-.088-.958 2.189-2.298 4.156-3.695 6.081-.688 1.956-.983 4.063-1.93 5.947l.73-.254c1.511-4.792 4.715-8.721 8.007-12.411 1.822-1.139 3.84-2.003 6.04-1.578-.329 10.321-42.268 91.665-51.129 104.561-14.322 18.522-12.904 34.491-13.13 44.887-.171.228-.512.678-.683.901.062 1.946.15 3.897.243 5.859l-4.27 18.083c-.145.191-.435.569-.575.761-.545 2.644-7.163 31.569-7.163 33.532 4.218 9.365 1.644 27.732 3.923 32.859 5.588-.5 6.401-3.089 9.228-3.333 1.946-1.542 4.078-2.836 6.366-3.799l1.278.228c2.308-.839 4.322-2.412 6.764-2.888 4.383-3.006 6.543-6.75 8.736-5.336-.021.575-.197 1.154-.316 1.755 1.496 1.02 1.993 2.826 3.059 4.218 3.204.719 6.827.021 9.875 1.625 2.515.249 5.046-.404 7.551-.678 9.737-5.111 20.155.298 22.389-5.031.833-2.029 2.624-3.349 4.12-4.865-.119-1.351-.3-2.686-.145-4.026-1.02-2.981-1.283-6.796-4.461-8.359-.042-.326-.114-.989-.155-1.32-.202-.259-.616-.781-.818-1.04 6.062-12.985 14.74-13.983 17.959-15.19l1.247.062c2.812-2.142 3.878-5.587 9.399-6.371 3.48-2.749 9.549 1.601 12.996-5.569.809-11.068-.144-12.509 1.641-15.609.204-.971 10.935-43.879 13.224-48.205.585-3.059 2.262-5.859 1.92-9.062 1.524-2.549 11.725-32.85 12.67-38.879 1.542-.833 2.039-2.375 1.842-4.047 4.514-8.25 16.734-58.929 26.069-73.223 6.608-9.731 10.75-18.644 11.573-39.996-.264-.14-.797-.419-1.061-.554.072-.652.16-1.283.269-1.894.264-.083.797-.259 1.061-.342.424-1.511 1.035-2.965 1.941-4.249 4.825-.681 17.29-9.422 18.259-10.015 1.197-.247 5.969-3.673 6.288-4.29.238-.026.709-.073.942-.098 2.64-2.588 5.222-5.279 8.291-7.37-.285.699-.683 1.356-1.118 1.993-2.133 7.099-3.98 5.789-5.678 9.72l-.932.6c-13.628 22.419-15.511 26.861-15.511 26.861-2.354 1.159-10.088 18.151-11.277 20.485-.195.97-24.854 49.289 4.223 74.274.525-1.827-.277-2.543-5.833-10.853-12.981-20.448-.977-52.952 1.812-56.843 1.092 1.58-2.63 12.164-3.499 17.033.259.347.538.709.833 1.087.282-.926 3.474-9.566 3.437-10.713 6.063-12.015 1.643-8.189 7.209-21.597 1.553-1.21 8.474-14.117 9.678-15.672.16.078.481.223.637.295 6.758-16.325 6.03-12.49 20.216-33.17 10.995-20.083 14.791-18.268 19.646-23.771a22.593 22.593 0 011.641-.316c5.644-3.757 1.861-5.771 8.695-6.366.833 3.245-2.79 4.772-4.125 7.22-1.925 1.713-3.592 3.649-5.134 5.703-5.057 2.525-6.022 10.749-11.215 13.57.838.062 1.682.176 2.562.197.994-1.418 1.905-2.903 3.121-4.151.559.326 1.128.663 1.718 1.02a87.63 87.63 0 01-.927-1.547c1.936-2.562 3.509-5.714 6.361-7.355l9.621-10.739c1.962 2.693-3.099 7.511-4.927 11.873 1.987-1.661 2.79-4.26 4.508-6.154l1.149.145c0 .512.016 1.046.047 1.594-1.082 1.03-1.76 2.375-2.738 3.493l-23.631 39.614c-1.956 1.125-20.897 24.905-20.93 39.194-1.382 2.583-1.817 5.512-1.791 8.421-.58 1.801-.429 3.804-1.237 5.532-10.749 11.414-8.403 13.276-7.349 18.575.424.833.813 1.677 1.226 2.557.714-3.897-.735-8.012.813-11.759 2.024-1.765 3.193-4.296 4.306-6.682l.87.435c.213.969-2.871 23.643 10.185 32.922-.398-2.241-1.879-4.006-3.085-5.843-15.992-23.423 6.913-54.469 8.203-61.133 1.211-2.215 1.128-5.062 2.986-6.889l.212.792.399.078c-.43-2.287 1.822-4.021 2.655-6.014.016.497.052 1.485.067 1.982 1.014-.968 2.153-1.889 2.712-3.209.864.87 1.439-.538 2.034-.999 1.087-1.651 2.728-2.748 4.141-4.094 1.046.285 2.127.373 3.23.486a59.625 59.625 0 00-1.196 1.682l-.16 1.051c-2.422 2.779-4.213 6.045-6.376 9.021l-.75-.683c1.356 1.641-.466 2.448-1.858 2.355l-8.245 11.029c-1.659 1.201-6.329 9.416-5.294 13.006 1.889-2.287 2.142-5.398 3.705-7.867 4.947-7.766 3.949-1.645 10.165-10.072.59-.021.983.29 1.185.932 1.113-1.599 1.931-3.411 3.333-4.787l.124-1.097c2.132-1.801 3.24-4.399 4.658-6.733.023.512-1.296 4.087-1.734 5.869-.238.223-.709.673-.947.901l.052-.766-.518-.057c.699.865.347 1.724-.435 2.386l-.228 1.02c-.615 1.145-3.497 10.036-3.307 11.236-2.655 4.417-6.048 12.953-6.692 18.311a16.576 16.576 0 011.563-.647c.282-3.563 4.109-16.352 6.5-16.184 0-.394 0-1.185-.005-1.579h1.113c-.574 1.051-.642 2.132.171 3.105-.709 1.423-1.299 2.96-1.108 4.591-2.584 4.756-1.66 8.567-2.293 12.255 1.625-.585 1.76-2.484 1.848-3.939.145-3.343 2.422-6.138 2.469-9.497.868-2.977 1.706-7.932 1.993-10.123l.466-.026c.207 12.393-1.026 8.403 3.566 14.124.218-1.071.414-2.143.549-3.204.119-.212.357-.631.476-.839-.492-.28-.958-.549-1.413-.802-.057-1.568-.492-3.064-.952-4.539.178-.969.818-6.466 1.273-7.649.036-.544.078-1.071.135-1.573a9.316 9.316 0 011.403-1.491c.067-1.371.693-2.583 1.578-3.592.262-.969.193-.882.766-2.717.212-.202.647-.605.859-.807.036-.274.098-.828.129-1.102l.6-1.423c.16.171.481.507.647.678 1.346-1.294 2.474-2.779 3.312-4.451-.005.388-.005 1.165-.01 1.553-6.271 7.87-2.657 3.157-5.574 8.265-.047.269-.145.802-.197 1.071-3.194 5.801-2.408 5.516-2.448 11.303a40.21 40.21 0 011.382 2.045c.75-2.524 2.365-12.252 5.766-14.549-1.218 8.263-6.108 10.575-6.055 37.538.597 1.578 3.085 11.611-1.32 15.542-.031.274-.098.828-.135 1.108-1.894 3.193-3.944 6.293-5.714 9.559 2.189-.678 3.514-2.614 4.425-4.591.021-.29.062-.875.088-1.164.248-.207.751-.616 1.004-.823 0-.31 0-.926.005-1.232.254-.212.771-.626 1.03-.839 0-.347.005-1.045.005-1.397l1.47.021c.719-1.439 1.439-2.919 2.748-3.913-1.419 5.268-2.847 4.644-3.281 12.375-.311.896-.564 1.811-.875 2.722-.162 3.735.099 2.701-1.045 8.566.388.756.414 1.62.476 2.479-.057 2.417 1.796 4.28 2.272 6.588.187.212.554.637.74.849.223.969 1.1 5.364 2.914 10.009.424.186.859.393 1.304.621-3.702-12.777-3.468-14.793-6.169-18.109-.016-1.02-.01-2.018.01-3.007.849-1.439 1.796-2.955 1.754-4.684.055-14.117 5.398-13.895 1.987-21.66.528-1.035 1.035-2.091 1.734-3.017.549-1.781 1.051-3.659 2.577-4.865.798-3.501 9.958-24.794 16.675-29.532.578-1.313 6.854-7.046 7.111-7.24.236-1.017 2.967-6.784 4.12-7.598.082-.268 14.308-24.482 14.372-24.755 2.832-3.796 4.496-4.954 5.036-9.497.248-.01.745-.042.994-.057a37.364 37.364 0 01.005-2.039c.388 0 1.164.005 1.552.005-.005.248-.005.745-.005.994-.254.016-.761.057-1.02.073l-1.703 18.792c-6.108 19.866-1.148 28.355-3.4 37.119 4.689 31.747 26.955 28.504 31.224 25.443 11.314-3.005 24.379-11.309 25.35-12.017.129.093.388.274.518.362 2.743-1.837 5.848-2.96 8.809-4.384 1.78-.016 3.488-.585 5.02-1.491 2.707-3.002 7.344-4.27 8.923-8.24 1.318-.785 20.302-15.674 21.768-17.664 3.395-.932 5.973-3.571 8.276-6.092 2.189-1.32 3.638-3.773 6.33-4.177 5.509-3.659 8.531-6.82 10.884-10.625l.187-1.346c1.744-1.905 3.602-3.732 5.781-5.145.543-.481 1.547-.787 1.413-1.687a56.119 56.119 0 00-.678-1.418c-2.552 1.077-4.963 2.412-7.318 3.856-.28.031-.828.099-1.102.129-13.792 8.666-6.005 5.653-14.921 9.435.378-.512.776-1.004 1.2-1.47.01-.704.047-1.382.104-2.044 7.361-10.097 3.331-4.63 10.429-11.531 1.04-.29 2.251-.543 2.748-1.651.248-.031.755-.083 1.004-.109l1.056-.642c1.532-3.084 5.821-3.286 8.151-11.029 1.348-.117 5.217-4.404 6.04-5.372a94.766 94.766 0 01.005-3.245c-.59.233-1.165.481-1.719.745.04-.053 3.887-4.671 6.359-8.045zm-50.467-144.495c-3.19-1.03-4.597-3.626-6.102-5.564a8.722 8.722 0 016.102 5.564zm-8.808 2.505c.932.295-.399 1.842-1.077 1.413-.248-.653.528-1.232 1.077-1.413zm-39.029 83.631c2.821-.337 4.203 2.908 6.971 2.836.326.135.978.404 1.304.533l.016.31c-1.522.921-2.981-.119-4.404-.657-.828-.844-1.729-1.599-2.593-2.365l-1.315-.062.021-.595zm-4.016-220.286c.724-.455 1.506.771 1.222 1.423-.736.389-1.74-.766-1.222-1.423zm6.604 225.156l-.016.476c-2.94.285-5.077-2.049-7.541-3.229 2.899-.197 4.653 2.945 7.557 2.753zM961.207 526.261c.057-1.9.911-3.99 2.867-4.606-.59 1.733-1.62 3.275-2.867 4.606zm13.415.569c.052.735.093 1.48.155 2.236l-.497.005c-.404-2.387-.362-1.18-.725-3.876-.461-.631-.88-1.294-1.092-2.034.549.424 1.102.88 1.646 1.351.109.776.239 1.562.513 2.318zm7.406-16.375c-.833.155-1.454-1.191-.507-1.465.792-.228 1.454 1.257.507 1.465zm11.749 9.719c-.688.238-1.863-.631-1.367-1.372.73-.491 1.615.689 1.367 1.372zm-1.853-26.685c-.124 1.304.844 2.728.041 3.928a88.548 88.548 0 01-1.159-1.03 55.09 55.09 0 01-.166-2.407 129.086 129.086 0 01-1.563-2.127c1.32-1.309 2.298.57 2.847 1.636zm-1.563 13.053c1.128 1.268 1.465 3.111 2.826 4.187.078.947.725 1.568 1.516 2.029.906 1.547 2.329 2.8 2.914 4.529l.404-.166v1.594c-.657-.005-1.299 0-1.93.01-1.423-1.506-2.464-3.297-3.685-4.943-.353-2.259-.82-4.715-2.557-6.718-.589-2.625-.418-.626-1.201-4.172.688.617 1.347 1.66 1.713 3.65zm-6.216-3.871c-.275 3.681 3.609 10.424 3.701 13.203a7.009 7.009 0 01.921 3.659 28.03 28.03 0 00-1.434.699c-2.855-5.095-2.219-4.466-1.868-7.297-.595-2.696-1.439-5.341-2.769-7.774.052-.192.166-.574.217-.766-.047-1.584-.797-3.002-1.346-4.441-.724-.921-.787-2.055-.657-3.162.642.781 1.294 1.568 1.92 2.381-.186 1.329.72 2.395 1.315 3.498zm-.978-41.845c-.269.223-.533.445-.787.668-1.403-1.377-2.665-2.888-3.664-4.58 2.013.564 2.469 3.141 4.451 3.912zm-6.884-16.66l.523.041c.119 2.375-.104 4.762-.807 7.044a14.504 14.504 0 01-.223-2.029c.89-1.531.394-3.384.507-5.056zm-1.588 50.208c-.586 5.12 2.422 4.701 5.89 8.508-.135.885-.259 1.775-.378 2.671-1.066-1.159-2.184-2.277-3.126-3.535l.078-.838-1.765.631c.492-.481 1.035-.901 1.584-1.325-.383.104-1.144.316-1.527.424l.14-1.051c-.3.336-.59.673-.869 1.014-.745-3.201-1.582-4.085-.538-6.05l-.45.088-.14.828c-.145-.331-.435-.994-.585-1.325.423-.009 1.261-.03 1.686-.04zm-2.009-55.435c.254.026.756.072 1.009.093l-.549 11.862c-.238.026-.714.073-.952.093.937-3.891 1.6-8.146.492-12.048zm-.434 71.314c-.284.202-.844.616-1.128.823.026-1.366-.026-2.738-.471-4.037 1.304.496 1.474 1.997 1.599 3.214zm-2.179-45.897a76.547 76.547 0 010-2.396c-.254-.212-.756-.631-1.004-.844a33.409 33.409 0 01-.119-1.584 30.572 30.572 0 01-.58-1.749c-.191-.202-.574-.616-.766-.818-.145-.854-.326-1.692-.6-2.5.238.021.714.067.952.093.031.316.098.947.129 1.268 2.403 4.253 2.269 6.465 2.981 8.612l-.993-.082zm-2.961-34.283c1.221.963 1.718 2.51 1.646 4.027.381.97 2.56 13.547 1.817 17.4-2.852-.709-2.702-4.43-4.001-6.563 2.352-4.563-1.03-13.079.538-14.864zm-.766 59.55c1.175 1.149.875 3.085 2.22 4.078 0 1.108-.435 2.117-.988 3.054a39.006 39.006 0 01-.145-2.024 133.32 133.32 0 00-.926-.455c-.285-1.33-.533-2.671-1.035-3.934.217-.181.657-.538.874-.719zm-.802 23.911l-.476.01c-.649-2.117-.624-1.679-.73-3.628h.486c.508 2.72.097.266.72 3.618zm-.906-25.257c-1.159.104-2.065-.362-2.588-1.377a26.305 26.305 0 01-1.568-1.449c1.569.544 3.66.963 4.156 2.826zm-5.977.937h1.04c.01.316.031.952.036 1.273a39.19 39.19 0 011.837 1.258l1.175.062c.859 1.962.569 4.13.595 6.211l-.336-.01c-.29-1.33-.709-2.743-2.039-3.359-.507-1.045-1.299-1.863-2.184-2.572-.181-.948-.109-1.916-.124-2.863zm3.788 17.064c-.254.01-.761.021-1.014.026a85.973 85.973 0 01-.657-2.37c1.035.382 1.713 1.2 1.671 2.344zm-4.766 17.364c.673-.854 1.309-1.744 1.992-2.598.026-.512.062-1.02.114-1.516.414-.595.828-1.196 1.237-1.801l.274-.067-.062 1.061a28.577 28.577 0 011.832-.678c-.518 1.294-1.837 1.951-2.8 2.862-.036.29-.098.869-.129 1.159-.4.922-1.341 3.254-1.641 4.415-.217 0-.647.005-.859.005 0-.953.01-1.9.042-2.842zm-2.878-169.939c.016.352.052 1.056.067 1.408-.709-.067-1.403-.129-2.086-.192-.046-.316-.135-.958-.181-1.278l2.2.062zm-1.817 175.694a94.988 94.988 0 01.01-2.391l.528-.026c-.026.947-.036 1.899-.047 2.852-1.397 1.516-2.215 3.613-4.032 4.689-.01-.249-.036-.75-.047-.999 1.425-1.159 2.512-2.655 3.588-4.125zm-14.714 69.067c.972 3.936 2.545 4.73 3.514 5.636.793 1.528-3.034 4.076-4.881-5.569.343-.015 1.026-.051 1.367-.067zm-4.663 9.787c.875-.181 1.03 1.341.657 1.904-.714-.03-.879-1.36-.657-1.904zM660.576 158.669c1.76-.782 4.001-1.16 5.326-1.309-.197.279-.6.838-.797 1.118-1.542-.036-3.1.01-4.539.595l.01-.404zm141.458 33.351c-1.19-1.284-2.614-2.303-4.12-3.178-.466-.73-.947-1.449-1.403-2.179-1.232-.869-2.427-1.785-3.659-2.645-.968-.067-1.641-.668-2.127-1.449a16.135 16.135 0 01-2.07-1.904c1.088.282 3.576.945 4.705 1.221 1.708 1.874 4.498 2.381 5.942 4.539 1.47 2.049 3.095 3.954 4.958 5.657-.746-.16-1.533-.631-2.226-.062zm72.659 58.354c-1.573-.699-1.951-2.738-.937-4.063 1.698.424 3.426.745 5.191.802.093.367.274 1.113.362 1.48-1.319.948-3.213.849-4.616 1.781zm13.436 9.683c-.362-.781-.378-1.822-1.077-2.386-1.061-.388-2.205-.502-3.209-1.004-1.78-1.967 2.951-1.798 4.43.171.673.761 1.377 1.501 2.308 1.967-.672.673-1.593.931-2.452 1.252zm43.645 343.376l1.051.849c-.031.725-.062 1.454-.088 2.194-.906-.74-1.646-1.646-2.386-2.521.186-.642.352-1.289.549-1.92h.859c.004.352.01 1.046.015 1.398zm-9.927-331.984c.192.259.585.781.781 1.046-1.159-.187-2.624-.362-3.048-1.656.746.196 1.501.403 2.267.61zm-6.112-3.163c-.005.285-.021.854-.031 1.139-1.294-.233-2.541-.761-3.38-1.801 1.44.182 1.398.322 3.411.662zm-10.6.352c2.112-.01 3.587 1.718 5.476 2.401-.186.202-.564.6-.756.802h-3.069c.166-.202.502-.601.673-.797a40.22 40.22 0 01-2.324-2.406zm-5.02-7.214c2.329-.14 4.808.854 6.035 2.919.533.429 1.056.88 1.573 1.361-6.279-2.579-.679-1.051-6.837-1.698-.936-.548-.631-1.697-.771-2.582zm18.663 27.911a32.777 32.777 0 00-2.303-.549c-3.619-2.798-2.97-3.219-10.843-5.145-1.221-.699-2.495-1.309-3.856-1.635l-.052-.414c4.301.299 2.677.686 6.485 1.195.657.497 1.335.968 2.029 1.444.269.031.802.098 1.071.129.663.269 1.346.513 2.044.761 1.04-.585 2.163.238 3.255-.15.186.06 6.205 2.288 7.106 2.671-1.17 1.056-2.779.735-4.208.776-.179.229-.547.69-.728.917zm4.482 8.54l-1.025-.305c-.657-1.837-2.588-3.085-2.655-5.108.771-.383 1.656-.352 2.505-.497 2.287-1.253 5.144-.285 7.215 1.025.274 2.417 1.351 4.704 1.19 7.184-2.075.042-4.13.347-6.118.926a22.505 22.505 0 01-1.112-3.225zm2.733 6.506c-.228-.016-.673-.042-.9-.057-.378-1.268 1.082-1.837 1.775-2.634 1.361.078 2.738.005 4.109-.057-.01.419-.031 1.268-.047 1.692-1.734-.067-3.452.124-4.937 1.056zm105.374 1090.478c-2.163-1.071-3.934-2.764-6.128-3.768-3.278-6.191-14.062-9.168-14.409-16.101 1.718.74 2.489 2.567 3.711 3.882 6.662 3.61 9.951 10.475 17.964 14.714.813.362 1.139 1.216 1.47 2.003-2.117-.716-1.033-.422-2.608-.73zm3.338-2.805c-3.788-1.808-16.447-12.244-17.68-14.973 1.729 1.47 3.747 2.795 5.041 4.72.75.404 1.573.792 2.091 1.542.671.276 8.686 7.052 10.569 8.255l-.021.456zm54.519-8.147c.978.285 1.382 1.133 1.584 2.081l-1.641.104c0-.741.015-1.47.057-2.185zm-9.327-14.967l-.124-1.604c1.791-.678 3.742-.569 5.201.782-.005.388-.01 1.17-.016 1.558-1.671-.369-3.363-.643-5.061-.736zm4.663 3.219c-2.334-.564-4.663.098-7.002-.093.13-2.455 7.185-3.195 7.002.093zm-1.122-16.505c-.135.838-.274 1.682-.399 2.546a37.39 37.39 0 00-1.656-.326c-1.672.626-3.431.471-4.88-.569.15-.373.461-1.118.61-1.491 2.106.068 4.218.094 6.325-.16zm-23.642 10.289c-.466-.507-.911-.988-1.356-1.46-1.428 1.066-2.603-.999-3.757-1.63 3.058-.172 6.555.697 8.669.517-.192.254-.574.766-.761 1.025.409 0 1.227.005 1.635.005l.083-1.04h.989c0 .388.005 1.159.01 1.542-.383.005-1.149.01-1.532.01-.016.259-.041.781-.057 1.04a270.525 270.525 0 00-3.923-.009zm3.509 10.377a57.586 57.586 0 00-2.106-.026 66.544 66.544 0 01-.073-1.03 60.306 60.306 0 00-2.552 0v-1.035c1.102-.01 2.22-.005 3.343.005.435.694.906 1.387 1.388 2.086zm-29.682-45.545c3.054-.593 11.322 7.793 10.905 9.238-1.108.109-1.972-.719-2.909-1.113 1.95 3.204 4.911 1.582 7.644 4.803a4.147 4.147 0 01-.745 1.475c-1.889-1.693-15.08-6.061-11.107-8.146 1.547.114 2.753 1.253 4.073 1.993-5.868-5.374-7.277-4.546-7.861-8.25zm15.459 13.529c2.055.352 3.959 1.284 5.688 2.443.15 1.874-1.848 1.366-2.681.456-1.345-.575-3.281-.984-3.007-2.899zm5.667 15.868c-.662.424-1.045.31-1.149-.352.637-.46 1.02-.341 1.149.352zm1.191-7.339c2.029.678 4.052 1.429 6.211 1.63-.01.419-.041 1.263-.057 1.687-8.502-.363-7.708-3.556-6.154-3.317zm9.331 14.492c2.696.797 5.222 2.137 8.001 2.712 1.025-1.118 1.718-2.95 3.286-3.307.228.31.683.937.911 1.252-.279.186-.838.554-1.118.74-.083.274-.259.823-.342 1.092-2.476 1.801-1.406 2.307-7.07 1.449-.171-.264-.507-.787-.678-1.046a98.743 98.743 0 00-2.94-.812c.033-.621-1.183-2.215-.05-2.08zm2.04-.88c.109-1.185 1.159-1.837 2.137-2.272 2.251.662 4.684.963 6.992.352.072.362.222 1.087.3 1.449-1.134.767-4.646 4.952-9.429.471zm12.907-19.988c-1.175.564-2.381 1.061-3.55 1.615-.399.45-.616 1.454-1.418 1.139-2.355-.404-4.777-.362-7.044-1.19-2.412.569-4.808-.632-7.147-1.108-7.177-3.816-13.006-11.997.854-9.673 2.707.321 5.357 1.185 8.121 1.045.238.181.704.549.937.735 1.009.005 2.034.031 3.064.093.892 3.143 4.943.272 6.183 7.344zm-11.246-21.633c-.021-.28-.057-.828-.073-1.103-.414-.424-.818-.838-1.201-1.242.249 0 .75-.005 1.004-.01 1.237 2.557 3.048 4.741 4.808 6.961.195 1.105.183 1.013.735 2.562-.58-.466-1.128-.916-1.672-1.361-.026-.285-.083-.849-.109-1.128a25.87 25.87 0 01-1.227-1.936c-.098.16-.285.481-.383.642-1.046-.942-2.174-1.765-3.256-2.64 1.025.383 2.019.802 3.069 1.19a47.156 47.156 0 00-1.695-1.935zm-5.445-.109c.933 1.606 4.374 5.028 7.753 6.708.678.963 1.402 1.904 2.07 2.898a25.193 25.193 0 00-2.712-.574c-9.007-8.865-8.619-8.424-9.637-10.481.87.398 1.698.921 2.526 1.449zm-31.721-16.479c.14-.336.414-.999.554-1.33 9.622.602 15.828 8.724 16.173 9.694 2.324 3.493 16.463 17.844 16.464 17.845 1.206.476 2.443.859 3.628 1.428-.005.347-.015 1.04-.026 1.387-6.903-.262-5.736-2.356-10.703-.906-5.533-.825-3.482-.21-7.075 1.159-1.273.119-1.547-1.315-1.755-2.22l-1.082.062c-.683-3.007-3.711-4.399-5.569-6.573-6.104-7.876-9.134-16.354-10.677-18.518.012-.698.037-1.371.068-2.028zm-8.032 1.325l.6-.052c.026.331.083.994.109 1.32.983 1.853 2.096 3.675 2.655 5.724-1.78-1.884-3.038-4.42-3.364-6.992zm4.87 4.906c-.047-.264-.135-.797-.181-1.066-.807-1.558-1.698-3.074-2.344-4.694.16-.233.486-.693.647-.926 1.324 3.333 1.178 3.16 1.33 4.202.461.647.937 1.309 1.439 1.967.021.518.062 1.056.114 1.61.642.983 1.299 1.967 1.951 2.971.036.274.114.823.15 1.097.155.321.461.963.611 1.284.15.01.44.026.585.036 1.17 1.423 2.251 2.919 3.344 4.415-.155.176-.466.533-.621.714.233.016.699.042.932.057.958 1.635 2.106 3.157 2.981 4.86-1.258-.347-1.749-1.63-2.422-2.588-1.682-.978-2.784-2.583-3.887-4.12-.026-.259-.088-.787-.114-1.045a212.784 212.784 0 01-4.515-8.774zm-15.412 8.55c1.656 2.174 4.487 2.934 6.578 4.622 3.374 1.931 4.818 5.89 8.007 8.012.973 1.242 1.775 2.676 3.074 3.638.404.512.818 1.03 1.253 1.573.015.347.052 1.035.067 1.382-.647-.445-1.335-.854-1.941-1.294.352-.885.279-1.698-.709-2.039-.228.186-.673.554-.895.74-.223-.429-.668-1.283-.89-1.713.388.15 1.165.445 1.547.595-.543-.631-1.237-1.827-2.189-1.18-2.541-3.561-5.362-7.215-9.611-8.788.683.766 1.284 1.604 1.454 2.671.103-.093.316-.279.419-.367.673.254 1.242.766 1.899 1.144.01.259.031.781.047 1.04.926.554 1.76 1.258 2.577 1.998-.005.388-.015 1.175-.015 1.568-2.22-2.583-6.231-3.726-7.008-7.37-.103.098-.316.285-.419.383-1.066-1.04-1.661-2.479-2.065-3.876-.807-.839-1.584-1.703-2.174-2.686.248-.011.745-.037.994-.053zm15.806 18.725c-.026.652-.052 1.32-.062 1.998-7.414-.876-7.657-6.443-10.418-7.913a5.07 5.07 0 01.74-.538c.859.595 1.811 1.082 2.753 1.584.554 2.479 3.504 2.96 5.067 4.684.626.046 1.267.108 1.92.185zm-15.537-11.821c-.305-.15-.926-.455-1.237-.611.336-.357.864-1.299 1.314-.248 1.806 1.382 2.971 3.359 4.296 5.176.109.31.098.642-.036.988-.574-.528-1.139-1.045-1.687-1.553-.01-.264-.036-.797-.047-1.061-.937-.611-1.692-1.418-2.495-2.148-.026-.134-.077-.403-.108-.543zm1.197 4.461l-.118-.107c.039.034.079.072.118.107zm-9.142 5.502c1.677-.042 13.382 3.134 13.493 3.245.485 3.292-14.079-1.296-13.493-3.245zm24.894 15.625c-2.003.466-3.483-1.605-5.279-2.184-1.92-1.506-3.985-2.991-6.506-3.141.129-.58.274-1.139.435-1.687 3.031.036 10.625 5.32 11.593 6.081-.062.233-.18.698-.243.931zm.797-7.111c2.733.347 5.274 1.62 7.955 2.282 1.635.921 4.523 1.242 4.503 3.628-2.733-.01-4.793-2.21-7.406-2.686-2.175-.404-5.883-1.155-5.052-3.224zm5.357 7.085c4.708 2.901 5.386 2.619 7.251 4.208 1.791.057 3.597.047 5.403.047l.005.512c-2.381.041-4.803.161-7.09-.579-5.216-3.586-5.422-3.076-5.569-4.188zm10.356 6.734c1.19.036 2.272.559 3.302 1.149l.078-.554c.756.399 1.516.802 2.287 1.227.6 1.361 2.241 1.604 3.105 2.753.673.388 1.372.776 2.075 1.185l-1.547.036c-2.87-3.152-4.218-1.593-9.3-5.796zm-7.038 14.217c-2.246-1.47-4.994-2.081-6.858-4.099-2.79-1.817-4.829-4.549-7.913-5.9 1.646.051 14.519 3.91 16.546 5.046.735-.269 1.465.093 2.199.233 3.219 2.096 6.35 4.373 9.202 6.966.947.481 1.884 1.03 2.681 1.786-4.291-1.322-8.105.791-15.857-4.032zm22.746 3.68c-.781-.383-1.542-.756-2.293-1.128-.259-.041-.787-.135-1.051-.181-.854-.481-1.713-.937-2.552-1.403-.29-.021-.875-.072-1.164-.098l-.802-.989c-.305-.005-.911-.026-1.216-.036-1.62-1.387-3.618-2.246-5.139-3.726 4.41 1.49 8.333 4.099 12.432 6.268.6.016 1.216.052 1.848.098l-.063 1.195zm5.212-2.567a43.295 43.295 0 00-.129 1.915c-1.682-.331-3.359-.75-4.865-1.563.668-1.294 2.029-1.951 3.463-1.687-.005-.212-.021-.642-.026-.859 1.667.45 4.342-.585 5.025 1.553-.347 1.365-2.376.62-3.468.641zm4.202 3.798c-1.004.243-2.158-.233-2.174-1.377.621-.637 1.325-1.17 2.018-1.718.135-.662.29-1.304.455-1.925.528.388 1.071.797 1.62 1.227.693.026 1.392.052 2.111.114v1.579c-1.607.134-3.502.248-4.03 2.1zm5.818 2.309c-1.578-.668-4.104.031-4.534-2.132a61.318 61.318 0 011.729-1.366c.367.021 1.092.067 1.459.088.45-.647.906-1.299 1.377-1.92.59.192 1.185.398 1.801.631.212-.279.631-.838.839-1.118 1.413.155 1.666 1.258 1.558 2.536-1.404 1.102-2.459 2.727-4.229 3.281zm1.806.802c.228-.844.481-1.677.74-2.489l1.527.367c.6-1.004 1.232-1.982 1.806-2.991a5.916 5.916 0 012.065.73c.88.161 1.78.3 2.676.554.709 1.263-1.004 1.796-1.863 2.21a19.896 19.896 0 00-.942 1.615c-1.998.278-4.017.175-6.009.004zm-5.641 20.733c-.15-1.522.595-2.764 1.615-3.799.605-.331 7.477-8.468 13.953-11.412.486.259.983.533 1.501.818.28 3.245-.932 6.309-1.734 9.394-2.314 1.796-4.358 3.856-6.268 6.061-1.235-1.524-1.689-.757-9.067-1.062zm11.67.554c.688-1.294 1.765-2.293 2.852-3.24-.005.921-.005 1.868.005 2.821l-1.154-.683.678 1.175c-.807-.032-1.599-.058-2.381-.073zm.942 153.583c-1.63 2.65-6.139 13.32-6.257 14.171-2.526 1.832-4.109 4.534-5.998 6.956-2.099.8-6.073 8.524-8.959 8.405.01.326.036.978.047 1.299-1.998-.326-3.602-1.604-5.403-2.381-1.17-.104-2.324.088-3.473.067-.59-1.077-.326-2.324-.357-3.462 1.34-2.153.114-4.922 1.708-6.987a40.143 40.143 0 01-.466-1.19c.062-.085 7.986-12.902 7.986-12.902 1.19-.347 2.391-.688 3.602-.999l.693-.942c.932-.238 1.874-.481 2.831-.683 1.185-1.03 2.546-1.853 3.644-2.986 3.201-6.974.294-9.567.026-12.768-1.55-19.065 47.991-102.948 48.961-102.807 2.559 7.014-38.405 116.241-38.585 117.209zm143.435-165.125c-1.444 2.986-2.375 6.174-3.514 9.29-.492.269-.973.559-1.439.864-.062-2.137.487-4.213 1.47-6.092.585-4.377 5.239-16.48 7.882-19.124 1.006 5.941-3.272 6.184-4.399 15.062zm79.574-83.652c.704 0 1.423.026 2.163.062-1.16 2.464-2.448 4.917-4.239 6.987l.342-1.599c-.512.595-1.635 1.201-1.139 2.138-.569.362-1.123.75-1.646 1.159-.249.031-.75.083-.999.109-.378.875-1.035 1.563-1.998 1.734.668-1.304 1.542-2.474 2.474-3.592 2.402-1.688 3.536-4.575 5.042-6.998zm-10.398-17.866c.274-.492.559-.978.859-1.444.397-2.518 1.246-5.411 3.39-6.806a7.98 7.98 0 01-1.599 3.121c-.27.978-.466 1.473-.787 3.09-.652 1.025-1.982 2.205-.88 3.426-.264-.021-.792-.057-1.056-.078.021-.325.052-.977.073-1.309zm1.118 17.245c.171.181.512.538.678.719.424-1.056.942-2.07 1.666-2.945.242-.969 1.866-6.717 3.023-7.22.404-.724.818-1.434 1.289-2.106-.331 2.495-.39 1.904-1.201 5.217-.471.828-.947 1.661-1.278 2.567.067 1.009.305 2.003.357 3.038-.622 1.197-.878 1.93-1.201 3.198-2.231 2.769-2.671 7.09-6.164 8.705a56.265 56.265 0 002.101-3.509c.052-.264.145-.792.191-1.061.725-1.118 1.025-2.401.978-3.711-.233-.197-.699-.585-.932-.781-.347 1.723-1.232 3.255-1.931 4.854-.274-.492-.538-.968-.787-1.423.155-.181.471-.554.631-.74l-1.372-.021c2.021-.935 2.689-3.13 3.952-4.781zm-3.846-12.581c-.124 2.391-1.451 4.795-2.64 5.75.591-2.04 1.657-3.887 2.64-5.75zm-3.11 9.843l.124-1.102c.585-.937 1.283-1.801 2.122-2.52-.545 3.063-.651 2.986-1.263 4.28-.549.228-1.082.476-1.594.735.15-.347.461-1.046.611-1.393zm-.528 15.015c.052-.253.15-.761.202-1.014.694-1.232 1.315-2.515 1.641-3.887l.378-.01c-.093 2.913-.086 1.975-.621 4.503-.88.849-1.755 1.703-2.712 2.464.165-.799.62-1.446 1.112-2.056zm-10.589-197.576c-.543 4.777-1.139 9.559-1.082 14.383 1.304-.026 2.629-.01 3.954 0-.052.807-.103 1.62-.145 2.458-.957 1.061-1.837 2.189-2.785 3.261.042.347.13 1.046.171 1.392 1.392-.662 1.221-3.157 3.131-2.583-1.332 9.489 1.034 17.365 1.485 31.291 1.478-7.573 2.284-12.806 1.004-20.888 5.039-1.492-.312 40.965-1.853 41.047-1.62-1.334-5.878-16.463-7.453-19.802-1.697-11.003-.573-11.167-1.915-14.274 1.263-4.79 1.547-35.394 5.488-36.285zm2.412 186.293c.223.197.668.595.885.792.192.663.404 1.33.652 2.013-.388-.021-1.154-.052-1.537-.073a67.242 67.242 0 010-2.732zm-1.936-14.828c-.14-.036-.424-.104-.569-.14.906-1.175 1.604-2.831 3.188-3.188-.844 1.123-1.641 2.309-2.619 3.328zm-137.98-32.663c-.704.31-1.667-.657-1.346-1.335.632-.233 1.528.678 1.346 1.335zm13.426 7.733c-2.682.656-1.991.586-5.31.611-.259 1.403-1.397 2.039-2.691 2.308-.016.248-.036.75-.052.999 1.796.512 3.447 1.413 5.16 2.158-.93 3.822-.764 1.371-4.197-.036-.89-.098-1.77-.016-2.629.026-.885-2.805-3.763-5.015-3.141-8.182 1.299-.6 1.894.895 2.893 1.408 1.459.647 3.064.833 4.663.756.885-.368 1.817-.637 2.738-.952a58.565 58.565 0 014.047-.052c-.503.304-1 .624-1.481.956zm6.94 2.499c-1.18.523-2.36 1.035-3.597 1.377-.01-.285-.031-.859-.036-1.144 2.314-.431 1.748-.46 3.633-.719v.486zm34.355 67.396c-.29-.657.865-1.108 1.33-.73.311.689-.879 1.129-1.33.73zm.87-83.279c-.016.306-.052.916-.067 1.222l-1.216-1.201a42.55 42.55 0 00-2.117-.052c-1.346-1.475-3.162-2.49-5.144-2.697-.828-1.082-2.143-1.568-3.178-2.37-.31-.031-.926-.088-1.237-.119-.021-.238-.057-.719-.078-.957 7.563 2.35 12.781 2.156 14.326 5.103.217.016.662.036.885.052-.202.254-.605.766-.802 1.02l-1.372-.001zm-13.172-12.463c.103-.109.305-.331.409-.44 1.299.719 2.635 1.392 3.959 2.111-.016.404-.047 1.216-.057 1.62-1.47-.789-4.299-1.653-6.718-1.698-.75-.89-.155-1.869.181-2.769.736.379 1.47.762 2.226 1.176zm-.021-3.494l.523-.057c.471.3.952.605 1.444.926 1.609.378 2.399.983 3.99.104a42.377 42.377 0 00-.072 2.163c-2.36-.046-4.363-1.453-5.885-3.136zm12.484 3.944c-.942 1.811-3.038.792-4.146-.243.896-.59 1.941-.838 3.002-.978 0 0 3.582.161 8.824 1.418.844.466 1.708.916 2.572 1.397-1.263.088-2.598-.104-3.737.538-2.442.409-4.253-1.65-6.515-2.132zm10.237 91.255c.254-.026.761-.073 1.014-.093a9.305 9.305 0 011.439-1.832c-.069 2.488-7.157 5.821-8.125 6.185 1.288-2.169 4.14-2.334 5.672-4.26zm-1.284 9.761c-2.474 1.185-4.373 3.287-6.956 4.26 1.201-1.992 3.612-2.515 5.124-4.172l1.113-.145c.693-.45 1.201-1.775 2.179-1.382.078.787-.989.994-1.46 1.439zm2.06-2.458l.409-.259c1.32.192-.321 1.366-.409.259zm-2.877-.186c-.517.021-1.02.057-1.506.114-.999.963-2.112 2.065-3.602 2.039 1.372-1.014 2.779-1.993 4.109-3.069.507-.057 1.03-.093 1.568-.109 1.035-.652 1.972-1.961 3.266-1.91-.59 1.48-2.697 1.817-3.835 2.935zm5.305-3.566c-.854.336-1.17-.709-.264-.932.874-.631 1.118.74.264.932zm-6.03-89.946l-.031-.481s8.51-1.594 8.591-1.615c-.891 2.014-3.726 1.492-8.56 2.096zm11.873-2.407a37.603 37.603 0 00-1.956-.994c-.109-.363-.326-1.082-.43-1.444.507-.652 1.03-1.289 1.537-1.936 1.309-.476 2.707-.6 3.933.207.932-1.439 2.127-2.66 3.338-3.856.611-.026 1.237-.031 1.879-.026v-.978a55.05 55.05 0 00-1.724-.155c-.802-.595-1.692-.171-2.526-.021-.621-.274-1.133-.735-1.677-1.061.005.378.01 1.123.01 1.496a46.713 46.713 0 00-1.496 2.251c-.367-.078-1.092-.243-1.459-.321-1.573 1.641-3.411 3.11-5.652 3.69-.854-.14-1.651-.429-2.453-.662-1.363-2.917-8.967-3.309-10.672-1.149-.606-.844-1.004-1.749-.166-2.567-.73-2.112 1.454-3.214 2.795-4.342.969-.076 14.302-2.396 17.576.518a86.948 86.948 0 012.065-.093c2.312 1.043 2.769.961 7.975 1.931-.005.321-.026.963-.036 1.283-1.635 1.724-3.447 3.266-5.362 4.674-1.051.073-1.786.745-2.138 1.713a22.865 22.865 0 00-1.589.036c-.592.595-1.193 1.191-1.772 1.806zm4.472 90.282c-.502-.29-.978-.543-1.444-.787.792-.399 1.599-.781 2.396-1.196.29-.046.875-.14 1.17-.191-.901.518-1.802 1.129-2.122 2.174zm2.851-2.38c-.274-.238-.528-.466-.766-.673 2.35-1.113 4.027-3.126 5.859-4.891.01-.274.036-.823.047-1.097 1.382-.637 2.52-2.096 4.037-2.22-1.556 2.429-8.206 7.919-9.177 8.881zm9.73-9.834c.155-.15.476-.45.631-.595 1.279.14-.212 1.661-.631.595zm9.798-98.097c-1.734-1.103-3.426.61-5.243.45-.171-1.284.688-1.806 1.755-2.081 1.351.145 2.722.166 4.104.166-.223.472-.43.963-.616 1.465zm5.02.984c.794-1.125 4.728-.372 5.698.616-3.328.132-2.525.063-5.698-.616zm-2.614-3.013c.404-1.144 1.221-1.806 2.469-1.475 1.004.611 2.21.46 3.354.528.197.248.595.745.792.994-2.211-.005-4.415.026-6.615-.047zm13.213-8.022c-3.631-1.258-6.622-3.822-9.021-3.364 1.454.932 2.401 2.836 4.353 2.836 1.004 1.168 9.72 4.814 12.421 4.503v.957c-2.883-.533-6.247 1.806-8.69-.455-.989 2.086-3.437 1.014-5.222.952l-.787-.745c-4.121-.375-6.459-.745-6.459-.745-1.232.455-2.267 1.263-3.344 1.982-.926.207-1.837.507-2.779.393l.042.983c-1.977-.202-3.954-.316-5.926-.264-.217-.217-.647-.663-.864-.885-.97.406-17.205.737-17.933.616-3.173 1.196-6.547.73-9.849.802 1.429 1.786 3.628 2.583 5.455 3.877-.776.486-1.444 1.107-2.091 1.739 1.304.036 2.702-.119 3.939.492 3.253.408 2.907-.539 8.648.73 2.22.321 4.042 1.868 6.293 2.039.445-.538.921-1.051 1.408-1.558 4.977-.859 7.472-2.709 11.05-3.209a7.215 7.215 0 01-2.753 1.159c-.595.362-1.154.776-1.496 1.403l-1.02.083c-1.682.957-3.188 2.163-4.627 3.447-12.231-2.985-29.13-6.938-36.327 3.39a58.789 58.789 0 00-2.272 1.791l-.973-.87c-6.807.295-5.338-2.533-11.604.6-.409-.668-.792-1.294-1.196-1.915-.233-.73-.445-1.423-.668-2.117a325.4 325.4 0 00-2.495-1.185c-.031 2.039.719 3.954 1.051 5.952-1.04.28-2.055.606-3.069.932.311.652.657 1.299 1.428 1.558-.176.197-.523.595-.699.797 1.863-.005 3.737-.041 5.615.062-5.222 2.138-10.495-.855-11.464-1.263-.849-.973-1.853-1.78-2.857-2.546-.109.28-.186.575-.238.89.73 1.413 1.915 2.546 2.634 3.99a51.815 51.815 0 00-1.532-.398c-1.418.445-3.551-.129-4.078 1.677 6.072 2.236 7.527 1.087 9.88 1.635.295.466.574.958.849 1.48.461.388.932.797 1.413 1.216-.554.409-1.097.828-1.63 1.258.036.616.093 1.242.16 1.889a31.06 31.06 0 011.723-.052 96.224 96.224 0 011.946-2.091c.518.01 1.056.036 1.605.088.924.718 13.986 5.166 14.937 5.279-.342.968-.766 1.91-1.118 2.883 1.19.994 2.955.321 4.373.875.368-.114 1.102-.337 1.47-.445-.372 3.11-8.243 2.285-9.911 3.152-1.496.103-2.986.093-4.467.088l.704-.787c-1.247-.585-2.2-1.579-3.152-2.515.078-.16.233-.487.305-.647-1.335-1.516-2.075-3.452-3.53-4.86a41.48 41.48 0 00-1.811.021c-.202.191-.616.58-.823.771-3.556.728-3.434.877-3.835 3.623.89-.264 1.817-.528 2.671-.952 5.838.995 4.132 2.522 6.982 5.419-3.979 3.647-18.547-1.577-21.81-1.123-.798.7-5.385.625-8.457-2.013-1.449-.031-2.893.062-4.321-.083-.849-.533-1.542-1.268-2.365-1.801-1.159-.197-2.334-.083-3.478-.026-1.34-1.646-1.63-3.84-2.598-5.683-4.026-41.375 11.406-36.458 20.728-54.12 4.554-4.851 16.465-23.742 24.118-27.653 1.028-1.123 10.56-8.931 13.715-13.762 1.791-1.625 1.817-4.922 4.622-5.315 7.199-10.083 21.387-35.49 24.547-47.102-.068-1.63 2.895-8.718 3.788-10.258.227-.97 8.386-20.864 8.824-30.163.155-.31.326-.6.518-.88-.337-2.846.714-5.708-.026-8.519.833-1.956 1.568-4.047 1.268-6.2.761-1.718 1.133-3.566.839-5.429.424-1.304 1.144-2.676.647-4.047.5-.969 7.423-24.807 6.009-34.417.388-2.013.202-4.058.238-6.081 3.814 1.837 4.384 6.708 7.717 9.114.047.274.145.823.197 1.097 0 0 4.041 5.789 6.407 8.747.249 1.522 1.485 2.469 2.784 3.136.621 1.599 1.34 3.204 2.748 4.291.476 2.427.559 5.186 2.308 7.132.391 1.708.798 3.397 2.526 6.702.187 1.33 1.206 2.298 1.599 3.571 5.134 16.505-1.242 36.776-1.47 41.327l-.828-.668c.222 1.715-1.386 14.675-.704 15.428-.059 2.422-2.175 13.495-1.796 15.677-.383 3.059-.15 6.174-.839 9.212 1.646.197 1.408 1.987 1.372 3.209-1.344 12.973-2.482 8.772.605 23.306-.227-3.712-.754-16.345 3.002-16.2.146 1.672-2.303 8.086-1.408 13.725.24.986 3.944 32.597 8.389 42.269.492 2.205 1.915 3.939 3.199 5.729l.145 1.175c.15-.28.44-.844.59-1.128.762 1.362 1.057 10.586-2.619 17.447-8.49 8.639-17.217 3.731-21.475 3.936zm-22.974 8.173c-.171.657-.559.761-1.169.316.139-.689.527-.798 1.169-.316zm-4.617 2.049c-2.122 1.516-4.539 3.23-7.292 2.433-1.089-.863-8.725-1.459-10.144-1.351-.3-.228-.911-.683-1.216-.916 1.885-1.989 15-1.785 17.731-1.724.295.502.606 1.025.921 1.558zm-51.429 14.378c-.248-.652.533-1.232 1.076-1.413.943.29-.387 1.847-1.076 1.413zm98.341 54.317l-.016-.44c1.025-.631 1.02 1.252.016.44zm-1.056 2.381c-.166 1.491-1.449 2.407-2.634 3.121l-.124-.766c.192-.01.58-.041.771-.057a6.24 6.24 0 011.987-2.298zm-24.786 58.395c-2.443 1.47-4.177 3.83-6.676 5.222-.564.911-1.615 1.206-2.567 1.511 3.178-3.773 7.085-6.894 11.158-9.647.202 1.413-.243 2.899-1.915 2.914zm3.644 15.087c-2.591 3.887-2.419 4.568-3.928 6.79.069-.97 1.189-5.808 2.841-6.837a99.784 99.784 0 00-.74-.393c.958-1.496 1.858-3.069 3.24-4.218-.161 1.63-.984 3.084-1.413 4.658zm3.214-10.848c-.895.957-1.154 2.779-2.329 3.26.176-1.325.973-2.489 1.103-3.83a61.321 61.321 0 001.899-2.448c.005-.352.021-1.056.031-1.408l.647.057c-.27.927-1.186 3.836-1.351 4.369zm-.301-7.888c1.693.073-.802 1.558 0 0zm-5.615-3.328c-.145 1.03-.523 2.003-1.201 2.815-2.588-6.257 9.011-17.319 26.24-43.873.316-.487.864-.699 1.444-.637 1.475 24.414-2.701 28.567-15.454 36.783-12.005 8.432-9.847 5.728-11.029 4.912zm17.027 8.509a26.21 26.21 0 011.48-1.366 57.109 57.109 0 01-.005-2.515c.254.192.771.58 1.03.771l-.135-.367c-.859-1.097.062-2.231.626-3.178a49.131 49.131 0 01-.031 3.597c-.249.653-2.087 7.101-2.138 7.308-.544.968-.932 2.008-1.04 3.126a54.268 54.268 0 00-1.387 1.992c-.01.3-.026.901-.036 1.201-.259.207-.771.631-1.025.844-.015.735-.015 1.49 0 2.267l-1.051.807c-.039-2.585-.164-3.028 1.418-7.153.214-2.64 2.589-4.601 2.294-7.334zm-8.022 8.146a71.687 71.687 0 00-1.035-.052c.347-.776.719-1.537 1.108-2.282.057-.264.16-.792.212-1.056 3.036-5.649 2.9-6.281 3.059-7.349.238-.202.719-.616.957-.823.026-.274.073-.823.098-1.097.921-1.03 1.568-2.288 1.594-3.685.533-1.113 1.118-2.2 1.946-3.116.047 2.423-.133 2.266-.564 4.265-.476.668-.952 1.335-1.434 2.003l-.083 1.242c-.207.016-.626.042-.838.057-.456 2.282-2.158 4.099-2.407 6.444-1.164 1.656-2.147 3.462-2.613 5.449zm-3.431 47.118l-.523-.052c.254-6.667-.93-8.835 1.718-17.586.197.005.59.01.787.01l.076-.367c-.291 1.51-.817 4.634-1.122 8.808-.595 1.294-.414 2.748-.528 4.141-.703 1.584-.372 3.354-.408 5.046zm13.047-19.744c-1.216 5.361-2.301 4.306-2.8 8.829l-.916.042-.062 1.294c-.321.476-.631.973-.927 1.485-.296 1.893-.601 1.617-1.221 4.172-1.423.74-2.06 2.272-2.872 3.561-1.177 4.139-.852 2.085-1.232 4.244-.683 1.175-1.108 2.712-2.598 3.079.036-1.242.626-2.469.28-3.69.409-.642.823-1.273 1.247-1.889-.298-.406 1.579-16.936 1.656-17.431-.346-2.533 3.793-16.111 7.515-20.557.119-.492.254-.958.409-1.408.481-.445.932-.932 1.496-1.279 1.521.192 3.033.512 4.565.782.005-.243.005-.73.01-.978.264.186.797.548 1.066.73a71.963 71.963 0 012.634-.01c.073.254.223.761.3 1.015 4.006-2.028 2.998-.855 4.27 1.014-.894 1.219-12.394 16.207-12.82 16.995zm11.086-11.63c.6-1.687 1.884-3.219 3.442-4.094-.693 1.688-1.972 3.038-3.442 4.094zm5.248-9.828c1.315-2.169 2.557-4.425 4.394-6.206-.193 1.209-2.709 5.67-4.394 6.206zm-.874-2.826c-1.858.818-3.726 1.62-5.512 2.583-1.906.057-7.735.024-9.989-1.361.08-.331 6.246-21.891 6.614-22.1-.005-2.795.016-5.6.647-8.333 1.185-.595 1.346-2.127 2.448-2.795 2.313-1.428 4.56-2.986 6.588-4.808.513.14 1.035.3 1.579.486.171-.14.512-.419.683-.554-.303 6.082 4.396 24.253 4.435 27.461-3.363 1.551-6.821 8.452-7.493 9.421zm8.286-11.179c.135-1.76.367-3.519-.14-5.238-.233-.207-.694-.621-.926-.833-.031-1.04-.052-2.07-.109-3.084-.227-.484-.348-7.781-1.278-10.895 1.092-3.726-.792-8.058 1.558-11.438.364-.229 6.282-5.276 6.837-6.252a85.754 85.754 0 003.085-1.868c1.506-1.962 2.593-4.291 4.523-5.88a10.876 10.876 0 01-2.148 4.177c-.016 3.188-.838 6.324-.59 9.533a31.992 31.992 0 00-1.863.01c-1.609 1.475-2.867 3.255-4.285 4.901a29.674 29.674 0 00-.124 1.972c.362.973.968 21.026-4.54 24.895zm12.82-19.139c-2.158 1.672-2.717 4.684-5.108 6.19-.021-1.403-.161-2.842.372-4.161.243-3.028.937-5.993 1.811-8.886a118.54 118.54 0 013.67-.176c.962 4.42-.273 4.31-.745 7.033zm35.514 26.291c-2.451-.447-1.796-.277-3.649-1.071l-1.263-.062c-2.82-2.495 3.614-2.818 4.912 1.133zm1.941 3.049l-.797 1.004c-3.04-.024-2.258-.012-4.88-.605l-.787-.87c4.434-1.189 1.353.407 6.464.471zm-23.652-52.459c.336-.554.688-1.092 1.056-1.62.579 2.184 2.251 4.104 2.179 6.433-1.134 4.146.057 8.4.228 12.597.523 1.294.373 2.722.507 4.11.644 1.689 1.683 16.458 1.661 16.996-.362.057-1.082.181-1.444.243-.021-.409-.052-1.232-.072-1.641-.833-.859-1.366-1.93-1.651-3.064l-.797-.585c-3.636-6.166-1.02-31.46-1.667-33.469zm-1.812 35.55c1.594 1.108 2.458 2.924 3.638 4.425 1.651.145 1.993 2.184 3.256 3.043.036 1.227.083 2.458.176 3.706 3.139 5.138 1.664 25.513 18.917 40.317.202 1.045.455 2.096.849 3.116-1.718-.44-3.214 1.801-4.705.45-5.945 2.543-13.27.914-15.118-.078-12.491-10.725-8.113-16.979-7.013-54.979zm29.247 58.831c-.673.487-1.346.968-2.019 1.449-3.184.688-1.605.547-5.331.574-.207.243-.631.725-.838.968-1.833.381-4.553.859-4.886.968-.073-.062-.217-.192-.29-.254-2.127 1.03-4.389-.393-6.578.269-2.495-.072-5.543.88-7.541-1.025-2.101-1.128-3.436-3.214-4.637-5.181-.999-3.985-2.945-7.779-2.976-11.961-.419-1.278-.326-2.66-.854-3.882.357-1.444.564-2.919.409-4.389-.559-.833-.538-1.791-.186-2.671-.202-1.252-.342-2.505-.59-3.726.197-.662.414-1.304.647-1.931-.469-1.48-.592-8.885.062-10.491.104-1.232.057-2.484.528-3.633.072-.989.135-1.962.233-2.924.611-1.428.373-3.012.409-4.508l.512.031c-.036.464-.61 21.359-.761 22.503 1.234 7.132-2.206 10.007 5.072 23.911 7.079 6.608 6.44 4.628 11.717 7.706a60.91 60.91 0 012.065-.259c.192.274.399.574.631.89.942-.365 5.939-1.462 7.075-1.066.631-.445 1.263-.89 1.899-1.341a17.53 17.53 0 011.465-.223l6.542-.947c.005.264.005.797.005 1.061-.609.009-1.204.035-1.784.082zm22.058-15.931c-1.19.957-2.179 2.189-3.7 2.645-.01.259-.021.787-.031 1.046a3.25 3.25 0 00-1.817 1.827c-.31 0-.921.01-1.232.015-.016.254-.052.771-.072 1.03-.331 0-.999.005-1.33.01a90.183 90.183 0 00-1.915 2.044c-.305.005-.916.021-1.221.026l-.839 1.025c-.6-.016-1.19-.01-1.76.01-.378-.507-.735-.999-1.077-1.475-1.165.192-2.319.363-3.468.445-9.378-4.828-16.056-14.903-16.142-16.852-1.082-2.37-1.718-4.901-2.303-7.422-1.667-2.665-1.351-6.086-1.428-9.099.611.326 1.159.823 1.635 1.377 1.19.569 2.308 1.304 3.581 1.749.104.31.228.637.373.983 2.393.606 14.764 4.146 15.76 4.653 6.993 1.336 13.984 2.364 19.424-.254.186.269.559.807.751 1.077 1.967-.166 4.016-.637 5.967-.036l-.01 1.258c.455-.238.957-1.449 1.351-.197a25.829 25.829 0 00-1.765 1.687l-.083 1.149c-1.511 1.832-2.65 4.011-4.627 5.408-1.413 1.749-2.981 3.359-4.622 4.891.15.245.45.737.6.98zm27.275-16.328c-.937.828-2.039 1.485-2.79 2.51-4.419 2.978-5.09 5.334-7.898 5.082-2.225.989-3.835 2.991-6.159 3.757-4.942 5.36-6.108 6.955-8.664 7.003.895-.673 1.941-1.335 1.91-2.603 1.853-.963 3.126-2.608 3.944-4.497.021-.254.073-.766.093-1.02 3.214-1.511 3.473-5.543 5.885-7.867.983-.533 2.225-.916 2.505-2.153 2.214 1.547 7.029-2.915 12.489-3.623.114.574.238 1.159.378 1.765-.73.228-1.413.502-2.106.771.103.217.31.652.413.875zm6.501-10.776l-1.061.042c-.823.844-1.651 1.687-2.458 2.546l-1.113.083c-.849.657-1.729 1.278-2.562 1.946-.688.036-1.356.093-2.003.181a2.83 2.83 0 01-2.753.036c-.238.119-.709.367-.942.486 1.877-5.238 7.971-7.473 10.33-10.739 3.261-2.458 5.553-6.076 9.28-7.955l1.092-.14a36.155 36.155 0 013.084-1.573c-.274.844-.844 1.496-1.62 1.915-.631 2.353-8.689 12.202-9.274 13.172zm16.644-8.338c5.007-4.537 3.372-2.771 9.233-6.816-1.996 4.223-5.53 7.747-6.801 7.825-.119-.098-.352-.3-.471-.399.184 1.626-1.328 1.811-3.064 2.158a22.77 22.77 0 00-8.151 5.998c-.885.109-1.749.3-2.552.636.3-.947.579-1.889.787-2.846.776-1.222 1.49-2.484 2.35-3.649.026-.269.083-.807.109-1.077.357-.579.714-1.154 1.154-1.667 4.272.938 5.397.329 7.406-.163zm4.803-20.717c-.787-.616-1.698.155-1.713 1.035-1.692 1.729-3.276 3.597-5.258 5.005-2.963 3.851-1.142 3.235-7.494 7.261.155-.367.466-1.097.621-1.459-1.991 1.439-15.805 14.679-16.774 15.563-.828.212-1.641.461-2.427.724l.01-.331s16.824-20.297 19.387-22.26c.476-.854 1.19-1.439 2.215-1.449 1.19-2.112 3.447-3.152 5.388-4.43l.704-1.082c.487-.047.994-.078 1.527-.083 2.84-2.179 5.677-4.54 5.683-4.544.274-.031.828-.083 1.103-.114 1.775-.952 3.167-2.562 5.093-3.24-2.448 2.888-5.284 5.419-7.934 8.115-.032.321-.1.968-.131 1.289zm.368 1.852c1.371-1.408 2.365-3.095 3.468-4.689 2.254-1.602 8.496-7.736 9.45-9.461.222-.016.662-.041.885-.052-.923.971-7.776 12.325-13.803 14.202z"/><path d="M959.095 358.946c.502.398 1.009.802 1.532 1.211-.31-1.144-.807-2.22-1.341-3.266a33.6 33.6 0 00-.693.611c.125.362.378 1.082.502 1.444zM1004.826 1321.216c.969-.91.413-1.027-6.345-8.1-.669 2.022.867 3.147 6.345 8.1zM977.018 1316.253c.016.3.052.906.067 1.211 1.858.611 3.809.916 5.641 1.672.458-2.784-1.769-.943-5.708-2.883zM1061.881 1364.991c.093.663.476.781 1.144.363-.119-.694-.497-.819-1.144-.363zM1283.42 1372.226c.114 1.703 1.495-.859 0 0zM1266.703 1393.109c-.481.6-.352.947.378 1.051.45-.631.326-.978-.378-1.051zM1360.545 1403.776c.063 1.703 1.532-.807 0 0zM1197.32 1415.804c-2.492 10.609-1.262 16.51.026 28.01a14.106 14.106 0 011.956 1.832c-.766-2.738-.248-5.652-1.139-8.328-.685-11.784-.06-11.048-.75-13.969-.611-2.54 2.303-5.485-.093-7.545z"/></svg>