<svg xmlns="http://www.w3.org/2000/svg" viewBox="-71.035 175.593 2862.993 2113.233"><path d="M2584.51 277.98c13.74-12.3 26.66-25.54 40.43-37.8-10.95 14.73-22.59 28.98-33.96 43.39 12.5 13.63 25.52 26.77 37.98 40.44-7.51-5.04-14.27-11.14-21.5-16.56-7.29-5.9-14.82-11.49-22.01-17.49-13.66 12.46-26.83 25.47-40.44 37.98 5.09-7.69 11.34-14.57 16.88-21.96-12.83 1.17-25.68 2.2-38.48 3.59-4.02 2.41-7.16 6.19-10.31 9.62-.77 1.14-1.57-.57-2.09-.99-2.08 2.7-4.47 5.18-6.41 7.97l5.05-3.77c-1.4 1.58-2.44 3.2-3.72 4.8 4.32 14.39 8.77 28.75 12.9 43.19-6.17-12.46-11.11-25.53-16.79-38.23-6.42 8.49-14.97 14.96-22.53 22.35-5.02 4.91-10.44 9.42-15.4 14.36 2.64-1.1 4.14-3.63 6.35-5.35 6.91-5.87 13.56-12.04 20.62-17.73-7.37 10.31-15.09 20.38-22.9 30.35-5.81 6.82-10.9 14.55-18.46 19.6-13.57 10.09-27.27 20.02-40.7 30.29 13.15-8.9 26.14-18.07 39.2-27.11-1.18 3.85-3.77 7.03-5.92 10.36-8.19 11.64-16.69 23.13-26.48 33.49-2.13 2.28-4.58 4.27-7.33 5.74-19.25 11.18-38.27 22.76-57.69 33.63-1.39.82-3.05 1.54-4.42 2.22-.73-3.25 1.85-5.85 3.49-8.35 7.83-10.16 17.32-18.93 27.08-27.22 5.75-5.02 12.3-8.97 18.64-13.2-.13-.34-.4-1.01-.53-1.34 5.54-9.21 13.74-16.41 21.36-23.86 5.82-5.54 11.78-10.96 18.09-15.97 4.64-3.29 8.55-7.55 13.48-10.48 2.63-2.61 5.4-5.12 7.98-7.81-3.23 1.85-5.45 6.6-9.43 6.39 9.68-9.96 19.62-19.69 29.88-29.07 8.79-7.42 16.69-15.77 24.23-24.45-2.15-4.97-4.24-9.96-6.41-14.91-16.71 11.4-33.16 23.2-49.98 34.43 6.37-6.74 13.87-12.37 20.7-18.66 8.25-7.21 16.46-14.46 24.69-21.71-11.31-8.59-22.63-17.18-33.91-25.82-4.68-3.81-9.91-6.99-14.14-11.29 17.48 10.18 34.78 20.68 52.23 30.94 6.63-19.1 13.51-38.1 19.92-57.27.23 4.62-1.59 9.01-2.4 13.5-3.43 15.28-6.91 30.55-10.33 45.83 7.32.14 14.65.46 21.99.45 4.65-4.1 7.98-9.59 12.52-13.88.8 1.46 1.93 2.6 3.7 2.8-3.77 3.85-7.61 7.62-11.52 11.32 11.48.14 22.96.43 34.44.77 5.74-6.94 11.13-14.18 16.88-21.12-12.54-13.77-25.82-26.88-38.2-40.79 14.72 11.25 29.22 22.81 43.68 34.39m-83.23 33.55c1.25 4.24 2.51 8.47 3.83 12.7 2.52-2.87 5.29-5.59 7.32-8.86.45.8.92 1.6 1.44 2.4 1.28-2.92 3.49-5.29 5.4-7.81-6.01.43-12 .98-17.99 1.57zM2220.91 283.72c3.16-8.4 6.34-16.82 9.95-25.04-1.54 8.64-4.1 17.08-5.75 25.71 8.88 1.73 17.72 3.66 26.62 5.32-9.34.17-18.65-.96-27.96-1.36-3.31 8.19-6.36 16.48-9.78 24.62 1.24-8.51 3.76-16.79 5.53-25.2-8.93-1.8-17.84-3.67-26.78-5.37 9.4-.18 18.77 1.07 28.17 1.32zM2120.83 290.34c6.68-7.22 13.55-14.25 20.36-21.34-5.57 8.11-11.97 15.61-17.93 23.42 6.61 6.73 13.73 12.94 20.29 19.7-7.85-5.19-14.9-11.52-22.52-17.06-6.78 6.99-13.34 14.21-20.28 21.04 5.66-7.93 11.86-15.47 17.79-23.21-6.82-6.8-14.13-13.12-20.7-20.15 7.83 5.64 15.22 11.87 22.99 17.6z"/><path d="M2331.73 306.24c.14.02.41.05.55.07 1.39 22.11 3.05 44.2 4.54 66.3 19.95-9.6 39.69-19.66 59.78-28.98-17.89 12.91-36.72 24.58-54.72 37.36 12.22 8.59 24.79 16.71 37.12 25.16 5.72 4.09 12 7.48 17.33 12.08-19.98-9.33-39.63-19.39-59.54-28.89-1.65 22.29-2.77 44.64-4.83 66.88-1.87-22.27-3.17-44.59-4.75-66.88-20.03 9.58-39.82 19.65-59.91 29.09 4.77-4.03 10.24-7.13 15.36-10.72 12.38-8.31 24.7-16.71 37.12-24.95.61-.68 2.25-.93 2-2.15-18.02-12.45-36.56-24.21-54.34-36.96 20.07 9.3 39.79 19.37 59.74 28.96 1.49-22.13 3.14-44.24 4.55-66.37zM1848.05 320.68c6.51 19.01 12.06 38.41 18.14 57.58 18.32-9.49 36.15-19.92 54.44-29.49-16.52 12.35-33.66 23.93-50.42 35.97 15.02 14.2 30.18 28.27 45.08 42.61-6.38-4.01-12.12-8.93-18.24-13.3-10.57-7.86-21.11-15.73-31.64-23.62-8.81 18.55-17.43 37.21-26.41 55.68 1.94-8.06 5.21-15.74 7.67-23.65 3.99-11.6 7.89-23.22 11.81-34.84-21.2-2.69-42.4-5.35-63.58-8.18 21.36.19 42.72.47 64.08.8-2.7-14.7-5.51-29.37-8.28-44.06-.87-5.17-2.25-10.26-2.65-15.5zM2149.61 324.83c8.3 8.31 15.93 17.28 23.87 25.94 7.15-9.21 13.63-18.95 20.96-28.03-5.37 10.35-11.46 20.33-17.18 30.49 10.73 3.36 21.3 7.28 32.12 10.4-3.19.49-6.3-.58-9.38-1.17-7.98-1.62-15.93-3.35-23.91-4.9-.23 12.21.38 24.48-.61 36.67-.93-12.19-2.59-24.3-3.75-36.46-11.15 3.32-22.09 7.39-33.33 10.34 10.37-5.19 21.13-9.61 31.68-14.45-6.68-9.71-13.91-19.05-20.47-28.83zM2009.74 328.22c7.03 12.26 13.1 25.1 19.66 37.63 11.3-8.9 22.36-18.09 33.73-26.88-9.7 10.52-19.98 20.53-30.13 30.63 11.55 8.21 23.84 15.35 35.33 23.63-12.88-5.83-25.24-12.8-38.06-18.77-3.51 13.62-7.72 27.07-10.89 40.78-.51-3.85.57-7.64 1.07-11.42 1.51-10.2 3.26-20.36 4.6-30.57-11.34.6-22.69 1.06-34.02 1.64-2.55.15-5.09.11-7.57-.36 13.76-1.87 27.44-4.37 41.16-6.56-4.98-13.24-10.16-26.41-14.88-39.75zM2097.9 400.56c15.97-1.47 32.04-1.72 48.07-.98 10.25.61 20.61 1.33 30.57 4.05 13.81 4.05 27.15 11.62 35.54 23.61 8.38 11.89 11.74 26.47 13.7 40.67 1.16 14.07-9.41 26.04-8.35 40.1.75 6.49 2.56 12.84 4.87 18.95 4.82-4.41 9.17-9.3 13.84-13.87 16.84-15.38 25.67-36.99 38.97-55.12 2.05-2.51 4.13-5.8 7.74-5.94 2.3 3.81 2.52 8.63.93 12.74-1.32 3.95-3.87 7.8-3.25 12.13.47 1.76 1.35 3.57 2.94 4.62 1.7.63 2.99-1.06 3.74-2.35 4.08-7.35 5.57-16.21 11.42-22.54 1.97-1.64 4.34-3.99 7.15-3.34 2 3.29.01 7.32-.78 10.73-6.09 17.99-14.86 34.92-23.21 51.93-3.8 8.01-10.6 13.92-15.73 21-3.89 5.12-5.71 11.42-6.39 17.73 1.35.8 2.75 1.61 4.14 2.44 5.16-5.34 10.89-10.13 16.97-14.4 5.7-4.27 12.65-6.24 19.04-9.22 20.21-8.67 40.43-17.31 60.65-25.98h2.28c-.99 5.85-4.31 10.88-7.38 15.83-6.15 9.61-13.16 18.71-21.34 26.69-2.76 2.64-5.73 5.24-9.42 6.43-20.54 7.27-41.08 14.54-61.61 21.81.26.44.8 1.3 1.07 1.73 17.59-6.09 35.18-12.15 52.77-18.26 1.15-.53 3.07-.55 3.04 1.25.16 3.49-1.7 6.7-3.11 9.79-7.1 13.43-16.93 25.26-27.54 36.06 15.84 20.47 33.12 39.84 47.9 61.13 13.76 19.32 25.19 40.16 38.33 59.89 11.68 17.87 25.24 34.39 39.18 50.52 14.71 16.96 28.29 34.97 39.54 54.43 7.43 12.69 14.13 25.79 21.41 38.57 4.81 8.05 9.12 16.49 15.28 23.64 7.39 8.63 16.39 15.68 24.23 23.88 6.82 7 12.61 16 12.51 26.11.25 9.01-4.09 17.12-7.15 25.33-4.38 11.32-11.4 21.66-13.7 33.73-1.12 5.54-3.54 11-7.86 14.78-6.43 5.78-15.28 7.27-22.72 11.28-9.04 4.64-15.33 13.33-24.8 17.26-10.94 4.74-22.34 9.59-34.45 9.67-6.43.11-13.25-2.75-16.39-8.59-3.33-5.26-2.15-11.76-3.96-17.49-3.13-12.68-8.1-25.63-18.03-34.57-11.68-10.61-27.39-14.87-40.12-23.93-18.99-13.45-32.32-33.18-50.83-47.2-12.53-9.41-25.16-19-39.63-25.26-10.45-4.44-20.89-9.12-31.94-11.86-16.93-4.24-35.41-2.22-50.9 5.85-9.92 5.15-18.98 11.74-28.45 17.62-12.62 7.9-24.71 17.27-32.95 29.87-8.49 12.27-10.89 27.31-13.42 41.69-1.67 9.49-4.21 18.82-7.69 27.82-6.81 19.26-14.4 38.23-22.32 57.06-5.11 12.81-11.4 25.1-18.26 37.05-7.28 12.75-14.61 25.6-19.54 39.48-3.62 9.99-5.66 20.45-8.02 30.79-3.37 14.88-4.6 30.44-1.8 45.52 2 9.91 7.39 18.89 8.41 29.05 1.98 14.49-1.65 28.89-5.49 42.76-4.23 15.55-6.13 31.6-9.99 47.24-3.96 17.8-10.43 34.88-16.49 52.03-3.79 11.68-8.39 23.16-10.72 35.25-1.28 6.35-2.47 12.73-4.4 18.93 10.98.3 20 7.25 29.02 12.7 6.6 4.17 13.62 7.89 21.29 9.67 28.55 8.17 57.61 14.32 86.6 20.72 15.49 3.38 31.52 2.2 47.08 5.06 11.62 2.04 22.48 7.55 31.26 15.4 11.61 10.11 18.84 23.93 27.76 36.24 7.12 10.1 14.54 20.17 19.36 31.64 4.21 9.58 6.54 19.9 7.16 30.34.56 9.37 1.56 18.7 3.22 27.94 3.74 24.55 7.74 49.13 14.46 73.07 7.81 29.02 22.93 55.48 30.28 84.66 2.89 9.99 9.94 18.74 10.25 29.43.18 6.47-3.15 12.52-7.96 16.67-8.66 7.72-12.17 19.36-14.13 30.42-1.35 8-2.9 15.98-5.13 23.79-3.79 14.96-6.41 30.21-10.61 45.07-1.83 6.71-4.31 13.24-5.97 20.01-3.96 15.67-6.67 31.63-10.44 47.36-2.05 8.25-4.12 16.59-7.81 24.3-1.84 3.55-4.04 7.54-8.08 8.89-3.58.87-6.89-1.52-9.19-3.98-4.58-4.48-6.75-10.63-9.99-16-9.82-16.28-24.21-29.68-31.32-47.6-4.7-10.53-9.76-21.21-10.91-32.83-.97-10.33-.44-20.99 3.2-30.79 2.55-7.86 6.54-15.55 13.11-20.78 7.08-5.38 17.43-2.9 24.09-9.05 9.12-9.26 11.42-25.7 2.83-36.05-2.1-2.84-3.89-5.97-4.58-9.45-2.04-8.27.46-16.67.34-25-.46-23.11-1.44-46.29-5.3-69.12-2.12-13.09-5.24-25.98-7.9-38.96-3.87-18.15-8.48-36.36-17.01-52.94-5.93-11.66-13.55-22.34-21.13-32.96-9.72-13.49-22.01-25.42-36.97-32.93-10.93-5.88-23.38-8.82-35.78-8.49-18.03.38-35.41 5.75-53.14 8.42-11.87 1.98-23.93 2.04-35.9 2.77-22.43 1.07-44.85 2.47-67.12 5.27-7.47.98-14.64 3.38-21.96 5.02-14.29 3.4-30 .44-42.02-8.03 21.4 32.52 55.59 53.03 81.39 81.54 7.69 8.02 13.8 17.41 21.9 25.05 8.76 8.95 18.69 16.72 26.8 26.31 6.31 7.43 11.34 16.18 13.14 25.85 2.63 14.36 1.16 29.48-4.32 43.03-6.9 16.69-18.98 30.81-32.81 42.21-16.01 12.55-37.09 13.95-55.3 21.74-39.63 17.86-78.18 38.1-115.34 60.65-7.7 4.82-15.99 8.95-22.48 15.44-8.11 7.49-14.58 16.86-24.04 22.81-7.74 4.84-18.3 4.49-25.64-.93-8.29-6.15-12.27-16.42-20.65-22.47-10.52-7.36-22.29-12.82-34.55-16.57-6.88-2.07-13.8-4.28-21.01-4.65-10.11-.61-20.65.23-30.17-3.84-12.4-4.7-20.59-15.54-29.81-24.45-12.74-12.61-30.4-18.36-43.59-30.36-6.13-5.54-13.42-9.77-18.78-16.12-3.95-4.77-6.56-11.1-5.81-17.34.55-5.08 5.68-7.71 10.18-8.59 10.19-1.95 20.63-.81 30.93-.62 11.87.19 24.39.8 35.45-4.28 10.62-4.83 18.59-13.95 29.26-18.69 10.54-4.83 23.03-.12 30.55 7.95 6.64 7.24 10.24 16.61 13.17 25.84 1.51 5 3.44 10.07 3.11 15.4-.14 4.99-1.04 10.38 1.42 15.01 2.43 5.09 7.48 8.6 12.99 9.58 8.93 1.72 18.06.04 27.07.89 17.67 1.72 35.93.5 52.66-5.81 20.24-7.73 37.78-20.9 57.67-29.39 14.61-6.51 30.18-10.59 44.63-17.48 10.13-4.81 19.45-11.47 26.86-19.93 5.12-5.89 12.02-10.11 16.34-16.71 3.69-5.53 2.8-13.65-2.26-18.04-5.7-4.9-13.44-6.26-19.55-10.5-9.01-6.27-18.56-11.75-28.46-16.46-22.71-10.92-47.19-17.34-70.62-26.41-13.54-5.21-26.74-11.37-39.16-18.87-20.74-12.26-37.17-30.23-56.88-43.9-14.88-10.38-32.06-16.89-49.42-21.75-18.98-4.7-38.26-8.84-57.85-9.66-23.33-1.05-46.63 1.72-69.96.99-17.79-.56-35.51-2.43-53.2-4.29-46.34-5.03-92.08-14.16-137.8-22.99-19.89-4-39.88-7.49-60.02-9.99-22.56-3-45.26-6.26-66.91-13.56-21.27-7.05-41.5-17.19-59.92-29.94-29.78-20.73-54.51-47.56-82.53-70.44-9.3-7.16-14.8-17.82-22.87-26.14-5.55-5.98-13.83-9.01-21.93-8.04 3.7 9.84 4.58 20.44 5.36 30.84.63 7.36-.58 14.75.36 22.1 2.12 19.79 9.32 38.61 11.74 58.35 4.05 23.6 13.76 45.81 17.56 69.46 1.8 11.56 5.57 22.68 8.05 34.1 2.46 10.8 1.62 21.97 2.96 32.91.86 11.91 4.59 23.32 7.53 34.82 4.57 17.68 11.12 34.76 18.22 51.56 8.1 19.28 12.99 39.74 21.19 58.98 6.26 14.64 15.1 28.31 26.69 39.3 2.45 2.33 4.8 4.81 6.59 7.72-4.9-1.28-8.87-4.61-13.11-7.2-18.25-11.86-35.73-25.1-55.38-34.63-22.99-12.06-46.51-23.58-71.64-30.44-13.04-3.17-26.78.62-39.7-3.16-8.71-2.52-14.73-10.41-17.28-18.81-6.22-21.16-18.18-40.01-25.17-60.88-4.32-12.87-6.16-26.91-3.21-40.28-10.36 14.13-21.91 28.41-25.9 45.87-3.96 17.04 3.22 34.54 13.56 47.9 8.2 10.54 19.27 18.32 30.29 25.66 6.93 4.72 14.44 8.67 22.49 11.12 20.28 6.19 42.05 4.62 62.26 11.21 20.96 7.05 41.05 16.58 60.09 27.82 27.93 16.55 54.12 35.86 82.14 52.27 24.7 14.59 50.05 28.36 72.62 46.2 20.98 16.21 38.74 36.13 54.79 57.13 16.41 21.18 31.79 43.27 50.24 62.77 10.38 10.98 21.43 21.38 33.59 30.37 27.91 21 63.04 30.31 89.41 53.59 9.61 8.15 16.72 18.63 25.07 27.96 4.85 5.59 9.2 11.87 11.05 19.14 1.68 6.23 1.77 13.22-1.33 19.05-3.68 7.2-10.71 11.99-17.98 15.07-12.3 5.18-25.77 6.87-39.02 7.18-15.37.22-30.87-1.63-45.49-6.49-9.76-2.94-19.49-7.1-26.69-14.53-4.62-4.09-7.47-9.91-8.1-16-1.34-10.56 1.8-21.4-1.16-31.79-1.78-6.65-6.9-11.81-12.68-15.22-6.15-3.57-13.16-5.13-19.89-7.19-10.78-3.06-20.1-9.51-29.41-15.5-32.56-22-56.02-54.3-86.31-78.98-34.54-28.05-70.13-54.91-107.91-78.48 13.11 12.1 25.57 24.89 38.9 36.76 12.27 11 27.81 17.25 41.01 26.94 6.62 4.93 12.53 11.35 15.07 19.36 2.41 7 2.15 14.63.39 21.76-2.54 10.15-2.07 20.69-1.78 31.06.3 11.44 1.98 22.78 3.06 34.16.72 7.77 4.96 14.58 6.88 22.04.69 2.9 1.04 6.34-.8 8.93-2.82 3.52-7.77 4.91-12.07 3.72-5.79-1.57-10.71-5.19-16.11-7.65-10.09-4.77-16.38-14.34-24.23-21.83-13.21-12.57-30.43-20.51-41.94-34.93-5.44-7.09-10.78-14.33-14.85-22.29-4.63-9.01-6.64-19.07-7.78-29.05-.77-9.48.46-19.86 6.58-27.51 2.49-3.23 5.18-6.41 6.64-10.27 3.36-9.19 2.85-19.43-.18-28.63-3.04-8.81-6.49-17.86-13.24-24.55-4.59-4.46-8.77-9.29-12.7-14.3-13.34-8.17-27.2-15.5-40.83-23.18-36.61-20.6-74.28-39.28-112.7-56.28-40.96-18.2-82.48-35.14-123.35-53.53-6.63-2.96-13.18-6.2-20.26-7.95-11.9-3.35-24.66-4.22-35.74-10.11-7.16-3.79-12.46-10.4-15.43-17.86-4.49-10.36-4.14-21.9-3.61-32.93.44-7.53 2.69-14.89 6.27-21.5 6.2-11.67 15.51-21.24 22.56-32.33 3.65-5.67 6.58-11.78 8.89-18.1 7.63-19.44 14.91-39.23 17.96-59.99 1.73-10.95 2.29-22.03 3.62-33.03 1.31-12.93 2.37-26.17-.57-38.96-3.31-14.91-11.64-29.03-24.4-37.72-15.3-10.54-33.69-15.47-48.9-26.2-31.7-22.36-67.01-38.69-101.32-56.5-19.68-10.38-39.17-21.41-56.57-35.37-14.67-11.7-27.76-25.49-38.1-41.18-9.4-14.09-16.24-29.68-22.3-45.44-7.14-18.79-12.36-38.37-14.73-58.35-3.03-24.64-1.68-49.61 1.82-74.12 2-14.91 6.77-29.23 11.42-43.46-7.92 15.68-9.42 34.13-19.38 48.91-9.19 13.5-22.87 23.26-37.14 30.82-10.19 5.31-20.61 10.15-30.74 15.59.09 5.67 1 11.32.68 17-.65 11.49-3.73 22.64-5.33 34.01-1.9 12.56-.62 25.31.57 37.88 1.84 17.63 7.38 35.18 18.19 49.41 5.26 7.35 12.05 13.7 20.16 17.79 14.38 7.2 31.1 10.54 42.97 22.09 9.04 8.29 17.67 17.03 25.88 26.15 2.84 3.44 6.32 6.62 7.75 10.98-6.43-1.55-11.01-6.74-15.59-11.16-7.1-7.25-16.74-11.4-26.46-13.8-9.31-2.27-18.89-3.51-27.97-6.67-10.17-3.63-20.76-6.48-30.06-12.11-10.42-6.34-17.58-16.71-27.88-23.19-5.82-3.75-12.7-5.14-18.99-7.84-5.96-2.27-12.16-4.97-18.68-4.31-6.93.7-12.5 7.87-11.04 14.79 1.58 8.12 6.89 14.93 8.67 23.02 2.43 11.47 6.21 22.6 9.31 33.9 2.17 7.77 3.65 15.71 5.45 23.58 3.13 14.02 6.35 28.13 6.94 42.55.55 10.98-.69 21.94-1.86 32.85-1.83 16.47-4.78 33.17-12.3 48.1-4.82 9.63-11.62 18.2-19.66 25.35-7.26 6.22-16.36 9.68-25.25 12.88-14.26 4.79-29 8.08-43.83 10.57 4.05-4.45 10.22-4.22 15.59-5.66 9.6-1.99 18.6-6.07 27.21-10.66 13.62-7.43 24.94-19.44 30.54-34.01 4.44-11.6 6.34-23.94 9.01-36.01 4.49-22.04 3.16-44.96-2.38-66.67-5.61-19.63-22.34-34.35-25.51-54.89-2.16-9.1 1.9-18.36-.37-27.42-.35-1.76-1.25-3.27-2.36-4.6-2.74 3.48-3.44 7.96-4.41 12.17-2.49 12.55-4.1 25.26-5.52 37.98-1.2 10.96-.2 22 1.25 32.89 1.82 13 2.07 26.16 4.01 39.16 4.3 30-2.84 60.86-17.04 87.39-6.2 10.8-15.44 19.52-25.41 26.82-6.4 1.65-12.91 2.87-19.41 4.07-2.59.49-5.29.78-7.65 2.04 7.48-.02 14.82-1.6 22.23-2.42-15.13 10.87-31.32 22.49-38.66 40.33-8.86 22.82-16.66 47.03-14.8 71.84-4.86-8.62-9.35-17.64-11.41-27.38-1.35-6.32-2.3-12.75-2.48-19.22-5.56 11.29-10.96 22.68-15.79 34.31-6.6 16.13-8.54 34.14-18.12 49.02-8.51 12.77-18.24 25.18-31.1 33.84-8.95 6.13-19.17 10.01-29.32 13.67-9.46 3.25-19.44 5.76-29.52 5.13-9.89-.63-19.67-4.58-26.81-11.53-6.54-6.28-12.13-13.49-17.14-21.03-2.21-3.72-4.95-7.36-5.66-11.72.42-.14 1.25-.41 1.67-.54 6.74 3.16 10.06 10.19 15.46 14.92 13.89 11.04 32.97 15.48 50.22 10.9 11.63-3.05 22.8-9.12 30.46-18.56 7.31-8.91 11.4-19.86 15.56-30.46 2.1-5.33 5.79-9.93 7.37-15.47 1.1-3.54-.06-7.73-3.05-9.97-1.61-1.2-3.72-.37-4.93 1-6 6.4-8.85 15.45-16.06 20.78-11.09 6.35-24.45 8.47-37.02 6.3-10.03-1.75-20.03-4.78-28.62-10.38-12.44-8.57-22.87-20.59-28.12-34.88-4.01-10.93-7.65-22.12-9.01-33.73-1.52-12.68-.47-25.48.76-38.14 1.32-10.82.73-22.05 4.62-32.4 4.98-12.8 13.43-24.73 25.44-31.79 6.79-4.13 14.45-6.42 21.91-9 6.04-2.1 13.45-2.04 18.43 2.45-.87 1.49-2.09 2.75-3.71 3.43-9.65 4.7-20.57 7.07-29.12 13.87-5.91 4.86-7.26 13.2-6.82 20.44 1.29 14.23 9.22 27.22 19.55 36.8 7.35 6.7 16.49 12.16 26.6 12.83 9.62.74 19.2-4.4 24.41-12.41 5.21-7.89 7.21-17.27 9.98-26.16 2.33-8.19 6.24-15.8 8.9-23.88 7.38-21.2 9.15-43.83 9.21-66.13.03-26.11-.76-52.45 4.08-78.24 4.98-25.99 7.83-52.38 14.06-78.12 3.97-16.6 9.66-32.8 16.93-48.24 9.4-20.01 19.36-39.89 32.18-57.95 11.36-16.28 25.15-30.81 40.56-43.3 11.22-9.43 23.68-17.53 37.44-22.71 22.52-8.85 46.81-11.04 70.3-16.09 1.28-.5 3.03-.31 3.99-1.38 8.25-13.59 18.86-25.68 30.54-36.43 9.25-8.4 19.88-15.04 30.13-22.11 13.31-9.16 26.49-18.69 41.14-25.63 8.79-4.19 15.65-11.45 24.37-15.74 2.07-1.1 5.7-1.71 6.55 1.19 1.81 4.66-1.02 9.23-3.45 13.04-3.28 5.39-4.98 11.53-7.62 17.23 2.34-1.98 5.76-3.12 6.9-6.19 7.33-18.46 15.69-36.52 24.74-54.2.74-1.58 1.92-2.87 3.18-4.05 16.16-15.81 32.35-31.68 50.07-45.76 14.12-11.39 28.87-22.02 44.25-31.64 19.24-12.17 39.36-22.84 59.34-33.71 11.95-6.45 37.25-18.63 43.85-22.13 2.22-1.06 9.54-4.08 9.54-4.08 22.39-8.92 45.81-15.13 69.52-19.37 26.04-4.72 52.66-5.63 79.05-4.07 21.46 1.32 42.98 3.14 64.02 7.76 23.94 5.13 47.22 12.87 71.02 18.63 39.84 9.67 79.1 21.6 118.96 31.25 24.9 6.18 49.08 14.88 73.92 21.28 20.55 5.32 41.73 8.37 62.99 8.47 25.53.57 50.84-3.38 76.08-6.69 22.62-3.14 44.38-10.63 67.05-13.5 22.02-3.03 44.42-1.74 66.3 1.8 23.34 3.73 46.63 8.59 70.35 9.09 1.99-8.9 5.48-17.38 9.07-25.73 1.61-2.94 2.71-6.79 6.16-8.07 2.14 3.97 1.46 8.7-.59 12.56-3.61 6.59-3.94 14.22-5.22 21.47 12.77.49 25.55 1.01 38.33 1.32-1.94-6.85-5.62-13.1-7.01-20.11-2.02-10.59-.91-21.5 1.57-31.92 1.38-5.08.65-10.5 2.32-15.5.77-2.49 3.46-5.08 6.22-4.09.57 1.15.13 2.49-.1 3.7-1.48 5.65-4.28 11.02-4.6 16.94.32 9.75 4.24 19.16 10.3 26.75 4.87 6.03 10.22 11.73 16.22 16.65 4.72 3.66 10.3 7.36 16.59 6.6 7.1.02 13.67-3.6 18.75-8.33 3.55-3.38 5.57-9.56 2.36-13.78-6.1-4.39-15.42-.25-20.79-6.24-6.19-8.49-6.86-20.52-2.55-29.98 2.39-5.57 2.88-11.68 3.81-17.6 1.46-9.89-3.6-20.31-12.21-25.36-6.53-3.9-14.73-6.8-22.15-3.66-4.4 1.52-6.43 7.28-11.45 7.24 3-6.18 8.21-10.94 13.21-15.52 5.14-4.68 12.2-7.01 19.12-6.4 7.85.61 15.26 3.5 22.66 5.96 4.99 1.6 8.71 6.28 14.19 6.47 3.78.12 7.86.22 11.29-1.67 3.79-2.39 4.99-7.57 3.32-11.6-2.13-5.12-4.71-10.4-9.24-13.81-3.96-3.03-7.63-6.47-11.93-9.01-7.66-4.42-13.46-11.44-17.96-18.92-5.48-9.38-4.69-20.67-3.12-30.99.07-1.16.71-2.13 1.32-3.07.48 4.66-.73 9.43.75 13.99 1.88 7.93 7.85 14.12 14.62 18.28 4.96 3 10.01 6.64 15.99 7.04 5.22.63 9.64-5.43 7.49-10.21-2.41-5.72-7.8-9.9-9.01-16.2-1.49-7.21-3.7-14.31-4.22-21.67-.11-1.28.01-4.68 2.09-3.32 4.68 2.43 4.36 8.41 6.45 12.6 4.25 8.34 11.79 14.16 18.43 20.49 5.27 4.97 9.85 11.2 16.9 13.78 3.89 1.25 7.82 2.63 11.93 3.02 4.46.36 9.75-2.78 9.81-7.65-.17-5.42-3.51-9.99-6.05-14.56-2.62-4.23-4.25-8.98-6.89-13.19-1.74-2.82-3.45-5.73-4.22-8.98-1.98-7.5 3.44-15.32-.25-22.58-2.94-7.3-10.69-11.23-18.15-12.03-7.74-.87-15.66-.73-23.32.64-6.43 1.36-12.28 4.54-17.73 8.09-3.79 2.46-6.59 6.57-11.2 7.6 2.17-5.88 7.04-10.17 11.02-14.82 6.13-6.72 12.95-13.22 21.56-16.58 13.4-5.55 28.23-4.07 42.36-3.59 12.7.32 25.59 1.21 37.67 5.46 6.59 2.4 13.25 5.01 18.88 9.29 8.04 5.87 14.94 13.32 23.88 17.92 7.88 3.96 14.76 10.35 23.71 11.83 6 .72 12-.87 17.66-2.75 5.81-2.14 11.81-5.35 14.8-11.05 2.53-4.93 2.07-12.07-2.75-15.45-6.1-4.19-14.25-4.17-19.98-9.02-12.29-11.01-20.02-26.04-25.73-41.28a83.106 83.106 0 01-4.5-37.48c.83-10.72 5.45-20.58 9.11-30.55-.83 6.62-2 13.41-.07 19.98 2.48 9.57 8.67 18.38 17.22 23.44 10.22 5.16 21.49.02 32.03-1.14 8.83-1.51 17.53 1.06 26.1 2.87 6.31 1.43 13.52 1.04 18.73-3.2 8.88-6.57 12.38-18.14 12.08-28.79.07-4.49-2.08-8.56-3.15-12.81-1.2-3.98-1.58-8.16-2.89-12.1-3.15-7.34-9.67-13.03-17.27-15.38-13.81-4.4-28.58-2.63-42.66-5.49-25.39-5.15-51.29-.82-76.89-1.13-1.31.02-1.92-.54-1.81-1.68 4.44-3.42 10.09-4.59 14.97-7.23 8.48-4.59 17.47-8.34 26.92-10.35 18.38-4.18 37.36-2.69 56.02-1.96 14.42.57 28.9.71 43.24 2.53 1.74-10.06 3.96-20.15 3.55-30.43-.25-8.81.04-17.98 4.13-26 5.05-11.24 14.4-19.55 22.71-28.33 11.13-11.5 21.61-23.68 33.59-34.33 2.39-2.12 4.95-4.21 8.17-4.9.9 4.35-1.66 8.5-4.27 11.78-4.69 5.6-11.27 9.71-14.42 16.52-3.36 7.36-4.93 15.93-3.49 23.87 9.75 4.25 19.24 9.09 28.52 14.3-1.24-3.88.62-7.64 1.82-11.26 1.19-3.55 2.13-7.37 4.8-10.16 4.67-5.06 11.45-7.45 17.99-9.01 15.33-3.37 31.12-3.4 46.7-4.62 7.66-.5 15.27-1.94 22.97-1.5 12.02.37 24.45 2.92 36.17-1.06 7.73-2.81 15.69-5.64 22.22-10.82 4.69-3.8 8.06-10.14 6.23-16.24-2.11-6.58-8.21-10.68-13.9-13.97-7.1-3.7-14.63-7.13-22.72-7.65-10.2-.73-20.84.52-30.58-3.27-1.26-.03-2.08-2.19-.54-2.46 5.33-2.3 11.26-2.58 16.97-3.3m-86.98 85.58c-3.35 1.1-6.68 2.75-8.54 5.88-1.95 3.32-5.24 7.01-9.52 5.37 11.17 4.68 23.02 8.42 32.7 15.96 8.48 6.26 16.44 13.47 22.07 22.48 2.75-2.38 5.4-4.92 7.34-8.04 3.74-5.57 7.97-11.7 7.23-18.77-1.18-9.26-7.37-17.61-15.69-21.75-10.98-5.49-24.25-5.61-35.59-1.13m-49.27 2.76c1.81 11.99 1.82 24.15 3.23 36.18 1.11 9.69 3.86 19.19 8.28 27.9 3.86 7.82 4.79 17.89 12.87 22.88 5.01-8.77 7.86-18.46 11.09-27.97 2.85-9.01 1.73-19.14-2.86-27.38-2.88-5.42-7.12-9.93-11.36-14.29-6.68-6.23-12.77-13.44-21.25-17.32M318.79 1262.74c-11.25 14.78-16.62 32.82-22.52 50.16-3.26 9.8-5.45 19.92-7.04 30.12 9.95-19.18 24.79-35.16 37.04-52.83 11.49-16.14 20.86-34.14 25.03-53.63-12.91 5.67-24.32 14.67-32.51 26.18m683.03 180.86c-.86 12.23-.8 24.51-1.48 36.76 4.36-7.68 1.76-16.82 4.37-24.91 3.05-5.73.1-12.5 2.26-18.42.71-1.83 2.68-.58 3.99-.33-1.23-.94-3.04-1.55-3.37-3.22-.97-4.64 1.66-8.93 4.14-12.62-7.57 4.86-9.16 14.47-9.91 22.74m-57.09 172.1c7.93-7.42 13.93-16.61 18.8-26.25 8.75-16.55 13.83-34.67 20.86-51.95 3.85-9.24 6.21-19.06 7.3-29-13.46 36.66-31.48 71.39-46.96 107.2zM610.87 403.74c4.57 7.51 8.06 15.64 12.31 23.35 9.62-3.64 19.08-7.71 28.81-11.04-9.2 4.61-18.31 9.38-27.46 14.07 3.28 8.7 6.89 17.29 9.99 26.06-4.9-7.92-8.59-16.53-13.07-24.69-8.62 3.09-16.92 7.2-25.77 9.54 8.06-4.28 16.25-8.31 24.35-12.5-2.73-8.38-6.83-16.29-9.16-24.79zM2470.96 407.28c4.12 8.14 7.05 16.87 10.67 25.26 8.96-2.47 17.79-5.47 26.83-7.64-8.37 4.11-17.27 7.06-25.78 10.86 2.57 8.68 5.36 17.32 7.47 26.13-3.96-8.11-7.03-16.65-10.43-25.01-5.69 1.37-11.24 3.19-16.86 4.76-3.18.83-6.27 2.3-9.61 2.15 8.43-3.21 16.77-6.67 25.1-10.13-2.16-8.87-5.27-17.5-7.39-26.38zM1653.73 421.69c-1.81 18.79-5.37 37.4-7.69 56.14 18.08 5.15 35.96 10.99 54.12 15.82-8.16-.09-16.14-2.17-24.23-3-10.59-1.56-21.18-3.08-31.76-4.61-5.13 17.62-10.61 35.14-15.59 52.81l-.48-.05c2.45-18.23 5.28-36.4 7.79-54.61-18.04-5.23-35.95-10.86-54.04-15.9 8.32.36 16.52 2.15 24.78 3.18 10.36 1.51 20.72 2.97 31.08 4.5 5.33-18.09 10.96-36.11 16.02-54.28zM716.54 463.42c6.71-6.08 12.99-12.62 19.83-18.55-5.13 7.09-10.71 13.86-16.16 20.71 7.2 5.73 14.82 10.93 22.08 16.58-8.46-4.15-16.57-8.97-24.93-13.33-6.61 6.11-12.92 12.56-19.67 18.53 5.08-7.12 10.66-13.87 16.1-20.72-6.81-5.46-14.12-10.27-20.92-15.73 8.15 3.62 15.78 8.34 23.67 12.51zM2526.8 488.16c2.19-14.17 4.63-28.32 6.87-42.48.19 14.36-1.25 28.71-1.64 43.06 13.46-1.96 26.86-4.37 40.37-5.99-12.8 4.52-26.25 7.32-39.31 11.13 6.27 12.62 12.76 25.13 18.91 37.81-8.35-11.29-15.55-23.44-23.43-35.08-10.27 9.58-19.72 20.06-30.25 29.33 8.54-11.14 17.54-21.91 26.25-32.92-12.27-6.38-24.6-12.64-36.86-19.03 3.79.43 7.22 2.28 10.81 3.51 9.4 3.61 18.83 7.15 28.28 10.66z"/><path d="M1755.71 449.69c.32 3.01-.67 5.92-1.3 8.82-3.78 16.85-7.6 33.68-11.41 50.52 21.1.56 42.22.99 63.33 1.45-20.97 2.45-42.05 3.93-63.05 6.06 5.81 19.95 12.23 39.74 17.68 59.78-8.42-19-16.43-38.19-24.71-57.25-16.9 11.58-33.59 23.49-50.63 34.85 15.02-13.93 30.74-27.13 46.07-40.73-16.3-12.46-32.74-24.76-48.93-37.35 7.15 3.38 13.67 7.97 20.57 11.84 10.84 6.44 21.65 12.94 32.52 19.33 6.54-19.14 13.58-38.1 19.86-57.32zM2370.09 472.02c11.67-6.38 23.28-12.89 35.02-19.14-.21 4.7-3.52 8.47-5.78 12.39-7.59 11.49-15.91 22.62-25.79 32.25-3.98 4.24-9.7 5.81-14.73 8.33-18.91 8.77-37.86 17.42-56.74 26.21-1.51.61-3.23 1.44-4.75.51-.62-3.05 1.51-5.71 2.96-8.2 6.75-9.75 15.5-17.92 24.49-25.58 6.01-5.36 13.03-9.3 20.17-12.94 8.06-5.19 16.87-9.02 25.15-13.83zM2681.36 476.74c6.98-5.32 13.53-11.25 20.82-16.15-5.58 6.47-11.77 12.4-17.4 18.82 6.55 5.96 13.51 11.51 19.69 17.86-7.67-4.93-15.18-10.11-22.84-15.05-7.03 5.24-13.47 11.29-20.81 16.05 5.68-6.36 11.75-12.37 17.38-18.78-6.19-5.63-12.85-10.8-18.6-16.87 7.51 4.28 14.44 9.5 21.76 14.12zM1462.88 488.71c3.24-8.36 6.35-16.79 9.95-24.99-1.62 8.58-3.86 17.03-5.83 25.54 8.71 1.96 17.5 3.62 26.25 5.4-9.18.21-18.35-.91-27.51-1.33-3.29 8.04-6.08 16.32-9.73 24.21 1.33-8.36 3.76-16.49 5.52-24.76-9.19-1.75-18.28-4.02-27.55-5.33 9.65-.36 19.26 1.06 28.9 1.26zM1136.68 472.68c.33 3.84-.53 7.64-.99 11.43-2.22 16.61-4.58 33.2-6.7 49.82 15.34-1.07 30.69-2.01 46.04-3.02 5.45-.28 10.91-1.02 16.38-.51-20.59 3.2-41.03 7.29-61.54 10.92 4.57 11.68 9.29 23.3 13.88 34.98 2.64 7.37 6.33 14.41 8.31 21.99-9.71-17.91-19.33-35.87-28.96-53.82-15.88 12.92-31.38 26.33-47.37 39.1 13.66-15.21 28.22-29.65 42.26-44.53-16.21-10.34-32.49-20.57-48.75-30.83l-2.83-2.22c18.53 8.55 36.73 17.82 55.25 26.38 4.92-19.92 10.33-39.72 15.02-59.69zM669.49 475.72c.75 14.6 1.16 29.24 1.8 43.85 10.23-2.45 20.43-5.01 30.66-7.46 3.43-.76 6.79-2.02 10.35-1.97-13.19 4.67-26.25 9.74-39.44 14.43 7.58 12.61 15.51 25.01 23.12 37.6-9.43-11.25-18.26-23-27.45-34.45-9.38 10.73-18.36 21.82-27.8 32.49 7.33-12.21 15.85-23.7 23.45-35.76-13.14-5.55-26.57-10.48-39.5-16.49 13.84 3.63 27.54 7.78 41.36 11.52 1.11-14.59 1.93-29.21 3.45-43.76zM1362.71 495.34c6.27-6.3 12.08-13.09 18.64-19.08-4.91 7.39-10.7 14.18-16.15 21.18 6.78 6.85 14.21 13.06 20.64 20.24-7.56-5.86-15.17-11.64-22.63-17.61-6.82 6.47-12.75 13.85-19.77 20.09 5.45-7.61 11.46-14.81 17.09-22.29-6.55-6.47-13.55-12.52-19.77-19.28 7.56 5.23 14.59 11.22 21.95 16.75zM880.6 525.74c12.49-13.98 24.71-28.23 37.46-41.96-10.09 15.83-20.64 31.37-30.72 47.21 14 12.29 28.02 24.59 41.76 37.16-15.84-9.87-31.23-20.47-46.96-30.53-12.31 13.68-24.23 27.74-36.79 41.19 9.68-15.64 20.03-30.89 30.13-46.27-13.81-12.55-28.14-24.56-41.71-37.37 15.7 10.05 31.19 20.43 46.83 30.57zM1572.34 531.95c.65-7.03.62-14.13 1.73-21.1 1.37 15.66 2.23 31.36 3.38 47.04.72 6.54.37 13.25 1.77 19.69 19.81-9.95 39.76-19.65 59.76-29.22-17.99 13.03-36.95 24.74-55.05 37.61 18.51 12.99 37.56 25.23 56.17 38.1-20.56-9.61-40.8-19.91-61.27-29.7-1.72 22.29-2.82 44.64-4.85 66.9-1.89-22.29-3.17-44.63-4.77-66.94-20.24 9.72-40.29 19.86-60.6 29.43 18.26-12.92 37.15-24.97 55.51-37.73-18.19-12.96-37.2-24.81-55.39-37.77 20.29 9.5 40.29 19.65 60.48 29.37.96-15.23 2.11-30.45 3.13-45.68zM2416.86 576.98c6.63-19.13 13.42-38.21 20.02-57.36.01 4.22-1.44 8.23-2.24 12.33-3.52 15.7-7.1 31.39-10.63 47.09 21.37.47 42.74 1.14 64.11 1.34-21.23 2.5-42.56 4.07-63.84 6.11 4.36 14.72 8.8 29.41 13.2 44.11 1.33 5.21 3.54 10.21 4.28 15.56-8.13-19.06-16.32-38.08-24.55-57.09-16.76 11.56-33.41 23.29-50.26 34.71 6.57-6.75 14.03-12.6 21.02-18.93 8.2-7.25 16.47-14.41 24.67-21.67-16.13-12.53-32.73-24.49-48.56-37.37 17.73 10.13 35.13 20.88 52.78 31.17zM1425.72 521.2c7.07 12.23 13.07 25.11 19.69 37.61 11.16-8.7 21.98-17.83 33.24-26.4-9.43 10.47-19.76 20.13-29.61 30.22 11.61 8.2 23.89 15.44 35.47 23.68-12.93-5.9-25.39-12.78-38.21-18.9-4 14.55-7.88 29.13-12.02 43.64 2.24-14.92 4.54-29.84 6.91-44.75-13.89.52-27.76 1.37-41.65 1.89 2.62 7.72 6.49 15.05 8.41 22.98-4.19-8.44-8.59-16.77-12.88-25.15-8.86 3.35-17.56 7.16-26.54 10.16 8.19-4.77 16.86-8.69 25.19-13.22-2.42-6.14-4.78-12.29-7.17-18.43-.95-2.51-2.21-4.96-2.39-7.67 4.11 8.3 8.35 16.54 12.62 24.76 8.7-3.34 17.33-6.88 26.11-10.04-7.9 4.84-16.42 8.63-24.61 12.97.25 1.02.51 2.05.8 3.1 13.88-1.96 27.68-4.48 41.53-6.66-4.93-13.28-10.18-26.44-14.89-39.79zM775.49 588.89c10.81-19.68 21.9-39.21 32.5-59.01-.27 1.42-.57 2.83-1.08 4.19-7.62 19.6-15.06 39.26-22.7 58.86 20.64-.28 41.29-.71 61.93-1.1 1.37-.07 2.73.06 4.08.4-21.69 3.6-43.44 6.85-65.15 10.36 11.47 19.22 23.25 38.27 34.52 57.6-14.46-17.08-28.24-34.75-42.39-52.1-10.84 19.3-21.29 38.82-32.3 58.01 2.4-8.27 6.07-16.14 8.98-24.24 4.85-12.6 9.77-25.17 14.46-37.82-21.94.22-43.89 1.12-65.82.94 21.53-4.02 43.28-7.02 64.93-10.47-10.96-19.16-22.84-37.8-33.92-56.89 2.23 1.76 3.81 4.16 5.6 6.33 12.14 14.97 24.23 29.97 36.36 44.94z"/><path d="M921.62 544.65c11.84 16.67 23.12 33.75 34.69 50.61 14.7-14.56 28.77-29.77 43.55-44.24-12.33 16.61-25.32 32.75-37.84 49.23 18.3 9.19 36.89 17.84 54.97 27.44-19.4-6.55-38.58-13.78-57.89-20.59-2.84 20.03-6.07 40.01-8.61 60.09-.87-3.7-.44-7.5-.34-11.24.53-16.51.98-33.01 1.51-49.51-15.57 2.67-31.15 5.32-46.72 7.98-5.05.7-10.01 2.06-15.11 2.27 20.06-5.81 40.11-11.63 60.13-17.56-9.4-18.19-19.29-36.13-28.34-54.48zM1280.53 546.72c.22 14.92 1.15 29.81 1.58 44.73 14.36-3.3 28.59-7.23 43-10.26-13.75 5.18-27.55 10.22-41.35 15.27 7.09 12.25 15.12 23.95 22.04 36.3-9.08-10.83-17.62-22.12-26.42-33.18-9.43 10.68-18.19 21.98-27.91 32.39 7.68-12.01 15.86-23.68 23.6-35.64-13.1-5.45-26.4-10.48-39.3-16.33 13.76 3.46 27.36 7.63 41.05 11.4 1.34-14.88 1.88-29.85 3.71-44.68zM1138.75 624.73c4.95-5.28 9.34-11.11 14.64-16.04-9.78 15.55-20.09 30.78-30.1 46.2 13.97 12.42 28.09 24.71 41.9 37.3-15.88-9.85-31.29-20.5-47.04-30.57-12.36 13.78-24.4 27.88-37.03 41.4 9.9-15.63 20.18-31.03 30.34-46.51-13.78-12.53-28.06-24.52-41.64-37.26 15.72 9.97 31.17 20.37 46.79 30.48 7.38-8.33 14.76-16.66 22.14-25zM449.94 609.77c4.76 8.25 8.69 16.97 13.27 25.33 8.96-3.47 17.83-7.18 26.9-10.35-8.34 4.78-17.09 8.85-25.58 13.38 3.29 8.68 6.88 17.26 9.98 26.01-4.92-7.9-8.57-16.52-13.08-24.66-9.22 3.51-18.31 7.41-27.66 10.56 8.67-4.65 17.51-8.99 26.25-13.5-3.04-9.04-7.18-17.69-10.08-26.77zM1712.89 611.74c3.98 8.44 7.09 17.26 10.76 25.84 8.89-2.42 17.6-5.77 26.67-7.36-8.5 3.58-17.11 6.89-25.6 10.5 2.71 9.5 5.72 18.93 8.2 28.5-4.01-9-7.51-18.24-11.27-27.35-8.8 2.06-17.26 5.5-26.14 7.12 8.15-3.73 16.59-6.9 24.91-10.26-2.28-9.06-5.47-17.88-7.53-26.99zM1477.71 683.98c5.38-18.08 10.84-36.13 16.09-54.24-1.97 18.77-5.41 37.38-7.74 56.12 18.08 5.08 35.93 10.99 54.1 15.77-8.18-.06-16.18-2.16-24.29-2.99-10.57-1.55-21.14-3.08-31.7-4.6-5.38 17.82-10.41 35.75-16.07 53.47 2.24-18.48 5.31-36.86 7.79-55.32-18.05-5.22-35.98-10.89-54.08-15.9 9.09.44 18.06 2.37 27.09 3.52 9.6 1.37 19.21 2.74 28.81 4.17zM556.51 671.42c6.69-6.04 12.98-12.52 19.73-18.5-4.96 7.2-10.74 13.81-16.03 20.78 6.92 5.41 14.35 10.18 20.98 15.95-8.03-4.12-15.85-8.62-23.83-12.82-6.62 6.11-12.92 12.57-19.68 18.52 5.05-7.18 10.82-13.82 16.07-20.85-6.92-5.26-14.07-10.21-20.89-15.6 8.14 3.62 15.78 8.33 23.65 12.52zM1302.8 696.76c3.39-8.36 6.39-16.88 10.07-25.11-1.67 8.6-3.9 17.09-5.86 25.63 8.72 1.91 17.49 3.61 26.24 5.39-9.18.19-18.35-.92-27.51-1.35-3.37 8.31-6.3 16.82-10.02 24.98 1.65-8.57 3.91-17.01 5.81-25.52-8.92-1.8-17.81-3.7-26.74-5.39 9.35-.15 18.67 1.02 28.01 1.37zM267.06 685.03c1.67-2.78 2.92-5.83 5.01-8.33-7.74 20.81-15.91 41.48-23.84 62.23 22.23-.17 44.47-1.06 66.7-.96-21.86 3.93-43.9 7.01-65.83 10.61 11.29 19.09 23.06 37.91 34.15 57.11-7.45-8.23-14.06-17.21-21.16-25.75-6.96-8.63-14.01-17.17-20.89-25.86-10.77 19.36-21.44 38.78-32.2 58.15.37-2.99 1.72-5.7 2.76-8.48 6.89-17.89 13.81-35.76 20.62-53.68-20.84.29-41.67.73-62.51 1.11-1.42.02-2.84-.08-4.25-.28 21.97-3.67 44.01-6.87 65.98-10.53-11.52-19.16-23.2-38.23-34.5-57.51 14.51 17.02 28.19 34.78 42.42 52.06 9.12-16.67 18.4-33.24 27.54-49.89zM891.61 677.73c-.38 10.24-.97 20.47-1.46 30.71 9.1 1.42 18.2 2.9 27.33 4.12-9.19.81-18.44-.61-27.65-.79-1.54 9.93-3.05 19.86-4.55 29.8-.04-10.05.87-20.07 1.23-30.1-8.78-1.31-17.52-2.88-26.34-3.85l-.01-.46c8.89-.22 17.77.65 26.65 1.01 1.68-10.13 2.99-20.33 4.8-30.44zM506.02 727.5c1.2-14.63 1.83-29.33 3.57-43.91.51 14.66 1.13 29.32 1.7 43.98 10.25-2.46 20.47-5.02 30.73-7.47 3.38-.74 6.71-2.07 10.24-1.87-13.23 4.49-26.19 9.73-39.38 14.31 7.13 12.2 15.05 23.93 22.04 36.21-9.2-10.7-17.48-22.18-26.53-33.03-9.13 10.78-18.14 21.68-27.52 32.24 7.33-12.11 15.78-23.53 23.29-35.53-13.12-5.46-26.43-10.52-39.38-16.35 13.83 3.44 27.48 7.69 41.24 11.42z"/><path d="M385.83 690.82c11.71 16.68 22.96 33.69 34.52 50.48 14.64-14.72 28.84-29.88 43.66-44.41-12.41 16.64-25.44 32.82-37.97 49.37 16.95 8.3 33.82 16.75 50.77 25.04 1.5.72 2.95 1.55 4.33 2.51-19.41-6.69-38.66-13.85-58.02-20.68-2.93 19.77-5.86 39.54-8.63 59.34-.41-1.45-.63-2.96-.54-4.45.6-18.53 1.14-37.06 1.7-55.58-19.41 3.19-38.75 6.92-58.21 9.71 2.14-1.51 4.82-1.8 7.25-2.6 16.41-4.77 32.8-9.61 49.22-14.33-8.71-17-17.71-33.84-26.57-50.76-.61-1.17-1.1-2.41-1.51-3.64zM740.85 737.36c1.37-14.62 1.67-29.37 3.72-43.9.21 14.69 1.07 29.35 1.57 44.03 13.55-3.13 26.95-7.03 40.62-9.58-12.82 5.18-25.94 9.68-38.9 14.53 6.85 12.17 14.84 23.68 21.69 35.86-9.07-10.52-17.38-21.7-26.01-32.59-9.8 10.34-18.23 21.93-28.04 32.25 7.65-12 15.79-23.7 23.61-35.6-13.27-5.49-26.67-10.7-39.82-16.44 13.96 3.39 27.67 7.75 41.56 11.44zM1230.64 696.67l1.52-2.2c-7.78 20.9-15.99 41.64-23.92 62.47 19.6-.29 39.21-.68 58.82-1.05 2.08.02 4.29-.37 6.29.47-21.4 3.59-42.89 6.72-64.3 10.27a8638.41 8638.41 0 0134.7 57.68c-14.61-17.03-28.3-34.88-42.61-52.18-10.6 19.37-21.48 38.6-32 58.02.15-2.51 1.28-4.79 2.14-7.1 7.03-18.34 14.12-36.66 21.14-55-21.45.35-42.9.76-64.35 1.16l-.07-.76c21.2-3.37 42.42-6.62 63.61-10.08-11.59-19.21-23.26-38.38-34.68-57.69 10.96 12.57 20.99 25.95 31.7 38.74 3.56 4.5 7.27 8.88 10.71 13.47 10.67-18.6 20.78-37.53 31.3-56.22zM1412.33 739.99c.67-7.03.62-14.15 1.75-21.12 1.81 22.2 3.13 44.45 4.73 66.67 20.06-9.5 39.82-19.64 59.93-29.03-7.02 5.5-14.74 10.06-22.04 15.19-10.57 7.14-21.17 14.26-31.77 21.36-1.71.5-.1 1.85.66 2.22 18.14 12.29 36.4 24.41 54.5 36.76-20.57-9.57-40.8-19.88-61.26-29.69-1.68 22.27-2.9 44.57-4.78 66.82-2.12-22.25-3.1-44.63-4.93-66.92-20.09 9.92-40.18 19.87-60.44 29.46 18.32-12.89 37.14-25.09 55.64-37.72-15.92-10.85-31.94-21.55-47.91-32.32-2.46-1.69-5.08-3.17-7.27-5.2 20.16 9.41 40.02 19.5 60.07 29.16.96-15.22 2.11-30.42 3.12-45.64zM1552.91 820.09c4.15 8.23 7.06 17.04 10.74 25.49 6.05-1.88 12.16-3.59 18.25-5.38 2.91-.82 5.79-1.95 8.87-2.01-8.75 3.36-17.41 6.93-26.05 10.54 2.75 9.54 5.73 19.04 8.27 28.65-4.03-9.05-7.57-18.32-11.31-27.49-9.1 2.24-17.97 5.37-27.07 7.62 8.35-4.15 17.23-7.21 25.83-10.81-2.34-8.92-5.33-17.66-7.53-26.61zM224.45 1767.44c-7.53-10.24-13.03-22.66-13.25-35.49 5.42 10.56 12.11 20.42 18.44 30.45 4.35 7.25 9.98 13.91 12.83 21.95-7.23-4.07-12.84-10.54-18.02-16.91z"/></svg>